<svg width="388" height="56" viewBox="0 0 388 56" fill="none" xmlns="http://www.w3.org/2000/svg">
<rect width="388" height="56" rx="8" fill="#FF0084"/>
<path d="M27.344 38.836C23.96 38.836 21.224 36.172 21.224 30.484C21.224 23.716 24.416 21.004 27.896 21.004C29.888 21.004 31.328 21.844 32.336 22.876L30.824 24.58C30.176 23.812 29.096 23.284 28.04 23.284C25.736 23.284 23.816 25.084 23.816 30.484C23.816 34.732 25.16 36.7 27.296 36.7C28.856 36.7 30.056 35.404 30.056 33.244C30.056 31.132 29.024 29.956 27.152 29.956C26.096 29.956 24.848 30.556 23.768 32.212L23.672 30.172C24.704 28.78 26.312 27.94 27.632 27.94C30.608 27.94 32.624 29.692 32.624 33.244C32.624 36.628 30.2 38.836 27.344 38.836ZM40.5275 38.836C36.9995 38.836 34.8155 35.644 34.8155 29.86C34.8155 24.052 36.9995 21.004 40.5275 21.004C44.0315 21.004 46.2395 24.076 46.2395 29.86C46.2395 35.644 44.0315 38.836 40.5275 38.836ZM40.5275 36.628C42.3275 36.628 43.5755 34.78 43.5755 29.86C43.5755 24.916 42.3275 23.188 40.5275 23.188C38.7275 23.188 37.4555 24.916 37.4555 29.86C37.4555 34.78 38.7275 36.628 40.5275 36.628ZM53.039 38.836C51.215 38.836 49.343 38.068 48.071 37.012L49.367 35.212C50.543 36.124 51.671 36.724 53.111 36.724C54.671 36.724 55.415 35.956 55.415 34.948C55.415 33.772 53.927 33.22 52.511 32.692C50.735 32.02 48.791 31.084 48.791 28.828C48.791 26.62 50.567 24.964 53.519 24.964C55.271 24.964 56.735 25.684 57.791 26.524L56.495 28.228C55.583 27.58 54.647 27.076 53.567 27.076C52.103 27.076 51.431 27.796 51.431 28.708C51.431 29.836 52.703 30.268 54.167 30.796C56.015 31.492 58.031 32.332 58.031 34.804C58.031 37.036 56.279 38.836 53.039 38.836ZM66.4903 38.836C62.8903 38.836 60.0583 36.268 60.0583 31.924C60.0583 27.628 63.0103 24.964 66.0823 24.964C69.5623 24.964 71.4583 27.484 71.4583 31.228C71.4583 31.78 71.4103 32.308 71.3383 32.644H62.7703C62.9863 35.164 64.5703 36.652 66.8503 36.652C68.0263 36.652 69.0103 36.292 69.9943 35.668L70.9543 37.444C69.7303 38.26 68.2183 38.836 66.4903 38.836ZM62.7223 30.724H69.0583C69.0583 28.444 68.0503 27.148 66.1303 27.148C64.4743 27.148 63.0103 28.42 62.7223 30.724ZM74.564 38.5V25.3H77.348V38.5H74.564ZM75.956 22.828C74.924 22.828 74.252 22.18 74.252 21.172C74.252 20.188 74.924 19.54 75.956 19.54C76.964 19.54 77.684 20.188 77.684 21.172C77.684 22.18 76.964 22.828 75.956 22.828ZM85.0781 38.836C83.2541 38.836 81.3821 38.068 80.1101 37.012L81.4061 35.212C82.5821 36.124 83.7101 36.724 85.1501 36.724C86.7101 36.724 87.4541 35.956 87.4541 34.948C87.4541 33.772 85.9661 33.22 84.5501 32.692C82.7741 32.02 80.8301 31.084 80.8301 28.828C80.8301 26.62 82.6061 24.964 85.5581 24.964C87.3101 24.964 88.7741 25.684 89.8301 26.524L88.5341 28.228C87.6221 27.58 86.6861 27.076 85.6061 27.076C84.1421 27.076 83.4701 27.796 83.4701 28.708C83.4701 29.836 84.7421 30.268 86.2061 30.796C88.0541 31.492 90.0701 32.332 90.0701 34.804C90.0701 37.036 88.3181 38.836 85.0781 38.836ZM98.5293 38.836C94.9293 38.836 92.0973 36.268 92.0973 31.924C92.0973 27.628 95.0493 24.964 98.1213 24.964C101.601 24.964 103.497 27.484 103.497 31.228C103.497 31.78 103.449 32.308 103.377 32.644H94.8093C95.0253 35.164 96.6093 36.652 98.8893 36.652C100.065 36.652 101.049 36.292 102.033 35.668L102.993 37.444C101.769 38.26 100.257 38.836 98.5293 38.836ZM94.7613 30.724H101.097C101.097 28.444 100.089 27.148 98.1693 27.148C96.5133 27.148 95.0493 28.42 94.7613 30.724ZM106.603 38.5V25.3H109.387V38.5H106.603ZM107.995 22.828C106.963 22.828 106.291 22.18 106.291 21.172C106.291 20.188 106.963 19.54 107.995 19.54C109.003 19.54 109.723 20.188 109.723 21.172C109.723 22.18 109.003 22.828 107.995 22.828ZM111.765 42.028V40.324H124.605V42.028H111.765ZM129.754 38.836C127.738 38.836 126.994 37.54 126.994 35.404V19.396H129.778V35.548C129.778 36.292 130.09 36.556 130.426 36.556C130.546 36.556 130.642 36.556 130.882 36.508L131.242 38.596C130.882 38.716 130.45 38.836 129.754 38.836ZM139.446 38.836C136.158 38.836 133.23 36.292 133.23 31.924C133.23 27.508 136.158 24.964 139.446 24.964C142.71 24.964 145.662 27.508 145.662 31.924C145.662 36.292 142.71 38.836 139.446 38.836ZM139.446 36.556C141.51 36.556 142.83 34.708 142.83 31.924C142.83 29.116 141.51 27.268 139.446 27.268C137.358 27.268 136.086 29.116 136.086 31.924C136.086 34.708 137.358 36.556 139.446 36.556ZM153.444 44.428C150.276 44.428 147.972 43.252 147.972 40.972C147.972 39.844 148.668 38.812 149.892 38.092V37.972C149.196 37.54 148.692 36.844 148.692 35.764C148.692 34.732 149.412 33.844 150.156 33.316V33.22C149.268 32.548 148.404 31.276 148.404 29.716C148.404 26.716 150.804 24.964 153.516 24.964C154.284 24.964 154.956 25.108 155.46 25.3H160.116V27.388H157.62C158.124 27.916 158.484 28.78 158.484 29.788C158.484 32.692 156.3 34.324 153.516 34.324C152.94 34.324 152.268 34.204 151.668 33.94C151.26 34.3 150.948 34.684 150.948 35.332C150.948 36.1 151.5 36.604 153.156 36.604H155.604C158.724 36.604 160.356 37.564 160.356 39.82C160.356 42.364 157.668 44.428 153.444 44.428ZM153.516 32.548C154.884 32.548 156.012 31.468 156.012 29.716C156.012 27.94 154.908 26.932 153.516 26.932C152.148 26.932 151.044 27.94 151.044 29.716C151.044 31.468 152.172 32.548 153.516 32.548ZM153.852 42.604C156.156 42.604 157.668 41.476 157.668 40.276C157.668 39.172 156.804 38.812 155.196 38.812H153.204C152.58 38.812 152.004 38.764 151.452 38.62C150.66 39.22 150.324 39.892 150.324 40.564C150.324 41.836 151.668 42.604 153.852 42.604ZM167.595 38.836C164.307 38.836 161.379 36.292 161.379 31.924C161.379 27.508 164.307 24.964 167.595 24.964C170.859 24.964 173.811 27.508 173.811 31.924C173.811 36.292 170.859 38.836 167.595 38.836ZM167.595 36.556C169.659 36.556 170.979 34.708 170.979 31.924C170.979 29.116 169.659 27.268 167.595 27.268C165.507 27.268 164.235 29.116 164.235 31.924C164.235 34.708 165.507 36.556 167.595 36.556ZM175.304 42.028V40.324H188.144V42.028H175.304ZM190.773 38.5V20.836H196.557C200.205 20.836 202.941 22.132 202.941 25.972C202.941 29.668 200.205 31.372 196.557 31.372H193.581V38.5H190.773ZM193.581 29.14H196.245C198.789 29.14 200.181 28.084 200.181 25.972C200.181 23.836 198.789 23.092 196.245 23.092H193.581V29.14ZM200.445 38.5L196.029 30.652L198.093 29.02L203.565 38.5H200.445ZM206.523 38.5V20.836H216.987V23.188H209.331V28.084H215.787V30.46H209.331V36.148H217.251V38.5H206.523ZM220.913 38.5V20.836H225.521C230.945 20.836 234.017 23.836 234.017 29.596C234.017 35.356 230.945 38.5 225.665 38.5H220.913ZM223.721 36.22H225.305C229.097 36.22 231.161 33.988 231.161 29.596C231.161 25.204 229.097 23.092 225.305 23.092H223.721V36.22ZM237.695 38.5V20.836H240.911L244.127 29.788C244.559 30.94 244.919 32.14 245.327 33.34H245.423C245.855 32.14 246.191 30.94 246.575 29.788L249.767 20.836H252.983V38.5H250.415V29.788C250.415 28.18 250.631 25.924 250.775 24.316H250.679L249.239 28.396L246.167 36.82H244.439L241.367 28.396L239.951 24.316H239.855C239.999 25.924 240.215 28.18 240.215 29.788V38.5H237.695ZM257.617 38.5V20.836H268.081V23.188H260.425V28.084H266.881V30.46H260.425V36.148H268.345V38.5H257.617ZM273.279 38.836C272.223 38.836 271.431 38.02 271.431 36.892C271.431 35.74 272.223 34.948 273.279 34.948C274.311 34.948 275.127 35.74 275.127 36.892C275.127 38.02 274.311 38.836 273.279 38.836ZM278.916 43.852V25.3H281.172L281.412 26.764H281.484C282.636 25.78 284.052 24.964 285.54 24.964C288.876 24.964 290.772 27.628 290.772 31.708C290.772 36.22 288.06 38.836 285.084 38.836C283.908 38.836 282.708 38.308 281.604 37.348L281.7 39.58V43.852H278.916ZM284.556 36.532C286.452 36.532 287.916 34.828 287.916 31.732C287.916 28.972 287.004 27.268 284.796 27.268C283.788 27.268 282.804 27.82 281.7 28.876V35.332C282.732 36.22 283.74 36.532 284.556 36.532ZM298.593 38.836C295.281 38.836 293.169 36.292 293.169 31.924C293.169 27.628 295.881 24.964 298.809 24.964C300.321 24.964 301.305 25.54 302.361 26.452L302.241 24.268V19.396H305.025V38.5H302.745L302.529 37.036H302.457C301.449 38.044 300.081 38.836 298.593 38.836ZM299.265 36.532C300.345 36.532 301.305 36.028 302.241 34.924V28.492C301.281 27.604 300.345 27.268 299.361 27.268C297.513 27.268 296.025 29.044 296.025 31.876C296.025 34.876 297.201 36.532 299.265 36.532ZM309.606 38.5V23.644C309.606 20.956 310.854 19.06 313.782 19.06C314.694 19.06 315.534 19.252 316.134 19.492L315.582 21.604C315.102 21.364 314.598 21.268 314.118 21.268C312.966 21.268 312.366 22.036 312.366 23.644V38.5H309.606ZM307.806 27.508V25.444L309.75 25.3H315.054V27.508H307.806Z" fill="white"/>
<path d="M363 33V39.6667C363 40.5507 362.649 41.3986 362.024 42.0237C361.399 42.6488 360.551 43 359.667 43H336.333C335.449 43 334.601 42.6488 333.976 42.0237C333.351 41.3986 333 40.5507 333 39.6667V33" stroke="white" stroke-width="2" stroke-linecap="round" stroke-linejoin="round"/>
<path d="M339.666 24.6667L347.999 33.0001L356.333 24.6667" stroke="white" stroke-width="2" stroke-linecap="round" stroke-linejoin="round"/>
<path d="M348 33V13" stroke="white" stroke-width="2" stroke-linecap="round" stroke-linejoin="round"/>
</svg>
