<svg width="204" height="36" viewBox="0 0 204 36" fill="none" xmlns="http://www.w3.org/2000/svg">
<rect width="204" height="36" rx="8" fill="#FF0084"/>
<path d="M15.672 22.168C13.98 22.168 12.612 20.836 12.612 17.992C12.612 14.608 14.208 13.252 15.948 13.252C16.944 13.252 17.664 13.672 18.168 14.188L17.412 15.04C17.088 14.656 16.548 14.392 16.02 14.392C14.868 14.392 13.908 15.292 13.908 17.992C13.908 20.116 14.58 21.1 15.648 21.1C16.428 21.1 17.028 20.452 17.028 19.372C17.028 18.316 16.512 17.728 15.576 17.728C15.048 17.728 14.424 18.028 13.884 18.856L13.836 17.836C14.352 17.14 15.156 16.72 15.816 16.72C17.304 16.72 18.312 17.596 18.312 19.372C18.312 21.064 17.1 22.168 15.672 22.168ZM22.2638 22.168C20.4998 22.168 19.4078 20.572 19.4078 17.68C19.4078 14.776 20.4998 13.252 22.2638 13.252C24.0158 13.252 25.1198 14.788 25.1198 17.68C25.1198 20.572 24.0158 22.168 22.2638 22.168ZM22.2638 21.064C23.1638 21.064 23.7878 20.14 23.7878 17.68C23.7878 15.208 23.1638 14.344 22.2638 14.344C21.3638 14.344 20.7278 15.208 20.7278 17.68C20.7278 20.14 21.3638 21.064 22.2638 21.064ZM28.5195 22.168C27.6075 22.168 26.6715 21.784 26.0355 21.256L26.6835 20.356C27.2715 20.812 27.8355 21.112 28.5555 21.112C29.3355 21.112 29.7075 20.728 29.7075 20.224C29.7075 19.636 28.9635 19.36 28.2555 19.096C27.3675 18.76 26.3955 18.292 26.3955 17.164C26.3955 16.06 27.2835 15.232 28.7595 15.232C29.6355 15.232 30.3675 15.592 30.8955 16.012L30.2475 16.864C29.7915 16.54 29.3235 16.288 28.7835 16.288C28.0515 16.288 27.7155 16.648 27.7155 17.104C27.7155 17.668 28.3515 17.884 29.0835 18.148C30.0075 18.496 31.0155 18.916 31.0155 20.152C31.0155 21.268 30.1395 22.168 28.5195 22.168ZM35.2451 22.168C33.4451 22.168 32.0291 20.884 32.0291 18.712C32.0291 16.564 33.5051 15.232 35.0411 15.232C36.7811 15.232 37.7291 16.492 37.7291 18.364C37.7291 18.64 37.7051 18.904 37.6691 19.072H33.3851C33.4931 20.332 34.2851 21.076 35.4251 21.076C36.0131 21.076 36.5051 20.896 36.9971 20.584L37.4771 21.472C36.8651 21.88 36.1091 22.168 35.2451 22.168ZM33.3611 18.112H36.5291C36.5291 16.972 36.0251 16.324 35.0651 16.324C34.2371 16.324 33.5051 16.96 33.3611 18.112ZM39.282 22V15.4H40.674V22H39.282ZM39.978 14.164C39.462 14.164 39.126 13.84 39.126 13.336C39.126 12.844 39.462 12.52 39.978 12.52C40.482 12.52 40.842 12.844 40.842 13.336C40.842 13.84 40.482 14.164 39.978 14.164ZM44.539 22.168C43.627 22.168 42.691 21.784 42.055 21.256L42.703 20.356C43.291 20.812 43.855 21.112 44.575 21.112C45.355 21.112 45.727 20.728 45.727 20.224C45.727 19.636 44.983 19.36 44.275 19.096C43.387 18.76 42.415 18.292 42.415 17.164C42.415 16.06 43.303 15.232 44.779 15.232C45.655 15.232 46.387 15.592 46.915 16.012L46.267 16.864C45.811 16.54 45.343 16.288 44.803 16.288C44.071 16.288 43.735 16.648 43.735 17.104C43.735 17.668 44.371 17.884 45.103 18.148C46.027 18.496 47.035 18.916 47.035 20.152C47.035 21.268 46.159 22.168 44.539 22.168ZM51.2647 22.168C49.4647 22.168 48.0487 20.884 48.0487 18.712C48.0487 16.564 49.5247 15.232 51.0607 15.232C52.8007 15.232 53.7487 16.492 53.7487 18.364C53.7487 18.64 53.7247 18.904 53.6887 19.072H49.4047C49.5127 20.332 50.3047 21.076 51.4447 21.076C52.0327 21.076 52.5247 20.896 53.0167 20.584L53.4967 21.472C52.8847 21.88 52.1287 22.168 51.2647 22.168ZM49.3807 18.112H52.5487C52.5487 16.972 52.0447 16.324 51.0847 16.324C50.2567 16.324 49.5247 16.96 49.3807 18.112ZM55.3015 22V15.4H56.6935V22H55.3015ZM55.9975 14.164C55.4815 14.164 55.1455 13.84 55.1455 13.336C55.1455 12.844 55.4815 12.52 55.9975 12.52C56.5015 12.52 56.8615 12.844 56.8615 13.336C56.8615 13.84 56.5015 14.164 55.9975 14.164ZM57.8826 23.764V22.912H64.3026V23.764H57.8826ZM66.8768 22.168C65.8688 22.168 65.4968 21.52 65.4968 20.452V12.448H66.8888V20.524C66.8888 20.896 67.0448 21.028 67.2128 21.028C67.2728 21.028 67.3208 21.028 67.4408 21.004L67.6208 22.048C67.4408 22.108 67.2248 22.168 66.8768 22.168ZM71.7231 22.168C70.0791 22.168 68.6151 20.896 68.6151 18.712C68.6151 16.504 70.0791 15.232 71.7231 15.232C73.3551 15.232 74.8311 16.504 74.8311 18.712C74.8311 20.896 73.3551 22.168 71.7231 22.168ZM71.7231 21.028C72.7551 21.028 73.4151 20.104 73.4151 18.712C73.4151 17.308 72.7551 16.384 71.7231 16.384C70.6791 16.384 70.0431 17.308 70.0431 18.712C70.0431 20.104 70.6791 21.028 71.7231 21.028ZM78.7219 24.964C77.1379 24.964 75.9859 24.376 75.9859 23.236C75.9859 22.672 76.3339 22.156 76.9459 21.796V21.736C76.5979 21.52 76.3459 21.172 76.3459 20.632C76.3459 20.116 76.7059 19.672 77.0779 19.408V19.36C76.6339 19.024 76.2019 18.388 76.2019 17.608C76.2019 16.108 77.4019 15.232 78.7579 15.232C79.1419 15.232 79.4779 15.304 79.7299 15.4H82.0579V16.444H80.8099C81.0619 16.708 81.2419 17.14 81.2419 17.644C81.2419 19.096 80.1499 19.912 78.7579 19.912C78.4699 19.912 78.1339 19.852 77.8339 19.72C77.6299 19.9 77.4739 20.092 77.4739 20.416C77.4739 20.8 77.7499 21.052 78.5779 21.052H79.8019C81.3619 21.052 82.1779 21.532 82.1779 22.66C82.1779 23.932 80.8339 24.964 78.7219 24.964ZM78.7579 19.024C79.4419 19.024 80.0059 18.484 80.0059 17.608C80.0059 16.72 79.4539 16.216 78.7579 16.216C78.0739 16.216 77.5219 16.72 77.5219 17.608C77.5219 18.484 78.0859 19.024 78.7579 19.024ZM78.9259 24.052C80.0779 24.052 80.8339 23.488 80.8339 22.888C80.8339 22.336 80.4019 22.156 79.5979 22.156H78.6019C78.2899 22.156 78.0019 22.132 77.7259 22.06C77.3299 22.36 77.1619 22.696 77.1619 23.032C77.1619 23.668 77.8339 24.052 78.9259 24.052ZM85.7973 22.168C84.1533 22.168 82.6893 20.896 82.6893 18.712C82.6893 16.504 84.1533 15.232 85.7973 15.232C87.4293 15.232 88.9053 16.504 88.9053 18.712C88.9053 20.896 87.4293 22.168 85.7973 22.168ZM85.7973 21.028C86.8293 21.028 87.4893 20.104 87.4893 18.712C87.4893 17.308 86.8293 16.384 85.7973 16.384C84.7533 16.384 84.1173 17.308 84.1173 18.712C84.1173 20.104 84.7533 21.028 85.7973 21.028ZM89.6521 23.764V22.912H96.0721V23.764H89.6521ZM97.3864 22V13.168H100.278C102.102 13.168 103.47 13.816 103.47 15.736C103.47 17.584 102.102 18.436 100.278 18.436H98.7904V22H97.3864ZM98.7904 17.32H100.122C101.394 17.32 102.09 16.792 102.09 15.736C102.09 14.668 101.394 14.296 100.122 14.296H98.7904V17.32ZM102.222 22L100.014 18.076L101.046 17.26L103.782 22H102.222ZM105.261 22V13.168H110.493V14.344H106.665V16.792H109.893V17.98H106.665V20.824H110.625V22H105.261ZM112.457 22V13.168H114.761C117.473 13.168 119.009 14.668 119.009 17.548C119.009 20.428 117.473 22 114.833 22H112.457ZM113.861 20.86H114.653C116.549 20.86 117.581 19.744 117.581 17.548C117.581 15.352 116.549 14.296 114.653 14.296H113.861V20.86ZM120.847 22V13.168H122.455L124.063 17.644C124.279 18.22 124.459 18.82 124.663 19.42H124.711C124.927 18.82 125.095 18.22 125.287 17.644L126.883 13.168H128.491V22H127.207V17.644C127.207 16.84 127.315 15.712 127.387 14.908H127.339L126.619 16.948L125.083 21.16H124.219L122.683 16.948L121.975 14.908H121.927C121.999 15.712 122.107 16.84 122.107 17.644V22H120.847ZM130.808 22V13.168H136.04V14.344H132.212V16.792H135.44V17.98H132.212V20.824H136.172V22H130.808ZM138.64 22.168C138.112 22.168 137.716 21.76 137.716 21.196C137.716 20.62 138.112 20.224 138.64 20.224C139.156 20.224 139.564 20.62 139.564 21.196C139.564 21.76 139.156 22.168 138.64 22.168ZM141.458 24.676V15.4H142.586L142.706 16.132H142.742C143.318 15.64 144.026 15.232 144.77 15.232C146.438 15.232 147.386 16.564 147.386 18.604C147.386 20.86 146.03 22.168 144.542 22.168C143.954 22.168 143.354 21.904 142.802 21.424L142.85 22.54V24.676H141.458ZM144.278 21.016C145.226 21.016 145.958 20.164 145.958 18.616C145.958 17.236 145.502 16.384 144.398 16.384C143.894 16.384 143.402 16.66 142.85 17.188V20.416C143.366 20.86 143.87 21.016 144.278 21.016ZM151.296 22.168C149.64 22.168 148.584 20.896 148.584 18.712C148.584 16.564 149.94 15.232 151.404 15.232C152.16 15.232 152.652 15.52 153.18 15.976L153.12 14.884V12.448H154.512V22H153.372L153.264 21.268H153.228C152.724 21.772 152.04 22.168 151.296 22.168ZM151.632 21.016C152.172 21.016 152.652 20.764 153.12 20.212V16.996C152.64 16.552 152.172 16.384 151.68 16.384C150.756 16.384 150.012 17.272 150.012 18.688C150.012 20.188 150.6 21.016 151.632 21.016ZM156.803 22V14.572C156.803 13.228 157.427 12.28 158.891 12.28C159.347 12.28 159.767 12.376 160.067 12.496L159.791 13.552C159.551 13.432 159.299 13.384 159.059 13.384C158.483 13.384 158.183 13.768 158.183 14.572V22H156.803ZM155.903 16.504V15.472L156.875 15.4H159.527V16.504H155.903Z" fill="white"/>
<path d="M189.5 20.5V23.8333C189.5 24.2754 189.324 24.6993 189.012 25.0118C188.699 25.3244 188.275 25.5 187.833 25.5H176.167C175.725 25.5 175.301 25.3244 174.988 25.0118C174.676 24.6993 174.5 24.2754 174.5 23.8333V20.5" stroke="white" stroke-linecap="round" stroke-linejoin="round"/>
<path d="M177.833 16.333L182 20.4997L186.167 16.333" stroke="white" stroke-linecap="round" stroke-linejoin="round"/>
<path d="M182 20.5V10.5" stroke="white" stroke-linecap="round" stroke-linejoin="round"/>
</svg>
