<?xml version="1.0" encoding="UTF-8"?>
<svg id="_レイヤー_1" data-name="レイヤー 1" xmlns="http://www.w3.org/2000/svg" viewBox="0 0 824.76 98.32">
  <defs>
    <style>
      .cls-1 {
        stroke-width: 0px;
      }
    </style>
  </defs>
  <path class="cls-1" d="m28.74,0H12.54s2.98,1.51,2.98,6.05v77.15c0,12.1-15.53,15.13-15.53,15.13h40.53s-2.98-1.51-2.98-6.05V15.13c0-12.1,15.53-15.13,15.53-15.13h-24.34Z"/>
  <path class="cls-1" d="m359.63,0h-16.2s2.98,1.51,2.98,6.05v77.15c0,12.1-15.53,15.13-15.53,15.13h40.53s-2.98-1.51-2.98-6.05V15.13c0-12.1,15.53-15.13,15.53-15.13h-24.34Z"/>
  <path class="cls-1" d="m553.06,0h-16.2s2.98,1.51,2.98,6.05v77.15c0,12.1-15.53,15.13-15.53,15.13h40.53s-2.98-1.51-2.98-6.05V15.13c0-12.1,15.53-15.13,15.53-15.13h-24.33Z"/>
  <path class="cls-1" d="m175.03,48.4h-55.47s28.74,1.51,28.74,6.05v35.36c0,5.22-.31,5.26-25.72,5.26-24,0-24.2-.06-24.2-4.72V24.2c0-9.08,7.74-24.2,28.83-24.2h-24.22c-7.63,0-28.81,6.05-28.81,24.2v63.53c0,6.05-9.74,10.59-15.25,10.59h116.1s-2.53,0-2.53-3.03v-43.87c0-1.51.51-3.03,2.53-3.03Z"/>
  <path class="cls-1" d="m154.92,0h-11.3s1.37,0,1.37,1.42v18.51c0,4.27-5.76,4.27-5.76,4.27h35.13s-1.37,0-1.37-1.42V4.27c0-4.27,5.76-4.27,5.76-4.27h-23.83Z"/>
  <path class="cls-1" d="m283.2,6.05v55.97c0,3.73-3.06,7.44-7.51,5.3L206.04,0h0s0,0,0,0v1.21s0,0,0,0v88.04c0,6.05-6.72,9.08-12.16,9.08h38.92s-3.45-1.51-3.45-6.05v-55.97c0-3.73,3.06-7.44,7.51-5.3l69.64,67.32V9.08c0-6.05,6.72-9.08,12.16-9.08h-38.92s3.45,1.51,3.45,6.05Z"/>
  <path class="cls-1" d="m785.85,0s3.45,1.51,3.45,6.05v55.97c0,3.73-3.06,7.44-7.51,5.3L712.14,0h0s0,0,0,0v1.21s0,0,0,0v88.04c0,6.05-6.72,9.08-12.16,9.08h38.92s-3.45-1.51-3.45-6.05v-55.97c0-3.73,3.06-7.44,7.51-5.3l69.65,67.32V9.08c0-6.05,6.72-9.08,12.16-9.08h-38.92Z"/>
  <path class="cls-1" d="m438.02,0h-34.25s1.96,0,1.96,3.03v36.3c0,6.05-6.18,13.61-6.18,13.61l24.7-24.2V7.56c0-7.56,13.76-7.56,13.76-7.56Z"/>
  <path class="cls-1" d="m483.77,3.03v36.3c0,6.05-6.18,13.61-6.18,13.61l24.7-24.2V7.56c0-7.56,13.76-7.56,13.76-7.56h-34.25s1.96,0,1.96,3.03Z"/>
  <path class="cls-1" d="m461.75,95.3V7.56c0-7.56,17.01-7.56,17.01-7.56h-38.65s1.86,0,1.86,3.03v87.73c0,7.56-17.01,7.56-17.01,7.56h38.65s-1.86,0-1.86-3.03Z"/>
  <path class="cls-1" d="m618.59,89.19v-53.55c0-19,16.54-35.64,34.2-35.64h-22.66c-10.12,0-35.83,12.1-35.83,36.3v53.29c0,8.73-9.89,8.73-9.89,8.73h42.32s-8.12-.12-8.12-9.13Z"/>
  <path class="cls-1" d="m662.21,9.13v53.55c0,19-16.54,35.64-34.2,35.64h22.66c10.12,0,35.83-12.1,35.83-36.3V8.73c0-8.73,9.89-8.73,9.89-8.73h-42.32s8.12.12,8.12,9.13Z"/>
</svg>