<svg width="26" height="26" viewBox="0 0 26 26" fill="none" xmlns="http://www.w3.org/2000/svg">
<path d="M24.9166 3.25C23.8792 3.98177 22.7305 4.54145 21.5149 4.9075C20.8625 4.1573 19.9954 3.62558 19.0309 3.38425C18.0664 3.14292 17.051 3.20363 16.1222 3.55816C15.1933 3.91269 14.3957 4.54393 13.8373 5.36652C13.2789 6.18912 12.9866 7.16336 12.9999 8.1575V9.24083C11.0961 9.2902 9.20963 8.86796 7.50851 8.01173C5.80739 7.1555 4.34443 5.89185 3.24992 4.33333C3.24992 4.33333 -1.08341 14.0833 8.66659 18.4167C6.43549 19.9311 3.77767 20.6905 1.08325 20.5833C10.8333 26 22.7499 20.5833 22.7499 8.125C22.7489 7.82324 22.7199 7.52223 22.6633 7.22583C23.7689 6.13545 24.5491 4.75877 24.9166 3.25Z" stroke="white" stroke-width="2" stroke-linecap="round" stroke-linejoin="round"/>
</svg>
