<svg width="448" height="493" viewBox="0 0 448 493" fill="none" xmlns="http://www.w3.org/2000/svg">
<path fill-rule="evenodd" clip-rule="evenodd" d="M203.108 75.2275C231.542 87.5675 258.543 100.834 289.041 106.387C339.602 115.593 408.98 77.5196 440.119 118.381C469.283 156.652 408.569 207.429 402.396 255.138C397.268 294.773 417.752 334.347 407.19 372.894C395.083 417.082 382.091 475.63 338.284 489.129C291.187 503.641 252.392 435.861 203.108 435.781C153.958 435.701 111.66 511.604 68.186 488.689C25.5464 466.214 62.0863 392.102 39.4958 349.543C18.1748 309.374 -60.6816 300.343 -55.7813 255.138C-50.6077 207.411 38.5151 215.383 58.7579 171.847C82.3526 121.103 13.1495 37.9809 59.669 6.84338C104.447 -23.1283 153.675 53.7744 203.108 75.2275Z" fill="#FF56AE"/>
</svg>
