<?xml version="1.0" encoding="utf-8"?>
<!-- Generator: Adobe Illustrator 27.5.0, SVG Export Plug-In . SVG Version: 6.00 Build 0)  -->
<svg version="1.1" id="レイヤー_1" xmlns="http://www.w3.org/2000/svg" xmlns:xlink="http://www.w3.org/1999/xlink" x="0px"
	 y="0px" viewBox="0 0 25 125.1" style="enable-background:new 0 0 25 125.1;" xml:space="preserve">
<style type="text/css">
	.st0{fill:#FFFFFF;}
	.st1{enable-background:new    ;}
</style>
<g id="グループ_315" transform="translate(-1814.023 -872.887)">
	<g id="レイヤー_1_00000153668446764753725960000018088661713647421874_" transform="translate(1854.023 998) rotate(180)">
		<path id="パス_324" class="st0" d="M37,0c-4.4,5.2-11,20.9-11,26.1C26,20.9,19.4,5.2,15,0C19.4,5.2,32.6,5.2,37,0z"/>
	</g>
	<g class="st1">
		<path class="st0" d="M1822.2,945.7v-1.9h1.6c-1.4-0.6-1.8-1.4-1.8-2.4c0-2,1.9-3.3,5-3.3c2.6,0,5.3,0.9,5.3,3.4
			c0,0.9-0.3,1.6-1.2,2.2h4.4v2H1822.2z M1830.7,941.9c0-1.2-1.1-1.7-3.6-1.7c-2.3,0-3.5,0.5-3.5,1.8c0,1,1.2,1.7,2.4,1.7h2.4
			C1829.8,943.7,1830.7,943,1830.7,941.9z"/>
		<path class="st0" d="M1830.4,931.1c1.5,0.7,1.9,1.7,1.9,2.8c0,1.7-1.1,2.8-2.8,2.8c-1,0-2-0.3-2.7-1.2c-0.5-0.7-0.8-2-0.8-3.6
			v-0.6h-0.5c-1.2,0-2,0.3-2,1.5c0,0.9,0.5,1.4,1.5,1.6l-0.3,2c-1.9-0.3-2.8-1.8-2.8-3.7c0-1,0.2-1.9,0.9-2.6
			c0.5-0.6,1.4-0.8,2.6-0.8h4.1c1,0,2,0,2.5-0.2v1.9C1831.7,931.1,1831,931.1,1830.4,931.1z M1827.2,931.7c0,1.6,0.3,2.8,2.1,2.8
			c1,0,1.5-0.4,1.5-1.3c0-1-1.1-1.9-3-1.9h-0.6C1827.2,931.3,1827.2,931.5,1827.2,931.7z"/>
		<path class="st0" d="M1822,919.7c0,0.6,0.3,0.9,1.1,1.1c0.6-0.5,1.3-0.8,2.1-0.8c1.8,0,3.2,1.3,3.2,3.4c0,0.5-0.1,0.9-0.2,1.2
			c0.2,0.5,0.5,0.7,0.9,0.7c0.7,0,0.8-0.6,0.8-1.7c0.1-3,0.4-4.7,2.7-4.7c2,0,3.1,1.5,3.1,4.5c0,2.5-0.8,4-2.5,4
			c-1,0-1.6-0.5-1.9-1.4c-0.4,0.7-0.9,1.1-1.6,1.1c-0.9,0-1.5-0.5-2-1.5c-0.6,0.9-1.4,1.3-2.5,1.3c-2,0-3.3-1.4-3.3-3.5
			c0-0.5,0-1,0.4-1.9c-1.4-0.2-1.8-0.8-1.8-1.8c0-0.3,0-0.4,0.1-0.6h1.5C1822,919.5,1822,919.6,1822,919.7z M1825.2,922.2
			c-1.1,0-1.9,0.4-1.9,1.4c0,0.9,0.6,1.4,1.9,1.4c1.3,0,1.9-0.5,1.9-1.4C1827.1,922.7,1826.4,922.2,1825.2,922.2z M1832.9,925.8
			c0.9,0,1.4-0.6,1.4-2.4c0-1.6-0.5-2.4-1.4-2.4c-0.7,0-1.1,0.5-1.2,1.4c-0.1,0.9-0.1,1.7-0.1,2.5
			C1831.9,925.5,1832.3,925.8,1832.9,925.8z"/>
		<path class="st0" d="M1827.5,916.5c2.4,0,3.2-0.7,3.2-1.9c0-0.9-0.5-1.5-1.8-1.7l0.3-1.8c2.1,0.5,3.1,1.7,3.1,3.6
			c0,2.5-1.8,3.9-5,3.9c-3.3,0-5.3-1.5-5.3-3.9c0-2.2,1.6-3.7,5.1-3.7h0.4v5.6H1827.5z M1823.4,914.7c0,1,0.8,1.6,2.6,1.7V913h-0.2
			C1824.1,913,1823.4,913.8,1823.4,914.7z"/>
		<path class="st0" d="M1832.3,901.5c0,0.8-0.2,1.3-0.4,1.7c-0.5,0.8-1.5,1-3,1h-5v1.3h-1.6v-1.3l-2.6-0.1l-0.2-1.8h2.7v-1.9h1.6
			v1.9h4.6c1.5,0,2.2,0,2.2-1.4c0-0.2,0-0.5-0.1-0.8h1.6C1832.2,900.5,1832.3,900.8,1832.3,901.5z"/>
		<path class="st0" d="M1827.1,899.2c-3.4,0-5.2-1.3-5.2-3.9c0-2.5,1.8-3.9,5.1-3.9c3.5,0,5.3,1.3,5.3,3.9
			C1832.3,897.9,1830.4,899.2,1827.1,899.2z M1827.1,893.6c-2.5,0-3.6,0.5-3.6,1.7c0,1.2,1.3,1.7,3.6,1.7c2.5,0,3.6-0.5,3.6-1.7
			C1830.7,894.2,1829.6,893.6,1827.1,893.6z"/>
		<path class="st0" d="M1822.2,889.6v-1.9h1.6c-1.4-0.6-1.8-1.4-1.8-2.4c0-2,1.9-3.3,5-3.3c2.6,0,5.3,0.9,5.3,3.4
			c0,0.9-0.3,1.6-1.2,2.2h4.4v2H1822.2z M1830.7,885.8c0-1.2-1.1-1.7-3.6-1.7c-2.3,0-3.5,0.5-3.5,1.8c0,1,1.2,1.7,2.4,1.7h2.4
			C1829.8,887.6,1830.7,886.9,1830.7,885.8z"/>
	</g>
</g>
</svg>
