<svg xmlns="http://www.w3.org/2000/svg" width="47.7" height="27.78" viewBox="0 0 47.7 27.78"><path d="M10.2,8.77a8.479,8.479,0,0,1,4.887,1.352,8.027,8.027,0,0,1,2.74,3.432c1.279,2.857,1.443,6.463,1.443,9.286,0,4.637-.681,7.975-2.083,10.2C15.7,35.4,13.419,36.55,10.2,36.55c-3.241,0-5.535-1.191-7.013-3.643C1.83,30.657,1.17,27.325,1.17,22.72,1.17,13.072,3.955,8.77,10.2,8.77Zm0,27.48c3.107,0,5.31-1.1,6.733-3.365C18.3,30.7,18.97,27.419,18.97,22.84c0-6.411-1-13.77-8.77-13.77-3.061,0-5.232,1.071-6.639,3.276S1.47,17.945,1.47,22.72c0,4.549.646,7.83,1.973,10.033C4.863,35.106,7.073,36.25,10.2,36.25ZM30.4,8.77a8.562,8.562,0,0,1,6.3,2.34,7.922,7.922,0,0,1,2.128,5.61A10.517,10.517,0,0,1,37.208,22.2c-2.182,3.623-7.112,7.086-9.139,8.412H39.2l-.465,5.54H21.41V30.689l.054-.045c2.306-1.908,4.428-3.829,6.31-5.711,3.908-3.868,4.6-5.64,4.6-7.934a3.953,3.953,0,0,0-.61-2.394,2.032,2.032,0,0,0-1.72-.776c-1.77,0-2.658,1.466-2.971,4.9l-.015.166-5.665-1.141.023-.142A11.667,11.667,0,0,1,24.344,11,8.266,8.266,0,0,1,30.4,8.77Zm8.477,22.14H27.045l.435-.277c1.635-1.04,7.149-4.734,9.472-8.591A10.222,10.222,0,0,0,38.53,16.72c0-4.647-3.191-7.65-8.13-7.65-4.891,0-7.728,2.765-8.669,8.451l5.055,1.019a9.338,9.338,0,0,1,.887-3.568A2.538,2.538,0,0,1,30.04,13.53a2.317,2.317,0,0,1,1.96.894A4.234,4.234,0,0,1,32.67,17a6.911,6.911,0,0,1-.883,3.537,21.27,21.27,0,0,1-3.8,4.61C26.113,27.019,24,28.931,21.71,30.831V35.85H38.462ZM10.2,13.05c1.381,0,2.167.755,2.546,2.447a38.5,38.5,0,0,1,.364,7.1,34.275,34.275,0,0,1-.5,7.589c-.392,1.459-1.1,2.081-2.375,2.081-2.489,0-2.91-2.385-2.91-9.55C7.33,16.9,7.33,13.05,10.2,13.05Zm.04,18.92c1.141,0,1.725-.521,2.085-1.859A34.725,34.725,0,0,0,12.81,22.6c0-6.58-.1-9.25-2.61-9.25-1.194,0-1.883.76-2.233,2.465a39.135,39.135,0,0,0-.337,6.9C7.63,30.155,8.142,31.97,10.24,31.97Zm32.89-2.04h5.74v6.22H43.13Zm5.44.3H43.43v5.62h5.14Z" transform="translate(-1.17 -8.77)" fill="#fff"/></svg>