<svg xmlns="http://www.w3.org/2000/svg" width="47.7" height="27.78" viewBox="0 0 47.7 27.78"><path d="M10.2,8.77a8.479,8.479,0,0,1,4.887,1.352,8.027,8.027,0,0,1,2.74,3.432c1.279,2.857,1.443,6.463,1.443,9.286,0,4.637-.681,7.975-2.083,10.2C15.7,35.4,13.419,36.55,10.2,36.55c-3.241,0-5.535-1.191-7.013-3.643C1.83,30.657,1.17,27.325,1.17,22.72,1.17,13.072,3.955,8.77,10.2,8.77Zm0,27.48c3.107,0,5.31-1.1,6.733-3.365C18.3,30.7,18.97,27.419,18.97,22.84c0-6.411-1-13.77-8.77-13.77-3.061,0-5.232,1.071-6.639,3.276S1.47,17.945,1.47,22.72c0,4.549.646,7.83,1.973,10.033C4.863,35.106,7.073,36.25,10.2,36.25ZM23.779,9.17H38.327l-.592,5.54H28.3l-.288,5.4A5.359,5.359,0,0,1,32.24,18.13a7.043,7.043,0,0,1,5.177,2.035C38.939,21.72,39.71,24.02,39.71,27c0,3.052-.82,5.44-2.438,7.1A9.045,9.045,0,0,1,30.6,36.55a9.342,9.342,0,0,1-6.117-2.04A8.242,8.242,0,0,1,21.651,28.9l-.014-.14,5.61-.928.022.151c.357,2.461,1.353,3.512,3.332,3.512,2.587,0,3.13-2.268,3.13-4.17,0-2.586-1.215-4.13-3.25-4.13A2.691,2.691,0,0,0,27.7,25.176l-.046.114L22.8,24.362Zm14.214.3H24.061l-.942,14.648,4.35.832a2.953,2.953,0,0,1,3.012-2.06,3.193,3.193,0,0,1,2.66,1.255,5.242,5.242,0,0,1,.89,3.175,5.572,5.572,0,0,1-.8,3.206A3.011,3.011,0,0,1,30.6,31.79a3.283,3.283,0,0,1-2.4-.827,4.815,4.815,0,0,1-1.206-2.79L21.965,29c.516,4.407,3.89,7.245,8.635,7.245,5.6,0,8.81-3.371,8.81-9.25,0-5.366-2.68-8.57-7.17-8.57a5.182,5.182,0,0,0-4.281,2.222l-.294.379.353-6.621h9.447ZM10.2,13.05c1.381,0,2.167.755,2.546,2.447a38.5,38.5,0,0,1,.364,7.1,34.275,34.275,0,0,1-.5,7.589c-.392,1.459-1.1,2.081-2.375,2.081-2.489,0-2.91-2.385-2.91-9.55C7.33,16.9,7.33,13.05,10.2,13.05Zm.04,18.92c1.141,0,1.725-.521,2.085-1.859A34.725,34.725,0,0,0,12.81,22.6c0-6.58-.1-9.25-2.61-9.25-1.194,0-1.883.76-2.233,2.465a39.135,39.135,0,0,0-.337,6.9C7.63,30.155,8.142,31.97,10.24,31.97Zm32.89-2.04h5.74v6.22H43.13Zm5.44.3H43.43v5.62h5.14Z" transform="translate(-1.17 -8.77)" fill="#fff"/></svg>