<svg xmlns="http://www.w3.org/2000/svg" width="14.984" height="18.73" viewBox="0 0 14.984 18.73">
  <path id="location_on_FILL0_wght400_GRAD0_opsz48_1_" data-name="location_on_FILL0_wght400_GRAD0_opsz48 (1)" d="M167.494-870.869a1.573,1.573,0,0,0,1.157-.482,1.583,1.583,0,0,0,.48-1.159,1.574,1.574,0,0,0-.482-1.157,1.584,1.584,0,0,0-1.159-.48,1.573,1.573,0,0,0-1.157.482,1.583,1.583,0,0,0-.48,1.159,1.573,1.573,0,0,0,.482,1.157A1.583,1.583,0,0,0,167.494-870.869Zm0,7.75a27.426,27.426,0,0,0,4.6-5.139,7.8,7.8,0,0,0,1.487-4.062,6.105,6.105,0,0,0-1.763-4.516,5.887,5.887,0,0,0-4.325-1.758,5.887,5.887,0,0,0-4.325,1.758,6.105,6.105,0,0,0-1.763,4.516,7.683,7.683,0,0,0,1.522,4.062A29.781,29.781,0,0,0,167.492-863.119Zm0,1.85a31.131,31.131,0,0,1-5.631-5.958A9.266,9.266,0,0,1,160-872.321a7.243,7.243,0,0,1,2.259-5.6A7.484,7.484,0,0,1,167.492-880a7.484,7.484,0,0,1,5.233,2.084,7.243,7.243,0,0,1,2.259,5.6,9.266,9.266,0,0,1-1.861,5.092A31.131,31.131,0,0,1,167.492-861.27ZM167.492-872.508Z" transform="translate(-160 880)" fill="#fff"/>
</svg>
