<?xml version="1.0" encoding="UTF-8"?>
<svg id="_レイヤー_2" data-name="レイヤー_2" xmlns="http://www.w3.org/2000/svg" viewBox="0 0 40 40">
  <defs>
    <style>
      .cls-1 {
        opacity: .4;
      }

      .cls-2 {
        fill: #fff;
        opacity: .6;
      }
    </style>
  </defs>
  <g id="_レイヤー_1-2" data-name="レイヤー_1">
    <g>
      <path class="cls-2" d="M40,20c0,11.05-8.95,20-20,20S0,31.05,0,20,8.95,0,20,0s20,8.95,20,20ZM22.83,20l6.59-6.59c.78-.78.78-2.05,0-2.83-.78-.78-2.05-.78-2.83,0l-6.59,6.59-6.59-6.59c-.78-.78-2.05-.78-2.83,0-.78.78-.78,2.05,0,2.83l6.59,6.59-6.59,6.59c-.78.78-.78,2.05,0,2.83.39.39.9.59,1.41.59s1.02-.2,1.41-.59l6.59-6.59,6.59,6.59c.39.39.9.59,1.41.59s1.02-.2,1.41-.59c.78-.78.78-2.05,0-2.83l-6.59-6.59Z"/>
      <path class="cls-1" d="M22.83,20l6.59-6.59c.78-.78.78-2.05,0-2.83-.78-.78-2.05-.78-2.83,0l-6.59,6.59-6.59-6.59c-.78-.78-2.05-.78-2.83,0-.78.78-.78,2.05,0,2.83l6.59,6.59-6.59,6.59c-.78.78-.78,2.05,0,2.83.39.39.9.59,1.41.59s1.02-.2,1.41-.59l6.59-6.59,6.59,6.59c.39.39.9.59,1.41.59s1.02-.2,1.41-.59c.78-.78.78-2.05,0-2.83l-6.59-6.59Z"/>
    </g>
  </g>
</svg>