<?xml version="1.0" encoding="UTF-8"?>
<svg id="_レイヤー_2" data-name="レイヤー 2" xmlns="http://www.w3.org/2000/svg" viewBox="0 0 678.59 100">
  <defs>
    <style>
      .cls-1 {
        fill: #ff0084;
        stroke-width: 0px;
      }
    </style>
  </defs>
  <g id="_レイヤー_2-2" data-name="レイヤー 2">
    <g>
      <path class="cls-1" d="m110.87,49.23h-52.97s27.45,1.54,27.45,6.15v35.97c0,5.31-.29,5.35-24.56,5.35-22.92,0-23.11-.06-23.11-4.8V24.62c0-9.23,7.39-24.62,27.53-24.62h-23.13c-7.29,0-27.51,6.15-27.51,24.62v64.62c0,6.15-9.3,10.77-14.56,10.77h110.87s-2.41,0-2.41-3.08v-44.62c0-1.54.49-3.08,2.41-3.08Z"/>
      <path class="cls-1" d="m91.66,0h-10.79s1.31,0,1.31,1.45v18.82c0,4.34-5.5,4.34-5.5,4.34h33.55s-1.31,0-1.31-1.45V4.34c0-4.34,5.5-4.34,5.5-4.34h-22.76Z"/>
    </g>
    <path class="cls-1" d="m152.61,52.28v41.57c0,4.62,1.32,6.15,3.03,6.15h-41.22s15.79-3.08,15.79-15.38V6.15c0-4.62-3.03-6.15-3.03-6.15h82.76s-5.82.8-5.82,3.26v90.59c0,4.62,1.32,6.15,3.03,6.15h-34.38s8.95-1.07,8.95-15.38v-32.34h-29.11Zm0-4.55h29.11V4.55h-13.32c-4.79,0-15.79.85-15.79,10.83v32.34Z"/>
    <path class="cls-1" d="m485.07,100h-89.71s15.79-3.08,15.79-15.38V6.15c0-4.62-3.03-6.15-3.03-6.15h81.42s-5.86.64-5.86,3.1c0,1.4-.16,1.45-.46,1.45h-33.87c-4.79,0-15.79.85-15.79,10.83v32.34h50.55s-5.86.64-5.86,3.1c0,1.4-.16,1.45-.46,1.45h-44.22v36.82c0,4.62,1.32,6.15,3.03,6.15h52.95s-5.86.64-5.86,3.1c0,.46.05,1.41,1.4,1.65Z"/>
    <path class="cls-1" d="m212.57,100s11.41-1.79,11.41-12.07V6.15c0-4.62-3.03-6.15-3.03-6.15h41.22s-15.79,3.08-15.79,15.38v73.71c0,4.62,1.32,6.15,3.03,6.15h57.43c-.51,0-1.14.28-1.14,1.67,0,3.08,2.57,3.08,2.57,3.08h-95.7Z"/>
    <path class="cls-1" d="m304.57,100s11.41-1.79,11.41-12.07V6.15c0-4.62-3.03-6.15-3.03-6.15h41.22s-15.79,3.08-15.79,15.38v73.71c0,4.62,1.32,6.15,3.03,6.15h57.43c-.51,0-1.14.28-1.14,1.67,0,3.08,2.57,3.08,2.57,3.08h-95.7Z"/>
    <path class="cls-1" d="m581.68,99.67l9.12.33-44.22-47.81h8.8c2.49,0,6.08-.86,9.93-2.56l1.36-.62c9.3-4.53,19.57-13.89,19.57-28.08l-20.93-20.93h-65.45s3.03,1.54,3.03,6.14v78.33c0,12.29-15.77,15.36-15.77,15.36h41.16s-3.03-1.54-3.03-6.14c0,0,0-24.2,0-41.5,0,0,5.84,0,12.65,0l43.77,47.48Zm-56.43-84.31c0-9.97,10.99-10.82,15.77-10.82h22.14l2.15,2.15v14.81c0,16.36-14.24,26.15-29.45,26.15h-10.61V15.36Z"/>
    <path class="cls-1" d="m668.98.03h-14.67s3.63,2.04,3.63,4.5c0,3.93-21.23,42.31-21.23,42.31l-23.53-37.53C609.03,1.54,619.49,0,619.49,0h-32.41s4.74,2.44,7.64,6.06c6.56,8.22,28.48,46.32,31.24,51.65v30.54c0,9.39-13.02,11.74-13.02,11.74h31.73s-3.03-1.54-3.03-6.15v-36.99l23.95-47.8c2.85-7.37,13.01-9.03,13.01-9.03h-9.61Z"/>
  </g>
</svg>