<?xml version="1.0" encoding="UTF-8"?>
<svg id="_レイヤー_2" data-name="レイヤー_2" xmlns="http://www.w3.org/2000/svg" viewBox="0 0 40 40">
  <defs>
    <style>
      .cls-1 {
        opacity: .4;
      }

      .cls-2 {
        fill: #fff;
        opacity: .6;
      }
    </style>
  </defs>
  <g id="_レイヤー_1-2" data-name="レイヤー_1">
    <g>
      <path class="cls-2" d="M40,20c0,11.05-8.95,20-20,20S0,31.05,0,20,8.95,0,20,0s20,8.95,20,20ZM37,20c0-1.1-.9-2-2-2H9.83l4.59-4.59c.78-.78.78-2.05,0-2.83-.78-.78-2.05-.78-2.83,0L3.59,18.59c-.36.36-.59.86-.59,1.41s.22,1.05.59,1.41l8,8c.39.39.9.59,1.41.59.51,0,1.02-.2,1.41-.59.78-.78.78-2.05,0-2.83l-4.59-4.59h25.17c1.1,0,2-.9,2-2Z"/>
      <path class="cls-1" d="M37,20c0-1.1-.9-2-2-2H9.83l4.59-4.59c.78-.78.78-2.05,0-2.83-.78-.78-2.05-.78-2.83,0L3.59,18.59c-.36.36-.59.86-.59,1.41s.22,1.05.59,1.41l8,8c.39.39.9.59,1.41.59.51,0,1.02-.2,1.41-.59.78-.78.78-2.05,0-2.83l-4.59-4.59h25.17c1.1,0,2-.9,2-2Z"/>
    </g>
  </g>
</svg>