<?xml version="1.0" encoding="utf-8"?>
<!-- Generator: Adobe Illustrator 27.3.1, SVG Export Plug-In . SVG Version: 6.00 Build 0)  -->
<svg version="1.1" id="レイヤー_1" xmlns="http://www.w3.org/2000/svg" xmlns:xlink="http://www.w3.org/1999/xlink" x="0px"
	 y="0px" viewBox="0 0 1125.8 35.4" style="enable-background:new 0 0 1125.8 35.4;" xml:space="preserve">
<style type="text/css">
	.st0{fill:none;stroke:#FFFFFF;stroke-width:0.7111;stroke-miterlimit:5.6889;}
	.st1{fill:#FFFFFF;}
	.st2{fill:none;stroke:#FFFFFF;stroke-width:0.5689;stroke-miterlimit:5.6889;}
	.st3{fill:none;}
</style>
<g>
	<path id="_パス_43" class="st0" d="M708,17.9c2.6-9.5-5.2-17.6-20.4-17.6c-15.1,0-27.2,8.1-29.8,17.6
		c-2.6,9.6,5.4,17.1,20.5,17.1C693.4,35.1,705.4,27.5,708,17.9z M691.3,17.9c-3.5,13.3-4.7,16.7-12.9,16.7c-8.1,0-7.6-3.5-4-16.7
		c3.5-13.2,4.9-17.2,13.1-17.2C695.6,0.8,694.8,4.7,691.3,17.9L691.3,17.9z"/>
	<path id="_パス_44" class="st0" d="M736.7,34.6L717.7,8.8l-4,15c-1,3.9-2.4,10.4,7.6,10.4l-0.1,0.5h-21.8l0.1-0.5
		c9.5,0,12.6-6.6,13.7-10.4l4.2-15.6L714.8,5c-3.1-3.8-5.8-3.8-7.6-3.9l0.1-0.4h21.9l17,23.6l3.5-12.9C750.9,7,750.3,1,742.7,1
		l0.1-0.4h20.8L763.5,1C755,1,751.6,7,750.4,11.4l-6.2,23.1L736.7,34.6L736.7,34.6z"/>
	<path id="_パス_48" class="st1" d="M555.9,0.8c-13.7,0-26.3,1.1-28.4,9.2c-1.9,7.2,7.2,8.7,13.8,8.7c-7.9,0-12.2,1.2-17.9,9.8
		c-2.3,3.6-6.5,6.1-8.3,6.1l-0.1,0.5l13.7-0.5c4.9,0,6.9-2.2,11-11.1c2.2-4.8,10.4-4.6,10.4-4.6h3.2l-2.7,10.2c-1.3,4.7-1.6,5-4.5,5
		l-0.1,0.5H565l0.1-0.5c-3,0-3.5-0.1-2.2-5l6.4-23.8c0.8-3,1.7-4.3,4.7-4.3l0.1-0.4L555.9,0.8L555.9,0.8z M553.2,18.6h-2.1
		c-8.9,0-9.8,0.1-7.5-8.6c2.4-9.2,4.2-8.8,12.2-8.8h2.1L553.2,18.6L553.2,18.6L553.2,18.6z"/>
	<path id="_パス_49" class="st1" d="M595,1.2l-4.3,16.1h5.6c0.1,0,7.3,0.1,9.6-5.7h0.6l-3.1,11.8h-0.6c0.8-5.7-6.5-5.7-6.6-5.7
		h-5.6l-4.4,16.4h2.5c0,0,19.5,0.5,22.1-9h0.6l-2.5,9.4h-40.2l0.1-0.5c2.9,0,4.8-2.9,5.6-6.1l5.5-20.7c0.8-3,0.7-6.3-2.3-6.3
		l0.1-0.4H617l-2.6,9.8h-0.6c2.5-9.4-16.2-9.4-16.2-9.4H595V1.2z"/>
	<path id="_パス_50" class="st1" d="M640.8,0.3c11.8,0,15.7,2.2,15.7,2.2l-2.2,8.1h-0.6c-0.5-3.5-2-9.8-13-9.8
		c-7.4,0-11.1,5.7-3.2,9.8l9.3,4.9c8,4.2,8.7,10.4,2.2,15.6c0,0-4.8,3.9-16.7,3.9c-13.3,0-17.8-2.4-17.8-2.4l2.5-9.2h0.6
		c0.2,3.3,4,11.3,14.8,11.3c7.3,0,11.2-6.4,4-10.7l-9.3-4.7c-8.6-4.3-9.4-10.1-2.2-15.3C624.8,4,629.5,0.3,640.8,0.3L640.8,0.3
		L640.8,0.3z"/>
	<path id="_パス_66" class="st0" d="M794.1,34.2h-0.1c-1.7,0-2.4-2-3.1-3.9c0,0-0.7-1.6-10.6-29.5h-0.3l-20.4,24.5
		c-7.6,8.5-11.4,8.9-13.4,8.9l-0.1,0.4h19.8l0.1-0.4c-8.2,0-7.7-6.7-5.7-8.9h13.5l1.3,3.3c0,0,2.6,5.6-2.9,5.6l-0.1,0.4h22.2
		C794.1,34.5,794.1,34.3,794.1,34.2L794.1,34.2L794.1,34.2z M760.3,24.9l9-10.8l4,10.8H760.3z"/>
	<path id="_パス_67" class="st0" d="M886.3,23.1h0.6l-1.9,9.7c-2.1,0.9-9.4,2.3-16.7,2.3c-14.7,0-26.1-6.5-23.1-17.4
		C848,6.8,862.8,0.4,877.6,0.4c8.9,0,14.1,1.3,15.5,2.2l-3.3,9.7h-0.6c0.6-10-6.8-11.5-11.8-11.5c-7.6,0-11.9,3.8-15.4,17
		c-3.5,13.3-1.1,17,6.3,17C873,34.6,881.3,32.6,886.3,23.1L886.3,23.1L886.3,23.1z"/>
	<path id="_パス_68" class="st0" d="M935.9,0.8l-2.6,9.8h-0.6c2.5-9.4-16.2-9.4-16.2-9.4h-2.5l-4.3,16.1h5.6
		c0.1,0,7.3,0.1,9.6-5.7h0.6l-3.1,11.8h-0.6c0.8-5.7-6.5-5.7-6.6-5.7h-5.6L905,34.1h2.5c0,0,19.5,0.5,22.1-9h0.6l-2.5,9.4h-40.2
		l0.1-0.5c2.9,0,4.8-2.9,5.6-6.1l5.5-20.7c0.8-3,0.7-6.3-2.3-6.3l0.1-0.4L935.9,0.8L935.9,0.8z"/>
	<path id="_パス_69" class="st0" d="M853.5,0.8l-0.1,0.4c-8.5,0-11.9,5.9-13.1,10.4L834,34.7h-7.6L807.5,8.8l-4,15
		c-1,3.9-2.4,10.4,7.6,10.4l-0.1,0.5h-17c0-0.1,0-0.3,0-0.5c6.8-0.1,8-7.2,8.9-10.4L807,8.3L804.6,5c-3.1-3.8-5.8-3.8-7.6-3.9
		l0.1-0.4h21.9l17,23.6l3.5-12.9c1.2-4.5,0.6-10.4-7.1-10.4l0.1-0.4L853.5,0.8L853.5,0.8L853.5,0.8z"/>
	<path id="_パス_43-2" class="st0" d="M297.2,17.9c2.6-9.5-5.2-17.6-20.4-17.6c-15.1,0-27.2,8.1-29.8,17.6
		c-2.6,9.6,5.3,17.1,20.5,17.1C282.7,35.1,294.7,27.5,297.2,17.9z M280.5,17.9c-3.5,13.3-4.8,16.7-12.9,16.7s-7.6-3.5-4-16.7
		c3.5-13.2,4.9-17.2,13.1-17.2C284.8,0.8,284,4.7,280.5,17.9L280.5,17.9z"/>
	<path id="_パス_44-2" class="st0" d="M325.9,34.6L307,8.8l-4,15c-1,3.9-2.4,10.4,7.6,10.4l-0.1,0.5h-21.8l0.1-0.5
		c9.5,0,12.6-6.6,13.7-10.4l4.2-15.6L304.1,5c-3.1-3.8-5.8-3.8-7.6-3.9l0.1-0.4h21.9l17,23.6l3.5-12.9C340.2,7,339.6,1,331.9,1
		l0.1-0.4h20.8L352.8,1c-8.5,0-11.9,5.9-13.1,10.4l-6.2,23.1L325.9,34.6L325.9,34.6z"/>
	<path id="_パス_48-2" class="st2" d="M145.2,0.8c-13.7,0-26.3,1.1-28.4,9.2c-1.9,7.2,7.2,8.7,13.8,8.7c-7.9,0-12.2,1.2-17.9,9.8
		c-2.3,3.6-6.5,6.1-8.3,6.1l-0.1,0.5l13.7-0.5c4.9,0,6.9-2.2,11-11.1c2.2-4.8,10.4-4.6,10.4-4.6h3.2l-2.7,10.2c-1.3,4.7-1.6,5-4.5,5
		l-0.1,0.5h19.1l0.1-0.5c-3,0-3.5-0.1-2.2-5l6.4-23.8c0.8-3,1.7-4.3,4.7-4.3l0.1-0.4L145.2,0.8L145.2,0.8z M142.5,18.6h-2.1
		c-8.9,0-9.8,0.1-7.5-8.6c2.4-9.2,4.2-8.8,12.2-8.8h2.1L142.5,18.6L142.5,18.6L142.5,18.6z"/>
	<path id="_パス_49-2" class="st2" d="M184.3,1.2l-4.3,16.1h5.6c0.1,0,7.3,0.1,9.6-5.7h0.6l-3.2,11.8h-0.6
		c0.8-5.7-6.5-5.7-6.6-5.7h-5.6l-4.4,16.4h2.5c0,0,19.5,0.5,22.1-9h0.6l-2.5,9.4h-40.2l0.1-0.5c2.9,0,4.8-2.9,5.6-6.1l5.5-20.7
		c0.8-3,0.7-6.3-2.3-6.3l0.1-0.4h39.3l-2.6,9.8h-0.6c2.5-9.4-16.2-9.4-16.2-9.4h-2.4V1.2z"/>
	<path id="_パス_50-2" class="st2" d="M230.1,0.3c11.8,0,15.7,2.2,15.7,2.2l-2.2,8.1H243c-0.5-3.5-2-9.8-13-9.8
		c-7.4,0-11.1,5.7-3.2,9.8l9.3,4.9c8,4.2,8.7,10.4,2.2,15.6c0,0-4.8,3.9-16.7,3.9c-13.3,0-17.8-2.4-17.8-2.4l2.5-9.2h0.6
		c0.2,3.3,4,11.3,14.8,11.3c7.3,0,11.2-6.4,4-10.7l-9.3-4.7c-8.6-4.3-9.4-10.1-2.2-15.3C214,4,218.8,0.3,230.1,0.3L230.1,0.3
		L230.1,0.3z"/>
	<path id="_パス_66-2" class="st0" d="M383.3,34.2h-0.1c-1.7,0-2.4-2-3.1-3.9c0,0-0.7-1.6-10.6-29.5h-0.3l-20.4,24.5
		c-7.6,8.5-11.4,8.9-13.4,8.9l-0.1,0.4h19.8l0.1-0.4c-8.2,0-7.7-6.7-5.7-8.9h13.5l1.3,3.3c0,0,2.6,5.6-2.9,5.6l-0.1,0.4h22.2
		C383.3,34.5,383.3,34.3,383.3,34.2L383.3,34.2z M349.6,24.9l9-10.8l4,10.8H349.6z"/>
	<path id="_パス_67-2" class="st0" d="M475.5,23.1h0.6l-1.9,9.7c-2.1,0.9-9.4,2.3-16.7,2.3c-14.7,0-26.1-6.5-23.1-17.4
		c2.9-10.9,17.7-17.4,32.4-17.4c8.9,0,14.1,1.3,15.5,2.2l-3.3,9.7h-0.6c0.6-10-6.8-11.5-11.8-11.5c-7.6,0-11.9,3.8-15.4,17
		c-3.5,13.3-1.1,17,6.3,17C462.2,34.6,470.6,32.7,475.5,23.1L475.5,23.1L475.5,23.1z"/>
	<path id="_パス_68-2" class="st0" d="M525.1,0.8l-2.6,9.8h-0.6c2.5-9.4-16.2-9.4-16.2-9.4h-2.5l-4.3,16.1h5.6
		c0.1,0,7.3,0.1,9.6-5.7h0.6l-3.1,11.8h-0.6c0.8-5.7-6.5-5.7-6.6-5.7h-5.6l-4.4,16.4h2.5c0,0,19.5,0.5,22.1-9h0.6l-2.5,9.4h-40.2
		l0.1-0.5c2.9,0,4.8-2.9,5.6-6.1l5.5-20.7c0.8-3,0.7-6.3-2.3-6.3l0.1-0.4L525.1,0.8L525.1,0.8z"/>
	<path id="_パス_69-2" class="st0" d="M442.8,0.8l-0.1,0.4c-8.5,0-11.9,5.9-13.1,10.4l-6.2,23.1h-7.6L396.8,8.8l-4,15
		c-1,3.9-2.4,10.4,7.6,10.4l-0.1,0.5h-17c0-0.1,0-0.3,0-0.5c6.8-0.1,8-7.2,8.9-10.4l4.2-15.6L393.9,5c-3.1-3.8-5.8-3.8-7.6-3.9
		l0.1-0.4h21.9l17,23.6l3.5-12.9c1.2-4.5,0.6-10.4-7.1-10.4l0.1-0.4L442.8,0.8L442.8,0.8L442.8,0.8z"/>
	<rect y="0.3" class="st3" width="1125.8" height="34.7"/>
</g>
</svg>
