<?xml version="1.0" encoding="UTF-8"?>
<svg id="_レイヤー_2" data-name="レイヤー 2" xmlns="http://www.w3.org/2000/svg" viewBox="0 0 912.07 100">
  <defs>
    <style>
      .cls-1 {
        fill: #ff0084;
        stroke-width: 0px;
      }
    </style>
  </defs>
  <g id="_レイヤー_2-2" data-name="レイヤー 2">
    <path class="cls-1" d="m405.12,0s3.32,1.54,3.32,6.15v56.92c0,3.79-2.95,7.57-7.22,5.39L334.24,0h0s0,0,0,0v1.23s0,0,0,0v89.54c0,6.15-6.46,9.23-11.69,9.23h37.43s-3.32-1.54-3.32-6.15v-56.92c0-3.79,2.95-7.57,7.22-5.39l66.98,68.47V9.23c0-6.15,6.46-9.23,11.69-9.23h-37.43Z"/>
    <g>
      <path class="cls-1" d="m130.68,90.71v-54.46c0-19.32,15.8-36.25,32.66-36.25h-21.64c-9.66,0-34.22,12.31-34.22,36.92v54.19c0,8.88-9.45,8.88-9.45,8.88h40.42s-7.76-.12-7.76-9.29Z"/>
      <path class="cls-1" d="m172.34,9.29v54.46c0,19.32-15.8,36.25-32.66,36.25h21.64c9.66,0,34.22-12.31,34.22-36.92V8.88c0-8.88,9.45-8.88,9.45-8.88h-40.42s7.76.12,7.76,9.29Z"/>
    </g>
    <g>
      <path class="cls-1" d="m569.16,90.71v-54.46c0-19.32,16.82-36.25,34.78-36.25h-23.05c-10.29,0-36.45,12.31-36.45,36.92v54.19c0,8.88-10.06,8.88-10.06,8.88h43.04s-8.26-.12-8.26-9.29Z"/>
      <path class="cls-1" d="m613.52,9.29v54.46c0,19.32-16.82,36.25-34.78,36.25h23.05c10.29,0,36.45-12.31,36.45-36.92V8.88c0-8.88,10.06-8.88,10.06-8.88h-43.04s8.26.12,8.26,9.29Z"/>
    </g>
    <path class="cls-1" d="m676.8,52.28v41.57c0,4.62,1.32,6.15,3.03,6.15h-41.22s15.79-3.08,15.79-15.38V6.15c0-4.62-3.03-6.15-3.03-6.15h81.42s-5.82.8-5.82,3.26v90.59c0,4.62,1.32,6.15,3.03,6.15h-34.38s8.95-1.07,8.95-15.38v-32.34h-27.77Zm0-4.55h27.77V4.55h-11.98c-4.79,0-15.79.85-15.79,10.83v32.34Z"/>
    <path class="cls-1" d="m94.68,68.69c0,20.88-18.45,31.31-27.45,31.31H0s16.28-3.08,16.28-15.38V6.15c0-4.62-3.13-6.15-3.13-6.15h51.5c2.57,0,4.89,1.13,6.84,2.75,5.98,4.98,15.74,14.82,20.82,20.19,1.45,1.53,2.36,3.46,2.36,5.53v40.22Zm-18.21-41.49c0-12.45-10.41-22.55-23.25-22.55h-4.04c-4.94,0-14.09.85-14.09,10.83v73.71c0,4.62,1.36,6.15,3.13,6.15h7.83c15.7,0,30.41-9.6,30.41-25.99V27.2Z"/>
    <path class="cls-1" d="m827.47,68.69c0,20.88-18.45,31.31-27.45,31.31h-67.23s16.28-3.08,16.28-15.38V6.15c0-4.62-3.13-6.15-3.13-6.15h51.5c2.57,0,4.89,1.13,6.84,2.75,5.98,4.98,15.74,14.82,20.82,20.19,1.45,1.53,2.36,3.46,2.36,5.53v40.22Zm-18.21-41.49c0-12.45-10.41-22.55-23.25-22.55h-4.04c-4.94,0-14.09.85-14.09,10.83v73.71c0,4.62,1.36,6.15,3.13,6.15h7.83c15.7,0,30.41-9.6,30.41-25.99V27.2Z"/>
    <path class="cls-1" d="m443.79,100s11.41-1.79,11.41-12.07V6.15c0-4.62-3.03-6.15-3.03-6.15h41.22s-15.79,3.08-15.79,15.38v73.71c0,4.62,1.32,6.15,3.03,6.15h52.91c-.51,0-1.14.28-1.14,1.67,0,3.08,2.57,3.08,2.57,3.08h-91.18Z"/>
    <g>
      <path class="cls-1" d="m862.63,61.64v-25.39c0-19.32,16.82-36.25,34.78-36.25h-23.05c-10.29,0-36.45,12.31-36.45,36.92l24.72,24.72Z"/>
      <path class="cls-1" d="m887.36,38.36v25.39c0,19.32-16.82,36.25-34.78,36.25h23.05c10.29,0,36.45-12.31,36.45-36.92l-24.72-24.72Z"/>
    </g>
    <path class="cls-1" d="m331.35,0h-20.87s3.46,2.04,3.46,4.5c0,3.93-23.47,70.64-23.47,70.64l-18.65-59.98c-5.22-10.82,5.24-15.16,5.24-15.16h-33.73s4.85,2.3,7.28,6.06c1.97,3.04,6.01,13.9,10.59,27.21-6.62,19.57-14.47,41.87-14.47,41.87l-18.65-59.98c-5.22-10.82,5.24-15.16,5.24-15.16h-33.73s4.85,2.3,7.28,6.06c6.1,9.43,32.14,93.94,32.14,93.94h8.24l18-54.72c8.61,25.87,17.5,54.72,17.5,54.72h8.24l29.92-90.97c2.72-7.37,12.4-9.03,12.4-9.03h-1.97Z"/>
  </g>
</svg>