<?xml version="1.0" encoding="UTF-8"?>
<svg id="_レイヤー_2" data-name="レイヤー 2" xmlns="http://www.w3.org/2000/svg" viewBox="0 0 19.84 19.84">
  <defs>
    <style>
      .cls-1 {
        fill: #231815;
      }

      .cls-1, .cls-2, .cls-3 {
        stroke-width: 0px;
      }

      .cls-2 {
        fill: none;
      }

      .cls-3 {
        fill: #fff;
      }
    </style>
  </defs>
  <g id="_レイヤー_9" data-name="レイヤー 9">
    <g>
      <circle class="cls-1" cx="9.92" cy="9.92" r="9.92"/>
      <g>
        <path class="cls-3" d="m9.92.42C4.68.42.42,4.68.42,9.92s4.26,9.5,9.5,9.5,9.5-4.26,9.5-9.5S15.16.42,9.92.42ZM3.66,3.92c0-.12.1-.22.22-.22h12.1c.12,0,.22.1.22.22v8.05c0,.12-.1.22-.22.22H3.87c-.12,0-.22-.1-.22-.22V3.92Zm12.95,11.8s0,.01,0,.02c0,0,0,0,0,0,0,0,0,.01,0,.02,0,.02-.01.03-.02.05,0,0,0,.01-.01.02,0,0,0,.01-.01.02,0,0,0,.01-.01.02,0,0,0,0,0,0,0,0-.01.01-.02.01,0,0-.01,0-.02.01,0,0,0,0-.01,0,0,0-.02,0-.03.01,0,0-.01,0-.02,0-.01,0-.03,0-.05,0H3.46s-.03,0-.05,0c0,0-.01,0-.02,0,0,0-.02,0-.03-.01,0,0,0,0-.01,0,0,0-.01,0-.02-.01,0,0-.01,0-.02-.01,0,0,0,0,0,0,0,0-.01-.01-.02-.02,0,0,0,0-.01-.02,0,0,0-.01-.01-.02,0,0,0-.01,0-.02,0,0,0-.01,0-.02,0,0,0-.01,0-.02,0,0,0-.01,0-.02h0s0-.03,0-.04c0,0,0-.01,0-.02,0,0,0,0,0-.01l.37-2.79c.01-.11.11-.19.21-.19h12.2c.11,0,.2.08.21.19l.37,2.78s0,0,0,0c0,0,0,0,0,.01,0,.01,0,.02,0,.03Z"/>
        <path class="cls-3" d="m4.09,4.14v7.61h11.67v-7.61H4.09Zm8.66,5.62c0,.49-.55.88-1.23.88s-1.23-.39-1.23-.88.55-.88,1.23-.88c.3,0,.58.08.79.21v-3.64l-3.7.65v4.43c0,.49-.55.88-1.23.88s-1.23-.39-1.23-.88.55-.88,1.23-.88c.3,0,.58.08.79.21v-4.57h0,0s4.13-.74,4.13-.74l.16-.03.27-.05h0s0,5.27,0,5.27Z"/>
        <rect class="cls-2" x=".14" y=".14" width="19.56" height="19.56"/>
      </g>
    </g>
  </g>
</svg>