<?xml version="1.0" encoding="UTF-8"?>
<svg id="_レイヤー_2" data-name="レイヤー 2" xmlns="http://www.w3.org/2000/svg" viewBox="0 0 20.15 20.15">
  <defs>
    <style>
      .cls-1 {
        fill: #231815;
        stroke-width: 0px;
      }

      .cls-2 {
        fill: none;
        stroke-width: .44px;
      }

      .cls-2, .cls-3 {
        stroke: #231815;
      }

      .cls-3 {
        fill: #fff;
        stroke-width: .31px;
      }
    </style>
  </defs>
  <g id="_レイヤー_9" data-name="レイヤー 9">
    <g>
      <circle class="cls-3" cx="10.08" cy="10.08" r="9.92" transform="translate(-1.39 18.54) rotate(-81.45)"/>
      <path class="cls-1" d="m1.92,8.18c3.8-2.11,7.97-3.33,11.11-2.72,1.94.07,2.99-.12,2.99-.12l-1.49.55c1.93.68,3.37,2.4,3.37,2.4.36.45,1.3,1.01,1.3,1.01-1.69.97-3.53,4-3.53,4,1.05-2.86,1.15-4,1.15-4-2.74-2.3-6.04-2.53-6.04-2.53-4.7-.14-9.82,3.5-9.82,3.5.53-1.18,2.07-2.24,2.07-2.24l-1.11.15Z"/>
      <path class="cls-2" d="m12.72,14.61c-2,.32-3.99.32-5.99,0"/>
      <path class="cls-1" d="m9.72,6.01c1.85,0,3.35,1.98,3.35,4.42-2.23.86-4.46.86-6.69,0,0-2.44,1.5-4.42,3.34-4.42m-.46,2.2c0-.6-.49-1.09-1.09-1.09s-1.09.49-1.09,1.09.49,1.09,1.09,1.09,1.09-.49,1.09-1.09"/>
      <path class="cls-2" d="m13.07,10.43c0,2.44-1.5,4.42-3.35,4.42s-3.34-1.98-3.34-4.42,1.5-4.42,3.34-4.42,3.35,1.98,3.35,4.42Z"/>
      <path class="cls-2" d="m7.08,8.21c0-.6.49-1.09,1.09-1.09s1.09.49,1.09,1.09-.49,1.09-1.09,1.09-1.09-.49-1.09-1.09Z"/>
      <path class="cls-2" d="m6.38,10.43c2.23.86,4.46.86,6.69,0"/>
      <path class="cls-1" d="m11.06,10.56c0,1.2-.6,2.18-1.34,2.18s-1.34-.98-1.34-2.18"/>
      <path class="cls-2" d="m11.06,10.56c0,1.2-.6,2.18-1.34,2.18s-1.34-.98-1.34-2.18"/>
    </g>
  </g>
</svg>