<?xml version="1.0" encoding="UTF-8"?>
<svg id="_レイヤー_2" data-name="レイヤー 2" xmlns="http://www.w3.org/2000/svg" viewBox="0 0 19.84 19.84">
  <defs>
    <style>
      .cls-1 {
        fill: #231815;
      }

      .cls-1, .cls-2, .cls-3 {
        stroke-width: 0px;
      }

      .cls-2 {
        fill: none;
      }

      .cls-3 {
        fill: #fff;
      }
    </style>
  </defs>
  <g id="_レイヤー_9" data-name="レイヤー 9">
    <g>
      <circle class="cls-1" cx="9.92" cy="9.92" r="9.92"/>
      <g>
        <path class="cls-3" d="m9.92.42C4.69.42.42,4.69.42,9.92s4.26,9.5,9.5,9.5,9.5-4.26,9.5-9.5S15.16.42,9.92.42Zm1.87,4.65c.78-.77,2.04-.77,2.81,0,.19.19.33.41.43.64.1.24.15.5.15.76,0,.53-.21,1.03-.58,1.41-.39.39-.9.58-1.4.58s-1.02-.19-1.41-.58c-.77-.78-.77-2.04,0-2.81Zm-6.82,0c.37-.37.87-.58,1.4-.58s1.03.21,1.4.58c.19.19.33.41.43.64s.15.5.15.76c0,.53-.21,1.03-.58,1.41-.37.37-.87.58-1.4.58s-1.03-.21-1.4-.58c-.38-.38-.58-.87-.58-1.41s.21-1.03.58-1.4Zm2.81,9.64c-.39.39-.9.58-1.4.58s-1.02-.19-1.41-.58c-.38-.38-.58-.88-.58-1.41s.21-1.03.58-1.4c.38-.38.87-.58,1.41-.58s1.03.21,1.4.58c.38.37.58.87.58,1.4s-.21,1.03-.58,1.41Zm6.78-.05c-.38.38-.87.58-1.41.58s-1.03-.21-1.41-.58c-.77-.78-.77-2.04,0-2.81.38-.37.87-.58,1.41-.58s1.03.21,1.41.58h0c.77.77.77,2.04,0,2.81Zm1.82-4.58h-6.36v6.43h-.46v-6.43H3.19v-.46h6.36V3.33h.46v6.29h6.36v.46Z"/>
        <path class="cls-3" d="m8.09,6.47c0,.46-.18.89-.5,1.21-.32.32-.75.5-1.21.5s-.89-.18-1.21-.5c-.32-.32-.5-.75-.5-1.21s.18-.89.5-1.21c.32-.32.75-.5,1.21-.5s.89.18,1.21.5h0c.32.32.5.75.5,1.21Z"/>
        <path class="cls-3" d="m14.36,14.46c-.67.67-1.76.67-2.42,0-.67-.67-.67-1.76,0-2.42.33-.33.77-.5,1.21-.5.22,0,.44.04.65.13.21.08.4.21.57.38.67.67.67,1.75,0,2.42Z"/>
        <rect class="cls-2" x=".14" y=".14" width="19.56" height="19.56"/>
      </g>
    </g>
  </g>
</svg>