<?xml version="1.0" encoding="UTF-8"?>
<svg id="_レイヤー_2" data-name="レイヤー 2" xmlns="http://www.w3.org/2000/svg" viewBox="0 0 19.84 19.84">
  <defs>
    <style>
      .cls-1 {
        fill: #231815;
      }

      .cls-1, .cls-2, .cls-3 {
        stroke-width: 0px;
      }

      .cls-2 {
        fill: none;
      }

      .cls-3 {
        fill: #fff;
      }
    </style>
  </defs>
  <g id="_レイヤー_9" data-name="レイヤー 9">
    <g>
      <circle class="cls-1" cx="9.92" cy="9.92" r="9.92"/>
      <g>
        <path class="cls-3" d="m19.42,9.92c0,2.69-1.13,5.13-2.94,6.86l-3.95-4.87,4.33-5.77-.25-.19-4.28,5.71-1.88-2.31c.07-.14.14-.27.2-.42.24-.56.36-1.16.36-1.77s-.12-1.21-.36-1.77c-.23-.54-.56-1.03-.98-1.45-.42-.42-.91-.75-1.45-.98-.56-.24-1.16-.36-1.77-.36s-1.21.12-1.77.36c-.54.23-1.03.56-1.45.98-.42.42-.75.91-.98,1.45-.24.56-.36,1.16-.36,1.77s.12,1.21.36,1.77c.23.54.56,1.03.98,1.45.42.42.91.75,1.45.98.56.24,1.16.36,1.77.36s1.21-.12,1.77-.36c.54-.23,1.03-.56,1.45-.98.23-.23.43-.48.6-.75l1.86,2.29-4.33,5.77.25.19,4.28-5.71,3.92,4.82c-1.68,1.51-3.9,2.42-6.33,2.42C4.68,19.42.42,15.16.42,9.92S4.68.42,9.92.42s9.5,4.26,9.5,9.5Z"/>
        <path class="cls-3" d="m8.1,6.46l-.24.2,2.21,2.72c-.75,1.21-2.09,2.03-3.62,2.03-2.34,0-4.25-1.9-4.25-4.25s1.9-4.25,4.25-4.25,4.24,1.9,4.24,4.25c0,.69-.17,1.35-.46,1.93l-2.13-2.63Z"/>
        <rect class="cls-2" x=".14" y=".14" width="19.56" height="19.56"/>
      </g>
    </g>
  </g>
</svg>