<?xml version="1.0" encoding="UTF-8"?>
<svg id="_レイヤー_2" data-name="レイヤー 2" xmlns="http://www.w3.org/2000/svg" viewBox="0 0 19.84 19.84">
  <defs>
    <style>
      .cls-1 {
        fill: #231815;
      }

      .cls-1, .cls-2, .cls-3 {
        stroke-width: 0px;
      }

      .cls-2 {
        fill: none;
      }

      .cls-3 {
        fill: #fff;
      }
    </style>
  </defs>
  <g id="_レイヤー_9" data-name="レイヤー 9">
    <g>
      <circle class="cls-1" cx="9.92" cy="9.92" r="9.92"/>
      <g>
        <path class="cls-3" d="m12.91,18.94c-.94.31-1.94.48-2.98.48s-2.05-.17-2.98-.48h5.97Z"/>
        <path class="cls-3" d="m15.03,17.92c-.28.18-.57.35-.88.5H5.69c-.3-.15-.59-.32-.88-.5h10.22Z"/>
        <path class="cls-3" d="m7.47,11.66c-.02.14-.04.33-.08.58-.08.51-.2,1.19-.35,1.9-.14.68-.28,1.35-.41,1.88-.16.65-.24.87-.26.94-.05.03-.11.08-.19.13-.12.09-.35.26-.46.32h-1.63C1.86,15.66.42,12.96.42,9.92.42,6.58,2.16,3.63,4.78,1.94c.02.13.11.33.34.7.19.31.43.68.64,1,.17.26.38.58.43.68.02.22-.06.34-.24.55-.05.06-.1.12-.15.19-.09.12-.18.36-.32.71-.06.16-.15.38-.18.43-.06.09-.61.77-1.14,1.42-1.82,2.24-2.34,2.9-2.41,3.06-.11.24.09.5.29.73.19.21.46.46.78.72.44.36.92.7,1.32.93.57.33.91.41,1.12.26.21-.15.62-.46,1.09-.82.36-.27.75-.58,1.12-.85Z"/>
        <path class="cls-3" d="m11.01.49c-3.02,2.37-4.98,1.51-5.73,1.19-.01,0-.02-.01-.04-.02,1.38-.78,2.98-1.23,4.68-1.23.37,0,.73.02,1.09.06Z"/>
        <path class="cls-3" d="m9.87,11.63c0,.48-.03,1.05-.09,1.76-.02.24-.03.48-.04.72-.03.67-.06,1.36-.26,1.98-.11.32-.28.6-.5.8-.15.13-.39.35-.54.52h-1.82s.06-.04.07-.05c.09-.06.14-.15.22-.42.05-.16.11-.39.18-.67.13-.53.29-1.25.44-1.97.16-.77.29-1.49.37-2.03.08-.55.11-.84.1-1.01.4-.29.53-.36.57-.38.44-.07.85-.22,1.21-.39,0,.14.02.28.04.42.03.26.05.51.05.73Z"/>
        <path class="cls-3" d="m11.49,17.2c-.03.07-.05.14-.07.2h-2.25s.1-.09.15-.14c.29-.26.51-.61.65-1.02.23-.69.26-1.41.29-2.12.01-.24.02-.47.04-.7.05-.72.08-1.31.09-1.79,0-.25-.02-.52-.05-.79-.02-.22-.04-.45-.05-.65.29-.18.52-.37.69-.52.27-.23.5-.48.68-.72.37.41.59.89.61,1.32.21,4.11-.46,6.01-.78,6.92Z"/>
        <path class="cls-3" d="m14.11,7.95c0,.33-.02,1.31-.04,2.42-.02,1.39-.06,3.13-.08,4.53-.02,1.71-.02,2.29-.01,2.5h-2.02s0-.02.01-.03c.33-.94,1.02-2.91.81-7.12-.03-.59-.34-1.23-.84-1.75.06-.12.1-.24.11-.34.03-.26,0-.85-.03-1.38.19.02.52.13,1.08.46.31.19.67.43,1.01.7Z"/>
        <path class="cls-3" d="m18.46,14.07c-.64,1.31-1.57,2.45-2.7,3.33h-1.02c.22-.2.55-.51,1.08-1.01.52-.49,1.11-1.05,1.59-1.49.69-.63.89-.78.95-.81l.1-.03Z"/>
        <path class="cls-3" d="m19.42,9.92c0,1.4-.31,2.74-.86,3.94l-.04-.1s-.02-.04-.05-.1c-.65-1.22-2.02-4.35-.61-6.96l.14-.26-.28-.1c-2.41-.91-4.01-1.8-4.89-2.73-.73-.78-.85-1.47-.97-2.13-.05-.31-.1-.61-.21-.9,4.41.82,7.75,4.7,7.75,9.34Z"/>
        <path class="cls-3" d="m11.43,6c-.03-.11-.28-.65-.7-1.47-.39-.76-.69-1.3-.77-1.41-.05-.03-.19-.1-.37-.17-.16-.06-.27-.08-.33-.09-.02.18-.03.54-.04.8-.02.51-.03.83-.07.99,0,0-.19.76-.41.99l-.06.06h-.08c-.23.05-.71,0-1.47-.12-.35-.05-.74-.11-.95-.12-.06.13-.14.34-.2.49-.1.26-.17.43-.22.52-.05.08-.37.47-1.18,1.47-.78.96-2.06,2.53-2.31,2.89.04.06.13.19.37.43.24.23.55.49.88.74.34.25.68.48.96.64.33.19.48.22.53.23.21-.15.6-.45,1.04-.79.48-.37,1.02-.78,1.46-1.11.75-.55.88-.61.98-.62.98-.15,1.77-.74,2.16-1.08.61-.53.89-1.02.9-1.17.04-.36-.05-1.73-.11-2.12Zm-4.31,1.69l-2.26.56,1.5-2.09h2l-1.24,1.53Z"/>
        <path class="cls-3" d="m17.94,13.76c-.16.12-.41.33-.82.71-.5.46-1.11,1.04-1.65,1.55-.34.32-.7.67-.97.91,0-1.28.06-4.61.09-6.55.01-.73.02-1.36.03-1.82,0-.24,0-.42,0-.54,0-.07,0-.11,0-.15,0-.02,0-.03,0-.04,0-.09-.04-.16-.1-.21,0,0,0,0-.02-.01-.39-.3-.78-.58-1.14-.79-.58-.35-1.04-.52-1.39-.54-.01-.15-.03-.27-.04-.35,0-.05-.02-.13-.26-.64-.13-.28-.31-.64-.5-1.01-.19-.37-.37-.72-.52-.98-.27-.49-.32-.53-.37-.56-.11-.08-.34-.19-.52-.26-.3-.11-.53-.15-.69-.11-.13.03-.22.1-.27.21-.06.12-.08.35-.11,1.08-.01.34-.03.76-.06.88-.05.2-.16.53-.24.68-.25,0-.79-.08-1.2-.14-.27-.04-.5-.07-.68-.09.13-.19.23-.43.19-.77-.01-.11-.08-.21-.51-.86-.2-.3-.42-.63-.59-.93-.02-.03-.04-.06-.06-.09.39.14.91.27,1.57.27.08,0,.16,0,.25,0,1.25-.06,2.55-.62,3.89-1.64.05.19.09.4.13.61.12.71.26,1.51,1.1,2.4.45.47,1.04.92,1.81,1.37.8.46,1.8.93,3,1.39-.31.66-.49,1.38-.53,2.17-.04.72.04,1.49.23,2.28.14.61.43,1.54.97,2.59Z"/>
        <polygon class="cls-3" points="7.63 6.51 6.92 7.39 5.67 7.7 6.53 6.51 7.63 6.51"/>
        <rect class="cls-2" x=".14" y=".14" width="19.56" height="19.56"/>
      </g>
    </g>
  </g>
</svg>