<?xml version="1.0" encoding="UTF-8"?>
<svg id="_レイヤー_2" data-name="レイヤー 2" xmlns="http://www.w3.org/2000/svg" viewBox="0 0 19.84 19.84">
  <defs>
    <style>
      .cls-1 {
        fill: #231815;
      }

      .cls-1, .cls-2, .cls-3 {
        stroke-width: 0px;
      }

      .cls-2 {
        fill: none;
      }

      .cls-3 {
        fill: #fff;
      }
    </style>
  </defs>
  <g id="_レイヤー_9" data-name="レイヤー 9">
    <g>
      <circle class="cls-1" cx="9.92" cy="9.92" r="9.92"/>
      <g>
        <path class="cls-3" d="m19.42,9.92c0,3.1-1.49,5.86-3.8,7.59-.18-.25-.49-.64-.92-1.01v-.86c1.7-1.42,2.67-3.5,2.67-5.72,0-1.01-.2-1.98-.59-2.9-.38-.89-.91-1.68-1.6-2.37-.68-.68-1.48-1.22-2.37-1.6-.92-.39-1.89-.59-2.9-.59s-1.98.2-2.9.59c-.89.38-1.68.91-2.37,1.6-.15.15-.3.31-.44.48,0-.01,0-.03,0-.04,0-.48-.39-.87-.87-.87s-.87.39-.87.87.39.87.87.87c.11,0,.21-.02.3-.05-.22.35-.42.72-.58,1.11-.39.92-.59,1.89-.59,2.9,0,.33.02.67.07,1-.22.07-.38.15-.5.25-.14.11-.22.24-.23.39-.03.29.2.62.67.97.27.2.54.35.64.4.46,1.04,1.16,1.97,2.04,2.71v.57c-.41.15-.7.54-.7,1.01,0,.21.06.41.17.58C2.09,16.08.42,13.19.42,9.92.42,4.68,4.68.42,9.92.42s9.5,4.26,9.5,9.5Z"/>
        <path class="cls-3" d="m14.45,15.71v.73H6.24c-.19-.18-.45-.29-.73-.29-.04,0-.08,0-.12,0v-.45h9.05Z"/>
        <path class="cls-3" d="m15.42,17.66c-1.12.79-2.41,1.35-3.81,1.61-.03-.21-.11-.58-.26-.99-.13-.37-.3-.71-.5-.99-.16-.23-.34-.44-.54-.6h4.21c.42.36.72.74.89.98Z"/>
        <path class="cls-3" d="m11.36,19.31c-.47.07-.95.11-1.44.11-1.63,0-3.16-.41-4.5-1.14.03,0,.06,0,.09,0,.59,0,1.07-.48,1.07-1.07,0-.19-.05-.38-.14-.53h3.44c.66.4,1.03,1.13,1.23,1.67.14.39.21.75.25.95Z"/>
        <path class="cls-3" d="m8.22,3.75c-.15-.16-.37-.25-.64-.25-.07,0-.14,0-.21.02-.37.06-.75.25-1.07.56-.32.3-.54.67-.62,1.04-.07.35,0,.65.18.86.19.2.49.28.84.23.37-.06.75-.25,1.07-.56.16-.15.29-.32.4-.49.1-.18.18-.36.22-.54.07-.35,0-.65-.18-.86Zm-.85.69c-.06.13-.17.28-.3.4-.14.13-.29.23-.42.28-.08.03-.14.04-.2.04-.11,0-.17-.05-.2-.08-.05-.05-.12-.17-.01-.4.06-.13.17-.28.3-.4h0c.14-.13.29-.23.42-.28.23-.09.35-.01.4.04.05.05.12.17.01.4Z"/>
        <path class="cls-3" d="m9.92,2.72c-3.97,0-7.2,3.23-7.2,7.2,0,.36.03.72.08,1.07l.02.11-.11.03c-.29.08-.64.23-.66.46-.02.19.18.45.56.74.29.22.6.38.64.4.07.03,1.08.43,2.22.53,1.56.13,2.63-.34,3.18-1.39l.22.12c-.33.64-.85,1.08-1.53,1.33-.54.19-1.18.26-1.9.2-.85-.07-1.61-.3-2.01-.44.45.91,1.09,1.73,1.87,2.39h4.54c.08-.12.28-.43.49-.89.26-.54.59-1.39.72-2.38.34-2.51-.68-4.67-3.04-6.43-.02.02-.05.05-.07.07-.18.17-.37.31-.58.41s-.42.18-.63.21c-.08.01-.17.02-.25.02-.33,0-.62-.11-.82-.33-.25-.26-.34-.65-.25-1.08.09-.42.33-.83.69-1.17.36-.34.78-.56,1.2-.62.44-.07.81.04,1.06.31.25.26.34.65.25,1.08-.07.31-.22.63-.45.9,1.31.98,2.23,2.11,2.73,3.36.41,1.03.54,2.14.38,3.3-.14,1.03-.48,1.9-.75,2.46-.16.34-.32.61-.42.77h4.37c1.65-1.37,2.59-3.39,2.59-5.53,0-3.97-3.23-7.2-7.2-7.2Zm-4.06,8.5l-1.26-1.98.21-.13,1.26,1.98-.21.13Zm-.2-4.29l3.43.97-.07.24-3.43-.97.07-.24Zm2.42,2.89l-.14.21-2.74-1.91.14-.21,2.74,1.91Z"/>
        <path class="cls-3" d="m6.9,4.67c-.23.21-.42.26-.47.25-.01-.05.05-.24.28-.45.23-.21.42-.26.47-.25.01.05-.05.24-.28.45Z"/>
        <path class="cls-3" d="m6.32,17.07l-1.55-.21c.13-.28.41-.47.74-.47.4,0,.74.29.81.68Z"/>
        <path class="cls-3" d="m6.33,17.32c-.05.4-.4.71-.81.71-.45,0-.82-.37-.82-.82,0-.04,0-.07,0-.11l1.63.22Z"/>
        <rect class="cls-2" x=".14" y=".14" width="19.56" height="19.56"/>
      </g>
    </g>
  </g>
</svg>