<?xml version="1.0" encoding="UTF-8"?>
<svg id="_レイヤー_2" data-name="レイヤー 2" xmlns="http://www.w3.org/2000/svg" viewBox="0 0 19.84 19.84">
  <defs>
    <style>
      .cls-1 {
        fill: #231815;
      }

      .cls-1, .cls-2, .cls-3 {
        stroke-width: 0px;
      }

      .cls-2 {
        fill: none;
      }

      .cls-3 {
        fill: #fff;
      }
    </style>
  </defs>
  <g id="_レイヤー_9" data-name="レイヤー 9">
    <g>
      <circle class="cls-1" cx="9.92" cy="9.92" r="9.92"/>
      <g>
        <path class="cls-3" d="m9.92.42C4.68.42.42,4.68.42,9.92s4.26,9.5,9.5,9.5,9.5-4.26,9.5-9.5S15.16.42,9.92.42Zm0,17.45c-4.38,0-7.95-3.57-7.95-7.95S5.54,1.97,9.92,1.97s7.95,3.57,7.95,7.95-3.57,7.95-7.95,7.95Z"/>
        <path class="cls-3" d="m9.92,7.6c-1.28,0-2.32,1.04-2.32,2.32s1.04,2.32,2.32,2.32,2.32-1.04,2.32-2.32-1.04-2.32-2.32-2.32Zm0,3.91c-.88,0-1.59-.71-1.59-1.59s.71-1.59,1.59-1.59,1.59.71,1.59,1.59-.71,1.59-1.59,1.59Z"/>
        <path class="cls-3" d="m17.61,10.05c-.07,4.19-3.49,7.57-7.69,7.57s-7.62-3.39-7.69-7.57h5.13c.07,1.36,1.18,2.44,2.56,2.44s2.49-1.09,2.56-2.44h5.13Z"/>
        <path class="cls-3" d="m11.26,9.92c0,.74-.6,1.34-1.34,1.34s-1.34-.6-1.34-1.34.6-1.34,1.34-1.34,1.34.6,1.34,1.34Z"/>
        <rect class="cls-2" x=".14" y=".14" width="19.56" height="19.56"/>
      </g>
    </g>
  </g>
</svg>