<?xml version="1.0" encoding="UTF-8"?>
<svg id="_レイヤー_2" data-name="レイヤー 2" xmlns="http://www.w3.org/2000/svg" viewBox="0 0 19.84 19.84">
  <defs>
    <style>
      .cls-1 {
        fill: #231815;
      }

      .cls-1, .cls-2, .cls-3 {
        stroke-width: 0px;
      }

      .cls-2 {
        fill: none;
      }

      .cls-3 {
        fill: #fff;
      }
    </style>
  </defs>
  <g id="_レイヤー_9" data-name="レイヤー 9">
    <g>
      <circle class="cls-1" cx="9.92" cy="9.92" r="9.92"/>
      <g>
        <path class="cls-3" d="m9.92.42C4.68.42.42,4.68.42,9.92s4.26,9.5,9.5,9.5,9.5-4.26,9.5-9.5S15.16.42,9.92.42Zm1.2,4.34l.53.53-.53.53-.53-.53.53-.53Zm-2.67-1.82l.89.34-.34.89-.89-.34.34-.89Zm.87,5.44l-.76.26-.26-.76.76-.26.26.76Zm-1.62-2.47l.26-.37.13.43.43.14-.37.26v.45s-.36-.27-.36-.27l-.43.14.15-.43-.27-.36h.45Zm-2.36-1.16l.55.55-.55.55-.55-.55.55-.55Zm-.42,3.83l-.08-.44.4.21.4-.21-.08.44.32.31-.45.06-.2.4-.2-.4-.45-.06.32-.31Zm9.51,2.55c0,.48-.79.91-2.01,1.18l.45,4.12c.13.78-1.52,1.48-3.54,1.49-2.03,0-3.67-.71-3.54-1.49l.45-4.13c-1.22-.27-2.01-.7-2.01-1.18,0-.82,2.28-1.48,5.1-1.48.65,0,1.26.03,1.83.1l2.94-3.59.6.43-2.69,3.28c1.45.26,2.41.73,2.41,1.26Zm1.9-6.51l-1.35,1.65-.6-.43,1.38-1.69c.13-.16.36-.18.52-.05.04.03.07.07.09.11.07.13.06.29-.04.41Z"/>
        <path class="cls-3" d="m12.5,10.85c0,.35-1.41.63-3.15.63s-3.15-.28-3.15-.63,1.41-.63,3.15-.63c.5,0,.97.02,1.38.06l-.2.25c-.13.16-.11.39.05.52.16.13.39.11.52-.05l.49-.59c.56.11.91.27.91.45Z"/>
        <path class="cls-3" d="m11.98,12.47c-.12.1-1.12.64-2.63.64s-2.51-.54-2.63-.64c.1.03.21.05.34.08.62.12,1.43.18,2.29.18s1.67-.06,2.29-.18c.13-.02.24-.05.34-.08Z"/>
        <rect class="cls-2" x=".14" y=".14" width="19.56" height="19.56"/>
      </g>
    </g>
  </g>
</svg>