<?xml version="1.0" encoding="UTF-8"?>
<svg id="_レイヤー_2" data-name="レイヤー 2" xmlns="http://www.w3.org/2000/svg" viewBox="0 0 19.84 19.84">
  <defs>
    <style>
      .cls-1 {
        fill: #231815;
      }

      .cls-1, .cls-2, .cls-3 {
        stroke-width: 0px;
      }

      .cls-2 {
        fill: none;
      }

      .cls-3 {
        fill: #fff;
      }
    </style>
  </defs>
  <g id="_レイヤー_9" data-name="レイヤー 9">
    <g>
      <circle class="cls-1" cx="9.92" cy="9.92" r="9.92"/>
      <g>
        <path class="cls-3" d="m9.92.42C4.68.42.42,4.68.42,9.92s4.26,9.5,9.5,9.5,9.5-4.26,9.5-9.5S15.16.42,9.92.42Zm.65,17.92c-.26.35-.53.6-.54.61l-.1.1-.1-.1s-.29-.26-.54-.61c-.36-.49-.5-.92-.41-1.28.09-.38.43-.66,1.01-.81h.04s.04,0,.04,0c.58.15.92.43,1.01.81.09.36-.05.79-.41,1.28Zm3.54-2.66l-2.81-1.12c-.2.69-.34,1.05-.35,1.07l-.04.1h-1.99l-.04-.1s-.15-.38-.35-1.07l-2.81,1.12-.34-1.35,2.26-4.12c-.12-.85-.23-1.81-.3-2.87,0-.08-.12-1.05.12-2.22.14-.7.38-1.33.71-1.85.42-.66.98-1.18,1.66-1.52l.07-.04.07.04c.69.35,1.25.86,1.66,1.52.33.53.57,1.15.71,1.85.24,1.16.13,2.14.12,2.22-.08,1.06-.18,2.02-.3,2.87l2.26,4.12-.34,1.35Z"/>
        <path class="cls-3" d="m8.46,14.26l-2.51,1-.22-.88,2-3.65c.18,1.15.37,2.09.54,2.78.07.28.13.53.19.76Z"/>
        <path class="cls-3" d="m14.11,14.38l-.22.88-2.51-1c.06-.23.13-.48.19-.76.16-.69.36-1.62.54-2.78l2,3.65Z"/>
        <path class="cls-3" d="m12.06,5.17c-.3-1.48-1.02-2.53-2.14-3.12-1.12.59-1.84,1.64-2.14,3.12-.24,1.14-.12,2.12-.12,2.13h0c.2,2.77.6,4.85.9,6.11.26,1.08.49,1.76.57,2h1.56c.09-.24.32-.92.57-2,.3-1.26.7-3.35.9-6.11h0s.12-1-.12-2.14Zm-1.98,9.39h-.31v-4.4h.31v4.4Zm-.16-5.1c-.42,0-.77-.34-.77-.77s.34-.77.77-.77.77.34.77.77-.34.77-.77.77Zm0-2.57c-.63,0-1.13-.51-1.13-1.13s.51-1.13,1.13-1.13,1.13.51,1.13,1.13-.51,1.13-1.13,1.13Z"/>
        <path class="cls-3" d="m10.74,5.77c0,.45-.37.82-.82.82s-.82-.37-.82-.82.37-.82.82-.82.82.37.82.82Z"/>
        <path class="cls-3" d="m10.38,8.7c0,.25-.2.46-.46.46s-.46-.2-.46-.46.2-.46.46-.46.46.2.46.46Z"/>
        <rect class="cls-2" x=".14" y=".14" width="19.56" height="19.56"/>
      </g>
    </g>
  </g>
</svg>