<?xml version="1.0" encoding="UTF-8"?>
<svg id="_レイヤー_2" data-name="レイヤー 2" xmlns="http://www.w3.org/2000/svg" viewBox="0 0 19.84 19.84">
  <defs>
    <style>
      .cls-1 {
        fill: #231815;
      }

      .cls-1, .cls-2, .cls-3 {
        stroke-width: 0px;
      }

      .cls-2 {
        fill: none;
      }

      .cls-3 {
        fill: #fff;
      }
    </style>
  </defs>
  <g id="_レイヤー_9" data-name="レイヤー 9">
    <g>
      <circle class="cls-1" cx="9.92" cy="9.92" r="9.92"/>
      <g>
        <path class="cls-3" d="m13.21,1.01h-6.58c1.03-.38,2.13-.59,3.29-.59s2.27.21,3.29.59Z"/>
        <path class="cls-3" d="m15.51,7.66v1.9c-.05-.16-.11-.31-.17-.46-.22-.52-.51-1-.87-1.44h1.04Z"/>
        <path class="cls-3" d="m18.82,13.23v-6.09h-1.98v-1.98h-2.27v1.98h-.58c-.52-.5-1.12-.89-1.78-1.17-.45-.19-.91-.32-1.39-.39h2.48V1.05c3.57,1.36,6.12,4.83,6.12,8.88,0,1.16-.21,2.28-.59,3.31Z"/>
        <path class="cls-3" d="m15.51,13.22v1.9h-1.04c.36-.44.65-.92.87-1.44.06-.15.12-.31.17-.46Z"/>
        <path class="cls-3" d="m18.31,7.66v6.72c-.14.25-.28.5-.44.74h-1.84v-7.46h.81s1.46,0,1.46,0Z"/>
        <path class="cls-3" d="m9.02,5.57c-.48.07-.94.2-1.39.39-.66.28-1.26.67-1.78,1.17H1.65v7.44c-.78-1.38-1.22-2.97-1.22-4.66C.42,5.87,2.97,2.41,6.54,1.05v4.53h2.48Z"/>
        <path class="cls-3" d="m5.37,15.12h-3.21v-7.46h3.21c-.36.44-.65.92-.87,1.44-.31.73-.46,1.5-.46,2.29s.16,1.56.46,2.29c.22.52.51,1,.87,1.44Z"/>
        <path class="cls-3" d="m17.5,15.63c-1.73,2.3-4.49,3.78-7.58,3.78s-5.85-1.49-7.58-3.78h3.51c.52.5,1.12.89,1.78,1.17.73.31,1.5.46,2.29.46s1.56-.16,2.29-.46c.66-.28,1.26-.67,1.78-1.17h3.51Z"/>
        <path class="cls-3" d="m9.92,6.02c-2.96,0-5.36,2.41-5.36,5.36s2.41,5.36,5.36,5.36,5.36-2.41,5.36-5.36-2.41-5.36-5.36-5.36Zm3.35,8.72c-.44.44-.94.78-1.51,1.02-.58.25-1.21.37-1.84.37s-1.26-.13-1.84-.37c-.56-.24-1.07-.58-1.51-1.02-.44-.44-.78-.94-1.02-1.51-.25-.58-.37-1.21-.37-1.84s.13-1.26.37-1.84c.24-.56.58-1.07,1.02-1.51.44-.44.94-.78,1.51-1.02.58-.25,1.21-.37,1.84-.37s1.26.13,1.84.37c.56.24,1.07.58,1.51,1.02.44.44.78.94,1.02,1.51.25.58.37,1.21.37,1.84s-.13,1.26-.37,1.84c-.24.56-.58,1.07-1.02,1.51Z"/>
        <rect class="cls-3" x="7.06" y="1.53" width="5.72" height="1.27"/>
        <rect class="cls-3" x="7.06" y="3.31" width="5.72" height="1.74"/>
        <polygon class="cls-3" points="16.32 5.68 16.32 7.14 15.51 7.14 15.51 7.14 15.09 7.14 15.09 5.68 16.32 5.68"/>
        <path class="cls-3" d="m14.14,11.39c0,2.33-1.89,4.22-4.22,4.22s-4.22-1.89-4.22-4.22,1.89-4.22,4.22-4.22,4.22,1.89,4.22,4.22Z"/>
        <rect class="cls-2" x=".14" y=".14" width="19.56" height="19.56"/>
      </g>
    </g>
  </g>
</svg>