<?xml version="1.0" encoding="UTF-8"?>
<svg id="_レイヤー_2" data-name="レイヤー 2" xmlns="http://www.w3.org/2000/svg" viewBox="0 0 19.84 19.84">
  <defs>
    <style>
      .cls-1 {
        fill: #231815;
      }

      .cls-1, .cls-2, .cls-3 {
        stroke-width: 0px;
      }

      .cls-2 {
        fill: none;
      }

      .cls-3 {
        fill: #fff;
      }
    </style>
  </defs>
  <g id="_レイヤー_9" data-name="レイヤー 9">
    <g>
      <circle class="cls-1" cx="9.92" cy="9.92" r="9.92"/>
      <g>
        <path class="cls-3" d="m19.38,9.92c0,2.3-.82,4.41-2.19,6.05l-.73-12.4L10.42.47c4.99.26,8.97,4.4,8.97,9.45Z"/>
        <path class="cls-3" d="m9.43.47L3.38,3.58l-.73,12.4c-1.37-1.64-2.19-3.75-2.19-6.05C.46,4.87,4.44.73,9.43.47Z"/>
        <path class="cls-3" d="m16.4,16.81c-1.69,1.6-3.98,2.58-6.48,2.58s-4.79-.98-6.48-2.58h12.97Z"/>
        <path class="cls-3" d="m16.05,3.85L9.92.7,3.8,3.85l-.74,12.53h13.72l-.74-12.53Zm-9.06,3.74s.05.01.1.04c.01,0,.03.01.03.01h0c.25.09.49.09.7.09.07,0,.13,0,.17-.01h0s.79-.09.79-.09l.87-.1.03-1.66-.6.11s-.22.05-.35.09c-.17.04-.17.04-.18.04-.12,0-.3-.12-.41-.22-.08-.07-.26-.25-.26-.42,0-.08.07-.17.13-.17.03,0,.06.01.12.05.02,0,.04.02.05.02h0s0,0,0,0c.1.05.25.07.41.07.06,0,.15,0,.21-.01h0s.89-.12.89-.12v-.91c-.01-.21-.02-.26-.04-.32-.05-.15-.12-.22-.19-.29l-.58.09s-.05.01-.08.02c-.09.02-.15.04-.18.04-.22,0-.45-.19-.53-.27-.13-.12-.28-.31-.28-.45,0-.07.04-.11.1-.17l.03-.03.03.02s.22.12.27.14c.24.1.59.11.62.11.12,0,.16,0,.21-.01h.01s.82-.11.82-.11l.64-.09c.41-.06.46-.08.56-.12h0c.27-.1.28-.1.34-.1.07,0,.2.03.38.09.25.08.27.26.27.33,0,.13-.06.22-.19.26-.1.03-.23.03-.37.03-.02,0-.07,0-.12,0-.05,0-.09,0-.11,0-.03,0-.19.01-.23.01l-.61.05c-.08.01-.18.03-.25.04.1.09.18.19.18.34,0,.07,0,.13-.03.18,0,0,0,.02,0,.03,0,0,0,.01,0,.02l-.04.79s0,.07,0,.13c0,.02,0,.04,0,.06l.18-.03.52-.05s.12-.02.21-.04c.15-.03.25-.05.29-.05.13,0,.27.05.38.13.12.09.18.2.18.31,0,.15-.11.26-.26.26-.02,0-.04,0-.08,0-.04,0-.09-.01-.18-.02h0s0,0,0,0c-.02,0-.04,0-.05,0h0s-.57,0-.57,0l-.61.05v.23l-.02.89c0,.26,0,.46,0,.55l.51-.04.5-.02c.09,0,.41,0,.47-.02h0s0,0,0,0c.03,0,.13-.02.2-.04.11-.03.17-.04.21-.04.03,0,.24.04.45.11.28.11.43.25.43.41,0,.09-.04.17-.11.23-.07.06-.16.08-.26.07l-.58-.11-.41-.03-.59-.02-.79.03-.66.08-1.1.18s-.18.04-.29.06c-.08.02-.16.03-.21.04-.02,0-.06.02-.1.03-.13.04-.23.07-.27.07-.12,0-.32-.09-.5-.22-.13-.09-.34-.27-.34-.46,0-.07.03-.18.11-.18Zm1.2,4.12c0,.28-.22.37-.33.37-.16,0-.26-.16-.3-.23l-.24-.44c-.03-.07-.09-.14-.17-.22-.03-.03-.05-.06-.08-.09-.03-.03-.1-.11-.1-.21,0-.07.07-.11.17-.11.09,0,.34.09.58.25.21.14.46.37.46.69Zm2.15,2.27v-.02c-.13-.22-.15-.25-.36-.52v-.02s-.02,0-.02,0c-.02-.03-.05-.07-.05-.13,0-.03.01-.13.19-.13.03,0,.27.09.48.21.31.18.46.39.46.6s-.18.37-.34.37-.28-.21-.36-.37Zm2.65-1.33c-.08.04-.17.05-.22.05-.01,0-.03,0-.06,0-.05,0-.17,0-.19,0h0c-.09,0-.36.03-.49.05v1.9c0,.06,0,.6-.07.83h0c-.08.26-.22.29-.32.29-.15,0-.18-.04-.36-.27v-.02s-.16-.14-.27-.23c-.3-.25-.4-.34-.4-.41,0-.05.04-.12.14-.12.02,0,.09.01.3.05.11.02.25.04.28.05,0,0,.02,0,.04-.02.02-.06.02-.07.02-.11v-.84s0-.97,0-.97v-.05s-.54.11-.54.11l-.56.13c-.06.02-.15.04-.24.06-.06.01-.12.03-.15.04-.01,0-.04.02-.07.03-.18.07-.28.1-.32.1-.2,0-.49-.23-.6-.43v.3s-.01,1.49-.01,1.49c0,.03,0,.12,0,.2,0,.08,0,.16,0,.18,0,.23,0,.59-.26.59-.19,0-.33-.23-.38-.42h0c-.04-.16-.04-.24-.03-.51h0s.07-.79.07-.79v-.72s-.3.39-.3.39c-.02.03-.09.09-.15.16-.06.07-.13.13-.15.16-.18.25-.21.3-.35.3-.18,0-.36-.19-.49-.36-.11-.14-.14-.19-.14-.28,0-.1.07-.17.18-.17.02,0,.05,0,.11.01.03,0,.06,0,.07,0,.18,0,.26-.07.55-.31l.04-.03.4-.34s.17-.18.19-.21h0c.05-.06.06-.08.06-.09v-.43l.02-1.49c0-.21-.05-.39-.16-.51h0s-.02-.03-.02-.03c-.09-.12-.12-.15-.12-.2,0-.09.09-.19.28-.19.17,0,.25.06.46.21h.01s.02.03.03.04c.12.1.2.16.2.31,0,.03,0,.1-.02.18,0,.06-.02.13-.02.15h0c0,.07-.01.14-.01.19h0s-.02.66-.02.66l-.02,1.28s.05-.04.09-.04c.03,0,.08.01.16.04.03,0,.06.02.06.02h0c.05.01.12.02.21.02.17,0,.18,0,1.06-.17.53-.1.61-.12.86-.17-.01-.25-.02-.27-.05-.35,0,0-.02-.03-.03-.06-.05-.09-.08-.14-.08-.18,0-.01,0-.03,0-.04-.11,0-.21-.07-.28-.2h0s-.17-.36-.17-.36c-.04-.08-.13-.28-.3-.46-.5.12-.69.17-.81.2.23.14.4.29.52.45.12.16.18.31.18.47,0,.2-.13.41-.33.41-.15,0-.23-.11-.27-.2h0s-.14-.44-.14-.44c-.04-.14-.16-.38-.26-.51-.05-.06-.07-.09-.09-.11-.11,0-.18-.02-.23-.06-.02-.02-.05-.06-.05-.11,0-.05.02-.08.07-.1.03-.02.09-.03.19-.06h.02c.36-.11.79-.28,1.17-.43l.08-.03.53-.25c.07-.04.16-.08.17-.09,0,0,0-.02,0-.02,0-.01,0-.05-.01-.08,0-.05-.01-.07-.01-.08,0-.03,0-.07.02-.12.03-.06.08-.09.15-.09.17,0,.81.27.81.52,0,.17-.13.22-.25.27h-.02s-1.03.37-1.03.37c0,0,0,0,.01,0,.26.17.3.2.39.3.17.19.25.35.25.53,0,.08-.02.14-.06.19.09,0,.18.05.25.09,0-.02,0-.04,0-.06,0-.05.03-.13.25-.43,0,0,.01-.01.01-.02.03-.07.16-.3.22-.4v-.03c.05-.07.06-.1.06-.12,0,0,0,0-.03-.06,0-.01-.02-.03-.02-.05h0s0,0,0,0c0-.02-.02-.05-.02-.08,0-.13.09-.21.24-.21.13,0,.29.15.35.21.05.05.21.22.21.34,0,.11-.03.14-.27.37l-.05.05c-.21.2-.25.23-.49.42l-.03.02c-.16.13-.2.16-.27.16,0,0,0,0-.01,0,.09.08.19.2.19.29,0,.01,0,.04,0,.09,0,0,0,.02,0,.03.25-.07.55-.1.56-.1.13,0,.53.15.53.37,0,.11-.05.19-.14.24Z"/>
        <rect class="cls-2" x=".14" y=".14" width="19.56" height="19.56"/>
      </g>
    </g>
  </g>
</svg>