<?xml version="1.0" encoding="UTF-8"?>
<svg id="_レイヤー_2" data-name="レイヤー 2" xmlns="http://www.w3.org/2000/svg" viewBox="0 0 19.84 19.84">
  <defs>
    <style>
      .cls-1 {
        fill: #231815;
      }

      .cls-1, .cls-2, .cls-3 {
        stroke-width: 0px;
      }

      .cls-2 {
        fill: none;
      }

      .cls-3 {
        fill: #fff;
      }
    </style>
  </defs>
  <g id="_レイヤー_9" data-name="レイヤー 9">
    <g>
      <circle class="cls-1" cx="9.92" cy="9.92" r="9.92"/>
      <g>
        <path class="cls-3" d="m9.92.42C4.68.42.42,4.68.42,9.92s4.26,9.5,9.5,9.5,9.5-4.26,9.5-9.5S15.16.42,9.92.42Zm6.85,13.87v.43h-.22c-.78,0-1.48.02-2.11.07l-3.13.42s0,0,0,0c0,0,0,0,0,0-.68.15-1.08.29-1.24.35-.05.02-.07.03-.07.03l-.09.04-.09-.04s-.02-.01-.07-.03c-.15-.06-.55-.2-1.24-.35,0,0,0,0,0,0h0l-3.13-.42c-.63-.04-1.33-.07-2.11-.07h-.22v-.22h0V3.99h.22c2.45,0,4.14.24,5.12.45.83.17,1.32.35,1.51.42.19-.07.67-.25,1.51-.42.99-.2,2.68-.45,5.12-.45h.22v.43h0v9.88h0Z"/>
        <path class="cls-3" d="m16.34,4.42v9.88c-3.57.02-5.5.55-6.2.79h0V5.24c.18-.07.56-.2,1.16-.33,0,0,0,0,0,0l3.15-.42h0c.57-.04,1.2-.06,1.89-.06Z"/>
        <path class="cls-3" d="m9.7,5.24v9.85c-.7-.24-2.63-.77-6.2-.79V4.42c.7,0,1.33.03,1.89.06h0l3.15.42s0,0,0,0c.59.13.97.26,1.15.33Z"/>
        <rect class="cls-2" x=".14" y=".14" width="19.56" height="19.56"/>
      </g>
    </g>
  </g>
</svg>