<?xml version="1.0" encoding="UTF-8"?>
<svg id="_レイヤー_2" data-name="レイヤー 2" xmlns="http://www.w3.org/2000/svg" viewBox="0 0 19.84 19.84">
  <defs>
    <style>
      .cls-1 {
        fill: #231815;
      }

      .cls-1, .cls-2, .cls-3 {
        stroke-width: 0px;
      }

      .cls-2 {
        fill: none;
      }

      .cls-3 {
        fill: #fff;
      }
    </style>
  </defs>
  <g id="_レイヤー_9" data-name="レイヤー 9">
    <g>
      <circle class="cls-1" cx="9.92" cy="9.92" r="9.92"/>
      <g>
        <path class="cls-3" d="m9.92.42C4.68.42.42,4.68.42,9.92s4.26,9.5,9.5,9.5,9.5-4.26,9.5-9.5S15.16.42,9.92.42Zm6.67,15.22l-.43-.25-4.09-2.36-3.86,2.23h0s-.23.13-.23.13l-.2.12-.23-.13-.2-.12-3.67-2.12-.43-.25V3.95l.43.25,4.1,2.37h0s3.89-2.24,3.89-2.24l.19-.11.22-.12.22.12.19.11.13.07c.19-.72.85-1.24,1.62-1.24.93,0,1.68.75,1.68,1.68,0,.3-.08.57-.21.81l-.2.42.66.38h0s.43.25.43.25v8.94Z"/>
        <path class="cls-3" d="m15.2,4.84c0,.34-.17.64-.43.81-.15.1-.34.16-.54.16-.01,0-.03,0-.04,0-.33-.01-.61-.19-.78-.45-.1-.15-.15-.33-.15-.52,0-.02,0-.04,0-.06.03-.51.45-.91.97-.91s.98.44.98.98Z"/>
        <path class="cls-3" d="m16.16,9.49v-2.54l-.84-.49-1.1,2.39-1.47-3.2c-.13-.23-.2-.5-.21-.78l-.26-.15v7.94l.19.11,3.69,2.13v-4.95c-.34-.13-.63-.23-.9-.29l.1-.42c.25.06.51.14.8.25Zm-1.52.09h-.06c-.55,0-.94.2-1.43.45-.16.08-.32.16-.5.24l-.18-.39c.18-.08.33-.16.48-.24.54-.28,1.01-.51,1.7-.49v.43Z"/>
        <path class="cls-3" d="m10.16,11.56l.19.39c.6-.29,1.1-.65,1.51-1.08v1.79l-.19.11h0l-3.68,2.13v-2.14c.14-.05.33-.1.53-.16.34-.09.76-.21,1.2-.38l-.15-.4c-.42.16-.81.27-1.16.36-.15.04-.29.08-.42.12v-5.35l.23-.13h0s0,0,0,0l3.64-2.1v5.57l-.04-.03c-.42.54-.96.97-1.66,1.31Z"/>
        <path class="cls-3" d="m7.55,12.35v-5.42l-.11-.06-.09-.05h0s-3.67-2.12-3.67-2.12v5.44c.31.18.59.35.87.53l-.24.36c-.2-.13-.41-.26-.63-.39v2l3.87,2.24v-2.09s-.06,0-.09-.01l.08-.42s0,0,.01,0Zm-.76.26c-.59-.19-.96-.47-1.46-.85-.14-.11-.3-.23-.47-.35l.25-.35c.18.13.34.25.48.36.49.37.81.61,1.34.78l-.13.41Z"/>
        <rect class="cls-2" x=".14" y=".14" width="19.56" height="19.56"/>
      </g>
    </g>
  </g>
</svg>