<?xml version="1.0" encoding="UTF-8"?>
<svg id="_レイヤー_2" data-name="レイヤー 2" xmlns="http://www.w3.org/2000/svg" viewBox="0 0 19.84 19.84">
  <defs>
    <style>
      .cls-1 {
        fill: #231815;
      }

      .cls-1, .cls-2, .cls-3 {
        stroke-width: 0px;
      }

      .cls-2 {
        fill: none;
      }

      .cls-3 {
        fill: #fff;
      }
    </style>
  </defs>
  <g id="_レイヤー_9" data-name="レイヤー 9">
    <g>
      <circle class="cls-1" cx="9.92" cy="9.92" r="9.92"/>
      <g>
        <path class="cls-3" d="m17.04,16.2c-1.74,1.97-4.29,3.21-7.12,3.21s-5.37-1.24-7.12-3.21h14.23Z"/>
        <path class="cls-3" d="m9.92.42C4.68.42.42,4.68.42,9.92c0,2.17.73,4.16,1.95,5.76l1.6-3h11.89l1.6,3c1.23-1.6,1.95-3.6,1.95-5.76C19.42,4.68,15.16.42,9.92.42Zm6.03,11.71H3.89V4.03h12.06v8.11Z"/>
        <polygon class="cls-3" points="16.56 14.53 15.14 14.53 14.89 13.88 16.17 13.88 16.17 13.78 16.56 14.53"/>
        <polygon class="cls-3" points="16.09 13.63 14.79 13.63 14.51 12.93 15.71 12.93 16.09 13.63"/>
        <polygon class="cls-3" points="14.52 13.63 13.2 13.63 13.02 12.93 14.24 12.93 14.52 13.63"/>
        <polygon class="cls-3" points="14.87 14.53 13.44 14.53 13.27 13.88 14.62 13.88 14.87 14.53"/>
        <path class="cls-3" d="m17.29,15.9s-.03.03-.04.05h-5.31l-.16-1.17h4.91l.6,1.12Z"/>
        <polygon class="cls-3" points="13.18 14.53 11.75 14.53 11.67 13.88 13.01 13.88 13.18 14.53"/>
        <polygon class="cls-3" points="12.94 13.63 11.63 13.63 11.54 12.93 12.76 12.93 12.94 13.63"/>
        <polygon class="cls-3" points="11.37 13.63 10.05 13.63 10.05 12.93 11.28 12.93 11.37 13.63"/>
        <polygon class="cls-3" points="11.49 14.53 10.05 14.53 10.05 13.88 11.4 13.88 11.49 14.53"/>
        <polygon class="cls-3" points="9.8 12.93 9.8 13.63 8.47 13.63 8.56 12.93 9.8 12.93"/>
        <polygon class="cls-3" points="9.8 13.88 9.8 14.53 8.35 14.53 8.44 13.88 9.8 13.88"/>
        <polygon class="cls-3" points="11.6 15.25 8.24 15.25 8.31 14.78 11.53 14.78 11.6 15.25"/>
        <polygon class="cls-3" points="11.69 15.95 8.15 15.95 8.21 15.5 11.63 15.5 11.69 15.95"/>
        <polygon class="cls-3" points="8.3 12.93 8.21 13.63 6.9 13.63 7.08 12.93 8.3 12.93"/>
        <polygon class="cls-3" points="8.17 13.88 8.09 14.53 6.66 14.53 6.83 13.88 8.17 13.88"/>
        <polygon class="cls-3" points="6.82 12.93 6.64 13.63 5.33 13.63 5.61 12.93 6.82 12.93"/>
        <polygon class="cls-3" points="6.57 13.88 6.4 14.53 4.97 14.53 5.23 13.88 6.57 13.88"/>
        <path class="cls-3" d="m8.05,14.78l-.16,1.17H2.59s-.03-.03-.04-.05l.6-1.12h4.91Z"/>
        <polygon class="cls-3" points="5.34 12.93 5.06 13.63 3.76 13.63 4.13 12.93 5.34 12.93"/>
        <polygon class="cls-3" points="4.96 13.88 4.7 14.53 3.28 14.53 3.68 13.78 3.68 13.88 4.96 13.88"/>
        <rect class="cls-3" x="4.14" y="4.28" width="11.56" height="7.61"/>
        <rect class="cls-2" x=".14" y=".14" width="19.56" height="19.56"/>
      </g>
    </g>
  </g>
</svg>