<?xml version="1.0" encoding="UTF-8"?>
<svg id="_レイヤー_2" data-name="レイヤー 2" xmlns="http://www.w3.org/2000/svg" viewBox="0 0 19.84 19.84">
  <defs>
    <style>
      .cls-1 {
        fill: #231815;
      }

      .cls-1, .cls-2, .cls-3 {
        stroke-width: 0px;
      }

      .cls-2 {
        fill: none;
      }

      .cls-3 {
        fill: #fff;
      }
    </style>
  </defs>
  <g id="_レイヤー_9" data-name="レイヤー 9">
    <g>
      <circle class="cls-1" cx="9.92" cy="9.92" r="9.92"/>
      <g>
        <path class="cls-3" d="m9.92.42C4.68.42.42,4.68.42,9.92s4.26,9.5,9.5,9.5,9.5-4.26,9.5-9.5S15.16.42,9.92.42Zm4.13,17.14h0l-.03.12H5.82l-1.14-4.42-.77-3-2.45,1.72-.22-.22,2.35-3.29,1.68.59.8,1.3,3.85-8.07,3.85,8.07,3.13-5.1.28.12-3.14,12.2Z"/>
        <polygon class="cls-3" points="16.63 6.3 14.95 12.83 13.93 10.69 16.63 6.3"/>
        <polygon class="cls-3" points="3.83 9.94 2.03 11.2 3.59 9.02 3.83 9.94"/>
        <polygon class="cls-3" points="5.91 10.69 4.9 12.83 3.88 8.9 5.07 9.32 5.91 10.69"/>
        <polygon class="cls-3" points="14.8 13.24 10.08 17.2 10.08 3.34 14.8 13.24"/>
        <polygon class="cls-3" points="14.72 13.71 14.25 15.54 10.81 16.98 14.72 13.71"/>
        <polygon class="cls-3" points="14.15 15.92 13.78 17.37 10.69 17.37 14.15 15.92"/>
        <polygon class="cls-3" points="9.15 17.37 6.07 17.37 5.69 15.92 9.15 17.37"/>
        <polygon class="cls-3" points="9.03 16.98 5.59 15.54 5.12 13.71 9.03 16.98"/>
        <polygon class="cls-3" points="9.77 3.34 9.77 17.2 5.04 13.24 9.77 3.34"/>
        <rect class="cls-2" x=".14" y=".14" width="19.56" height="19.56"/>
      </g>
    </g>
  </g>
</svg>