<?xml version="1.0" encoding="UTF-8"?>
<svg id="_レイヤー_2" data-name="レイヤー 2" xmlns="http://www.w3.org/2000/svg" viewBox="0 0 19.84 19.84">
  <defs>
    <style>
      .cls-1 {
        fill: #231815;
      }

      .cls-1, .cls-2, .cls-3 {
        stroke-width: 0px;
      }

      .cls-2 {
        fill: none;
      }

      .cls-3 {
        fill: #fff;
      }
    </style>
  </defs>
  <g id="_レイヤー_9" data-name="レイヤー 9">
    <g>
      <circle class="cls-1" cx="9.92" cy="9.92" r="9.92"/>
      <g>
        <path class="cls-3" d="m9.92.42C4.68.42.42,4.68.42,9.92s4.26,9.5,9.5,9.5,9.5-4.26,9.5-9.5S15.16.42,9.92.42Zm4.75,14.07c-.57.57-1.2.85-1.9.85-.57,0-1.01-.16-1.33-.47-.32-.32-.48-1.04-.48-2.18,0-1.01.28-3.04.85-6.08h-3.32c-.13,3.29-1.11,6.3-2.94,9.02l-1.52-.85c2.09-1.71,3.36-4.43,3.8-8.17h-1.42c-.95,0-1.84.51-2.66,1.52l-.38-.09c.63-1.08,1.17-1.84,1.61-2.28.44-.44,1.08-.66,1.9-.66h9.21l-.38,1.52h-3.23c-.51,2.47-.76,4.15-.76,5.03,0,.7.16,1.2.47,1.52.38.38.76.57,1.14.57.89,0,1.71-.47,2.47-1.42l.38.19c-.38.7-.89,1.36-1.52,1.99Z"/>
        <rect class="cls-2" x=".14" y=".14" width="19.56" height="19.56"/>
      </g>
    </g>
  </g>
</svg>