<?xml version="1.0" encoding="UTF-8"?>
<svg id="_レイヤー_2" data-name="レイヤー_2" xmlns="http://www.w3.org/2000/svg" viewBox="0 0 19.84 19.84">
  <defs>
    <style>
      .cls-1 {
        fill: #fff;
      }

      .cls-2 {
        fill: none;
      }

      .cls-3 {
        fill: #231815;
      }
    </style>
  </defs>
  <g id="_展示団体_x5F_アイコン" data-name="展示団体_x5F_アイコン">
    <g>
      <circle class="cls-3" cx="9.92" cy="9.92" r="9.92"/>
      <g>
        <path class="cls-1" d="M9.92.42C4.68.42.42,4.68.42,9.92s4.26,9.5,9.5,9.5,9.5-4.26,9.5-9.5S15.16.42,9.92.42ZM9.92,2.43c1.15,0,2.08.93,2.08,2.08s-.93,2.08-2.08,2.08-2.08-.93-2.08-2.08.93-2.08,2.08-2.08ZM16.17,11.25l-.51,4.11-.04.04s-.4.39-1.3.87c-.52.27-1.11.53-1.75.75-.8.27-1.68.5-2.63.68h-.03s-.03,0-.03,0c-.94-.17-1.83-.4-2.63-.68-.64-.22-1.23-.47-1.75-.75-.9-.47-1.28-.85-1.3-.87l-.04-.04-.51-4.11c-.78.02-1.11-2.36-.31-2.47,0,0,0,0,0,0l-.39-3.13.32.32s.45.45,1.49.99c.47.24,1.1.54,1.92.82.17-.53.91-.93,1.78-.93h2.85c.87,0,1.61.4,1.78.93.82-.29,1.45-.58,1.92-.82,1.04-.55,1.49-.99,1.49-.99l.32-.32-.05.45-.33,2.68s0,0,0,0c.8.12.47,2.49-.31,2.47Z"/>
        <path class="cls-1" d="M16.16,8.76l.28-2.31c-.25.19-.65.46-1.24.77-.63.33-1.33.63-2.1.9-.92.32-1.94.58-3.03.79v8.43c1.99-.38,3.32-.94,4.09-1.35.71-.37,1.09-.69,1.2-.79l.5-4.02c-.33-.1-.6-.29-.79-.52h-.15s.01-.22.01-.22c-.1-.2-.14-.42-.11-.64.02-.17.09-.32.18-.45l.1-1.54.31.02-.08,1.2c.23-.15.51-.25.82-.26ZM14.07,8.26h.31s-.09,2.85-.09,2.85h-.31s.09-2.85.09-2.85ZM12.94,8.7h.31v2.78h-.31v-2.78ZM11.84,9h.31v2.6h-.31v-2.6ZM11.16,9.29l.05,2.56h-.31s-.05-2.56-.05-2.56h.31ZM11.19,13.04v2.3s-.32,0-.32,0v-2.3s.32,0,.32,0ZM15.02,15.12c-1.31.86-2.98,1.36-4.29,1.57v-.82c1.41-.23,3.02-.76,4.35-1.52l-.06.76ZM12,15.12v-2.15h.31v2.15h-.31ZM13.01,14.76v-2.08h.31v2.08h-.31ZM13.96,14.27l.05-1.78h.31s-.05,1.79-.05,1.79h-.31ZM15.12,13.98l-.31-.02.15-1.97.31.02-.15,1.97ZM15.25,10.98l.17.26c-.61.38-1.26.69-1.94.91-.81.27-1.64.41-2.47.42v-.31c1.87-.03,3.34-.72,4.25-1.29Z"/>
        <path class="cls-1" d="M6.74,8.12c-.77-.26-1.48-.57-2.1-.9-.59-.31-.99-.59-1.24-.77l.28,2.31c.15,0,.3.03.44.07l-.13-1.19.26.14c1.29.69,2.38,1.01,3.54,1.34.12.03.24.07.36.1l.11.03v2.4l-.18-.03c-1.14-.18-2.06-.49-3.22-1.1-.18.3-.49.54-.88.66l.5,4.02c.11.1.49.42,1.2.79.77.41,2.1.96,4.09,1.35v-8.43c-1.09-.21-2.1-.47-3.03-.79ZM7.99,11.8l.02,1.85h-.31s-.02-1.85-.02-1.85h.31ZM7.11,11.58l.05,1.68h-.31s-.05-1.67-.05-1.67h.31ZM6.26,11.24l.07,1.77h-.31s-.07-1.76-.07-1.76h.31ZM5.33,10.91l.15,1.77-.31.03-.15-1.77.31-.03ZM9.32,16.73l-.18-.02c-2-.26-3.02-.89-4.11-1.57l-.16-.1-.26-2.31.24.1c.16.06.31.13.46.19,1.2.49,2.33.95,3.85,1.02h.15v2.7ZM8.45,12.74h.31s.05.98.05.98h-.31s-.05-.98-.05-.98ZM9.47,12.4c-.28.05-.56,0-.84-.14l.02-3.02c.28.13.55.18.82.15v3.01Z"/>
        <path class="cls-1" d="M9.01,14.34v2.04c-1.81-.26-2.78-.86-3.81-1.5l-.03-.02-.19-1.64c.07.03.15.06.22.09,1.19.48,2.31.94,3.81,1.03Z"/>
        <path class="cls-1" d="M7.94,9.5v1.8c-1.04-.18-1.88-.47-2.96-1.05.04-.14.05-.3.03-.45-.05-.34-.26-.63-.57-.81l-.09-.79c1.21.61,2.29.93,3.34,1.23.08.02.16.05.25.07Z"/>
        <rect class="cls-2" x=".14" y=".14" width="19.56" height="19.56"/>
      </g>
    </g>
  </g>
</svg>