<?xml version="1.0" encoding="UTF-8"?>
<svg id="_レイヤー_2" data-name="レイヤー 2" xmlns="http://www.w3.org/2000/svg" viewBox="0 0 19.84 19.84">
  <defs>
    <style>
      .cls-1 {
        fill: #231815;
      }

      .cls-1, .cls-2, .cls-3 {
        stroke-width: 0px;
      }

      .cls-2 {
        fill: none;
      }

      .cls-3 {
        fill: #fff;
      }
    </style>
  </defs>
  <g id="_レイヤー_9" data-name="レイヤー 9">
    <g>
      <circle class="cls-1" cx="9.92" cy="9.92" r="9.92"/>
      <g>
        <path class="cls-3" d="m9.92.42C4.68.42.42,4.68.42,9.92s4.26,9.5,9.5,9.5,9.5-4.26,9.5-9.5S15.16.42,9.92.42Zm4.86,15.72H5.06V6.78h1.18c.06-1.98,1.69-3.57,3.69-3.57s3.62,1.59,3.69,3.57h1.18v9.36Z"/>
        <path class="cls-3" d="m12.84,6.78h-5.85c.06-1.56,1.35-2.81,2.92-2.81s2.86,1.25,2.92,2.81Z"/>
        <path class="cls-3" d="m8.63,13.61l.87-2.65c-.44-.17-.75-.59-.75-1.09,0-.65.52-1.17,1.17-1.17s1.17.52,1.17,1.17c0,.5-.31.92-.75,1.09l.87,2.65h-2.58Z"/>
        <rect class="cls-2" x=".14" y=".14" width="19.56" height="19.56"/>
      </g>
    </g>
  </g>
</svg>