<?xml version="1.0" encoding="UTF-8"?>
<svg id="_レイヤー_2" data-name="レイヤー 2" xmlns="http://www.w3.org/2000/svg" viewBox="0 0 19.84 19.84">
  <defs>
    <style>
      .cls-1 {
        fill: #231815;
      }

      .cls-1, .cls-2, .cls-3 {
        stroke-width: 0px;
      }

      .cls-2 {
        fill: none;
      }

      .cls-3 {
        fill: #fff;
      }
    </style>
  </defs>
  <g id="_レイヤー_9" data-name="レイヤー 9">
    <g>
      <circle class="cls-1" cx="9.92" cy="9.92" r="9.92"/>
      <g>
        <g>
          <path class="cls-3" d="m15.12,17.86c-1.49.98-3.28,1.55-5.2,1.55s-3.71-.57-5.2-1.55h10.4Z"/>
          <path class="cls-3" d="m19.42,9.92c0,3.17-1.56,5.98-3.95,7.7h-5.5l.04-.04s.8-.78,1.28-1.74c.64-1.28.46-2.33-.51-3.05V1h-1.71v11.79c-.97.72-1.15,1.77-.51,3.05.48.97,1.25,1.71,1.29,1.74l.04.04h-5.51C1.98,15.9.42,13.09.42,9.92.42,4.68,4.68.42,9.92.42s9.5,4.26,9.5,9.5Z"/>
        </g>
        <path class="cls-3" d="m11.14,15.61c-.08-.05-.18-.11-.31-.14-.24-.07-.61-.09-.98.24-.5.44-.99.09-1.09.01-.58-1.17-.42-2.09.47-2.74h1.39c.86.63,1.03,1.51.52,2.63Z"/>
        <rect class="cls-3" x="9.31" y="1.24" width="1.23" height="1.23"/>
        <rect class="cls-3" x="9.31" y="2.71" width="1.23" height="10.03"/>
        <rect class="cls-2" x=".14" y=".14" width="19.56" height="19.56"/>
      </g>
    </g>
  </g>
</svg>