<?xml version="1.0" encoding="UTF-8"?>
<svg id="_レイヤー_2" data-name="レイヤー 2" xmlns="http://www.w3.org/2000/svg" viewBox="0 0 19.84 19.84">
  <defs>
    <style>
      .cls-1 {
        fill: #231815;
      }

      .cls-1, .cls-2, .cls-3 {
        stroke-width: 0px;
      }

      .cls-2 {
        fill: none;
      }

      .cls-3 {
        fill: #fff;
      }
    </style>
  </defs>
  <g id="_レイヤー_9" data-name="レイヤー 9">
    <g>
      <circle class="cls-1" cx="9.92" cy="9.92" r="9.92"/>
      <g>
        <path class="cls-3" d="m9.92.42C4.68.42.42,4.68.42,9.92s4.26,9.5,9.5,9.5,9.5-4.26,9.5-9.5S15.16.42,9.92.42Zm5.34,7.87v4.25l-3.57,1.29,4.18,1.64-.41,1.21-5.2-2.02v2.41h-.69v-2.41l-5.2,2.02-.41-1.21,4.18-1.64-2.92-1.06-.65-.23v-4.25l3.24-1.16-5.43-1.61.29-1.31,6.9,2.12v-3.55h.69v3.55l6.9-2.12.29,1.31-5.43,1.61,3.24,1.16Z"/>
        <polygon class="cls-3" points="14.38 10.92 14.38 12.05 10.27 13.19 10.27 10.92 14.38 10.92"/>
        <polygon class="cls-3" points="14.38 8.97 14.38 9.95 10.27 9.95 10.27 7.71 14.38 8.97"/>
        <polygon class="cls-3" points="9.58 7.71 9.58 9.95 5.46 9.95 5.46 8.97 9.58 7.71"/>
        <polygon class="cls-3" points="9.58 10.92 9.58 13.19 5.46 12.05 5.46 10.92 9.58 10.92"/>
        <rect class="cls-2" x=".14" y=".14" width="19.56" height="19.56"/>
      </g>
    </g>
  </g>
</svg>