<?xml version="1.0" encoding="UTF-8"?>
<svg id="_レイヤー_2" data-name="レイヤー 2" xmlns="http://www.w3.org/2000/svg" viewBox="0 0 19.84 19.84">
  <defs>
    <style>
      .cls-1 {
        fill: #231815;
      }

      .cls-1, .cls-2, .cls-3 {
        stroke-width: 0px;
      }

      .cls-2 {
        fill: none;
      }

      .cls-3 {
        fill: #fff;
      }
    </style>
  </defs>
  <g id="_レイヤー_9" data-name="レイヤー 9">
    <g>
      <circle class="cls-1" cx="9.92" cy="9.92" r="9.92"/>
      <g>
        <path class="cls-3" d="m19.42,9.92c0,1.77-.48,3.42-1.33,4.84-.54-.36-1.63-1.15-2.71-2.38-1.38-1.57-3.02-4.19-2.97-7.73v-.26s-4.98,0-4.98,0v.26c.06,3.53-1.58,6.14-2.96,7.72-.79.9-1.57,1.56-2.1,1.95-.25.19-.46.33-.62.44-.84-1.42-1.33-3.07-1.33-4.84C.42,4.68,4.68.42,9.92.42s9.5,4.26,9.5,9.5Z"/>
        <path class="cls-3" d="m12.52,8.54l-.37-.38-1.11,1.15-1.11-1.15-1.11,1.15-1.11-1.15-.37.38c.41-1.17.62-2.39.63-3.64h3.94c0,1.25.22,2.47.63,3.64Z"/>
        <path class="cls-3" d="m17.81,15.2c-1.71,2.54-4.61,4.22-7.89,4.22s-6.19-1.68-7.89-4.22c.17-.11.39-.26.64-.46.54-.41,1.36-1.09,2.18-2.02.79-.9,1.44-1.86,1.93-2.86l.92-.95,1.11,1.15,1.11-1.15,1.11,1.15,1.11-1.15.92.95c.49,1.01,1.14,1.97,1.93,2.86.82.93,1.63,1.61,2.18,2.02.26.19.48.35.64.46Z"/>
        <rect class="cls-2" x=".14" y=".14" width="19.56" height="19.56"/>
      </g>
    </g>
  </g>
</svg>