<?xml version="1.0" encoding="UTF-8"?>
<svg id="_レイヤー_2" data-name="レイヤー 2" xmlns="http://www.w3.org/2000/svg" viewBox="0 0 19.84 19.84">
  <defs>
    <style>
      .cls-1 {
        fill: #231815;
      }

      .cls-1, .cls-2, .cls-3 {
        stroke-width: 0px;
      }

      .cls-2 {
        fill: none;
      }

      .cls-3 {
        fill: #fff;
      }
    </style>
  </defs>
  <g id="_レイヤー_9" data-name="レイヤー 9">
    <g>
      <circle class="cls-1" cx="9.92" cy="9.92" r="9.92"/>
      <g>
        <path class="cls-3" d="m16.39,16.87c-1.7,1.58-3.97,2.55-6.47,2.55s-4.77-.97-6.47-2.55h12.94Z"/>
        <path class="cls-3" d="m12.26,9.94v-4.96c-.14.07-.33.15-.56.2-.16.04-.34.06-.54.06-.39,0-.84-.1-1.32-.41-.51-.33-1.05-.43-1.62-.3-.3.07-.53.19-.64.25v5.15l-4.39,6.61h13.45l-4.39-6.61Zm-2.34,5.42c-.19,0-.35-.16-.35-.35s.16-.35.35-.35.35.16.35.35-.16.35-.35.35Zm0-2.25c-.36,0-.65-.29-.65-.65s.29-.65.65-.65.64.29.64.65-.29.65-.64.65Zm0-2.79c-.49,0-.89-.4-.89-.89s.4-.89.89-.89.89.4.89.89-.4.89-.89.89Z"/>
        <path class="cls-3" d="m19.42,9.92c0,2.48-.96,4.75-2.53,6.44l-4.32-6.52V1.69h-.31v2.93c-.11.06-.34.19-.65.26-.56.13-1.1.03-1.61-.3-.72-.47-1.41-.45-1.86-.34-.23.05-.43.13-.56.2V1.69h-.31v8.16l-4.32,6.52c-1.57-1.69-2.52-3.96-2.52-6.44C.42,4.68,4.68.42,9.92.42s9.5,4.26,9.5,9.5Z"/>
        <path class="cls-3" d="m10.5,9.43c0,.32-.26.58-.58.58s-.58-.26-.58-.58.26-.58.58-.58.58.26.58.58Z"/>
        <path class="cls-3" d="m10.25,12.46c0,.18-.15.33-.33.33s-.33-.15-.33-.33.15-.33.33-.33.33.15.33.33Z"/>
        <path class="cls-3" d="m10.06,15.01c0,.08-.06.14-.14.14s-.14-.06-.14-.14.06-.14.14-.14.14.06.14.14Z"/>
        <rect class="cls-2" x=".14" y=".14" width="19.56" height="19.56"/>
      </g>
    </g>
  </g>
</svg>