<?xml version="1.0" encoding="UTF-8"?>
<svg id="_レイヤー_2" data-name="レイヤー 2" xmlns="http://www.w3.org/2000/svg" viewBox="0 0 19.84 19.84">
  <defs>
    <style>
      .cls-1 {
        fill: #231815;
      }

      .cls-1, .cls-2, .cls-3 {
        stroke-width: 0px;
      }

      .cls-2 {
        fill: none;
      }

      .cls-3 {
        fill: #fff;
      }
    </style>
  </defs>
  <g id="_レイヤー_9" data-name="レイヤー 9">
    <g>
      <circle class="cls-1" cx="9.92" cy="9.92" r="9.92"/>
      <g>
        <path class="cls-3" d="m9.92.42C4.68.42.42,4.68.42,9.92s4.26,9.5,9.5,9.5,9.5-4.26,9.5-9.5S15.16.42,9.92.42Zm3.01,3.85c-.06-.06-.05-.16,0-.22.06-.06.16-.05.22,0,.45.48.45,1.01,0,1.53h0c-.34.37-.34.72,0,1.12.06.07.05.16-.02.22-.03.03-.07.04-.1.04-.04,0-.09-.02-.12-.05-.44-.51-.44-1.04,0-1.52.34-.39.34-.74,0-1.11Zm-2.72,1.11c.34-.39.34-.74,0-1.11-.06-.06-.05-.16,0-.22.06-.06.16-.05.22,0,.45.48.45,1.01,0,1.53h0c-.34.37-.34.72,0,1.12.06.06.05.16-.02.22-.03.03-.07.04-.1.04-.04,0-.09-.02-.12-.05-.44-.51-.44-1.04,0-1.52Zm-2.72-1.11c-.06-.06-.05-.16,0-.22.06-.06.16-.05.22,0,.45.48.45,1.01,0,1.53h0c-.34.37-.34.72,0,1.12.06.07.05.16-.02.22-.03.03-.07.04-.1.04-.04,0-.09-.02-.12-.05-.44-.51-.44-1.04,0-1.52.34-.39.34-.74,0-1.11Zm8.95,3.81c-.26,0-.53.23-.73.63-.22.44-.34,1.02-.34,1.64,0,0,0,.01,0,.02,0,.9-.24,1.79-.7,2.56-.42.7-1,1.3-1.69,1.73l.53.93s.03.11,0,.16c-.03.05-.08.08-.13.08h-6.11c-.06,0-.11-.03-.13-.08-.03-.05-.03-.11,0-.16l.53-.93c-.25-.15-.48-.33-.7-.52-.18-.16-.35-.33-.5-.52-.32.14-.66.21-1.03.21-1.43,0-2.6-1.17-2.6-2.6,0-.69.27-1.35.76-1.84.37-.37.83-.61,1.33-.71-.2-.38-.46-.6-.71-.6-.09,0-.16-.07-.16-.16s.07-.16.16-.16h12.22c.09,0,.16.07.16.16s-.07.16-.16.16Z"/>
        <path class="cls-3" d="m5.66,12.29c-.07.01-.14.02-.22.02-.59,0-1.07-.48-1.07-1.07,0-.53.39-.98.91-1.06,0,.06,0,.13,0,.19,0,.66.13,1.3.37,1.91Z"/>
        <path class="cls-3" d="m6.27,13.37c-.26.1-.54.16-.83.16-1.26,0-2.29-1.03-2.29-2.29,0-1.13.83-2.07,1.91-2.26.1.27.17.57.2.89-.67.09-1.2.67-1.2,1.37,0,.76.62,1.38,1.38,1.38.12,0,.24-.02.35-.04.14.28.3.55.48.8,0,0,0,0,0,0Z"/>
        <polygon class="cls-3" points="13.12 15.52 7.54 15.52 7.97 14.77 12.68 14.77 13.12 15.52"/>
        <path class="cls-3" d="m15.06,10.38s0,.02,0,.02c0,1.66-.9,3.21-2.33,4.06h-4.8c-.27-.16-.52-.34-.75-.55h0c-.15-.13-.29-.28-.42-.43-.07-.08-.14-.16-.2-.24-.18-.24-.34-.5-.48-.78-.05-.09-.09-.19-.13-.28-.23-.56-.36-1.18-.36-1.8,0-.07,0-.13,0-.19,0-.11-.01-.21-.02-.32-.03-.33-.1-.64-.19-.92-.04-.11-.08-.21-.12-.31-.01-.02-.02-.05-.03-.07-.1-.2-.21-.36-.34-.49h10.89c-.43.44-.71,1.29-.71,2.29Z"/>
        <rect class="cls-2" x=".14" y=".14" width="19.56" height="19.56"/>
      </g>
    </g>
  </g>
</svg>