<?xml version="1.0" encoding="UTF-8"?>
<svg id="_レイヤー_2" data-name="レイヤー 2" xmlns="http://www.w3.org/2000/svg" xmlns:xlink="http://www.w3.org/1999/xlink" viewBox="0 0 19.84 19.84">
  <defs>
    <style>
      .cls-1 {
        fill: #231815;
      }

      .cls-1, .cls-2, .cls-3 {
        stroke-width: 0px;
      }

      .cls-2 {
        fill: none;
      }

      .cls-3 {
        fill: #fff;
      }
    </style>
    <clipPath id="clippath">
      <rect class="cls-2" x="6.65" y="6.41" width="1.25" height="1.25"/>
    </clipPath>
  </defs>
  <g id="_レイヤー_9" data-name="レイヤー 9">
    <g>
      <circle class="cls-1" cx="9.92" cy="9.92" r="9.92"/>
      <g>
        <path class="cls-3" d="m9.92.42C4.68.42.42,4.68.42,9.92s4.26,9.5,9.5,9.5,9.5-4.26,9.5-9.5S15.16.42,9.92.42Zm5.73,14.13l.5.5-.87.87-.68-.68c-1.38.76-3,1.16-4.69,1.16-.87,0-1.79-.01-2.64-.15-.93-.16-1.66-.45-2.24-.9-.41-.33-.69-.65-.82-.97-.12-.3-.1-.58.05-.79.16-.22.44-.34.79-.34h0c.35,0,.74.13,1.1.37.31.21.6.27.88.18.25-.08.49-.27.72-.58.41-.54.25-1.13-.09-1.48-.33-.34-.95-.56-1.63-.07-.65.47-1.24.76-1.77.87-.47.1-.9.05-1.27-.14-.44-.22-.79-.65-1.02-1.24-.19-.48-.26-.96-.26-1.22,0-.88.22-1.73.65-2.53.41-.77,1.01-1.47,1.76-2.06.75-.59,1.63-1.06,2.6-1.38,1.01-.34,2.08-.51,3.18-.51s2.17.17,3.18.51c.97.32,1.85.79,2.6,1.38.75.59,1.35,1.29,1.76,2.06.43.8.65,1.65.65,2.53s-.23,1.79-.69,2.62c-.42.76-1.02,1.43-1.76,2.01Z"/>
        <path class="cls-3" d="m8.95,8.07l-.65.65c-.06.01-.22.03-.41-.04-.32-.13-.6-.47-.8-.98l.83-.83c.52.21.86.48.98.8.08.2.06.35.04.41Z"/>
        <path class="cls-3" d="m15.55,5.52c-1.5-1.18-3.5-1.83-5.63-1.83s-4.13.65-5.63,1.83c-1.49,1.18-2.32,2.74-2.32,4.4,0,.19.05.65.24,1.13.15.37.42.87.91,1.11.32.16.69.2,1.1.11.49-.1,1.06-.38,1.68-.82.34-.25.72-.36,1.08-.32.33.03.64.18.87.42.23.23.37.53.4.84.03.34-.06.68-.29.97-.27.35-.55.57-.85.67-.35.11-.72.04-1.1-.21-.67-.45-1.32-.39-1.55-.08-.1.14-.11.33-.02.55.11.27.37.57.74.86,1.18.93,2.84,1,4.72,1,1.62,0,3.17-.38,4.5-1.1l-6.09-6.09s-.09.01-.16.01c-.1,0-.22-.02-.35-.07-.19-.07-.36-.19-.51-.37-.19-.21-.35-.49-.48-.84-.13-.35-.24-.78-.31-1.28l-.03-.17.17.02c.49.07.92.18,1.28.31.35.13.63.29.84.48.17.15.3.33.37.51.08.22.07.41.05.51l6.27,6.27c1.54-1.18,2.39-2.76,2.39-4.45s-.82-3.22-2.32-4.4Zm-5.63,1.39c-.62,0-1.12-.49-1.12-1.1,0-.15.06-.27.18-.35.09-.06.21-.1.33-.13.3-.08.48-.15.48-.49,0-.12.02-.2.05-.27.05-.08.12-.13.21-.13.25,0,.52.36.63.52.08.12.35.53.35.85,0,.6-.5,1.1-1.12,1.1Zm3.77.73c-.62,0-1.12-.49-1.12-1.1,0-.15.06-.27.18-.35.09-.06.21-.1.33-.13.3-.08.48-.15.48-.49,0-.12.02-.2.05-.27.05-.08.12-.13.21-.13.25,0,.52.36.63.52.08.12.35.53.35.85,0,.6-.5,1.1-1.12,1.1Zm2.29,2.4c-.62,0-1.12-.49-1.12-1.1,0-.15.06-.27.18-.35.09-.06.21-.1.33-.13.3-.08.48-.15.48-.49,0-.12.02-.2.05-.27.05-.08.12-.13.21-.13.25,0,.52.36.63.52.08.12.35.53.35.85,0,.6-.5,1.1-1.12,1.1Z"/>
        <rect class="cls-3" x="12.33" y="8.43" width=".73" height="8.06" transform="translate(-5.09 12.63) rotate(-45)"/>
        <rect class="cls-3" x="8.88" y="8.4" width=".73" height="1.22" transform="translate(-3.66 9.17) rotate(-45)"/>
        <rect class="cls-2" x=".14" y=".14" width="19.56" height="19.56"/>
      </g>
    </g>
  </g>
</svg>