<?xml version="1.0" encoding="UTF-8"?>
<svg id="_レイヤー_2" data-name="レイヤー 2" xmlns="http://www.w3.org/2000/svg" viewBox="0 0 19.84 19.84">
  <defs>
    <style>
      .cls-1 {
        fill: #231815;
      }

      .cls-1, .cls-2, .cls-3 {
        stroke-width: 0px;
      }

      .cls-2 {
        fill: none;
      }

      .cls-3 {
        fill: #fff;
      }
    </style>
  </defs>
  <g id="_レイヤー_9" data-name="レイヤー 9">
    <g>
      <circle class="cls-1" cx="9.92" cy="9.92" r="9.92"/>
      <g>
        <path class="cls-3" d="m9.92.42C4.68.42.42,4.68.42,9.92s4.26,9.5,9.5,9.5,9.5-4.26,9.5-9.5S15.16.42,9.92.42Zm-5.35,7.69c.08.14.31.17.56.18.04,0,.06,0,.07.09,0,.08-.01.09-.07.1-.26,0-.62.04-.87.06-.24.02-.5.04-.73.08-.06,0-.08,0-.08-.08,0-.08,0-.09.07-.1.19-.04.3-.14.39-.25.13-.15.24-.42.36-.85l.65-2.33c.25-.91.3-1.13.38-1.51l.53-.3s.08,0,.1.05c.18.42.33.76.72,1.65l.98,2.21c.17.4.29.64.42.77.13.14.2.14.47.14.08,0,.09,0,.1.08,0,.08,0,.09-.08.1-.3.02-.69.04-.99.07-.27.02-.68.07-.98.1-.05,0-.06,0-.06-.09s0-.09.05-.1c.26-.04.44-.08.47-.22.04-.16-.02-.35-.19-.72l-.36-.8c-.23,0-.53.02-.8.04-.29.02-.57.06-.86.1l-.2.76c-.12.42-.09.63-.01.79Zm5.07,6.85s-.02.06-.07.06c-.05,0-.06-.01-.08-.06-.09-.3-.19-.55-.34-.76-.17-.21-.39-.34-.63-.38-.77-.15-1.5.45-1.72,1.54-.2.97.25,1.83,1.04,1.99.58.12,1.04-.04,1.45-.47.02-.02.04-.03.11.02.04.03.05.06.02.1-.42.49-.96.8-1.75.64-1.16-.23-1.84-1.23-1.6-2.42.23-1.17,1.25-1.84,2.43-1.6.26.05.47.13.65.22.2.1.35.16.58.18-.03.28-.07.65-.09.93Zm5.93-2.56c-.6.16-1.29.3-1.79.44-.44.12-.93.27-1.36.39-.07.02-.09,0-.11-.09-.02-.09-.02-.11.05-.14.38-.14.6-.2.68-.44.08-.23-.03-.63-.19-1.23l-.89-3.26c-.24-.86-.27-.98-.46-1.14-.17-.14-.4-.08-.85,0-.07.01-.1,0-.12-.09-.03-.11-.01-.13.07-.15.47-.11.93-.23,1.4-.35.48-.13,1.1-.35,1.66-.5,2.14-.59,2.96-.17,3.21.72.18.66-.12,1.35-1.58,2.13v.05c1.66-.3,2.7.02,2.95.94.25.91-.19,2.03-2.64,2.7Z"/>
        <path class="cls-3" d="m6.32,6.16c-.2.03-.47.05-.7.07-.27.02-.54.05-.78.05l.34-1.27c.12-.46.16-.65.24-.93.1.24.17.44.37.89l.52,1.19Z"/>
        <path class="cls-3" d="m15.44,12.12c-.43.12-.75.18-.97-.01-.22-.18-.32-.59-.45-1.08l-.44-1.61c.25-.08.34-.1.47-.14,2.25-.62,2.67.22,2.83.8.19.69.05,1.64-1.44,2.05Z"/>
        <path class="cls-3" d="m13.84,9c-.13.04-.2.05-.35.09l-.36-1.32c-.15-.57-.27-.96-.2-1.18.08-.23.35-.31.68-.4,1.04-.28,1.76,0,1.98.81.21.77-.03,1.53-1.74,2Z"/>
        <rect class="cls-2" x=".14" y=".14" width="19.56" height="19.56"/>
      </g>
    </g>
  </g>
</svg>