<?xml version="1.0" encoding="UTF-8"?>
<svg id="_レイヤー_2" data-name="レイヤー 2" xmlns="http://www.w3.org/2000/svg" viewBox="0 0 19.84 19.84">
  <defs>
    <style>
      .cls-1 {
        fill: #231815;
      }

      .cls-1, .cls-2, .cls-3 {
        stroke-width: 0px;
      }

      .cls-2 {
        fill: none;
      }

      .cls-3 {
        fill: #fff;
      }
    </style>
  </defs>
  <g id="_レイヤー_9" data-name="レイヤー 9">
    <g>
      <circle class="cls-1" cx="9.92" cy="9.92" r="9.92"/>
      <g>
        <path class="cls-3" d="m9.92.42C4.68.42.42,4.68.42,9.92s4.26,9.5,9.5,9.5,9.5-4.26,9.5-9.5S15.16.42,9.92.42Zm4.54,9.72c-.54.65-1.09,1.22-1.63,1.7l1,.91-3.09,1.97-.87-1.15c-.49.15-.99.22-1.48.22,0,0-.01,0-.02,0-.12,0-.23,0-.35-.01l1.06,1.13-2.2.88-.56-2.43c-.35-.14-.7-.33-1.05-.54-1.01-.63-2.03-1.59-3.02-2.84l-.08-.1.08-.1c1-1.25,2.02-2.21,3.02-2.84.97-.61,1.95-.93,2.93-.97v-1.92l5.61,2.48-1,1.37c.55.49,1.11,1.06,1.66,1.72l3.18-3.95v8.38l-3.18-3.95Z"/>
        <path class="cls-3" d="m13.33,6.68l-.76,1.04c-.36-.3-.72-.56-1.09-.78-.99-.6-1.98-.92-2.97-.95v-1.44l4.82,2.13Z"/>
        <path class="cls-3" d="m13.31,12.71l-2.51,1.6-.63-.83c.44-.15.87-.36,1.3-.63.37-.23.74-.49,1.11-.8l.72.66Z"/>
        <path class="cls-3" d="m8.53,14.8l-1.44.58-.43-1.87c.3.1.61.18.91.23l-.02.02.98,1.05Z"/>
        <polygon class="cls-3" points="17.32 6.59 17.32 13.2 14.66 9.9 17.32 6.59"/>
        <path class="cls-3" d="m8.38,6.3s-.01,0-.02,0c-1.92,0-3.87,1.22-5.8,3.6,1.92,2.38,3.88,3.59,5.8,3.6h.02c1.93,0,3.91-1.21,5.88-3.6-1.97-2.39-3.94-3.6-5.88-3.6Zm-3.62,3.3c-.32,0-.58-.26-.58-.58s.26-.58.58-.58.58.26.58.58-.26.58-.58.58Zm3.74,1.94l-1.42-.88c-.08.42-.24.84-.46,1.26l-.28-.15c.66-1.24.66-2.51,0-3.75l.28-.15c.23.43.39.87.47,1.31l1.41-.88v3.23Z"/>
        <path class="cls-3" d="m8.2,8.87v2.11l-1.06-.66c.02-.14.02-.28.02-.42,0-.12,0-.25-.02-.37l1.05-.65Z"/>
        <path class="cls-3" d="m5.04,9.01c0,.15-.12.27-.27.27s-.27-.12-.27-.27.12-.27.27-.27.27.12.27.27Z"/>
        <rect class="cls-2" x=".14" y=".14" width="19.56" height="19.56"/>
      </g>
    </g>
  </g>
</svg>