<?xml version="1.0" encoding="UTF-8"?>
<svg id="_レイヤー_2" data-name="レイヤー 2" xmlns="http://www.w3.org/2000/svg" viewBox="0 0 19.84 19.84">
  <defs>
    <style>
      .cls-1 {
        fill: #231815;
      }

      .cls-1, .cls-2, .cls-3 {
        stroke-width: 0px;
      }

      .cls-2 {
        fill: none;
      }

      .cls-3 {
        fill: #fff;
      }
    </style>
  </defs>
  <g id="_レイヤー_9" data-name="レイヤー 9">
    <g>
      <circle class="cls-1" cx="9.92" cy="9.92" r="9.92"/>
      <g>
        <path class="cls-3" d="m9.92.42C4.68.42.42,4.68.42,9.92c0,1.1.19,2.16.53,3.14,1.14-.63,2.33-1.13,3.53-1.52,1.81-.57,3.67-.86,5.53-.85.73,0,1.48.05,2.21.15.81.11,1.62.27,2.41.49,1.45.4,2.88.98,4.25,1.73.34-.98.53-2.04.53-3.14C19.42,4.68,15.17.42,9.92.42Zm-3.08,8.32c0,.15-.12.27-.27.27h-1.44s-.02,0-.02.01c0,0,0,.01,0,.03l.17.64c.03.11-.01.22-.11.29-.05.03-.1.05-.15.05-.06,0-.11-.02-.16-.05l-1.28-.95s-.01,0-.02,0h-1.61c-.15,0-.27-.12-.27-.27v-3.1c0-.15.12-.27.27-.27h4.63c.15,0,.27.12.27.27v3.1Zm5.66.05c0,.12-.1.22-.22.22h-1.6l-.47.89c-.04.07-.1.11-.18.12,0,0,0,0-.01,0-.07,0-.14-.03-.18-.09l-.63-.91h-1.65c-.12,0-.22-.1-.22-.22v-3.2c0-.12.1-.22.22-.22h4.72c.12,0,.22.1.22.22v3.2Zm5.69-.03c0,.15-.12.27-.27.27h-1.61s-.01,0-.02,0l-1.28.95s-.1.05-.16.05c-.05,0-.1-.02-.15-.05-.09-.06-.14-.18-.11-.29l.17-.64s0-.02,0-.03c0,0-.01-.01-.02-.01h-1.44c-.15,0-.27-.12-.27-.27v-3.1c0-.15.12-.27.27-.27h4.63c.15,0,.27.12.27.27v3.1Z"/>
        <path class="cls-3" d="m16.4,16.86c-.58.55-1.24,1.02-1.95,1.4l-.13-.05c-.65-.39-1.34-.67-2.06-.83-.17-.04-.36-.07-.54,0-.15.06-1.24.57-1.36.71-.32.37-.3.58-.28.82.01.14.02.3-.04.51h0s-.08,0-.13,0c-2.01,0-3.87-.62-5.41-1.69.39-.65.98-1.35,1.5-1.75.39-.3.92-.66,1.48-.73.09-.01.19-.01.29-.02.16,0,.34,0,.5-.06.29-.08.54-.28.82-.51.77-.64,1.54-1.33,2.27-2.07.35-.35.6-.69.78-1.25,0,0,0,0,0,0,.73.1,1.46.24,2.18.43.06.23.12.51.19.79.07.31.14.64.21.9h0c.05.19.1.38.2.56.12.22.27.4.43.57.05.05.09.1.13.15.5.58.82,1.33.91,2.12Z"/>
        <path class="cls-3" d="m7.58,5.61v3.16h1.64c.07,0,.14.04.18.09l.62.89.46-.87c.04-.07.11-.12.19-.12h1.6v-3.16h-4.69Zm.43,1.98l.51-.93.51.93h-1.02Zm1.39,0l.51-.93.51.93h-1.02Zm1.42,0l.51-.93.51.93h-1.02Z"/>
        <path class="cls-3" d="m17.93,5.63h-4.63s-.03.01-.03.03v3.1s.01.03.03.03h1.44c.08,0,.16.04.21.1.05.07.07.15.05.23l-.17.64s0,.02.01.03c.01,0,.02,0,.03,0l1.28-.95s.1-.05.16-.05h1.61s.03-.01.03-.03v-3.1s-.01-.03-.03-.03Zm-3.22,1.94h-.79v-.79h.79v.79Zm1.27,0h-.79v-.79h.79v.79Zm1.27,0h-.79v-.79h.79v.79Z"/>
        <path class="cls-3" d="m6.57,5.61H1.95s-.03.01-.03.03v3.1s.01.03.03.03h1.61c.06,0,.11.02.16.05l1.28.95s.02,0,.03,0c.01,0,.02-.02.01-.03l-.17-.64c-.02-.08,0-.16.05-.23s.13-.1.21-.1h1.44s.03-.01.03-.03v-3.1s-.01-.03-.03-.03Zm-3.77,2.09c-.29,0-.52-.23-.52-.52s.23-.52.52-.52.52.23.52.52-.23.52-.52.52Zm1.48,0c-.29,0-.52-.23-.52-.52s.23-.52.52-.52.52.23.52.52-.23.52-.52.52Zm1.48,0c-.29,0-.52-.23-.52-.52s.23-.52.52-.52.52.23.52.52-.23.52-.52.52Z"/>
        <rect class="cls-2" x=".14" y=".14" width="19.56" height="19.56"/>
      </g>
    </g>
  </g>
</svg>