<?xml version="1.0" encoding="UTF-8"?>
<svg id="_レイヤー_2" data-name="レイヤー 2" xmlns="http://www.w3.org/2000/svg" viewBox="0 0 20.15 20.15">
  <defs>
    <style>
      .cls-1 {
        stroke-linejoin: round;
      }

      .cls-1, .cls-2 {
        stroke: #231815;
      }

      .cls-1, .cls-3 {
        fill: none;
        stroke-width: .44px;
      }

      .cls-2 {
        fill: #fff;
        stroke-width: .31px;
      }

      .cls-3 {
        stroke: #040000;
      }
    </style>
  </defs>
  <g id="_レイヤー_9" data-name="レイヤー 9">
    <g>
      <circle class="cls-2" cx="10.08" cy="10.08" r="9.92"/>
      <g>
        <g>
          <path class="cls-3" d="m5.18,9.97c.3-.54.79-1.22,1.53-1.84.45-.37,1.14-.93,2.2-1.18.32-.07,1.15-.26,2.15,0,.71.18,1.19.51,1.63.82.23.16.79.56,1.38,1.23.35.4.61.79.79,1.09"/>
          <path class="cls-3" d="m5.15,9.77c.16.27.39.64.72,1.02.41.49.79.8,1.07,1.02.46.37.82.66,1.38.92.35.16.8.37,1.43.41.68.04,1.19-.13,1.53-.26.67-.24,1.1-.56,1.63-.97.66-.5,1.07-.95,1.18-1.07.34-.38.59-.74.77-1.02"/>
        </g>
        <line class="cls-3" x1="10" y1="5.61" x2="10" y2="6.69"/>
        <line class="cls-3" x1="6.91" y1="6.47" x2="7.45" y2="7.4"/>
        <line class="cls-3" x1="13.1" y1="6.59" x2="12.56" y2="7.52"/>
        <circle class="cls-3" cx="10" cy="9.99" r="1.56"/>
        <circle class="cls-1" cx="9.9" cy="9.71" r="7.4"/>
        <circle class="cls-1" cx="9.9" cy="9.71" r="6.16"/>
        <line class="cls-1" x1="14.19" y1="15.74" x2="16.14" y2="17.83"/>
        <line class="cls-1" x1="17.65" y1="16.48" x2="15.65" y2="14.33"/>
      </g>
    </g>
  </g>
</svg>