<?xml version="1.0" encoding="UTF-8"?>
<svg id="_レイヤー_2" data-name="レイヤー 2" xmlns="http://www.w3.org/2000/svg" viewBox="0 0 19.84 19.84">
  <defs>
    <style>
      .cls-1 {
        fill: #231815;
      }

      .cls-1, .cls-2, .cls-3 {
        stroke-width: 0px;
      }

      .cls-2 {
        fill: none;
      }

      .cls-3 {
        fill: #fff;
      }
    </style>
  </defs>
  <g id="_レイヤー_9" data-name="レイヤー 9">
    <g>
      <circle class="cls-1" cx="9.92" cy="9.92" r="9.92"/>
      <g>
        <path class="cls-3" d="m19.42,9.92c0,3.25-1.64,6.13-4.14,7.84l-1.19-2.48c.48-.08.92-.3,1.27-.65.44-.44.68-1.03.68-1.64V4.9c0-.62-.24-1.2-.68-1.64-.44-.44-1.03-.68-1.64-.68h-7.6c-.62,0-1.2.24-1.64.68-.44.44-.68,1.03-.68,1.64v8.08c0,.62.24,1.2.68,1.64.35.35.8.58,1.27.65l-1.19,2.48C2.07,16.05.42,13.17.42,9.92.42,4.68,4.68.42,9.92.42s9.5,4.26,9.5,9.5Z"/>
        <path class="cls-3" d="m13.27,18.81c-1.04.39-2.17.61-3.35.61s-2.31-.22-3.35-.61l1.05-2.33h4.6s1.05,2.33,1.05,2.33Z"/>
        <path class="cls-3" d="m13.72,3.09h-7.6c-1,0-1.81.81-1.81,1.81v8.08c0,1,.81,1.81,1.81,1.81h7.6c1,0,1.81-.81,1.81-1.81V4.9c0-1-.81-1.81-1.81-1.81Zm-8.01.81h8.42v1.45H5.71v-1.45Zm1.28,9.94c-.55,0-.99-.45-.99-.99s.45-.99.99-.99.99.45.99.99-.45.99-.99.99Zm5.87,0c-.55,0-.99-.45-.99-.99s.45-.99.99-.99.99.45.99.99-.45.99-.99.99Zm1.73-2.69H5.26v-5.32h9.32v5.32Z"/>
        <circle class="cls-3" cx="12.86" cy="12.86" r=".47"/>
        <circle class="cls-3" cx="6.99" cy="12.86" r=".47"/>
        <rect class="cls-3" x="5.78" y="6.35" width="8.28" height="4.29"/>
        <rect class="cls-3" x="6.23" y="4.42" width="7.39" height=".42"/>
        <rect class="cls-2" x=".14" y=".14" width="19.56" height="19.56"/>
      </g>
    </g>
  </g>
</svg>