<?xml version="1.0" encoding="UTF-8"?>
<svg id="_レイヤー_2" data-name="レイヤー 2" xmlns="http://www.w3.org/2000/svg" viewBox="0 0 22 116">
  <defs>
    <style>
      .cls-1 {
        isolation: isolate;
      }

      .cls-2 {
        fill: #e73962;
        stroke-width: 0px;
      }
    </style>
  </defs>
  <g id="_レイヤー_1-2" data-name="レイヤー 1">
    <g id="_グループ_315" data-name="グループ 315">
      <g id="_レイヤー_1-3" data-name="レイヤー 1">
        <path id="_パス_324" data-name="パス 324" class="cls-2" d="M0,116c4.4-5.2,11-20.9,11-26.1,0,5.2,6.6,20.9,11,26.1-4.4-5.2-17.6-5.2-22,0Z"/>
      </g>
      <g class="cls-1">
        <path class="cls-2" d="M5.18,63.7v-1.9h1.6c-1.4-.6-1.8-1.4-1.8-2.4,0-2,1.9-3.3,5-3.3,2.6,0,5.3.9,5.3,3.4,0,.9-.3,1.6-1.2,2.2h4.4v2H5.18ZM13.68,59.9c0-1.2-1.1-1.7-3.6-1.7-2.3,0-3.5.5-3.5,1.8,0,1,1.2,1.7,2.4,1.7h2.4c1.4,0,2.3-.7,2.3-1.8Z"/>
        <path class="cls-2" d="M13.38,49.1c1.5.7,1.9,1.7,1.9,2.8,0,1.7-1.1,2.8-2.8,2.8-1,0-2-.3-2.7-1.2-.5-.7-.8-2-.8-3.6v-.6h-.5c-1.2,0-2,.3-2,1.5,0,.9.5,1.4,1.5,1.6l-.3,2c-1.9-.3-2.8-1.8-2.8-3.7,0-1,.2-1.9.9-2.6.5-.6,1.4-.8,2.6-.8h4.1c1,0,2,0,2.5-.2v1.9c-.3.1-1,.1-1.6.1ZM10.18,49.7c0,1.6.3,2.8,2.1,2.8,1,0,1.5-.4,1.5-1.3,0-1-1.1-1.9-3-1.9h-.6v.4Z"/>
        <path class="cls-2" d="M4.98,37.7c0,.6.3.9,1.1,1.1.6-.5,1.3-.8,2.1-.8,1.8,0,3.2,1.3,3.2,3.4,0,.5-.1.9-.2,1.2.2.5.5.7.9.7.7,0,.8-.6.8-1.7.1-3,.4-4.7,2.7-4.7,2,0,3.1,1.5,3.1,4.5,0,2.5-.8,4-2.5,4-1,0-1.6-.5-1.9-1.4-.4.7-.9,1.1-1.6,1.1-.9,0-1.5-.5-2-1.5-.6.9-1.4,1.3-2.5,1.3-2,0-3.3-1.4-3.3-3.5,0-.5,0-1,.4-1.9-1.4-.2-1.8-.8-1.8-1.8,0-.3,0-.4.1-.6h1.5c-.1.4-.1.5-.1.6ZM8.18,40.2c-1.1,0-1.9.4-1.9,1.4,0,.9.6,1.4,1.9,1.4s1.9-.5,1.9-1.4-.7-1.4-1.9-1.4ZM15.88,43.8c.9,0,1.4-.6,1.4-2.4,0-1.6-.5-2.4-1.4-2.4-.7,0-1.1.5-1.2,1.4s-.1,1.7-.1,2.5c.3.6.7.9,1.3.9Z"/>
        <path class="cls-2" d="M10.48,34.5c2.4,0,3.2-.7,3.2-1.9,0-.9-.5-1.5-1.8-1.7l.3-1.8c2.1.5,3.1,1.7,3.1,3.6,0,2.5-1.8,3.9-5,3.9s-5.3-1.5-5.3-3.9c0-2.2,1.6-3.7,5.1-3.7h.4v5.6h0v-.1ZM6.38,32.7c0,1,.8,1.6,2.6,1.7v-3.4h-.2c-1.7,0-2.4.8-2.4,1.7Z"/>
        <path class="cls-2" d="M15.28,19.5c0,.8-.2,1.3-.4,1.7-.5.8-1.5,1-3,1h-5v1.3h-1.6v-1.3l-2.6-.1-.2-1.8h2.7v-1.9h1.6v1.9h4.6c1.5,0,2.2,0,2.2-1.4,0-.2,0-.5-.1-.8h1.6c.1.4.2.7.2,1.4Z"/>
        <path class="cls-2" d="M10.08,17.2c-3.4,0-5.2-1.3-5.2-3.9s1.8-3.9,5.1-3.9c3.5,0,5.3,1.3,5.3,3.9s-1.9,3.9-5.2,3.9ZM10.08,11.6c-2.5,0-3.6.5-3.6,1.7s1.3,1.7,3.6,1.7c2.5,0,3.6-.5,3.6-1.7,0-1.1-1.1-1.7-3.6-1.7Z"/>
        <path class="cls-2" d="M5.18,7.6v-1.9h1.6c-1.4-.6-1.8-1.4-1.8-2.4,0-2,1.9-3.3,5-3.3,2.6,0,5.3.9,5.3,3.4,0,.9-.3,1.6-1.2,2.2h4.4v2H5.18ZM13.68,3.8c0-1.2-1.1-1.7-3.6-1.7-2.3,0-3.5.5-3.5,1.8,0,1,1.2,1.7,2.4,1.7h2.4c1.4,0,2.3-.7,2.3-1.8Z"/>
      </g>
    </g>
  </g>
</svg>