<svg xmlns="http://www.w3.org/2000/svg" width="47.7" height="27.78" viewBox="0 0 47.7 27.78"><path d="M10.2,8.77a8.479,8.479,0,0,1,4.887,1.352,8.027,8.027,0,0,1,2.74,3.432c1.279,2.857,1.443,6.463,1.443,9.286,0,4.637-.681,7.975-2.083,10.2C15.7,35.4,13.419,36.55,10.2,36.55c-3.241,0-5.535-1.191-7.013-3.643C1.83,30.657,1.17,27.325,1.17,22.72,1.17,13.072,3.955,8.77,10.2,8.77Zm0,27.48c3.107,0,5.31-1.1,6.733-3.365C18.3,30.7,18.97,27.419,18.97,22.84c0-6.411-1-13.77-8.77-13.77-3.061,0-5.232,1.071-6.639,3.276S1.47,17.945,1.47,22.72c0,4.549.646,7.83,1.973,10.033C4.863,35.106,7.073,36.25,10.2,36.25ZM29.8,8.93H34.51V31.49h4.4v4.66H23.89V31.49h4.48V16.238a17.933,17.933,0,0,1-4.261,3.134l-.219.115V13.909l.08-.042a16.306,16.306,0,0,0,5.789-4.876Zm4.406.3H29.956a16.8,16.8,0,0,1-5.766,4.86v4.9a18.027,18.027,0,0,0,4.224-3.216l.256-.256V31.79H24.19v4.06H38.61V31.79h-4.4ZM10.2,13.05c1.381,0,2.167.755,2.546,2.447a38.5,38.5,0,0,1,.364,7.1,34.275,34.275,0,0,1-.5,7.589c-.392,1.459-1.1,2.081-2.375,2.081-2.489,0-2.91-2.385-2.91-9.55C7.33,16.9,7.33,13.05,10.2,13.05Zm.04,18.92c1.141,0,1.725-.521,2.085-1.859A34.725,34.725,0,0,0,12.81,22.6c0-6.58-.1-9.25-2.61-9.25-1.194,0-1.883.76-2.233,2.465a39.135,39.135,0,0,0-.337,6.9C7.63,30.155,8.142,31.97,10.24,31.97Zm32.89-2.04h5.74v6.22H43.13Zm5.44.3H43.43v5.62h5.14Z" transform="translate(-1.17 -8.77)" fill="#fff"/></svg>