<svg xmlns="http://www.w3.org/2000/svg" width="47.7" height="27.78" viewBox="0 0 47.7 27.78"><path d="M10.2,8.77a8.479,8.479,0,0,1,4.887,1.352,8.027,8.027,0,0,1,2.74,3.432c1.279,2.857,1.443,6.463,1.443,9.286,0,4.637-.681,7.975-2.083,10.2C15.7,35.4,13.419,36.55,10.2,36.55c-3.241,0-5.535-1.191-7.013-3.643C1.83,30.657,1.17,27.325,1.17,22.72,1.17,13.072,3.955,8.77,10.2,8.77Zm0,27.48c3.107,0,5.31-1.1,6.733-3.365C18.3,30.7,18.97,27.419,18.97,22.84c0-6.411-1-13.77-8.77-13.77-3.061,0-5.232,1.071-6.639,3.276S1.47,17.945,1.47,22.72c0,4.549.646,7.83,1.973,10.033C4.863,35.106,7.073,36.25,10.2,36.25ZM30.76,8.77c2.789,0,4.94.7,6.393,2.066A6.562,6.562,0,0,1,39.11,15.76a6.248,6.248,0,0,1-3.261,5.68,7.746,7.746,0,0,1,3.981,6.88,7.772,7.772,0,0,1-2.367,5.829,10.129,10.129,0,0,1-7.1,2.4c-2.888,0-5.136-.7-6.68-2.093a6.985,6.985,0,0,1-2.19-5.377c0-2.087.512-4.286,4.174-6.254A6.979,6.979,0,0,1,22.25,16.6a7.8,7.8,0,0,1,2-5.4A8.653,8.653,0,0,1,30.76,8.77Zm-.4,27.48c5.656,0,9.17-3.039,9.17-7.93a7.515,7.515,0,0,0-4.047-6.751l-.217-.129.217-.129A6.03,6.03,0,0,0,38.81,15.76c0-4.252-2.934-6.69-8.05-6.69-6.06,0-8.21,4.056-8.21,7.53a6.757,6.757,0,0,0,3.49,6.113l.221.14-.232.12C22.3,24.9,21.79,27.045,21.79,29.08,21.79,33.637,24.914,36.25,30.36,36.25Zm.6-23.68c1.918,0,3.11,1.314,3.11,3.43,0,1.352-.485,2.307-1.922,3.785l-.073.075-.1-.042c-2.207-.977-4.249-2.159-4.249-4.177a3,3,0,0,1,.912-2.214A3.341,3.341,0,0,1,30.96,12.57Zm1.045,6.93c1.318-1.369,1.765-2.262,1.765-3.5,0-1.96-1.05-3.13-2.81-3.13a2.73,2.73,0,0,0-2.93,2.77C28.03,17.116,29.183,18.238,32.005,19.5ZM10.2,13.05c1.381,0,2.167.755,2.546,2.447a38.5,38.5,0,0,1,.364,7.1,34.275,34.275,0,0,1-.5,7.589c-.392,1.459-1.1,2.081-2.375,2.081-2.489,0-2.91-2.385-2.91-9.55C7.33,16.9,7.33,13.05,10.2,13.05Zm.04,18.92c1.141,0,1.725-.521,2.085-1.859A34.725,34.725,0,0,0,12.81,22.6c0-6.58-.1-9.25-2.61-9.25-1.194,0-1.883.76-2.233,2.465a39.135,39.135,0,0,0-.337,6.9C7.63,30.155,8.142,31.97,10.24,31.97Zm19.11-7.379.071.032c3.685,1.642,4.929,2.807,4.929,4.617,0,1.895-1.577,3.27-3.75,3.27a3.628,3.628,0,0,1-3.95-3.87c0-1.71.788-2.909,2.633-4.009ZM30.6,32.21c2,0,3.45-1.249,3.45-2.97,0-1.653-1.183-2.745-4.68-4.311-1.718,1.04-2.42,2.119-2.42,3.711A3.35,3.35,0,0,0,30.6,32.21Zm12.53-2.28h5.74v6.22H43.13Zm5.44.3H43.43v5.62h5.14Z" transform="translate(-1.17 -8.77)" fill="#fff"/></svg>