<?xml version="1.0" encoding="UTF-8"?>
<svg xmlns="http://www.w3.org/2000/svg" xmlns:xlink="http://www.w3.org/1999/xlink" viewBox="0 0 800 720">
  <defs>
    <style>
      .cls-1 {
        stroke-width: 11px;
      }

      .cls-1, .cls-2, .cls-3, .cls-4 {
        fill: none;
      }

      .cls-1, .cls-3, .cls-4 {
        stroke: #231815;
        stroke-miterlimit: 10;
      }

      .cls-2, .cls-5 {
        stroke-width: 0px;
      }

      .cls-6 {
        clip-path: url(#clippath-1);
      }

      .cls-5 {
        fill: #b31e23;
      }

      .cls-7 {
        clip-path: url(#clippath);
      }

      .cls-3 {
        stroke-width: 8px;
      }

      .cls-4 {
        stroke-width: 10px;
      }
    </style>
    <clipPath id="clippath">
      <path class="cls-2" d="m800,0h-480S0,720,0,720h480S800,0,800,0Z"/>
    </clipPath>
    <clipPath id="clippath-1">
      <path class="cls-2" d="m564.1,368.19h-107.56c-3.48,0-6.16-3.12-6.16-12.5v-74.8h89.83c.61,0,.94-.09.94-2.94,0-4.99,11.91-6.3,11.91-6.3h-102.68v-65.69c0-20.28,22.35-22.01,32.08-22.01h68.8c.61,0,.94-.09.94-2.94,0-.7.24-1.32.64-1.89l11.46,11.46v-56.72c0-36.18,26.4-68.58,58.57-78.12l49.15,49.15v-56.72c0-43.16,37.58-80.97,77.69-80.97h-51.49c-22.99,0-81.41,27.49-81.41,82.48l3.21,3.21h-29.52c-22.99,0-81.41,27.49-81.41,82.48l39.34,39.34h-149.7s6.16,3.12,6.16,12.5v101h-50.65c-20.9,0-74.03,25-74.03,75v26.65h-51.71c-20.9,0-74.03,25-74.03,75v53.29c0,5,.54,9.74,1.52,14.24H25.91s6.16,3.12,6.16,12.5v159.38c0,25-32.08,31.25-32.08,31.25h83.74c-3.48,0-6.16-3.12-6.16-12.5v-84.44h56.4v65.69c0,29.07-18.18,31.25-18.18,31.25h69.84c-3.48,0-6.16-3.12-6.16-12.5v-152.09c16.71,14.82,37.63,22.23,49.01,22.23h63.83c-2.75-.48-2.85-2.41-2.85-3.34,0-4.99,11.91-6.3,11.91-6.3h-26.07c-36.48,0-70.65-24.73-70.65-63.98v-56.04c0-39.25,34.17-63.98,70.65-63.98h4.89v17c0,50,53.13,75,74.03,75h63.83c-2.75-.48-2.85-2.41-2.85-3.34,0-4.99,11.91-6.3,11.91-6.3h-26.07c-36.48,0-70.65-24.73-70.65-63.98v-56.04c0-39.25,34.17-63.98,70.65-63.98h3.83v48.74c0,25-32.08,31.25-32.08,31.25h182.23c-2.75-.48-2.85-2.41-2.85-3.34,0-4.99,11.91-6.3,11.91-6.3Zm-430.13,261.14h-56.4v-65.69c0-20.28,22.35-22.01,32.08-22.01h24.33v87.7ZM782.46,108.1c0,54.99-58.42,82.48-81.41,82.48h-29.52l3.21,3.21c0,54.99-58.42,82.48-81.41,82.48h-51.49c40.11,0,77.69-37.8,77.69-80.97v-56.72l49.15,49.15c32.16-9.54,58.57-41.94,58.57-78.12v-56.72l55.21,55.21Z"/>
    </clipPath>
  </defs>
  <g id="_背景" data-name="背景">
    <g class="cls-7">
      <g class="cls-6">
        <path class="cls-5" d="m800,0h-480S0,720,0,720h480S800,0,800,0Z"/>
      </g>
    </g>
  </g>
  <g id="_ロゴ" data-name="ロゴ">
    <g>
      <path class="cls-1" d="m391.59,488.19l70.11-144.09c.92-1.81,1.77-3.66,2.55-5.54,3.84-9.28,5.97-19.44,5.97-30.11,0-43.47-35.24-78.71-78.71-78.71s-78.71,35.24-78.71,78.71c0,9.75,1.78,19.08,5.02,27.7l4.69,10.2,69.08,141.84Z"/>
      <circle class="cls-4" cx="391.51" cy="308.44" r="47.35" transform="translate(45.99 667.65) rotate(-84.35)"/>
      <polyline class="cls-3" points="377.73 481.65 362.83 481.65 345.43 520.79 418.21 520.79 435.6 481.65 407.35 481.65"/>
    </g>
  </g>
</svg>