<?xml version="1.0" encoding="UTF-8"?>
<svg xmlns="http://www.w3.org/2000/svg" xmlns:xlink="http://www.w3.org/1999/xlink" viewBox="0 0 800 720">
  <defs>
    <style>
      .cls-1, .cls-2, .cls-3 {
        fill: none;
      }

      .cls-1, .cls-4 {
        stroke-width: 0px;
      }

      .cls-5 {
        clip-path: url(#clippath-1);
      }

      .cls-2 {
        stroke-width: 6px;
      }

      .cls-2, .cls-3 {
        stroke: #231815;
        stroke-miterlimit: 10;
      }

      .cls-6 {
        clip-path: url(#clippath);
      }

      .cls-3 {
        stroke-width: 8px;
      }

      .cls-4 {
        fill: #3452a2;
      }
    </style>
    <clipPath id="clippath">
      <path class="cls-1" d="m0,0h480l320,720h-480L0,0Z"/>
    </clipPath>
    <clipPath id="clippath-1">
      <path class="cls-1" d="m548.89,639.79h127.82l28.25,28.25v-42.06c0-32.01,27.87-60.04,57.61-60.04h-38.18c-17.05,0-60.37,20.39-60.37,61.16l4.83,4.83h-51.67c-2.84,0-5.03-2.55-5.03-10.19v-60.99h73.26c.5,0,.77-.07.77-2.4,0-4.07,9.71-5.14,9.71-5.14h-83.74v-53.57c0-16.54,18.23-17.95,26.16-17.95h56.1c.5,0,.77-.07.77-2.4,0-4.07,9.71-5.14,9.71-5.14h-117.34l22.25-54.35c4.8-12.39,21.87-15.18,21.87-15.18h-37.98s6.1,3.44,6.1,7.57c0,3.14-11.56,32.26-23.69,61.95h-6.08s2.6,1.33,4.06,4.93c-12.76,31.14-25.47,61.37-25.47,61.37l-51.2-110.33c-9.21-18.19,9.23-25.48,9.23-25.48h-27.81v-53.53c0-20.39,26.16-25.48,26.16-25.48h-67.24v-48.28c0-20.39,26.16-25.48,26.16-25.48h-68.29s5.03,2.55,5.03,10.19v68.75h-46.07v-53.57c0-20.39,26.16-25.48,26.16-25.48h-68.29s5.03,2.55,5.03,10.19v53.19c-29-.86-55.65-20.83-55.65-52.13v-22.9l1.35.05-1.35-1.46v-21.39c0-32.01,27.87-52.17,57.61-52.17h13.87c-2.24-.39-2.32-1.97-2.32-2.73,0-4.07,9.71-5.14,9.71-5.14h-59.44c-14,0-45.71,13.75-56.6,41.24l-34.85-37.68h14.61c4.13,0,10.08-1.42,16.48-4.25l2.25-1.04c15.43-7.51,32.47-23.04,32.47-46.59l-34.72-34.72h-101.5V4.33c0-4.07,9.64-5.4,9.64-5.4H-5.84S-.82,1.48-.82,9.13v129.97c0,20.39-26.16,25.48-26.16,25.48H41.31c-2.84,0-5.03-2.55-5.03-10.19v-68.86h46v53.57c0,23.71-14.83,25.48-14.83,25.48h49.86v49.8c0,20.39-26.16,25.48-26.16,25.48h68.29s-5.03-2.55-5.03-10.19c0,0,0-40.15,0-68.86h20.99l46.01,49.91c-.35,2.48-.53,5.04-.53,7.69v43.46c0,40.77,43.32,61.16,60.37,61.16h36.22v68.87c0,20.39-26.16,25.48-26.16,25.48h68.29s-5.03-2.55-5.03-10.19v-68.86h46.07v60.11c0,13.82-18.65,19.05-18.65,19.05h59.73v48.28c0,20.39-26.16,25.48-26.16,25.48h68.29s-5.03-2.55-5.03-10.19v-31.21c22.4,47.04,56.19,122.88,56.19,122.88h12.17l27.86-68.06v109.64c0,20.39-26.16,25.48-26.16,25.48ZM82.28,77.99h-46V24.42c0-16.54,18.23-17.95,26.16-17.95h19.84v71.52Zm89.74,75.29h-17.61v-53.57c0-16.54,18.23-17.95,26.16-17.95h36.74c1.39,1.39,2.17,2.17,3.57,3.57v24.57c0,27.15-23.63,43.38-48.86,43.38Zm265.72,254.02v-80.96c1.47,1.21,3.98,4.06,3.98,9.46v80.96c-1.47-1.21-3.98-4.06-3.98-9.46Zm349.12,263.12c0,40.77-43.32,61.16-60.37,61.16h-38.18c29.74,0,57.61-28.03,57.61-60.04v-42.06l40.94,40.94Z"/>
    </clipPath>
  </defs>
  <g id="_背景" data-name="背景">
    <g class="cls-6">
      <g class="cls-5">
        <path class="cls-4" d="m0,0h480l320,720h-480L0,0Z"/>
      </g>
    </g>
  </g>
  <g id="_ロゴ" data-name="ロゴ">
    <g>
      <g>
        <rect class="cls-3" x="285.06" y="246.57" width="51.61" height="229.32"/>
        <rect class="cls-3" x="370.03" y="246.57" width="51.61" height="229.32"/>
        <rect class="cls-3" x="473.09" y="244.79" width="51.61" height="229.32" transform="translate(-102.52 231.4) rotate(-23.75)"/>
      </g>
      <g>
        <rect class="cls-2" x="299.65" y="267.52" width="22.44" height="123.67"/>
        <circle class="cls-2" cx="310.87" cy="442.99" r="13.63"/>
        <rect class="cls-2" x="384.61" y="267.52" width="22.44" height="123.67"/>
        <circle class="cls-2" cx="395.83" cy="442.99" r="13.63"/>
        <rect class="cls-2" x="474.83" y="268.45" width="22.44" height="123.67" transform="translate(-91.86 223.76) rotate(-23.75)"/>
        <circle class="cls-2" cx="531.83" cy="434.29" r="13.63"/>
      </g>
    </g>
  </g>
</svg>