<?xml version="1.0" encoding="UTF-8"?>
<svg xmlns="http://www.w3.org/2000/svg" xmlns:xlink="http://www.w3.org/1999/xlink" viewBox="0 0 800 720">
  <defs>
    <style>
      .cls-1, .cls-2, .cls-3, .cls-4, .cls-5, .cls-6 {
        fill: none;
      }

      .cls-1, .cls-3, .cls-4, .cls-5, .cls-6, .cls-7 {
        stroke: #231815;
      }

      .cls-1, .cls-3, .cls-5, .cls-7 {
        stroke-width: 7px;
      }

      .cls-1, .cls-4, .cls-6 {
        stroke-linecap: round;
      }

      .cls-1, .cls-5, .cls-6 {
        stroke-linejoin: round;
      }

      .cls-8 {
        fill: #ae4193;
      }

      .cls-8, .cls-2 {
        stroke-width: 0px;
      }

      .cls-9 {
        clip-path: url(#clippath-1);
      }

      .cls-3, .cls-4, .cls-7 {
        stroke-miterlimit: 10;
      }

      .cls-4, .cls-6 {
        stroke-width: 10px;
      }

      .cls-10 {
        clip-path: url(#clippath);
      }

      .cls-7 {
        fill: #231815;
      }
    </style>
    <clipPath id="clippath">
      <path class="cls-2" d="m0,0h480l320,720h-480L0,0Z"/>
    </clipPath>
    <clipPath id="clippath-1">
      <path class="cls-2" d="m801.75,620.34v103.56c0,7.14,5.96,7.14,5.96,7.14h-274.08c13.01,0,36-10.71,36-25v-149.98c0-.47.01-.94.03-1.41-18.13,14.2-39.18,21.3-51.09,21.3h-53.5c41.68,0,80.73-39.28,80.73-84.13v-126.42c0-21.29-19.18-21.56-19.18-21.56h99.9s-23.36,0-23.36,20.62v125.79c0,6.72-.85,13.03-2.37,18.96,13.75-7.3,28.62-10.28,36.84-10.28h57.18c-49.79,0-68.05,35.71-68.05,57.14v156.2c0,11,.48,11.13,57.12,11.13,59.99,0,60.72-.1,60.72-12.43v-83.48c0-10.71-67.85-14.28-67.85-14.28h130.95c-4.75,0-5.96,3.57-5.96,7.14Zm-78.56-64.28h82.94s-3.24,0-3.24-3.36v-43.69c0-10.08,13.61-10.08,13.61-10.08h-82.94s3.25,0,3.25,3.36v43.69c0,10.08-13.61,10.08-13.61,10.08Zm-261.19,19.89h-99.9s23.36,0,23.36-20.62v-125.79c0-14.22,3.76-26.67,9.78-37.35h-208.39s26.48-4.16,26.48-28.02v-187.72c-13.15,32.31-50.51,48.47-67.05,48.47H-12.42s36.65-7.14,36.65-35.71V7.09c0-10.71-7.04-14.28-7.04-14.28h152.17l48.65,48.65c0,32.99-23.87,54.75-45.49,65.28l45.49,45.49c0,2.69-.17,5.3-.47,7.84h84.42s-36.65,7.14-36.65,35.71v171.1c0,10.71,3.06,14.28,7.04,14.28h130.32c19.8-24.88,51.6-37.33,67.37-37.33h53.5c-41.68,0-80.73,39.28-80.73,84.13v126.42c0,21.29,19.18,21.56,19.18,21.56ZM169.36,108.19c-8.96,3.96-17.3,5.95-23.09,5.95-20.26,0-70.05,0-70.05,0v85.47c0,10.71,3.06,14.28,7.04,14.28h17.63c35.35,0,68.46-22.29,68.46-60.33v-45.37Zm0-104.83h-56.48c-11.11,0-36.65,1.97-36.65,25.15v75.07h24.67c35.35,0,68.46-22.75,68.46-60.79V3.37Z"/>
    </clipPath>
  </defs>
  <g id="_背景" data-name="背景">
    <g class="cls-10">
      <g class="cls-9">
        <path class="cls-8" d="m0,0h480l320,720h-480L0,0Z"/>
      </g>
    </g>
  </g>
  <g id="_ロゴ" data-name="ロゴ">
    <g>
      <g>
        <path class="cls-1" d="m477.05,374.81v-141.95c0-10.65-8.63-19.28-19.28-19.28h-107.98l-59,59v164.26c0,10.65,8.63,19.28,19.28,19.28h123.53"/>
        <path class="cls-5" d="m290.78,272.58l59-59v32.6c0,14.58-11.82,26.41-26.41,26.41h-32.6Z"/>
      </g>
      <g>
        <line class="cls-6" x1="327.86" y1="329.07" x2="398.03" y2="329.07"/>
        <line class="cls-6" x1="327.86" y1="364" x2="397.79" y2="364"/>
        <line class="cls-6" x1="327.86" y1="398.92" x2="408.08" y2="398.92"/>
        <line class="cls-4" x1="327.86" y1="294.15" x2="439" y2="294.15"/>
      </g>
      <g>
        <path class="cls-3" d="m448.7,357.41l-31.68-28.08c-.08-.07-.2-.01-.21.09l-.27,42.33,75.84,170.02c.68,1.53,2.48,2.22,4.01,1.53l26.62-11.87c1.53-.68,2.22-2.48,1.53-4.01l-75.84-170.02Z"/>
        <polygon class="cls-7" points="416.72 344.44 428.26 339.29 416.82 329.15 416.72 344.44"/>
        <line class="cls-3" x1="448.7" y1="357.41" x2="416.54" y2="371.75"/>
        <line class="cls-3" x1="516.57" y1="534.3" x2="439.5" y2="361.51"/>
        <line class="cls-3" x1="502.82" y1="540.44" x2="425.75" y2="367.64"/>
      </g>
    </g>
  </g>
</svg>