<svg width="32" height="32" viewBox="0 0 32 32" fill="none" xmlns="http://www.w3.org/2000/svg">
<path d="M4 24V16C4 12.8174 5.26428 9.76516 7.51472 7.51472C9.76516 5.26428 12.8174 4 16 4C19.1826 4 22.2348 5.26428 24.4853 7.51472C26.7357 9.76516 28 12.8174 28 16V24" stroke="white" stroke-width="2" stroke-linecap="round" stroke-linejoin="round"/>
<path d="M28 25.3337C28 26.0409 27.719 26.7192 27.219 27.2193C26.7189 27.7194 26.0406 28.0003 25.3333 28.0003H24C23.2928 28.0003 22.6145 27.7194 22.1144 27.2193C21.6143 26.7192 21.3333 26.0409 21.3333 25.3337V21.3337C21.3333 20.6264 21.6143 19.9481 22.1144 19.448C22.6145 18.9479 23.2928 18.667 24 18.667H28V25.3337ZM4 25.3337C4 26.0409 4.28095 26.7192 4.78105 27.2193C5.28115 27.7194 5.95942 28.0003 6.66667 28.0003H8C8.70724 28.0003 9.38552 27.7194 9.88562 27.2193C10.3857 26.7192 10.6667 26.0409 10.6667 25.3337V21.3337C10.6667 20.6264 10.3857 19.9481 9.88562 19.448C9.38552 18.9479 8.70724 18.667 8 18.667H4V25.3337Z" stroke="white" stroke-width="2" stroke-linecap="round" stroke-linejoin="round"/>
</svg>
