<?xml version="1.0" encoding="UTF-8"?>
<svg id="_レイヤー_1" data-name="レイヤー 1" xmlns="http://www.w3.org/2000/svg" viewBox="0 0 229.91 286.4">
  <defs>
    <style>
      .cls-1 {
        fill: #ff0084;
      }

      .cls-1, .cls-2 {
        stroke-width: 0px;
      }

      .cls-2 {
        fill: #8a00a9;
      }
    </style>
  </defs>
  <path class="cls-1" d="m81.05,0s25.63,33.24,8.48,52.27c-24.08,26.71-54.12,40.47-77.69,73.45-11.28,15.78-31.45,53.46,36.02,30.37,68.44-23.42,100.7-26.55,120.21-18.88,13.42,5.28,20.4,21.77-19.92,54.9-39.54,32.49-99.84,69.57-50.58,92.49,0,0-30.19-15.59,7.49-30.34,16.74-6.55,13.08-10.13,22.48-22,6.8-8.58,13.15.44,14.97,7.55,5.08,19.84-3.02,46.5-34.37,46.42,0,0,45.93,4.4,63.53-31.68,7.52-15.42,5.52-20.84-8.69-37.72-22.6-26.84,18.49-53.22,60.74-50.85,0,0-56.92-4.52-1.41-18.36,32.56-8.12-46.72-32.97-99.59-35.31-51.9-2.31-32.39-23.05,9.89-44.5-53.31,20.57-72.04-28.25,57.21-45.2,0,0-83.14,9.59-108.77-22.6Z"/>
  <path class="cls-2" d="m13.14,169.14s14.17,10.18,42.1-.12c48.31-17.82,84.48-27.75,100.04-19.29,11.12,6.04,5.8,14.93-36.96,41.22-33.6,20.65-44.94,35.63-49.24,48.7-4.49,13.66,6.63,28.63,6.63,28.63,0,0-21.29-22.01-4.92-50.12,8.93-15.34,7.01-24.04.77-29.12-16.81-13.7-47.88-11.15-58.43-19.9Z"/>
</svg>