<?xml version="1.0" encoding="UTF-8"?>
<svg id="_レイヤー_1" data-name="レイヤー 1" xmlns="http://www.w3.org/2000/svg" viewBox="0 0 1123.65 286.4">
  <defs>
    <style>
      .cls-1 {
        fill: #ff0084;
      }

      .cls-1, .cls-2, .cls-3 {
        stroke-width: 0px;
      }

      .cls-3 {
        fill: #8a00a9;
      }
    </style>
  </defs>
  <path class="cls-1" d="m81.05,0s25.63,33.24,8.48,52.27c-24.08,26.71-54.12,40.47-77.69,73.45-11.28,15.78-31.45,53.46,36.02,30.37,68.44-23.42,100.7-26.55,120.21-18.88,13.42,5.28,20.4,21.77-19.92,54.9-39.54,32.49-99.84,69.57-50.58,92.49,0,0-30.19-15.59,7.49-30.34,16.74-6.55,13.08-10.13,22.48-22,6.8-8.58,13.15.44,14.97,7.55,5.08,19.84-3.02,46.5-34.37,46.42,0,0,45.93,4.4,63.53-31.68,7.52-15.42,5.52-20.84-8.69-37.72-22.6-26.84,18.49-53.22,60.74-50.85,0,0-56.92-4.52-1.41-18.36,32.56-8.12-46.72-32.97-99.59-35.31-51.9-2.31-32.39-23.05,9.89-44.5-53.31,20.57-72.04-28.25,57.21-45.2,0,0-83.14,9.59-108.77-22.6Z"/>
  <path class="cls-3" d="m13.14,169.14s14.17,10.18,42.1-.12c48.31-17.82,84.48-27.75,100.04-19.29,11.12,6.04,5.8,14.93-36.96,41.22-33.6,20.65-44.94,35.63-49.24,48.7-4.49,13.66,6.63,28.63,6.63,28.63,0,0-21.29-22.01-4.92-50.12,8.93-15.34,7.01-24.04.77-29.12-16.81-13.7-47.88-11.15-58.43-19.9Z"/>
  <g>
    <path class="cls-2" d="m327.63,131.1h-16.2s2.98,1.51,2.98,6.05v77.15c0,12.1-15.53,15.13-15.53,15.13h40.53s-2.98-1.51-2.98-6.05v-77.15c0-12.1,15.53-15.13,15.53-15.13h-24.34Z"/>
    <path class="cls-2" d="m658.52,131.1h-16.2s2.98,1.51,2.98,6.05v77.15c0,12.1-15.53,15.13-15.53,15.13h40.53s-2.98-1.51-2.98-6.05v-77.15c0-12.1,15.53-15.13,15.53-15.13h-24.34Z"/>
    <path class="cls-2" d="m851.94,131.1h-16.2s2.98,1.51,2.98,6.05v77.15c0,12.1-15.53,15.13-15.53,15.13h40.53s-2.98-1.51-2.98-6.05v-77.15c0-12.1,15.53-15.13,15.53-15.13h-24.33Z"/>
    <path class="cls-2" d="m473.92,179.5h-55.47s28.74,1.51,28.74,6.05v35.36c0,5.22-.31,5.26-25.72,5.26-24,0-24.2-.06-24.2-4.72v-66.16c0-9.08,7.74-24.2,28.83-24.2h-24.22c-7.63,0-28.81,6.05-28.81,24.2v63.53c0,6.05-9.74,10.59-15.25,10.59h116.1s-2.53,0-2.53-3.03v-43.87c0-1.51.51-3.03,2.53-3.03Z"/>
    <path class="cls-2" d="m453.81,131.1h-11.3s1.37,0,1.37,1.42v18.51c0,4.27-5.76,4.27-5.76,4.27h35.13s-1.37,0-1.37-1.42v-18.51c0-4.27,5.76-4.27,5.76-4.27h-23.83Z"/>
    <path class="cls-2" d="m582.08,137.15v55.97c0,3.73-3.06,7.44-7.51,5.3l-69.64-67.32h0s0,0,0,0v1.21s0,0,0,0v88.04c0,6.05-6.72,9.08-12.16,9.08h38.92s-3.45-1.51-3.45-6.05v-55.97c0-3.73,3.06-7.44,7.51-5.3l69.64,67.32v-89.25c0-6.05,6.72-9.08,12.16-9.08h-38.92s3.45,1.51,3.45,6.05Z"/>
    <path class="cls-2" d="m1084.73,131.1s3.45,1.51,3.45,6.05v55.97c0,3.73-3.06,7.44-7.51,5.3l-69.64-67.32h0s0,0,0,0v1.21s0,0,0,0v88.04c0,6.05-6.72,9.08-12.16,9.08h38.92s-3.45-1.51-3.45-6.05v-55.97c0-3.73,3.06-7.44,7.51-5.3l69.65,67.32v-89.25c0-6.05,6.72-9.08,12.16-9.08h-38.92Z"/>
    <path class="cls-2" d="m736.91,131.1h-34.25s1.96,0,1.96,3.03v36.3c0,6.05-6.18,13.61-6.18,13.61l24.7-24.2v-21.18c0-7.56,13.76-7.56,13.76-7.56Z"/>
    <path class="cls-2" d="m782.66,134.12v36.3c0,6.05-6.18,13.61-6.18,13.61l24.7-24.2v-21.18c0-7.56,13.76-7.56,13.76-7.56h-34.25s1.96,0,1.96,3.03Z"/>
    <path class="cls-2" d="m760.64,226.4v-87.73c0-7.56,17.01-7.56,17.01-7.56h-38.65s1.86,0,1.86,3.03v87.73c0,7.56-17.01,7.56-17.01,7.56h38.65s-1.86,0-1.86-3.03Z"/>
    <path class="cls-2" d="m917.48,220.29v-53.55c0-19,16.54-35.64,34.2-35.64h-22.66c-10.12,0-35.83,12.1-35.83,36.3v53.29c0,8.73-9.89,8.73-9.89,8.73h42.32s-8.12-.12-8.12-9.13Z"/>
    <path class="cls-2" d="m961.1,140.23v53.55c0,19-16.54,35.64-34.2,35.64h22.66c10.12,0,35.83-12.1,35.83-36.3v-53.29c0-8.73,9.89-8.73,9.89-8.73h-42.32s8.12.12,8.12,9.13Z"/>
  </g>
</svg>