<?xml version="1.0" encoding="UTF-8"?>
<svg xmlns="http://www.w3.org/2000/svg" xmlns:xlink="http://www.w3.org/1999/xlink" viewBox="0 0 800 720">
  <defs>
    <style>
      .cls-1 {
        fill: #c9d34b;
      }

      .cls-1, .cls-2 {
        stroke-width: 0px;
      }

      .cls-3 {
        stroke-width: 12px;
      }

      .cls-3, .cls-4 {
        stroke: #231815;
      }

      .cls-3, .cls-4, .cls-2 {
        fill: none;
      }

      .cls-4 {
        stroke-linecap: round;
        stroke-miterlimit: 10;
        stroke-width: 9px;
      }

      .cls-5 {
        clip-path: url(#clippath-1);
      }

      .cls-6 {
        clip-path: url(#clippath);
      }
    </style>
    <clipPath id="clippath">
      <path class="cls-2" d="m800,0h-480S0,720,0,720h480S800,0,800,0Z"/>
    </clipPath>
    <clipPath id="clippath-1">
      <path class="cls-2" d="m683.06,235.8v-90.24h149.68s-4.37,0-4.37-5.23c0-2.37,1.06-2.84,1.94-2.84h-105.01c-2.92,0-5.16-2.62-5.16-10.47V1.61c0-20.94,26.87-26.17,26.87-26.17h-70.13s5.16,2.62,5.16,10.47v90.24h-127.59s5.16,2.62,5.16,10.47v68.66h-63.23s5.16,2.62,5.16,10.47v60.61h-42c-17.51,0-62,20.94-62,62.82v44.64c0,1.83.09,3.61.25,5.36h-108.52s5.16,2.62,5.16,10.47v133.49c0,5.95-2.17,10.63-5.28,14.29l-18.13-18.13h-111.53s5.16,2.62,5.16,10.47v133.49c0,6.02-2.22,10.73-5.38,14.4l-24.29-24.29v51.1c0,38.88-33.85,72.94-69.99,72.94h46.38c20.71,0,73.34-24.77,73.34-74.3l-13.67-13.67h36.88s-5.16-2.62-5.16-10.47c0,0,0-41.23,0-70.73h51.34c4.24,0,10.36-1.46,16.92-4.36l2.32-1.06c15.85-7.72,33.35-23.67,33.35-47.85l-5.64-5.64h119.16c-2.31-.4-2.38-2.02-2.38-2.8,0-4.18,9.97-5.28,9.97-5.28h-90.09c-2.92,0-5.16-2.62-5.16-10.47v-62.65h75.24c.51,0,.79-.07.79-2.46,0-4.18,9.97-5.28,9.97-5.28h-86v-55.02c0-16.99,18.72-18.43,26.87-18.43h39.67c7.97,33.14,44.9,49.71,60.47,49.71h53.46c-2.31-.4-2.38-2.02-2.38-2.8,0-4.18,9.97-5.28,9.97-5.28h-21.83c-30.55,0-59.17-20.71-59.17-53.59v-46.94c0-32.87,28.62-53.59,59.17-53.59h2.78v64.8c0,20.94-26.87,26.17-26.87,26.17h70.13s-5.16-2.62-5.16-10.47v-68.66h63.23c-2.92,0-5.16-2.62-5.16-10.47v-70.73h47.24v55.02c0,24.35-15.23,26.17-15.23,26.17h58.49c-2.92,0-5.16-2.62-5.16-10.47Zm-412.04,280.11c0,27.88-24.27,44.56-50.18,44.56h-18.08v-55.02c0-16.99,18.72-18.43,26.87-18.43h37.74c1.43,1.43,2.23,2.23,3.66,3.66v17.7c-2.1.65-3.46.91-3.46.91h3.46v6.62Zm268.63-271.76v-62.72c0-14,12-20.97,19.96-24.06v62.72c0,14-12,20.97-19.96,24.06Zm105.31-86.82h-47.24v-55.02c0-16.99,18.72-18.43,26.87-18.43h20.38v73.45ZM85.22,660.19l-49.74-49.74c0-49.53,52.63-74.3,73.34-74.3h46.38c-36.13,0-69.99,34.05-69.99,72.94v51.1Z"/>
    </clipPath>
  </defs>
  <g id="_背景" data-name="背景">
    <g class="cls-6">
      <g class="cls-5">
        <path class="cls-1" d="m800,0h-480S0,720,0,720h480S800,0,800,0Z"/>
      </g>
    </g>
  </g>
  <g id="_ロゴ" data-name="ロゴ">
    <g>
      <path class="cls-4" d="m392.85,271.79c-15.33,4.67-28.96,14.36-42.59,28.83l-8.04-7.45m68.2,238.86c1.55.18,3.14.28,4.76.28,20.69,0,35.71-14.61,35.71-35.71,0-14.11-6.46-25.25-16.76-31.25m-3.7-40.98h10.72c-6.09-56.4,82.37-63.3,82.37-122.94,0-25.3-9.45-44.72-25.56-58.2"/>
      <path class="cls-3" d="m442.63,297.98c0-24.35-19.48-38.14-51.12-38.14-25.16,0-45.04,10.95-64.92,32.05l-33.27-30.84c25.56-30.03,61.27-49.5,104.68-49.5,58.83,0,101.84,27.18,101.84,81.15,0,59.65-88.45,66.54-82.37,122.94h-52.34c-8.52-63.7,77.5-78.31,77.5-117.67Zm-86.83,189.89c0-21.5,15.42-36.11,35.71-36.11s35.71,14.61,35.71,36.11-15.01,35.71-35.71,35.71-35.71-14.61-35.71-35.71Z"/>
    </g>
  </g>
</svg>