<svg width="865" height="120" viewBox="0 0 865 120" fill="none" xmlns="http://www.w3.org/2000/svg">
<g clip-path="url(#clip0_443_137)">
<path d="M0 120V0H865V60.5042L786.91 120H0Z" fill="#FF0084"/>
<rect x="63" width="16" height="120" fill="white"/>
<rect x="27" width="16" height="120" fill="white"/>
<path d="M0 98H822" stroke="white" stroke-width="5"/>
<path d="M503.5 48.6818C503.258 46.5303 502.258 44.8636 500.5 43.6818C498.742 42.4848 496.53 41.8864 493.864 41.8864C491.955 41.8864 490.303 42.1894 488.909 42.7955C487.515 43.3864 486.432 44.2045 485.659 45.25C484.902 46.2803 484.523 47.4545 484.523 48.7727C484.523 49.8788 484.78 50.8333 485.295 51.6364C485.826 52.4394 486.515 53.1136 487.364 53.6591C488.227 54.1894 489.152 54.6364 490.136 55C491.121 55.3485 492.068 55.6364 492.977 55.8636L497.523 57.0455C499.008 57.4091 500.53 57.9015 502.091 58.5227C503.652 59.1439 505.098 59.9621 506.432 60.9773C507.765 61.9924 508.841 63.25 509.659 64.75C510.492 66.25 510.909 68.0455 510.909 70.1364C510.909 72.7727 510.227 75.1136 508.864 77.1591C507.515 79.2045 505.553 80.8182 502.977 82C500.417 83.1818 497.318 83.7727 493.682 83.7727C490.197 83.7727 487.182 83.2197 484.636 82.1136C482.091 81.0076 480.098 79.4394 478.659 77.4091C477.22 75.3636 476.424 72.9394 476.273 70.1364H483.318C483.455 71.8182 484 73.2197 484.955 74.3409C485.924 75.447 487.159 76.2727 488.659 76.8182C490.174 77.3485 491.833 77.6136 493.636 77.6136C495.621 77.6136 497.386 77.303 498.932 76.6818C500.492 76.0455 501.72 75.1667 502.614 74.0455C503.508 72.9091 503.955 71.5833 503.955 70.0682C503.955 68.6894 503.561 67.5606 502.773 66.6818C502 65.803 500.947 65.0758 499.614 64.5C498.295 63.9242 496.803 63.4167 495.136 62.9773L489.636 61.4773C485.909 60.4621 482.955 58.9697 480.773 57C478.606 55.0303 477.523 52.4242 477.523 49.1818C477.523 46.5 478.25 44.1591 479.705 42.1591C481.159 40.1591 483.129 38.6061 485.614 37.5C488.098 36.3788 490.902 35.8182 494.023 35.8182C497.174 35.8182 499.955 36.3712 502.364 37.4773C504.788 38.5833 506.697 40.1061 508.091 42.0455C509.485 43.9697 510.212 46.1818 510.273 48.6818H503.5ZM519.301 83V36.4545H548.483V42.5H526.324V56.6818H546.96V62.7045H526.324V76.9545H548.756V83H519.301ZM564.886 36.4545V83H557.864V36.4545H564.886ZM600.5 48.6818C600.258 46.5303 599.258 44.8636 597.5 43.6818C595.742 42.4848 593.53 41.8864 590.864 41.8864C588.955 41.8864 587.303 42.1894 585.909 42.7955C584.515 43.3864 583.432 44.2045 582.659 45.25C581.902 46.2803 581.523 47.4545 581.523 48.7727C581.523 49.8788 581.78 50.8333 582.295 51.6364C582.826 52.4394 583.515 53.1136 584.364 53.6591C585.227 54.1894 586.152 54.6364 587.136 55C588.121 55.3485 589.068 55.6364 589.977 55.8636L594.523 57.0455C596.008 57.4091 597.53 57.9015 599.091 58.5227C600.652 59.1439 602.098 59.9621 603.432 60.9773C604.765 61.9924 605.841 63.25 606.659 64.75C607.492 66.25 607.909 68.0455 607.909 70.1364C607.909 72.7727 607.227 75.1136 605.864 77.1591C604.515 79.2045 602.553 80.8182 599.977 82C597.417 83.1818 594.318 83.7727 590.682 83.7727C587.197 83.7727 584.182 83.2197 581.636 82.1136C579.091 81.0076 577.098 79.4394 575.659 77.4091C574.22 75.3636 573.424 72.9394 573.273 70.1364H580.318C580.455 71.8182 581 73.2197 581.955 74.3409C582.924 75.447 584.159 76.2727 585.659 76.8182C587.174 77.3485 588.833 77.6136 590.636 77.6136C592.621 77.6136 594.386 77.303 595.932 76.6818C597.492 76.0455 598.72 75.1667 599.614 74.0455C600.508 72.9091 600.955 71.5833 600.955 70.0682C600.955 68.6894 600.561 67.5606 599.773 66.6818C599 65.803 597.947 65.0758 596.614 64.5C595.295 63.9242 593.803 63.4167 592.136 62.9773L586.636 61.4773C582.909 60.4621 579.955 58.9697 577.773 57C575.606 55.0303 574.523 52.4242 574.523 49.1818C574.523 46.5 575.25 44.1591 576.705 42.1591C578.159 40.1591 580.129 38.6061 582.614 37.5C585.098 36.3788 587.902 35.8182 591.023 35.8182C594.174 35.8182 596.955 36.3712 599.364 37.4773C601.788 38.5833 603.697 40.1061 605.091 42.0455C606.485 43.9697 607.212 46.1818 607.273 48.6818H600.5ZM616.301 83V36.4545H645.483V42.5H623.324V56.6818H643.96V62.7045H623.324V76.9545H645.756V83H616.301ZM661.886 36.4545V83H654.864V36.4545H661.886ZM697.5 48.6818C697.258 46.5303 696.258 44.8636 694.5 43.6818C692.742 42.4848 690.53 41.8864 687.864 41.8864C685.955 41.8864 684.303 42.1894 682.909 42.7955C681.515 43.3864 680.432 44.2045 679.659 45.25C678.902 46.2803 678.523 47.4545 678.523 48.7727C678.523 49.8788 678.78 50.8333 679.295 51.6364C679.826 52.4394 680.515 53.1136 681.364 53.6591C682.227 54.1894 683.152 54.6364 684.136 55C685.121 55.3485 686.068 55.6364 686.977 55.8636L691.523 57.0455C693.008 57.4091 694.53 57.9015 696.091 58.5227C697.652 59.1439 699.098 59.9621 700.432 60.9773C701.765 61.9924 702.841 63.25 703.659 64.75C704.492 66.25 704.909 68.0455 704.909 70.1364C704.909 72.7727 704.227 75.1136 702.864 77.1591C701.515 79.2045 699.553 80.8182 696.977 82C694.417 83.1818 691.318 83.7727 687.682 83.7727C684.197 83.7727 681.182 83.2197 678.636 82.1136C676.091 81.0076 674.098 79.4394 672.659 77.4091C671.22 75.3636 670.424 72.9394 670.273 70.1364H677.318C677.455 71.8182 678 73.2197 678.955 74.3409C679.924 75.447 681.159 76.2727 682.659 76.8182C684.174 77.3485 685.833 77.6136 687.636 77.6136C689.621 77.6136 691.386 77.303 692.932 76.6818C694.492 76.0455 695.72 75.1667 696.614 74.0455C697.508 72.9091 697.955 71.5833 697.955 70.0682C697.955 68.6894 697.561 67.5606 696.773 66.6818C696 65.803 694.947 65.0758 693.614 64.5C692.295 63.9242 690.803 63.4167 689.136 62.9773L683.636 61.4773C679.909 60.4621 676.955 58.9697 674.773 57C672.606 55.0303 671.523 52.4242 671.523 49.1818C671.523 46.5 672.25 44.1591 673.705 42.1591C675.159 40.1591 677.129 38.6061 679.614 37.5C682.098 36.3788 684.902 35.8182 688.023 35.8182C691.174 35.8182 693.955 36.3712 696.364 37.4773C698.788 38.5833 700.697 40.1061 702.091 42.0455C703.485 43.9697 704.212 46.1818 704.273 48.6818H697.5ZM716.858 83H709.403L726.153 36.4545H734.267L751.017 83H743.562L730.403 44.9091H730.04L716.858 83ZM718.108 64.7727H742.29V70.6818H718.108V64.7727ZM764.761 36.4545V83H757.739V36.4545H764.761Z" fill="white"/>
</g>
<defs>
<clipPath id="clip0_443_137">
<rect width="865" height="120" fill="white"/>
</clipPath>
</defs>
</svg>
