<?xml version="1.0" encoding="UTF-8"?>
<svg id="_レイヤー_2" data-name="レイヤー 2" xmlns="http://www.w3.org/2000/svg" viewBox="0 0 574.68 100">
  <defs>
    <style>
      .cls-1 {
        fill: #ff0084;
        stroke-width: 0px;
      }
    </style>
  </defs>
  <g id="_レイヤー_2-2" data-name="レイヤー 2">
    <path class="cls-1" d="m135.42,52.28v41.57c0,4.62,1.32,6.15,3.03,6.15h-41.22s15.79-3.08,15.79-15.38V6.15c0-4.62-3.03-6.15-3.03-6.15h81.42s-5.82.8-5.82,3.26v90.59c0,4.62,1.32,6.15,3.03,6.15h-34.38s8.95-1.07,8.95-15.38v-32.34h-27.77Zm0-4.55h27.77V4.55h-11.98c-4.79,0-15.79.85-15.79,10.83v32.34Z"/>
    <path class="cls-1" d="m417.22,52.28v41.57c0,4.62,1.32,6.15,3.03,6.15h-41.22s15.79-3.08,15.79-15.38V6.15c0-4.62-3.03-6.15-3.03-6.15h81.42s-5.82.8-5.82,3.26v90.59c0,4.62,1.32,6.15,3.03,6.15h-34.38s8.95-1.07,8.95-15.38v-32.34h-27.77Zm0-4.55h27.77V4.55h-11.98c-4.79,0-15.79.85-15.79,10.83v32.34Z"/>
    <path class="cls-1" d="m99.28,68.69c0,20.88-22.18,31.31-30.91,31.31H0s15.79-3.08,15.79-15.38V6.15c0-4.62-3.03-6.15-3.03-6.15h65.56l20.96,20.96c0,14.21-10.28,23.59-19.6,28.12l19.6,19.6Zm-20.96-18.97c-3.86,1.7-7.45,2.56-9.95,2.56-8.73,0-30.18,0-30.18,0v36.82c0,4.62,1.32,6.15,3.03,6.15h7.59c15.23,0,29.5-9.6,29.5-25.99v-19.55Zm0-45.16h-24.33c-4.79,0-15.79.85-15.79,10.83v32.34h10.63c15.23,0,29.5-9.8,29.5-26.19V4.55Z"/>
    <path class="cls-1" d="m565.56,99.67l9.12.33-44.22-47.81h8.8c2.49,0,6.08-.86,9.93-2.56l1.36-.62c9.3-4.53,19.57-13.89,19.57-28.08l-20.93-20.93h-65.45s3.03,1.54,3.03,6.14v78.33c0,12.29-15.77,15.36-15.77,15.36h41.16s-3.03-1.54-3.03-6.14c0,0,0-24.2,0-41.5,0,0,5.84,0,12.65,0l43.77,47.48Zm-56.43-84.31c0-9.97,10.99-10.82,15.77-10.82h22.14l2.15,2.15v14.81c0,16.36-14.24,26.15-29.45,26.15h-10.61V15.36Z"/>
    <path class="cls-1" d="m283.55.07h0,0s-17.72-.01-17.72-.01l-64.86-.05v16.15s2.22-10.34,10.58-10.34h48.91l-62.2,94.12h1.29l82.58.07v-16.15s-2.22,10.34-10.58,10.34h-50.21L283.53.08h.02Z"/>
    <path class="cls-1" d="m376.49.07h0,0s-17.72-.01-17.72-.01l-64.86-.05v16.15s2.22-10.34,10.58-10.34h48.91l-62.2,94.12h1.29l82.58.07v-16.15s-2.22,10.34-10.58,10.34h-50.21L376.48.08h.02Z"/>
  </g>
</svg>