<svg xmlns="http://www.w3.org/2000/svg" width="47.7" height="27.78" viewBox="0 0 47.7 27.78"><path d="M10.2,8.77a8.479,8.479,0,0,1,4.887,1.352,8.027,8.027,0,0,1,2.74,3.432c1.279,2.857,1.443,6.463,1.443,9.286,0,4.637-.681,7.975-2.083,10.2C15.7,35.4,13.419,36.55,10.2,36.55c-3.241,0-5.535-1.191-7.013-3.643C1.83,30.657,1.17,27.325,1.17,22.72,1.17,13.072,3.955,8.77,10.2,8.77Zm0,27.48c3.107,0,5.31-1.1,6.733-3.365C18.3,30.7,18.97,27.419,18.97,22.84c0-6.411-1-13.77-8.77-13.77-3.061,0-5.232,1.071-6.639,3.276S1.47,17.945,1.47,22.72c0,4.549.646,7.83,1.973,10.033C4.863,35.106,7.073,36.25,10.2,36.25ZM30.48,8.77a8.531,8.531,0,0,1,5.836,1.924A7.012,7.012,0,0,1,38.47,16.08a5.969,5.969,0,0,1-3.659,5.9c2.8,1.027,4.219,3.171,4.219,6.378A7.8,7.8,0,0,1,36.478,34.5,9.528,9.528,0,0,1,30.16,36.55a9.734,9.734,0,0,1-6.042-1.856,8.758,8.758,0,0,1-3.187-6.156l-.017-.143,5.5-.888.016.158c.272,2.646,1.3,3.825,3.331,3.825,1.862,0,2.93-1.287,2.93-3.53,0-2.316-1.268-3.49-3.77-3.49H26.97V19.89h1.87a4.545,4.545,0,0,0,2.347-.493A2.818,2.818,0,0,0,32.37,16.76c0-1.169-.329-3.13-2.53-3.13-1.562,0-2.427.945-2.893,3.161l-.03.144L21.49,15.917l.045-.158C22.867,11.121,25.876,8.77,30.48,8.77Zm-.32,27.48c5.286,0,8.57-3.023,8.57-7.89,0-3.2-1.472-5.29-4.376-6.217l-.388-.124.376-.157A5.741,5.741,0,0,0,38.17,16.08c0-4.389-2.875-7.01-7.69-7.01-4.4,0-7.3,2.224-8.609,6.613l4.814.9c.5-2.25,1.482-3.256,3.156-3.256a2.534,2.534,0,0,1,2.2,1.028,4.078,4.078,0,0,1,.633,2.4,3.13,3.13,0,0,1-1.327,2.893,4.813,4.813,0,0,1-2.5.537H27.27v3.98h1.65c2.663,0,4.07,1.311,4.07,3.79a4.388,4.388,0,0,1-.808,2.774A2.942,2.942,0,0,1,29.76,31.79c-2.147,0-3.3-1.252-3.612-3.937l-4.9.792C21.886,33.481,25.127,36.25,30.16,36.25ZM10.2,13.05c1.381,0,2.167.755,2.546,2.447a38.5,38.5,0,0,1,.364,7.1,34.275,34.275,0,0,1-.5,7.589c-.392,1.459-1.1,2.081-2.375,2.081-2.489,0-2.91-2.385-2.91-9.55C7.33,16.9,7.33,13.05,10.2,13.05Zm.04,18.92c1.141,0,1.725-.521,2.085-1.859A34.725,34.725,0,0,0,12.81,22.6c0-6.58-.1-9.25-2.61-9.25-1.194,0-1.883.76-2.233,2.465a39.135,39.135,0,0,0-.337,6.9C7.63,30.155,8.142,31.97,10.24,31.97Zm32.89-2.04h5.74v6.22H43.13Zm5.44.3H43.43v5.62h5.14Z" transform="translate(-1.17 -8.77)" fill="#fff"/></svg>