<svg xmlns="http://www.w3.org/2000/svg" width="47.7" height="27.78" viewBox="0 0 47.7 27.78"><path d="M10.2,8.77a8.479,8.479,0,0,1,4.887,1.352,8.027,8.027,0,0,1,2.74,3.432c1.279,2.857,1.443,6.463,1.443,9.286,0,4.637-.681,7.975-2.083,10.2C15.7,35.4,13.419,36.55,10.2,36.55c-3.241,0-5.535-1.191-7.013-3.643C1.83,30.657,1.17,27.325,1.17,22.72,1.17,13.072,3.955,8.77,10.2,8.77Zm0,27.48c3.107,0,5.31-1.1,6.733-3.365C18.3,30.7,18.97,27.419,18.97,22.84c0-6.411-1-13.77-8.77-13.77-3.061,0-5.232,1.071-6.639,3.276S1.47,17.945,1.47,22.72c0,4.549.646,7.83,1.973,10.033C4.863,35.106,7.073,36.25,10.2,36.25ZM31.68,8.77a7.718,7.718,0,0,1,5.259,1.782,9.483,9.483,0,0,1,2.808,5.459l.027.134-5.016,1.488-.026-.17c-.417-2.729-1.5-4.113-3.212-4.113a2.547,2.547,0,0,0-1.894.756c-1.024,1.024-1.478,3.153-1.584,7.522A5.347,5.347,0,0,1,32.8,19.01a6.6,6.6,0,0,1,5.018,2.266A9.259,9.259,0,0,1,39.91,27.52a9.209,9.209,0,0,1-2.562,6.889A8.2,8.2,0,0,1,31.64,36.55c-3.214,0-5.519-1.1-7.044-3.371s-2.266-5.7-2.266-10.5c0-4.732.881-8.323,2.619-10.674A7.916,7.916,0,0,1,31.68,8.77Zm7.746,7.165c-.945-4.556-3.55-6.865-7.746-6.865a7.63,7.63,0,0,0-6.489,3.114c-1.7,2.3-2.561,5.83-2.561,10.5,0,4.736.724,8.116,2.214,10.331,1.466,2.179,3.689,3.239,6.8,3.239,3.677,0,7.97-2.286,7.97-8.73,0-4.834-2.8-8.21-6.81-8.21a5.156,5.156,0,0,0-4.788,2.961L27.73,22.2c.082-4.846.554-7.174,1.684-8.3a2.834,2.834,0,0,1,2.106-.844c1.848,0,3.019,1.412,3.481,4.2ZM10.2,13.05c1.381,0,2.167.755,2.546,2.447a38.5,38.5,0,0,1,.364,7.1,34.275,34.275,0,0,1-.5,7.589c-.392,1.459-1.1,2.081-2.375,2.081-2.489,0-2.91-2.385-2.91-9.55C7.33,16.9,7.33,13.05,10.2,13.05Zm.04,18.92c1.141,0,1.725-.521,2.085-1.859A34.725,34.725,0,0,0,12.81,22.6c0-6.58-.1-9.25-2.61-9.25-1.194,0-1.883.76-2.233,2.465a39.135,39.135,0,0,0-.337,6.9C7.63,30.155,8.142,31.97,10.24,31.97Zm20.92-8.68c2.066,0,3.07,1.4,3.07,4.27a6.443,6.443,0,0,1-.791,3.6A2.668,2.668,0,0,1,31.08,32.31c-1.976,0-3.11-1.615-3.11-4.43a5.95,5.95,0,0,1,.828-3.432A2.727,2.727,0,0,1,31.16,23.29Zm-.08,8.72c1.944,0,2.85-1.414,2.85-4.45,0-2.708-.88-3.97-2.77-3.97-2.389,0-2.89,2.333-2.89,4.29C28.27,30.543,29.268,32.01,31.08,32.01Zm12.05-2.08h5.74v6.22H43.13Zm5.44.3H43.43v5.62h5.14Z" transform="translate(-1.17 -8.77)" fill="#fff"/></svg>