<?xml version="1.0" encoding="utf-8"?>
<!-- Generator: Adobe Illustrator 27.5.0, SVG Export Plug-In . SVG Version: 6.00 Build 0)  -->
<svg version="1.1" id="レイヤー_1" xmlns="http://www.w3.org/2000/svg" xmlns:xlink="http://www.w3.org/1999/xlink" x="0px"
	 y="0px" viewBox="0 0 25 25" style="enable-background:new 0 0 25 25;" xml:space="preserve">
<style type="text/css">
	.st0{fill:none;}
	.st1{fill:#FFFFFF;}
</style>
<rect class="st0" width="25" height="25"/>
<g id="グループ_298" transform="translate(7615.944 5019.327)">
	<path id="パス_325" class="st1" d="M-7597.6-5011.8v1.3l-14.7,3.7v-1.3L-7597.6-5011.8z"/>
	<path id="パス_326" class="st1" d="M-7594.6-5008.4v1.3l-14.7,3.7v-1.3L-7594.6-5008.4z"/>
	<path id="パス_327" class="st1" d="M-7594.6-5004.3v1.3l-2.4,0.6v-1.3L-7594.6-5004.3z"/>
	<path id="パス_328" class="st1" d="M-7601.7-5002.5v1.3l-10.6,2.6v-1.3L-7601.7-5002.5z"/>
	<path id="パス_329" class="st1" d="M-7598.6-5003.3v1.3l-1.4,0.3v-1.3L-7598.6-5003.3z"/>
	<path id="パス_330" class="st1" d="M-7594.6-5012.6l-1.4,0.3v1.3l1.4-0.3V-5012.6z"/>
	<path id="パス_331" class="st1" d="M-7612.3-5002.7l1.4-0.3v-1.3l-1.4,0.3V-5002.7z"/>
</g>
</svg>
