<svg xmlns="http://www.w3.org/2000/svg" width="99.788" height="8.243" viewBox="0 0 99.788 8.243">
  <g id="グループ_98" data-name="グループ 98" transform="translate(5904.606 5015.16)">
    <g id="レイヤー_1" data-name="レイヤー 1" transform="translate(-5904.606 -5015.16)">
      <g id="グループ_96" data-name="グループ 96" transform="translate(0 0)">
        <path id="パス_106" data-name="パス 106" d="M11.36,7.551,12.87,1.918c.189-.707.4-1.015,1.119-1.015l.024-.091H9.726c-3.242,0-6.231.274-6.741,2.178C2.526,4.7,4.68,5.054,6.243,5.054,4.37,5.054,3.349,5.339,2,7.391A3.34,3.34,0,0,1,.027,8.85L0,8.953l3.242-.113c1.157,0,1.652-.513,2.612-2.634.517-1.14,2.454-1.072,2.454-1.072h.766L8.425,7.551c-.3,1.117-.383,1.186-1.067,1.186l-.027.1h4.532l.027-.1c-.7,0-.841-.023-.529-1.186ZM9.1,5.031H8.6c-2.118,0-2.336.023-1.783-2.041C7.4.812,7.792.915,9.7.915H10.2L9.1,5.031Z" transform="translate(0 -0.709)" fill="#fff"/>
        <path id="パス_107" data-name="パス 107" d="M107.7.915s4.444.011,3.848,2.235h.147L112.32.812h-9.3L102.994.9c.717,0,.737.775.548,1.482l-1.311,4.892c-.208.775-.652,1.46-1.336,1.46l-.027.1h9.513l.6-2.235h-.147c-.6,2.258-5.23,2.132-5.23,2.132h-.586l1.045-3.9h1.319c.016,0,1.749-.023,1.562,1.346h.147l.749-2.794h-.147a2.485,2.485,0,0,1-2.283,1.346h-1.319l1.024-3.82h.586Z" transform="translate(-88.123 -0.709)" fill="#fff"/>
        <path id="パス_108" data-name="パス 108" d="M189.064.867c-1.712,1.22-1.514,2.611.527,3.626L191.8,5.6c1.683,1.015.788,2.531-.955,2.531a3.3,3.3,0,0,1-3.52-2.668h-.147l-.587,2.189s1.066.582,4.226.582c2.818,0,3.948-.935,3.948-.935,1.555-1.243,1.376-2.7-.509-3.695l-2.2-1.163c-1.858-.969-.986-2.338.773-2.338,2.606,0,2.982,1.517,3.088,2.338h.147l.513-1.916A8.566,8.566,0,0,0,192.864,0a6.566,6.566,0,0,0-3.8.867Z" transform="translate(-163.019 0)" fill="#fff"/>
        <path id="パス_109" data-name="パス 109" d="M279.245,4.173C279.85,1.916,278,0,274.418,0s-6.459,1.916-7.064,4.173,1.274,4.059,4.858,4.059S278.637,6.443,279.245,4.173Zm-3.959,0c-.84,3.136-1.125,3.957-3.048,3.957-1.939,0-1.8-.821-.96-3.957S272.452.1,274.39.1c1.922,0,1.734.946.9,4.071Z" transform="translate(-233.475 0)" fill="#fff"/>
        <path id="パス_110" data-name="パス 110" d="M624.219,8.13c-1.759,0-2.339-.878-1.5-4.014S624.562.1,626.37.1c1.189,0,2.932.365,2.789,2.725h.13l.78-2.3A8.786,8.786,0,0,0,626.4,0c-3.486,0-6.994,1.539-7.684,4.116s1.992,4.116,5.478,4.116a13.75,13.75,0,0,0,3.955-.536l.454-2.3h-.13a4.751,4.751,0,0,1-4.252,2.737Z" transform="translate(-540.445 0)" fill="#fff"/>
        <path id="パス_111" data-name="パス 111" d="M701.291.812,701.267.9c.717,0,.737.775.547,1.482L700.5,7.277c-.208.775-.652,1.46-1.336,1.46l-.028.1h9.513l.6-2.235h-.147c-.6,2.258-5.23,2.132-5.23,2.132h-.587l1.045-3.9h1.32c.016,0,1.749-.023,1.562,1.346h.147l.749-2.794h-.147a2.485,2.485,0,0,1-2.283,1.346h-1.319l1.023-3.82h.586s4.444.011,3.848,2.235h.147l.626-2.338h-9.3Z" transform="translate(-610.805 -0.709)" fill="#fff"/>
        <path id="パス_112" data-name="パス 112" d="M453.851.812l-.024.09c1.808,0,1.953,1.4,1.67,2.464l-.817,3.045-4.035-5.6h-5.193l-.025.09a2.109,2.109,0,0,1,1.79.913l.562.763-.99,3.694c-.2.752-.484,2.464-2.121,2.464-.41,0-.572-.481-.742-.936,0,0-.176-.375-2.523-6.99h-.081l-4.847,5.815c-1.792,2.007-2.7,2.1-3.189,2.121l-.025.091h4.688l.025-.091c-1.954,0-1.819-1.6-1.353-2.121h3.192l.31.787s.618,1.333-.683,1.333l-.025.091h9.291l.028-.1c-2.377,0-2.044-1.551-1.8-2.464l.953-3.558,4.5,6.124h1.791l1.467-5.473A3.08,3.08,0,0,1,458.76.9l.025-.09h-4.934ZM436.7,6.525l2.137-2.566.94,2.566Z" transform="translate(-378.519 -0.709)" fill="#fff"/>
        <path id="パス_113" data-name="パス 113" d="M354.867,8.839l-4.5-6.124-.953,3.558c-.245.913-.578,2.464,1.8,2.464l-.028.1h-5.178l.028-.1a3.131,3.131,0,0,0,3.233-2.464l.99-3.694-.562-.764A2.109,2.109,0,0,0,347.91.9l.025-.09h5.193l4.035,5.6.817-3.045c.284-1.06.138-2.464-1.67-2.464l.025-.09h4.934l-.025.09a3.08,3.08,0,0,0-3.118,2.464l-1.467,5.473h-1.791Z" transform="translate(-302.294 -0.709)" fill="#fff"/>
      </g>
    </g>
  </g>
</svg>
