<svg width="31" height="32" viewBox="0 0 31 32" fill="none" xmlns="http://www.w3.org/2000/svg">
<path d="M12.2208 16.7296V30.032C12.2208 31.5104 12.6432 32 13.1904 32H0C0 32 5.0528 31.0144 5.0528 27.0784V1.968C5.0528 0.4896 4.0832 0 4.0832 0H30.1376C30.1376 0 28.2752 0.256 28.2752 1.0432V30.032C28.2752 31.5104 28.6976 32 29.2448 32H18.2432C18.2432 32 21.1072 31.6576 21.1072 27.0784V16.7296H12.2208ZM12.2208 15.2736H21.1072V1.456H17.2736C15.7408 1.456 12.2208 1.728 12.2208 4.9216V15.2704V15.2736Z" fill="#FF0084"/>
</svg>
