<?xml version="1.0" encoding="UTF-8"?>
<svg id="_レイヤー_2" data-name="レイヤー 2" xmlns="http://www.w3.org/2000/svg" viewBox="0 0 484.07 102.32">
  <defs>
    <style>
      .cls-1 {
        fill: #ff0084;
        stroke-width: 0px;
      }
    </style>
  </defs>
  <g id="_レイヤー_2-2" data-name="レイヤー 2">
    <g>
      <path class="cls-1" d="m107.72,51.56h-51.46s26.67,1.54,26.67,6.15v35.97c0,5.31-.29,5.35-23.86,5.35-22.26,0-22.45-.06-22.45-4.8V26.94c0-9.23,7.18-24.62,26.75-24.62h-22.47c-7.08,0-26.73,6.15-26.73,24.62v64.62c0,6.15-9.04,10.77-14.15,10.77h107.72s-2.34,0-2.34-3.08v-44.62c0-1.54.48-3.08,2.34-3.08Z"/>
      <path class="cls-1" d="m89.05,2.32h-10.48s1.28,0,1.28,1.45v18.82c0,4.34-5.35,4.34-5.35,4.34h32.59s-1.28,0-1.28-1.45V6.67c0-4.34,5.35-4.34,5.35-4.34h-22.11Z"/>
    </g>
    <g>
      <path class="cls-1" d="m142.1,93.03v-54.46c0-19.32,15.84-36.25,32.74-36.25h-21.7c-9.69,0-34.31,12.31-34.31,36.92v54.19c0,8.88-9.47,8.88-9.47,8.88h40.52s-7.78-.12-7.78-9.29Z"/>
      <path class="cls-1" d="m183.87,11.62v54.46c0,19.32-15.84,36.25-32.74,36.25h21.7c9.69,0,34.31-12.31,34.31-36.92V11.21c0-8.88,9.47-8.88,9.47-8.88h-40.52s7.78.12,7.78,9.29Z"/>
    </g>
    <g>
      <path class="cls-1" d="m242.05,93.03v-54.46c0-19.32,15.84-36.25,32.74-36.25h-21.7c-9.69,0-34.31,12.31-34.31,36.92v54.19c0,8.88-9.47,8.88-9.47,8.88h40.52s-7.78-.12-7.78-9.29Z"/>
      <path class="cls-1" d="m283.82,11.62v54.46c0,19.32-15.84,36.25-32.74,36.25h21.7c9.69,0,34.31-12.31,34.31-36.92V11.21c0-8.88,9.47-8.88,9.47-8.88h-40.52s7.78.12,7.78,9.29Z"/>
    </g>
    <path class="cls-1" d="m398.74,68.69c0,20.88-17.9,31.31-26.63,31.31h-65.22s15.8-3.08,15.8-15.38V6.15c0-4.62-3.04-6.15-3.04-6.15h49.97c2.49,0,4.75,1.13,6.64,2.75,5.81,4.98,15.27,14.82,20.19,20.19,1.4,1.53,2.29,3.46,2.29,5.53v40.22Zm-17.67-41.49c0-12.45-10.1-22.55-22.56-22.55h-3.92c-4.79,0-13.66.85-13.66,10.83v73.71c0,4.62,1.32,6.15,3.04,6.15h7.6c15.23,0,29.51-9.6,29.51-25.99V27.2Z"/>
    <g>
      <path class="cls-1" d="m458.5,36.23v26.27c0,19.99-17.41,37.5-35.98,37.5h23.85c10.65,0,37.71-12.73,37.71-38.2l-25.57-25.57Z"/>
      <path class="cls-1" d="m434,63.77v-26.27C434,17.51,451.41,0,469.99,0h-23.85C435.49,0,408.43,12.73,408.43,38.2l25.57,25.57Z"/>
    </g>
  </g>
</svg>