<?xml version="1.0" encoding="UTF-8"?><svg id="_レイヤー_1" xmlns="http://www.w3.org/2000/svg" viewBox="0 0 1920 1920"><defs><style>.cls-1{fill:none;}.cls-1,.cls-2{stroke-width:0px;}.cls-2{fill:#fff;}</style></defs><path class="cls-2" d="m960,27.76C445.96,27.76,27.76,445.96,27.76,960s418.2,932.24,932.24,932.24,932.24-418.2,932.24-932.24S1474.04,27.76,960,27.76Zm649.4,1581.64H310.6V310.6h1298.8v1298.8Z"/><path class="cls-2" d="m361.4,361.4v1197.2h1197.2V361.4H361.4Zm286.61,166.6c66.26,0,119.99,53.73,119.99,120s-53.73,120.01-119.99,120.01-120.01-53.73-120.01-120.01,53.73-120,120.01-120Zm1.69,862.32c-66.28,0-120.01-53.73-120.01-120.01s53.73-120.01,120.01-120.01,119.98,53.73,119.98,120.01-53.72,120.01-119.98,120.01Zm310.31-310.32c-66.28,0-120.01-53.73-120.01-120s53.73-120.01,120.01-120.01,119.99,53.73,119.99,120.01-53.73,120-119.99,120Zm312,312.01c-66.28,0-120.01-53.74-120.01-120.01s53.73-120.01,120.01-120.01,119.99,53.74,119.99,120.01-53.73,120.01-119.99,120.01Zm0-624c-66.28,0-120.01-53.73-120.01-120.01s53.73-120,120.01-120,119.99,53.73,119.99,120-53.73,120.01-119.99,120.01Z"/><rect class="cls-1" x="0" width="1920" height="1920"/></svg>