<?xml version="1.0" encoding="UTF-8"?><svg id="_レイヤー_1" xmlns="http://www.w3.org/2000/svg" viewBox="0 0 1920 1920"><defs><style>.cls-1{fill:none;}.cls-1,.cls-2{stroke-width:0px;}.cls-2{fill:#fff;}</style></defs><path class="cls-2" d="m960,27.76C445.96,27.76,27.76,445.96,27.76,960s418.2,932.24,932.24,932.24,932.24-418.2,932.24-932.24S1474.04,27.76,960,27.76ZM344.99,371.01c0-11.69,9.48-21.16,21.17-21.16h1187.68c11.69,0,21.16,9.47,21.16,21.16v789.84c0,11.69-9.47,21.16-21.16,21.16H366.16c-11.69,0-21.17-9.47-21.17-21.16V371.01Zm1270.75,1158.69c-.03.59-.13,1.16-.23,1.76,0,.06,0,.1-.03.13-.13.63-.27,1.26-.43,1.86-.47,1.72-1.16,3.42-2.09,4.98-.3.53-.63,1.06-1,1.56-.37.53-.76,1.03-1.16,1.49-.47.53-.97,1.07-1.46,1.56-.07.07-.1.1-.17.17-.53.5-1.13,1-1.73,1.46-.59.47-1.22.9-1.89,1.26-.43.3-.89.53-1.39.77-.93.49-1.86.89-2.86,1.19-.7.27-1.43.47-2.16.6-1.46.33-2.95.5-4.48.5H325.33c-1.53,0-3.03-.17-4.49-.5-.73-.13-1.46-.33-2.16-.6-.96-.3-1.92-.7-2.82-1.19-.5-.2-.96-.47-1.42-.77-.67-.36-1.3-.79-1.9-1.26-.6-.46-1.19-.96-1.72-1.46-.07-.07-.14-.1-.14-.17-.53-.49-1.03-1.03-1.49-1.56-.4-.46-.8-.96-1.16-1.49-.34-.5-.7-1.03-1-1.56-.33-.53-.63-1.1-.86-1.66-.27-.57-.5-1.13-.7-1.7-.27-.63-.46-1.26-.6-1.92-.16-.57-.26-1.1-.36-1.66l-.1-.6c-.17-1.03-.23-2.06-.23-3.09,0-.59.03-1.16.06-1.72,0-.33.04-.67.1-1.03l35.96-274.09c1.39-10.53,10.36-18.39,20.98-18.39h1197.42c10.63,0,19.59,7.86,20.99,18.39l35.86,273.36c.03.26.06.5.1.76.06.47.09.9.13,1.33.06,1.09.06,2.19-.04,3.29Z"/><path class="cls-2" d="m387.32,392.18v747.5h1145.35V392.18H387.32Zm849.8,551.22c0,47.66-53.85,86.29-120.29,86.29s-120.29-38.63-120.29-86.29,53.86-86.3,120.29-86.3c29.74,0,56.96,7.74,77.96,20.59v-357.09l-362.97,64v435.09c0,47.66-53.85,86.3-120.29,86.3s-120.29-38.64-120.29-86.3,53.86-86.29,120.29-86.29c29.74,0,56.96,7.74,77.96,20.58v-448.19h.17l-.18-1,405.31-71.48,15.34-2.69,26.83-4.72.16-.03v517.53Z"/><rect class="cls-1" x="0" width="1920" height="1920"/></svg>