<?xml version="1.0" encoding="UTF-8"?><svg id="_レイヤー_1" xmlns="http://www.w3.org/2000/svg" viewBox="0 0 1920 1920"><defs><style>.cls-1{fill:none;}.cls-1,.cls-2{stroke-width:0px;}.cls-2{fill:#fff;}</style></defs><path class="cls-2" d="m1256.37,1643.31l-2.41,77.81c-36.15,8.46-130.91,26.12-293.96,26.69-163.09-.57-257.85-18.23-293.96-26.69l-2.41-77.81c31.23,2.76,70.67,5.29,117.47,7.53,89.97,4.3,177.52,6.09,178.39,6.1h.51s.51,0,.51,0c.87-.01,88.42-1.8,178.39-6.1,46.81-2.24,86.24-4.77,117.47-7.53Z"/><path class="cls-2" d="m1399.42,846.34c-12.32,81.07-25.05,164.9-5.33,249.15.33,1.4.65,2.79.96,4.2-18.25-5.07-34.33-14.74-48.62-29.15-68.17-68.75-69.53-217.79-69.55-227.17,3.23-61.91-4.5-99.21-25.06-120.89-19.95-21.04-46.91-21.04-59.86-21.04-17.06,0-41.61,7.13-61.77,41.07-10.37,17.47-19.03,41.11-25.74,70.28-10.75,46.71-13.2,92.62-13.36,95.99-7.09,122.01-94.77,141.23-100.03,142.27l-.81.12-1.24.33c-15.19,4.02-27.27,2.5-38.02-4.8-28.31-19.19-40.49-72.75-42.79-91.72l-.07-.57c-5.55-39.51-15.73-73.37-30.26-100.63-12.28-23.06-27.71-41.58-45.86-55.07-29.5-21.91-56.9-23.59-63.79-23.64-29.45-1.33-55.86,8.58-76.4,28.69-24.5,23.98-40.94,62.02-48.88,113.07-5.54,35.64-4.84,65.03-4.78,67.12.95,38.99-6.32,64.54-20.45,71.95-20.26,10.62-59.91-7.97-82.65-22.41,4.34-63.29-5.19-126.01-14.48-187.16-13.89-91.48-27.02-177.88,4.39-261.87.05-.14,6.6-14.24,67.54-29.5,38.08-9.53,89.31-17.51,152.27-23.71,105.21-10.36,208.33-12.17,215.22-12.28,6.88.11,110.01,1.92,215.22,12.28,62.96,6.2,114.19,14.18,152.27,23.71,60.94,15.26,67.48,29.36,67.54,29.49,31.42,84,18.29,170.41,4.39,261.89Z"/><path class="cls-2" d="m960,28C446.09,28,28,446.09,28,960s418.09,932,932,932,932-418.09,932-932S1473.91,28,960,28Zm212.9,364.12c.4-27.41,12.27-54.04,35.28-79.16,29.82-34.69,29.9-63.24.3-95.38l37.37-34.41c23.21,25.21,35.19,51.95,35.59,79.48.41,28.19-11.39,56.39-35.05,83.79l-.54.61c-29.68,32.24-29.51,60.85.54,95.67l-38.46,33.19c-23.65-27.41-35.44-55.6-35.03-83.79Zm-534.33,0c.4-27.41,12.27-54.04,35.29-79.16,29.82-34.69,29.9-63.23.29-95.38l37.37-34.41c23.22,25.21,35.2,51.95,35.59,79.48.41,28.19-11.38,56.39-35.05,83.79l-.53.61c-29.68,32.24-29.52,60.85.54,95.67l-38.46,33.19c-23.66-27.41-35.44-55.6-35.04-83.79Zm804.98,691.79c20.09,85.78,22.65,200.84,6.86,307.79-10.02,67.82-36.14,188.24-98.5,232.79-5.85,4.18-14.52,8.58-44.53,13.07l-3.79,121.94-16.98,5.52c-4.12,1.34-103.52,32.82-326.52,33.59h-.18c-223-.77-322.4-32.25-326.52-33.59l-16.98-5.52-3.79-121.94c-30.01-4.5-38.67-8.89-44.52-13.07-62.37-44.55-88.49-164.97-98.5-232.79-15.8-106.94-13.24-222.01,6.85-307.79,17.49-74.72,6.04-150.12-6.09-229.95-14.26-93.87-29.01-190.94,7.03-287.31,9.84-26.3,42-45.55,101.22-60.57,40.45-10.26,94.33-18.77,160.12-25.28,79.31-7.85,157.55-10.92,196.13-12.04-19.71-25.14-29.5-50.88-29.13-76.61.39-27.42,12.27-54.05,35.29-79.16,29.81-34.71,29.89-63.25.29-95.39l37.37-34.41c23.22,25.21,35.19,51.95,35.59,79.48.4,28.19-11.38,56.38-35.04,83.79l-.55.62c-29.68,32.22-29.51,60.84.55,95.67l-29.69,25.62c6.35-.14,9.91-.2,10.1-.2h.36s.36,0,.36,0c1.08,0,109.96,1.65,220.9,12.63,65.8,6.51,119.67,15.02,160.13,25.28,59.22,15.02,91.38,34.27,101.22,60.58,36.04,96.37,21.3,193.44,7.03,287.31-12.12,79.83-23.58,155.23-6.09,229.94Z"/><path class="cls-2" d="m1400.15,1384.28c-14.45,97.86-43.82,173.54-76.79,198.16-5.63,2.2-36.89,10.67-193.3,17.96-83.36,3.88-162.95,5.6-170.06,5.74-7.11-.14-86.61-1.85-169.96-5.74-156.49-7.29-187.75-15.76-193.38-17.96-32.98-24.61-62.35-100.3-76.81-198.16-14.91-100.95-12.65-208.91,6.06-288.79.61-2.59,1.18-5.17,1.72-7.76,4.91,2.58,10.24,5.18,15.84,7.64,39.07,17.15,71.94,19.03,97.71,5.58,33.19-17.32,49.26-57.13,47.76-118.31v-.11c-.79-28.41,4.57-109.4,38.46-142.51,10.73-10.49,23.1-15.01,38.93-14.18l.54.12,1.32-.09c5.53.18,71.24,5.08,89.6,135.4.39,3.07,3.19,23.89,11.3,48.25,12.25,36.8,30.17,63.43,53.25,79.14,22.63,15.4,49.85,19.6,78.76,12.19,6.99-1.4,36.68-8.51,67.52-33.03,30.69-24.39,68.29-71.3,73.19-156.22v-.23c.03-.44,2.29-44.62,12.27-87.73,11.42-49.32,27.25-71.4,37.88-71.4,13.34,0,19.36,1.36,23,5.19,5.52,5.83,14.33,24.48,11.16,83.88l-.03,1.1c-.07,7.23-.78,178.01,84.18,263.8,26.31,26.57,57.83,42.34,93.94,47.05,8.73,70.33,7.5,152.78-4.06,231.02Z"/><rect class="cls-1" width="1920" height="1920"/></svg>