<?xml version="1.0" encoding="UTF-8"?><svg id="_レイヤー_1" xmlns="http://www.w3.org/2000/svg" viewBox="0 0 1920 1920"><defs><style>.cls-1{fill:none;}.cls-1,.cls-2{stroke-width:0px;}.cls-2{fill:#fff;}</style></defs><path class="cls-2" d="m960.05,27.76C445.99,27.76,27.76,445.99,27.76,960.05s418.23,932.19,932.29,932.19,932.19-418.18,932.19-932.19S1474.06,27.76,960.05,27.76Zm183.47,456.03c76.12-76,199.88-76,275.89,0,18.43,18.4,32.72,39.85,42.41,63.21,9.68,23.36,14.76,48.64,14.76,74.7,0,52.13-20.3,101.13-57.16,137.99-38.01,38.01-87.96,57.01-137.91,57.01s-99.93-19-137.99-57c-76.01-76.14-76.01-199.9,0-275.91Zm-669.78,0c36.8-36.8,85.77-57.07,137.88-57.07s101.08,20.26,137.89,57.07c18.43,18.4,32.73,39.85,42.41,63.21s14.76,48.64,14.76,74.7c0,52.13-20.3,101.13-57.16,137.99-36.81,36.81-85.78,57.08-137.9,57.08s-101.08-20.27-137.89-57.08c-36.86-36.86-57.16-85.86-57.16-137.99s20.3-101.11,57.17-137.91Zm275.79,945.85c-38.01,38.01-87.97,57.01-137.92,57.01s-99.92-19-137.98-57c-36.82-36.93-57.09-85.95-57.09-138.04s20.27-101.06,57.08-137.86c36.86-36.86,85.86-57.16,137.99-57.16s101.11,20.3,137.92,57.16c36.85,36.81,57.15,85.77,57.15,137.86s-20.3,101.12-57.15,138.03Zm665.26-4.7c-36.87,36.82-85.86,57.09-137.95,57.09s-101.09-20.27-137.94-57.07c-76.02-76.14-76.02-199.9-.01-275.91,36.86-36.81,85.85-57.08,137.95-57.08s101.08,20.27,137.94,57.07h0c76,76.02,76.01,199.78,0,275.9Zm178.65-449.2h-624.45v631.18h-44.83v-631.18H299.64v-44.82h624.52V313.13h44.83v617.79h624.45v44.82Z"/><path class="cls-2" d="m779.78,621.7c0,44.94-17.5,87.19-49.28,118.97-31.73,31.73-73.95,49.2-118.88,49.2s-87.15-17.47-118.87-49.2c-31.78-31.78-49.29-74.03-49.29-118.97s17.5-87.15,49.29-118.89c31.72-31.73,73.94-49.2,118.87-49.2s87.15,17.47,118.88,49.2h0c31.77,31.74,49.27,73.96,49.27,118.89Z"/><path class="cls-2" d="m1395.78,1405.93c-65.59,65.48-172.3,65.48-237.87.01-65.53-65.63-65.53-172.34,0-237.86,32.79-32.74,75.86-49.11,118.94-49.11,21.54,0,43.07,4.09,63.32,12.28,20.25,8.18,39.22,20.46,55.62,36.83,65.51,65.53,65.51,172.23,0,237.85Z"/><rect class="cls-1" x="0" width="1920" height="1920"/></svg>