<?xml version="1.0" encoding="UTF-8"?><svg id="_レイヤー_1" xmlns="http://www.w3.org/2000/svg" viewBox="0 0 1920 1920"><defs><style>.cls-1{fill:none;}.cls-1,.cls-2{stroke-width:0px;}.cls-2{fill:#fff;}</style></defs><path class="cls-2" d="m1892.24,960c0,264.54-110.76,503.7-288.34,673.54l-388.11-477.86,424.84-566.45-24.47-18.35-420.25,560.32-184.53-227.2c7.29-13.28,13.92-26.97,19.87-41.03,23.32-55.16,35.15-113.74,35.15-174.11s-11.83-118.96-35.15-174.12c-22.53-53.26-54.78-101.1-95.86-142.17-41.07-41.08-88.9-73.33-142.17-95.86-55.15-23.32-113.73-35.15-174.11-35.15s-118.96,11.83-174.11,35.15c-53.27,22.53-101.11,54.78-142.18,95.86-41.08,41.07-73.33,88.91-95.86,142.17-23.33,55.16-35.16,113.74-35.16,174.12s11.83,118.95,35.16,174.11c22.53,53.26,54.78,101.1,95.86,142.17,41.07,41.08,88.91,73.33,142.18,95.86,55.15,23.33,113.73,35.16,174.11,35.16s118.96-11.83,174.11-35.16c53.27-22.53,101.1-54.78,142.17-95.86,22.45-22.45,42.27-46.91,59.28-73.18l182.32,224.47-424.84,566.44,24.47,18.35,420.25-560.32,384.54,473.45c-165.04,147.86-382.9,237.89-621.4,237.89-514.04,0-932.25-418.2-932.25-932.24S445.97,27.76,960.01,27.76s932.23,418.2,932.23,932.24Z"/><path class="cls-2" d="m780.92,620.25l-23.75,19.29,217.02,267.2c-73.4,119.2-205.12,198.83-355.08,198.83-229.78,0-416.72-186.94-416.72-416.71s186.94-416.72,416.72-416.72,416.7,186.94,416.7,416.72c0,68.08-16.41,132.41-45.49,189.22l-209.4-257.83Z"/><rect class="cls-1" x="0" width="1920" height="1920"/></svg>