<?xml version="1.0" encoding="UTF-8"?><svg id="_レイヤー_1" xmlns="http://www.w3.org/2000/svg" viewBox="0 0 1920 1920"><defs><style>.cls-1{fill:none;}.cls-1,.cls-2{stroke-width:0px;}.cls-2{fill:#fff;}</style></defs><path class="cls-2" d="m1253.02,1845.07c-92.18,30.6-190.7,47.17-293.02,47.17s-200.84-16.57-293.02-47.17h586.04Z"/><path class="cls-2" d="m1461.77,1745.38c-27.69,17.76-56.38,34.09-85.97,48.89h-831.6c-29.59-14.8-58.28-31.13-85.97-48.89h1003.54Z"/><path class="cls-2" d="m719,1130.3c-1.54,14.08-3.95,32.6-7.69,56.9-7.73,50.25-19.79,116.42-33.95,186.35-13.52,66.73-27.95,132.13-40.65,184.15-15.61,63.96-23.2,85.63-26,92.42-4.88,3.38-11.08,7.89-18.4,13.21-11.79,8.57-34.79,25.29-45.32,31.25h-160.36C168.32,1523.81,27.76,1258.01,27.76,960c0-328.32,170.6-617.54,427.81-783.67,2.26,12.81,10.69,31.91,33.03,69.17,18.46,30.78,41.99,66.48,62.75,97.98,16.76,25.44,37.41,56.78,42.13,66.28,2.27,21.3-6.13,32.9-23.22,54.24-4.72,5.9-9.61,12.01-14.5,18.87-8.52,11.96-17.91,35.51-31.26,70.08-6.02,15.59-14.26,36.9-17.34,41.9-5.73,8.54-59.86,75.13-112.22,139.53-178.8,219.95-229.69,284.53-236.74,300.45-10.34,23.38,8.8,49.25,28.9,71.48,18.48,20.46,45.11,45.02,77,71.04,43.15,35.19,90.21,68.38,129.13,91.03,56.32,32.79,89.15,40.52,109.76,25.84,20.71-14.74,60.48-45.23,106.52-80.52,35.19-26.96,74.07-56.77,109.49-83.4Z"/><path class="cls-2" d="m1067.18,33.88c-296.32,232.72-489.17,148.6-562.71,116.52-1.23-.54-2.42-1.06-3.58-1.56,135.6-77.05,292.31-121.08,459.11-121.08,36.24,0,72,2.08,107.18,6.12Z"/><path class="cls-2" d="m954.7,1127.96c-.52,46.65-3.32,103.11-8.56,172.59-1.76,23.34-2.76,47.36-3.73,70.59-2.74,65.58-5.57,133.39-25.7,193.94-10.59,31.79-27.63,58.78-49.31,78.08-14.59,13-38.32,34.77-53.07,51.42h-178.52c3.01-2.14,5.55-3.91,7.32-5.05,8.83-5.69,13.74-14.93,21.9-41.21,4.99-16.06,11.02-38.25,17.93-65.97,13.06-52.41,28.8-123.06,43.19-193.83,15.3-75.21,28.15-145.84,36.18-198.89,8.12-53.66,10.4-82.23,9.97-98.78,39.07-28.29,51.67-35.51,55.51-37.34,43.61-6.97,83.6-21.46,118.53-38.69.96,13.69,2.32,27.53,3.66,41.16,2.54,25.78,4.93,50.14,4.7,71.98Z"/><path class="cls-2" d="m1113.9,1674.73c-2.5,7.07-4.83,13.69-6.91,19.85h-220.66c4.72-4.36,9.7-8.89,14.86-13.49,28.29-25.19,50.33-59.75,63.72-99.97,22.39-67.34,25.37-138.78,28.26-207.86.99-23.86,1.93-46.4,3.63-68.88,5.32-70.59,8.17-128.11,8.69-175.87.27-24.61-2.38-51.5-4.93-77.5-2.13-21.65-4.31-43.89-4.71-64.14,28.44-18.13,51.45-36.52,67.73-50.77,26.32-23.04,49.29-47.48,67.06-70.71,36.03,40.49,58.1,87.51,60.23,129.88,20.29,403.37-45.4,589.85-76.97,679.46Z"/><path class="cls-2" d="m1371.28,766.13c-.27,32.2-1.99,128.64-3.95,237.72-2.45,136.87-5.51,307.21-7.41,445.12-2.32,168.14-2.06,224.69-1.22,245.61h-197.93c.34-.98.69-1.97,1.04-2.97,32.65-92.68,100.59-285.53,79.79-698.89-2.88-57.51-33.49-120.47-82.79-171.62,5.96-12.23,9.61-23.41,10.55-32.96,2.49-25.13.17-83.61-3.37-135.35,18.46,2.28,51.17,12.29,106,45.09,30.78,18.42,65.74,42.46,99.29,68.25Z"/><path class="cls-2" d="m1798.41,1367.43c-62.56,128.22-153.68,240.05-265.04,327.15h-100.05c21.28-19.42,54.1-50.31,105.73-99.14,50.93-48.17,108.66-102.77,156.45-146.42,68.21-62.31,87.64-76.12,93.08-79.11l9.83-2.48Z"/><path class="cls-2" d="m1892.24,960c0,137.89-30.09,268.89-84.06,386.76l-3.46-9.65c-.83-2.34-1.67-3.9-4.77-9.72-64.05-120.14-198.11-427.17-59.79-682.79l13.86-25.62-27.27-10.24c-236.79-88.95-393.65-176.48-479.56-267.59-72.03-76.41-83.71-143.93-95-209.23-5.27-30.47-10.28-59.5-20.89-88.38,432.51,80.65,760.94,460.92,760.94,916.46Z"/><path class="cls-2" d="m1107.74,575.54c-2.77-10.52-27.51-64.18-68.34-143.83-38.1-74.31-67.86-127.46-76.02-138.44-4.59-2.95-18.19-10.15-35.92-16.72-15.48-5.74-26.02-8-32.3-8.73-2.03,17.43-3.39,53.36-4.35,78.7-1.88,49.84-3.3,81.24-7.1,96.85-.17.69-19.04,74.6-40.67,97.15l-5.8,6.04-8.25,1.41c-22.8,3.91-69.57-2.34-143.88-13.08-34.26-4.96-72.19-10.45-93.65-11.81-5.97,12.95-13.84,33.32-19.57,48.17-10,25.87-16.39,42.16-21.77,50.72-5.24,8.33-35.91,46.23-115.76,144.46-76.83,94.5-202.14,248.65-226.51,284.11,3.44,5.89,12.61,18.7,36.43,41.73,23.07,22.3,53.77,48.14,86.45,72.77,33.19,25.02,66.49,47.29,93.76,62.71,32.85,18.59,47.48,22.08,52.33,22.72,20.83-15.03,58.51-43.92,101.79-77.09,46.96-36,100.19-76.79,143.57-108.81,73.41-54.18,86.04-59.44,95.87-60.95,96.4-14.85,174.24-72.62,212.07-105.74,59.85-52.41,87.3-100.58,88.69-114.72,3.53-35.77-5.08-169.58-11.07-207.62Zm-423.5,166.1l-222.29,54.67,147.6-205.22h196.57l-121.88,150.55Z"/><path class="cls-2" d="m1747.5,1336.75c-15.42,11.71-39.8,32.45-80.91,69.88-49.16,44.75-109.34,101.68-162.44,151.9-33.25,31.44-69.08,65.33-95.28,89.53-.02-125.93,5.83-452.27,9.25-643.3,1.29-71.85,2.4-133.89,3.13-178.7.38-23.77.63-41.06.75-52.87.07-6.46.1-11.22.1-14.55,0-1.88,0-3.32-.04-4.3-.21-9.06-3.67-16.15-10.28-21.09-.29-.22-.8-.61-1.51-1.17-38-29.71-76.8-56.61-112.2-77.79-56.75-33.95-101.71-51.43-136.22-52.8-1.4-14.69-2.79-26.75-4.03-34.44-.71-4.43-2.03-12.68-25.54-62.35-12.96-27.38-30.37-62.46-49.02-98.78-18.61-36.25-36.76-70.42-51.09-96.22-26.66-47.97-31.6-51.9-35.96-55.37-10.44-8.29-33.65-18.93-50.8-25.31-29.13-10.83-52.02-14.5-68.04-10.89-12.33,2.77-21.92,9.97-26.99,20.28-5.94,12.08-7.63,34.69-10.33,106.19-1.26,33.41-2.83,74.99-5.71,86.79-4.76,19.72-16.12,51.94-23.76,67.03-24.78-.3-77.87-7.98-118.19-13.81-26.57-3.84-48.83-7-67.08-9.2,12.91-19.06,22.79-42.07,18.19-75.1-1.44-10.36-7.48-20.66-49.74-84.78-19.19-29.13-40.95-62.14-58.37-90.82-1.98-3.26-3.83-6.34-5.55-9.25,38.1,13.66,89.54,26.97,153.99,26.97,7.95,0,16.12-.21,24.46-.64,122.54-6.31,250.76-60.5,381.52-161.17,5.26,19.12,8.73,39.17,12.32,59.95,11.99,69.33,25.58,147.89,108.1,235.43,43.72,46.37,101.97,90.28,178.08,134.25,78.31,45.24,177.15,90.93,294.12,135.98-30.4,64.52-47.86,135.87-51.96,212.54-3.78,70.41,3.66,145.78,22.1,224.03,14.02,59.48,41.75,150.76,94.93,253.95Z"/><polygon class="cls-2" points="735.13 624.96 665.09 711.48 543.1 741.48 626.91 624.96 735.13 624.96"/><rect class="cls-1" width="1920" height="1920"/></svg>