<?xml version="1.0" encoding="UTF-8"?><svg id="_レイヤー_1" xmlns="http://www.w3.org/2000/svg" viewBox="0 0 1920 1920"><defs><style>.cls-1{fill:none;}.cls-1,.cls-2{stroke-width:0px;}.cls-2{fill:#fff;}</style></defs><path class="cls-2" d="m960,28C446.09,28,28,446.09,28,960s418.09,932,932,932,932-418.09,932-932S1473.91,28,960,28ZM344.69,371.01c0-11.85,9.61-21.46,21.47-21.46h1187.68c11.85,0,21.46,9.61,21.46,21.46v789.84c0,11.85-9.61,21.46-21.46,21.46H366.16c-11.86,0-21.47-9.61-21.47-21.46V371.01Zm1271.06,1158.69c-.04.59-.14,1.16-.24,1.76,0,.06,0,.1-.03.13-.13.63-.27,1.26-.43,1.86-.47,1.72-1.16,3.42-2.09,4.98-.3.53-.63,1.06-1,1.56-.37.53-.76,1.03-1.16,1.49-.47.53-.97,1.07-1.46,1.56l-.17.17c-.53.5-1.13,1-1.73,1.46-.59.47-1.22.9-1.89,1.26-.43.3-.89.53-1.39.77-.93.49-1.86.89-2.86,1.19-.7.27-1.43.47-2.16.6-1.46.33-2.95.5-4.48.5H325.33c-1.53,0-3.03-.17-4.49-.5-.73-.13-1.46-.33-2.15-.6-.97-.3-1.93-.7-2.83-1.19-.5-.2-.96-.47-1.42-.77-.67-.36-1.3-.79-1.9-1.26-.59-.46-1.19-.96-1.72-1.46-.07-.07-.14-.1-.14-.17-.53-.49-1.03-1.03-1.49-1.56-.4-.46-.8-.96-1.16-1.49-.34-.5-.7-1.03-1-1.56-.33-.53-.63-1.1-.86-1.66-.27-.57-.5-1.13-.7-1.69-.27-.64-.46-1.27-.6-1.93-.16-.57-.26-1.1-.36-1.66l-.1-.6c-.17-1.03-.23-2.06-.23-3.09,0-.59.03-1.16.06-1.72,0-.33.04-.67.1-1.03l35.96-274.09c1.39-10.52,10.36-18.39,20.98-18.39h1197.42c10.63,0,19.59,7.87,20.99,18.39l35.86,273.36c.03.26.06.5.1.76.06.47.1.9.13,1.33.06,1.09.06,2.19-.03,3.29Z"/><path class="cls-2" d="m387.62,392.48v746.9h1144.75V392.48H387.62Zm331.41,704.97c-.93,5.8-5.93,9.94-11.63,9.94-.61,0-1.23-.05-1.86-.15-33.33-5.29-58.75-18.17-75.58-38.26-47.47-56.73-15.78-156.4-1.38-198.82.53-1.55,1.03-3.03,1.51-4.42,5.62-16.46,11.32-29.61,16.34-41.21,9.76-22.51,17.46-40.29,21.09-72.19,3.18-27.97,6.19-54.39-7.96-74.31-8.78-12.37-23.44-21.3-42.4-25.82-18.99-4.53-41.34-4.5-64.74.06-.52.1-1.05.2-1.58.31-6.38,1.3-12.6-2.82-13.9-9.2-1.3-6.38,2.82-12.6,9.2-13.89,58.14-11.83,108.97,1.54,132.64,34.89,19.37,27.28,15.54,60.93,12.16,90.62-4.03,35.39-12.77,55.55-22.88,78.9-5.09,11.74-10.35,23.89-15.66,39.45-2.89,8.47-6.91,20.23-10.84,33.91-12.81,44.56-24.66,109.39,6.48,146.59,12.04,14.39,30.49,24.13,54.89,28.99,2.06.41,4.16.79,6.31,1.13,6.43,1.02,10.81,7.06,9.79,13.48Zm554.63-395.13l-71.4,73.4s-.09.11-.12.17l-101.41,220.89c-.07.17-.22.3-.4.35l-346.18,100.34c-.29.08-.6-.05-.74-.32l-9.62-19.25c-.12-.24-.08-.53.11-.72l144.51-152.54h0s.04-.04.06-.05c1.57.93,3.2,1.76,4.9,2.48,7.4,3.17,15.91,4.24,24.85,2.29,16.19-3.52,28.9-16.97,31.46-33.35,3.64-23.34-12.47-43.74-34.21-47.04-1.34-.21-2.7-.35-4.07-.42-1.95-.1-3.93-.06-5.94.12-17.46,1.59-32.14,14.56-36.05,31.46-.23.99-.43,2-.58,3.02-.05.36-.1.72-.14,1.08-1.39,11.03,1.7,21.25,7.6,29.3.18.24.16.58-.06.8l-147.88,148.76c-.2.2-.5.24-.75.11l-18.74-10.09c-.27-.15-.4-.45-.31-.74l102.35-343.68c.05-.18.18-.32.34-.39l223.9-102.42c.08-.03.14-.07.19-.13l69.87-71.87c.25-.25.65-.25.9,0l167.56,167.56c.25.24.25.64,0,.88Zm-384.35,158.9c2.17,0,2.17,3.37,0,3.37s-2.16-3.37,0-3.37Zm399.85-171.67l-172.84-172.84,82.35-82.35,172.84,172.84-82.35,82.35Z"/><rect class="cls-1" y="0" width="1920" height="1920"/></svg>