<?xml version="1.0" encoding="UTF-8"?><svg id="_レイヤー_1" xmlns="http://www.w3.org/2000/svg" viewBox="0 0 1920 1920"><defs><style>.cls-1{fill:none;}.cls-1,.cls-2{stroke-width:0px;}.cls-2{fill:#fff;}</style></defs><path class="cls-2" d="m1892.24,960c0,304.32-146.58,575.06-372.84,745.31-17.79-24.93-47.99-62.48-90.7-99.5v-84.53c166.91-139.51,262.51-343.74,262.51-561.28,0-98.71-19.33-194.47-57.47-284.62-36.83-87.08-89.55-165.28-156.7-232.42-67.14-67.15-145.34-119.88-232.42-156.7-90.15-38.14-185.91-57.47-284.62-57.47s-194.47,19.33-284.63,57.47c-87.07,36.82-165.27,89.55-232.42,156.7-15.15,15.15-29.57,30.87-43.24,47.12.07-1.37.1-2.75.1-4.14,0-47.36-38.38-85.76-85.74-85.76s-85.75,38.4-85.75,85.76,38.38,85.75,85.75,85.75c10.34,0,20.25-1.83,29.43-5.18-22.04,34.47-41.16,70.82-57.25,108.87-38.13,90.15-57.46,185.91-57.46,284.62,0,32.65,2.18,65.5,6.48,97.82-21.21,6.96-37.39,15.05-49.26,24.63-13.72,11.07-21.38,24.05-22.78,38.58-2.73,28.48,19.26,60.43,65.35,94.95,26.28,19.69,52.66,34.45,62.45,39.71,45.16,102.02,114.28,193.66,200.27,265.57v56.05c-40.2,14.76-68.95,53.44-68.95,98.71,0,20.85,6.1,40.3,16.59,56.66C191.03,1564.96,27.76,1281.19,27.76,960,27.76,445.96,445.96,27.76,960,27.76s932.24,418.2,932.24,932.24Z"/><path class="cls-2" d="m1404.08,1527.8v71.35h-805.05c-18.78-17.52-43.96-28.24-71.6-28.24-3.89,0-7.73.21-11.51.63v-43.74h888.16Z"/><path class="cls-2" d="m1499.45,1719.91c-109.52,77.98-236.55,132.9-373.93,157.61-3.43-20.83-10.76-56.81-25.26-97.26-13.17-36.74-29.55-69.52-48.68-97.43-15.8-23.04-33.52-42.79-52.94-59.05h413.19c41.15,35.54,70.54,72.21,87.62,96.13Z"/><path class="cls-2" d="m1101.19,1881.57c-46.05,7.03-93.2,10.67-141.19,10.67-159.76,0-310.27-40.4-441.84-111.51,3.05.27,6.15.41,9.27.41,57.96,0,105.11-47.16,105.11-105.12,0-19-5.07-36.84-13.93-52.24h337.99c64.75,39.58,101.12,110.95,120.28,164.24,13.91,38.67,21.02,73.66,24.31,93.55Z"/><path class="cls-2" d="m793.23,354.57c-15.01-15.9-36.81-24.22-62.62-24.22-6.51,0-13.28.53-20.26,1.6-36.32,5.58-73.57,24.97-104.91,54.62-31.35,29.63-52.79,65.74-60.4,101.68-7.25,34.28-.88,64.12,17.92,84.02,18.81,19.89,48.24,27.92,82.89,22.59,36.31-5.57,73.56-24.97,104.91-54.6,15.68-14.82,28.88-31.25,39.11-48.48,10.23-17.22,17.49-35.24,21.29-53.21,7.25-34.29.89-64.12-17.93-84Zm-83.27,68.03c-5.92,13.08-16.52,27.18-29.84,39.7-13.34,12.52-28.07,22.22-41.48,27.32-7.62,2.89-13.99,4-19.26,4-10.53,0-16.73-4.42-19.95-7.86-4.84-5.16-11.46-17.13-1.4-39.37,5.92-13.06,16.51-27.16,29.83-39.7h.01c13.33-12.52,28.06-22.22,41.48-27.31,22.83-8.66,34.36-1.32,39.2,3.83,4.85,5.17,11.47,17.15,1.41,39.39Z"/><path class="cls-2" d="m960,253.41c-389.62,0-706.59,316.98-706.59,706.59,0,34.98,2.59,70.21,7.69,104.69l1.57,10.64-10.32,2.99c-28.28,8.2-62.45,22.68-64.6,45.06-1.81,18.75,17.85,44.58,55.35,72.71,28.84,21.64,58.78,37.51,62.67,39.54,7.36,3.01,105.73,42.53,218.01,51.99,152.73,12.86,257.69-33.12,311.98-136.68l21.8,11.43c-32.75,62.49-83.19,106.34-149.91,130.33-52.66,18.93-115.41,25.47-186.5,19.41-83.51-7.11-157.91-29.61-196.83-43.22,43.71,89.67,106.75,170.15,183.74,234.29h445.41c7.72-11.64,27.31-42.58,48.59-87.31,25.13-52.83,57.85-136.3,70.99-233.96,33.16-246.4-67.12-458.63-298.05-630.97-2.38,2.44-4.83,4.85-7.33,7.21-17.47,16.52-36.69,30.2-56.69,40.54s-40.79,17.35-61.39,20.51c-8.28,1.27-16.34,1.9-24.14,1.9-32.6,0-60.59-10.98-80.38-31.92-24.53-25.95-33.09-63.6-24.11-106.03,8.62-40.78,32.62-81.43,67.56-114.47,34.94-33.05,76.88-54.74,118.09-61.06,42.88-6.59,80,4.08,104.52,30.03,24.53,25.93,33.1,63.58,24.12,106.02-6.51,30.74-21.74,61.42-43.84,88.81,128.86,96.59,219.03,207.57,268.13,330.01,40.52,101.07,53.24,209.96,37.79,323.64-13.7,100.82-47.5,186.8-73.44,241.18-16.13,33.8-31.11,59.67-41.17,75.87h429.25c161.87-134.84,254.62-332.55,254.62-543.18,0-389.61-316.98-706.59-706.59-706.59Zm-398.29,833.93l-123.28-194.43,20.8-13.19,123.27,194.44-20.79,13.18Zm-19.49-421.53l336.73,94.85-6.67,23.7-336.73-94.85,6.67-23.7Zm237.58,284.09l-14.08,20.2-269.13-187.49,14.08-20.2,269.13,187.49Z"/><path class="cls-2" d="m663.26,444.35c-22.29,20.93-41.45,25.93-45.8,24.49-1.18-4.43,4.99-23.24,27.27-44.21,22.26-20.9,41.42-25.92,45.8-24.47,1.18,4.45-4.99,23.26-27.27,44.19Z"/><path class="cls-2" d="m606.66,1661.8l-151.93-20.24c12.92-27.19,40.65-46.03,72.7-46.03,39.53,0,72.5,28.65,79.23,66.27Z"/><path class="cls-2" d="m607.21,1686.71c-5.24,39.35-39.02,69.8-79.78,69.8-44.37,0-80.46-36.1-80.46-80.49,0-3.58.23-7.1.69-10.56l159.55,21.25Z"/><rect class="cls-1" x="0" width="1920" height="1920"/></svg>