<?xml version="1.0" encoding="UTF-8"?><svg id="_レイヤー_1" xmlns="http://www.w3.org/2000/svg" viewBox="0 0 1920 1920"><defs><style>.cls-1{fill:none;}.cls-1,.cls-2{stroke-width:0px;}.cls-2{fill:#fff;}</style></defs><path class="cls-2" d="m960,27.76C445.97,27.76,27.78,445.97,27.78,960.03s418.19,932.21,932.22,932.21,932.22-418.19,932.22-932.21S1474.03,27.76,960,27.76Zm117.8,425.89l51.9,51.9-51.9,51.9-51.9-51.9,51.9-51.9Zm-261.84-179.14l87.01,33.19-33.19,87.01-87.01-33.19,33.19-87.01Zm85.85,533.67l-74.97,25.12-25.12-74.97,74.97-25.12,25.12,74.97Zm-158.71-242.59l25.79-35.96,12.86,42.34,42.16,13.41-36.29,25.31.28,44.25-35.29-26.7-42,13.94,14.49-41.81-26.24-35.63,44.24.85Zm-231.4-114.22l54.17,54.18-54.17,54.17-54.18-54.17,54.18-54.18Zm-40.88,375.5l-7.48-43.62,39.16,20.59,39.17-20.59-7.48,43.62,31.68,30.88-43.78,6.36-19.59,39.68-19.58-39.68-43.79-6.36,31.69-30.88Zm933.49,250.32c0,47.25-77.47,89.24-197.48,115.83l44.48,404.87c12.44,76.5-148.97,145.76-347.9,145.82-198.93-.06-360.35-69.32-347.9-145.82l44.49-404.99c-119.72-26.59-196.98-68.53-196.98-115.71,0-80.39,224.14-145.55,500.65-145.55,63.39,0,124.03,3.42,179.83,9.67l288.88-352.16,59.25,42.28-264.17,322.03c142.18,25.67,236.85,71.49,236.85,123.73Zm186.06-639.28l-132.77,161.86-59.25-42.27,135.87-165.64c12.72-15.51,35.6-17.77,51.1-5.05,3.71,3.04,6.66,6.66,8.83,10.63,6.9,12.61,5.9,28.67-3.78,40.47Z"/><path class="cls-2" d="m1212.76,1050.84c0,34.35-138.39,62.2-309.09,62.2s-309.1-27.85-309.1-62.2,138.39-62.19,309.1-62.19c48.73,0,94.83,2.27,135.82,6.31l-20.09,24.49c-12.72,15.5-10.45,38.38,5.05,51.1,15.5,12.72,38.38,10.46,51.1-5.04l47.91-58.4c55.21,11.24,89.3,26.68,89.3,43.73Z"/><path class="cls-2" d="m1161.77,1209.84c-11.86,9.73-110.12,62.44-258.36,62.44s-246.51-52.71-258.36-62.44c9.93,2.55,21.02,5.02,33.42,7.37,60.7,11.51,140.59,17.85,224.94,17.85s164.23-6.34,224.93-17.85c12.4-2.35,23.49-4.82,33.43-7.37Z"/><rect class="cls-1" x="0" width="1920" height="1920"/></svg>