<?xml version="1.0" encoding="UTF-8"?><svg id="_レイヤー_1" xmlns="http://www.w3.org/2000/svg" viewBox="0 0 1920 1920"><defs><style>.cls-1{fill:none;}.cls-1,.cls-2{stroke-width:0px;}.cls-2{fill:#fff;}</style></defs><path class="cls-2" d="m960,27.77C445.97,27.77,27.77,445.97,27.77,960s418.2,932.23,932.23,932.23,932.23-418.2,932.23-932.23S1474.03,27.77,960,27.77Zm301.69,1588.92s-.08.03-.11.04h4.12v86.14h-568.22v-86.14h3.82s-.08-.03-.11-.04c-202.96-89.68-346.92-276.11-368.16-495.6h1296.81c-21.24,219.49-165.2,405.92-368.15,495.6Zm-929.84-514.48c-1.18-11.79-1.18-23.6-1.18-35.39,0-10.63,0-20.07,1.18-30.69h874.37v-479.07c-253.69,3.53-508.57,7.08-762.27,11.79v-156.93c253.7,3.54,508.58,7.08,762.27,10.62v-7.08h260.78v10.62c17.7,1.17,35.4,1.17,53.11,1.17v49.57c-17.71,0-35.41,0-53.11,1.18v29.5c17.7,0,35.4,1.17,53.11,1.17v43.66c-17.71,0-35.41,0-53.11,1.18v482.62h164.03c1.17,10.62,1.17,20.06,1.17,30.69,0,11.79,0,23.6-1.17,35.39H331.85Z"/><path class="cls-2" d="m1206.22,482.72v20.06c-185.26-3.54-370.52-5.9-554.6-9.45,184.08-3.53,369.34-7.08,554.6-10.61Z"/><rect class="cls-2" x="1417.45" y="433.16" width="31.85" height="602.97"/><rect class="cls-2" x="1369.06" y="433.16" width="31.86" height="602.97"/><rect class="cls-2" x="1320.69" y="433.16" width="31.85" height="602.97"/><rect class="cls-2" x="1271.12" y="433.16" width="31.86" height="602.97"/><rect class="cls-2" x="1222.74" y="433.16" width="31.87" height="602.97"/><rect class="cls-1" width="1920" height="1920"/></svg>