<?xml version="1.0" encoding="UTF-8"?><svg id="_レイヤー_1" xmlns="http://www.w3.org/2000/svg" viewBox="0 0 1920 1920"><defs><style>.cls-1{fill:none;}.cls-1,.cls-2{stroke-width:0px;}.cls-2{fill:#fff;}</style></defs><path class="cls-2" d="m959.99,27.76C445.96,27.76,27.77,445.96,27.77,960s418.19,932.24,932.22,932.24,932.24-418.2,932.24-932.24S1474.03,27.76,959.99,27.76Zm63.45,1758.67c-25.05,34.38-52.04,59.02-53.18,60.05l-10.27,9.33-10.27-9.33c-1.14-1.03-28.12-25.67-53.18-60.05-35.18-48.27-48.66-90.68-40.07-126.05,9.18-37.79,42.68-64.66,99.58-79.85l3.94-1.06,3.94,1.06c56.9,15.19,90.41,42.06,99.58,79.85,8.59,35.37-4.89,77.78-40.07,126.05Zm347.27-261.03l-275.37-110.21c-19.39,67.99-33.15,103.3-33.96,105.36l-3.81,9.69h-195.14l-3.81-9.69c-.81-2.06-14.57-37.37-33.96-105.36l-275.39,110.21-33.12-132.32,221.44-404.75c-11.71-83.77-22.19-177.99-29.81-281.85-.93-7.83-11.4-103.51,11.98-217.7,14.11-68.89,37.71-130.09,70.14-181.9,40.83-65.21,95.74-115.54,163.21-149.57l6.88-3.48,6.88,3.48c67.47,34.03,122.38,84.36,163.21,149.57,32.43,51.81,56.03,113.01,70.14,181.9,23.38,114.19,12.91,209.87,11.99,217.7-7.62,103.85-18.1,198.06-29.81,281.82l221.45,404.78-33.14,132.32Z"/><path class="cls-2" d="m816.44,1385.56l-246.02,98.45-21.72-86.75,196.24-358.69c17.3,113.19,36.41,204.84,52.6,272.62,6.57,27.47,12.92,52.27,18.9,74.37Z"/><path class="cls-2" d="m1371.29,1397.26l-21.73,86.75-246-98.45c5.97-22.1,12.33-46.9,18.89-74.37,16.19-67.79,35.3-159.45,52.6-272.65l196.24,358.72Z"/><path class="cls-2" d="m1170.1,494.07c-29.91-145.09-100.58-247.97-210.11-305.92-109.53,57.95-180.2,160.83-210.11,305.92-23.07,111.91-11.83,208.14-11.72,209.09l.08.73c19.84,270.79,59.25,475.37,88.82,599.32,25.31,106.09,47.91,172.79,56.42,196.47h153.04c8.51-23.68,31.11-90.38,56.41-196.47,29.57-123.95,68.97-328.53,88.82-599.32l.07-.73c.11-.95,11.35-97.18-11.72-209.09Zm-194.83,921.93h-30.56v-431.99h30.56v431.99Zm-15.28-500.71c-41.51,0-75.28-33.77-75.28-75.28s33.77-75.28,75.28-75.28,75.29,33.77,75.29,75.28-33.77,75.28-75.29,75.28Zm0-252.01c-61.36,0-111.28-49.92-111.28-111.26s49.92-111.3,111.28-111.3,111.29,49.93,111.29,111.3-49.92,111.26-111.29,111.26Z"/><path class="cls-2" d="m1040.72,552.02c0,44.49-36.22,80.69-80.73,80.69s-80.71-36.2-80.71-80.69,36.21-80.73,80.71-80.73,80.73,36.21,80.73,80.73Z"/><path class="cls-2" d="m1004.72,840.01c0,24.66-20.07,44.71-44.73,44.71s-44.71-20.05-44.71-44.71,20.06-44.71,44.71-44.71,44.73,20.06,44.73,44.71Z"/><rect class="cls-1" width="1920" height="1920"/></svg>