<?xml version="1.0" encoding="UTF-8"?><svg id="_レイヤー_1" xmlns="http://www.w3.org/2000/svg" viewBox="0 0 1920 1920"><defs><style>.cls-1{fill:none;}.cls-1,.cls-2{stroke-width:0px;}.cls-2{fill:#fff;}</style></defs><path class="cls-2" d="m1758,74.6H162c-48.19,0-87.4,39.21-87.4,87.4v1596c0,48.19,39.21,87.4,87.4,87.4h1596c48.19,0,87.4-39.21,87.4-87.4V162c0-48.19-39.21-87.4-87.4-87.4Zm-620.78,289.07c55.39,0,100.32,44.93,100.32,100.32s-44.93,100.33-100.32,100.33-100.33-44.88-100.33-100.33,44.94-100.32,100.33-100.32Zm-263.26,0c55.39,0,100.33,44.93,100.33,100.33s-44.93,100.32-100.33,100.32-100.33-44.93-100.33-100.32,44.94-100.33,100.33-100.33Zm-375.1,1126.37h-117.87v-280.92l-75.76,131.2-107.78-28.9,146.39-361.41c13.94-34.32,46.76-59.31,86.16-61.4,5.85-.32,11.58-.1,17.21.59l228.85,28.1,19.04-119.96-288,66.49v-84.88l414.55-167.46c24.23-10.24,50.89-15.93,78.88-15.93,14.85,0,29.33,1.62,43.27,4.66,5.96,1.29,9.76,6.97,8.84,12.93l-66.49,419.59c-9.43,60.43-61.77,106.6-124.83,106.6h-225.37l-37.11,350.69Zm910.91-235.6h-816.83v-69.49h816.83v69.49Zm177.76,235.63l-120.75-350.69h-216.95c-63.11,0-115.4-46.22-124.83-106.65l-66.49-419.6c-.91-5.9,2.9-11.64,8.84-12.92,13.95-3,28.42-4.66,43.27-4.66,101.4,0,185.37,74.26,200.65,171.37l26.92,170.04,201.94,24.78c34.43,4.18,62.03,30.3,68.58,63.91l90.25,464.43h-111.43Z"/><rect class="cls-1" width="1920" height="1920"/></svg>