<?xml version="1.0" encoding="UTF-8"?><svg id="_レイヤー_1" xmlns="http://www.w3.org/2000/svg" viewBox="0 0 1920 1920"><defs><style>.cls-1{fill:none;}.cls-1,.cls-2{stroke-width:0px;}.cls-2{fill:#fff;}</style></defs><path class="cls-2" d="m1283.09,85.49h-646.18c100.7-37.33,209.56-57.73,323.09-57.73s222.39,20.4,323.09,57.73Z"/><path class="cls-2" d="m1508.99,737.98v186.63c-5-15.3-10.67-30.43-16.98-45.37-21.66-51.21-50.28-98.54-85.39-141.26h102.37Z"/><path class="cls-2" d="m1833.91,1284.71v-597.54h-194.56v-194.72h-222.96v194.73h-56.83c-51.03-48.98-109.77-87.7-174.8-115.2-43.93-18.59-89.55-31.52-136.35-38.69h243.19V88.69c350.81,133.95,600.64,474,600.64,871.31,0,114.14-20.62,223.55-58.33,324.71Z"/><path class="cls-2" d="m1508.99,1283.39v186.64h-102.38c35.11-42.73,63.74-90.05,85.4-141.27,6.31-14.94,11.98-30.07,16.98-45.37Z"/><path class="cls-2" d="m1783.11,737.97v659.43c-13.28,24.9-27.67,49.14-43.09,72.63h-180.23v-732.05h79.56s143.76-.01,143.76-.01Z"/><path class="cls-2" d="m871.61,533.29c-46.81,7.17-92.43,20.1-136.36,38.69-65.02,27.5-123.77,66.22-174.8,115.19H147.72v729.95c-76.36-135.14-119.96-291.13-119.96-457.12,0-397.3,249.82-737.34,600.62-871.3v444.59h243.23Z"/><path class="cls-2" d="m513.39,1470.03H198.52v-732.06h314.86c-35.11,42.73-63.73,90.05-85.4,141.27-30.11,71.2-45.38,146.82-45.38,224.76s15.27,153.56,45.38,224.76c21.67,51.22,50.3,98.54,85.41,141.27Z"/><path class="cls-2" d="m1704.23,1520.83c-170.31,225.45-440.55,371.41-744.23,371.41s-573.92-145.96-744.23-371.41h344.69c51.02,48.97,109.77,87.68,174.79,115.18,71.2,30.12,146.82,45.39,224.76,45.39s153.55-15.27,224.75-45.39c65.02-27.5,123.76-66.21,174.78-115.18h344.69Z"/><path class="cls-2" d="m960.01,577.39c-290.37,0-526.61,236.24-526.61,526.61s236.24,526.6,526.61,526.6,526.58-236.23,526.58-526.6-236.22-526.61-526.58-526.61Zm328.96,855.58c-42.72,42.71-92.47,76.26-147.87,99.69-57.38,24.27-118.3,36.57-181.1,36.57s-123.72-12.3-181.1-36.57c-55.4-23.43-105.15-56.98-147.86-99.69-42.72-42.72-76.26-92.47-99.7-147.87-24.26-57.38-36.57-118.31-36.57-181.1s12.31-123.72,36.57-181.09c23.44-55.41,56.98-105.16,99.7-147.87,42.71-42.72,92.46-76.26,147.87-99.69,57.37-24.27,118.3-36.57,181.09-36.57s123.72,12.3,181.1,36.57c55.4,23.43,105.15,56.97,147.87,99.69,42.71,42.71,76.25,92.46,99.69,147.87,24.26,57.37,36.57,118.3,36.57,181.09s-12.31,123.72-36.57,181.1c-23.44,55.4-56.98,105.15-99.69,147.87Z"/><rect class="cls-2" x="679.18" y="136.29" width="561.63" height="124.38"/><rect class="cls-2" x="679.18" y="311.47" width="561.63" height="171.02"/><polygon class="cls-2" points="1588.55 543.24 1588.55 687.17 1508.99 687.17 1508.99 687.18 1467.19 687.18 1467.19 543.24 1588.55 543.24"/><path class="cls-2" d="m1374.43,1104c0,228.52-185.91,414.43-414.43,414.43s-414.43-185.91-414.43-414.43,185.92-414.42,414.43-414.42,414.43,185.91,414.43,414.42Z"/><rect class="cls-1" x="0" width="1920" height="1920"/></svg>