<?xml version="1.0" encoding="UTF-8"?><svg id="_レイヤー_1" xmlns="http://www.w3.org/2000/svg" viewBox="0 0 1920 1920"><defs><style>.cls-1{fill:none;}.cls-1,.cls-2{stroke-width:0px;}.cls-2{fill:#fff;}</style></defs><path class="cls-2" d="m1888.97,959.99c0,225.79-80.97,433.03-215.41,594.19l-71.51-1216.8L1008.58,32.3c489.75,25.35,880.39,431.75,880.39,927.69Z"/><path class="cls-2" d="m911.42,32.3L317.97,337.38l-71.52,1216.82C112.01,1393.04,31.03,1185.79,31.03,959.99,31.03,464.05,421.67,57.65,911.42,32.3Z"/><path class="cls-2" d="m1596.42,1636.13c-166.38,156.69-390.38,252.83-636.42,252.83s-470.04-96.14-636.42-252.83h1272.84Z"/><path class="cls-2" d="m1561.32,363.91L960,54.78,358.7,363.91l-72.3,1230.01h1347.21l-72.29-1230.01Zm-889.61,367.15c2.31,0,5,1.16,10.18,3.61,1.11.53,2.63,1.25,3.08,1.41l.2.07c24.06,9.11,47.94,9.11,69.01,9.11,6.64,0,13.12-.69,16.65-1.28l.29-.04,77.06-8.79,85.05-10.23,2.52-162.81-58.95,10.34c-4.65.77-21.89,5.28-34.47,8.57-16.6,4.35-16.74,4.35-17.86,4.35-12,0-29.41-11.53-40.67-21.4-7.74-6.78-25.72-24.34-25.72-40.94,0-7.81,6.67-17.06,12.31-17.06,2.64,0,5.66,1.39,11.92,4.55,1.72.86,4.3,2.17,5.05,2.4l.45.11.37.17c10.09,4.43,24.8,6.97,40.35,6.97,6.31,0,15.07-.34,20.71-1.28l.19-.03,87.71-11.52-1.29-89.01c0-20.37-.72-25.13-2.47-31.61-4.59-14.26-12.19-22.07-18.78-28.15l-56.81,8.4c-1.29.22-4.57,1.03-7.75,1.81-8.98,2.21-15.1,3.66-18.13,3.66-21.51,0-43.79-18.59-52.37-26.58-12.71-11.83-27.54-30.42-27.54-43.87,0-6.92,4.13-11.13,9.98-16.32l2.92-2.59,3.43,1.87c.22.12,21.72,11.84,26.03,14.03,23.77,10.02,57.44,10.31,61.21,10.31,11.36,0,15.46-.53,20.2-1.13l1.41-.18,80.43-10.15,62.79-8.78c40.19-5.83,45.61-7.86,55.44-11.55l.84-.31c26.58-9.55,27.88-9.82,33.71-9.82,7.02,0,19.31,2.97,37.59,9.07,24.17,8.06,26.78,25.28,26.78,32.31,0,13.2-6.26,21.95-18.62,25.99-9.88,3.23-22.7,3.23-36.28,3.23-1.79,0-6.44-.16-11.36-.34-4.44-.16-9.02-.32-10.76-.33-2.73.18-18.97,1.29-22.9,1.35l-59.76,5.36c-8.26,1.28-17.42,2.67-24.68,3.72,10.01,9,17.4,18.5,17.4,33.35,0,6.51-.93,12.28-2.84,17.61-.14.72-.39,1.58-.75,2.85-.15.51-.38,1.33-.49,1.74l-4.03,77.98c0,2.21-.17,7.24-.34,12.56-.06,2-.13,4.03-.18,5.88l17.43-2.49,50.69-4.73c2.98-.27,11.78-2.24,20.29-4.15,14.85-3.32,24.16-5.34,28.23-5.34,12.93,0,26.57,4.62,37.44,12.67,11.52,8.54,18.13,19.75,18.13,30.75,0,14.72-10.82,25.83-25.16,25.83-2.17,0-3.96-.22-8.27-.74-3.46-.43-8.7-1.07-17.33-1.98l-.6-.07-.58-.19c-1.79-.6-3.89-.83-5-.56l-.66.17h-55.88l-59.56,4.96v22.72l-2.03,87.81c0,25.16.14,45.04.36,54.07l49.96-4.26,49.57-2.03c9.13,0,40.5-.77,46.22-1.92l.54-.11h.56c2.8,0,12.48-2.34,19.54-4.06,10.36-2.51,16.89-4.05,20.34-4.05,3,0,23.73,3.47,43.97,11.18,27.89,10.62,42.03,24.2,42.03,40.35,0,8.77-3.84,17-10.53,22.59-6.94,5.79-16.09,8.16-25.1,6.52l-56.54-10.76-40.12-3.35-57.81-2-77.29,2.68-65.22,8.07-108,17.55c-4.33.79-17.23,3.48-28.62,5.86-8.31,1.73-16.16,3.36-20.43,4.22-1.64.42-5.45,1.66-9.47,2.98-13.1,4.27-22.7,7.3-26.91,7.3-11.32,0-31.61-8.76-49.34-21.3-12.43-8.79-33.28-26.33-33.28-45.1,0-6.86,2.98-17.73,10.97-17.73Zm117.77,404.46c0,27.19-21.51,35.98-31.92,35.98-15.29,0-25.53-15.73-29.22-22.49l-23.07-42.76c-3.23-6.45-9.32-13.43-16.38-21.5-2.49-2.86-5.06-5.8-7.76-9-2.97-2.96-10.25-10.42-10.25-20.65,0-6.47,6.74-10.98,16.38-10.98,8.53,0,33.72,8.58,56.99,24.09,20.63,13.75,45.23,36.6,45.23,67.31Zm211.14,223.22l-1.29-2.34c-11.08-21.51-13.65-24.83-33.65-50.65l-1.18-1.54c-.17-.26-.38-.55-.62-.88-1.88-2.66-5.04-7.11-5.04-12.34,0-2.89,1.32-12.31,18.39-12.31,2.85,0,26.25,8.71,46.64,20.99,30.15,18.16,45.44,37.98,45.44,58.91s-17.53,36.66-33.27,36.66-27-21.1-35.42-36.5Zm260.4-130.42c-7.75,4.09-16.81,4.7-21.52,4.7-1.08,0-3.13-.05-5.63-.1-5.03-.12-16.82-.39-18.99,0l-.61.09c-8.44.71-35.72,3.21-47.64,4.69l-.66,186.45c0,5.99-.18,59.1-6.28,81.24l-.04.14c-7.68,25.35-21.76,28.29-31.68,28.29-14.57,0-17.37-3.5-35.57-26.25l-1.33-1.66c-2.9-3.86-14.38-13.37-25.49-22.57-29.86-24.72-39.15-33.49-39.15-40.25,0-4.5,3.71-11.64,13.67-11.64,1.87,0,8.7,1.14,29.68,4.81,10.99,1.92,24.55,4.29,27.55,4.61.45-.18,1.54-.7,3.74-2.1,2.13-5.82,2.41-6.58,2.41-10.55l1.35-82.5-.67-95.08-.29-4.94-52.43,10.84-54.56,12.81c-5.53,1.57-14.96,3.79-23.29,5.75-6.1,1.44-11.88,2.8-15.02,3.65-1.46.49-4.13,1.48-7.21,2.61-17.58,6.5-27.3,9.8-31.58,9.8-19.31,0-48.05-22.2-58.78-42.12l-.55,29.91-.68,145.91c0,3.04.18,11.54.35,19.75.17,7.92.33,15.4.33,18.08,0,22.94,0,57.61-25.83,57.61-19.04,0-32.25-22.19-37.79-41.18l-.07-.27c-3.56-14.95-3.52-23.18-2.86-49.42l.02-.34,6.74-77.55,1.1-70.73-30.55,38.17c-2.42,2.77-8.57,9.25-15.08,16.11-6.08,6.41-12.37,13.03-14.48,15.46-17.83,24.69-21.09,29.15-34.11,29.15-17.26,0-34.85-18.79-48.24-35.16-10.76-13.44-14.1-18.93-14.1-27.18,0-10.1,6.79-16.37,17.72-16.37,1.7,0,5.14.44,10.61,1.17,2.62.35,6.21.82,7.01.85,17.35,0,25.08-6.45,53.83-30.46l4.08-3.4,38.98-32.93c2.99-3.03,16.48-17.83,18.26-20.21l.3-.35c4.56-5.13,6.02-7.19,6.02-8.47v-42.6l2.04-146.74c0-20.87-5.37-38.07-15.53-49.66l-.21-.26-2.42-3.1c-8.9-11.42-11.59-14.87-11.59-19.23,0-9.16,8.41-18.4,27.19-18.4,17.11,0,24.64,5.6,44.78,20.54l1.28.96c1.1.88,2.16,1.71,3.17,2.52,11.97,9.47,19.87,15.73,19.87,30.21,0,3.13-.88,10.27-1.82,17.84-.73,5.93-1.56,12.65-1.56,14.59l-.04.69c-.82,6.53-1.31,13.35-1.31,18.25v.18l-2.03,64.21-2.34,125.94c2.31-2.38,5.37-3.93,8.95-3.93,2.76,0,7.76,1.41,15.67,3.73,2.65.78,5.4,1.58,6.38,1.78l.25.06c5.08,1.27,11.52,1.86,20.28,1.86,17.05,0,17.71,0,103.71-16.8,51.79-9.58,60.2-11.35,84.51-17.12-1.23-24.9-2.01-26.93-4.82-34.21-.31-.78-1.76-3.43-3.05-5.76-5.07-9.21-7.46-13.92-7.46-17.21,0-1.31.21-2.63.65-3.91-11.11-.33-20.66-7.14-27.67-19.75l-.15-.29-16.89-35.14c-3.64-7.8-12.98-27.81-29.25-45.57-48.66,12.16-67.45,16.85-79.49,19.47,22.34,14.01,39.49,28.8,51.09,44.07,11.63,15.31,17.52,30.74,17.52,45.86,0,19.66-13.1,40.71-32.6,40.71-14.42,0-23-10.35-26.23-20.03l-.03-.1-13.55-43.39c-3.79-13.26-15.42-37.45-25.33-50.06-4.84-5.71-7.15-8.66-8.43-11.26-10.39.3-17.75-1.71-22.43-6.03-2.22-2.05-4.86-5.66-4.86-11.23,0-4.69,2.07-7.8,6.73-10.1,3.4-1.67,8.78-3.29,18.56-6.23l1.64-.5c35.19-10.67,77.59-27.05,115.01-41.51l7.42-2.87,52.49-24.9c7.28-3.65,15.5-7.76,16.37-9.25.1-.3.1-1.57.1-1.98-.03-1.03-.87-5.14-1.38-7.6-.96-4.68-1.32-6.57-1.32-7.95,0-2.73,0-7.3,1.95-11.52,2.63-5.74,8-8.9,15.1-8.9,16.43,0,79.91,26.83,79.91,51.52,0,16.6-13.06,21.63-24.59,26.06l-2.11.81-100.83,35.45c.35.22.69.44,1.02.66,25.14,16.2,29.7,19.15,38.58,29.3,16.65,18.25,24.4,34.67,24.4,51.69,0,7.69-2.21,13.97-5.77,18.8,8.93.34,17.88,4.56,24.97,9.04-.38-1.64-.58-3.49-.58-5.53,0-4.61,2.97-12.93,24.52-42.35.58-.79,1.01-1.38,1.26-1.73,3.39-6.68,16.02-29.38,21.48-39.18l1.43-2.57c3.54-6.5,4.03-9.7,4.03-12.18,0-.7,0-.83-2.98-6.35-.68-1.26-1.49-2.76-2.44-4.55l-.22-.41-.15-.44c-.77-2.31-1.64-4.93-1.64-7.86,0-12.78,8.64-20.41,23.13-20.41,12.83,0,28.54,14.44,34.7,20.65,4.74,4.78,20.2,21.31,20.2,33.57,0,11.27-2.47,13.62-26.1,36.06l-4.69,4.47c-21.06,19.74-24.7,22.63-48.36,41.42l-2.71,2.16c-16.11,12.75-19.46,15.4-26.44,15.4-.39,0-.76,0-1.14-.02,9.08,8.25,18.19,19.57,18.19,28.25,0,1.01-.11,3.92-.3,8.58-.04.91-.08,1.88-.12,2.85,24.96-6.81,53.9-10.23,55.02-10.23,13.01,0,52.2,14.81,52.2,36.66,0,10.4-4.77,18.41-13.78,23.17Z"/><rect class="cls-1" x="0" width="1920" height="1920"/></svg>