<?xml version="1.0" encoding="UTF-8"?><svg id="_レイヤー_1" xmlns="http://www.w3.org/2000/svg" viewBox="0 0 1920 1920"><defs><style>.cls-1{fill:none;}.cls-1,.cls-2{stroke-width:0px;}.cls-2{fill:#fff;}</style></defs><path class="cls-2" d="m1714.27,1506.88c-169.57,233.24-444.54,385.15-754.31,385.15s-584.69-151.91-754.25-385.15h1508.56Z"/><path class="cls-2" d="m1892.03,959.92c0,179.84-51.19,347.95-139.77,490.51h-771.14v-538.46c5.69,12.2,13.69,21.86,23.99,28.87,13.98,9.53,30.94,13.48,50.57,13.48,40.07,0,91.27-16.47,150.87-35.64,114.43-36.81,256.84-82.63,391.53-39.32l50.27,16.17-25.19-46.41c-.71-1.32-17.93-32.71-53.96-68.57-33.14-32.99-89.43-76.48-169.36-96.34-60.25-14.96-125.73-14.64-194.62.96-77.13,17.46-159.58,54.4-245.26,109.87-85.66-55.46-168.09-92.4-245.2-109.87-68.88-15.6-134.35-15.93-194.61-.97-79.94,19.85-136.25,63.35-169.4,96.34-36.05,35.87-53.28,67.26-54,68.57l-25.2,46.42,50.28-16.17c134.69-43.31,277.1,2.5,391.54,39.31,88.81,28.57,158.96,51.14,201.49,22.17,10.26-6.99,18.25-16.59,23.93-28.74v538.33H167.73c-88.57-142.56-139.76-310.67-139.76-490.51C27.97,446.04,446.06,27.97,959.96,27.97s932.07,418.07,932.07,931.95Z"/><path class="cls-2" d="m924.07,822.35c-1.37,1.49-2.69,3.06-3.94,4.72-8.58,11.43-13.43,26.18-13.73,41.69-2.35,28.22-12.1,34.87-15.38,37.1-25.42,17.31-93.07-4.45-164.69-27.49-58.6-18.84-125.01-40.21-195.71-51.33-31.95-5.03-62.32-7.55-91.34-7.55-25.13,0-49.26,1.89-72.52,5.68,4.54-5.09,9.57-10.42,15.09-15.85,42.66-42.02,92.86-70.35,149.21-84.21,113.67-27.94,245.77,4.77,393.01,97.24Z"/><path class="cls-2" d="m1553.17,825.17c-50.13-8.17-104.25-7.52-163.88,1.87-70.7,11.12-137.11,32.49-195.71,51.34-71.6,23.03-139.23,44.79-164.63,27.48-3.34-2.27-13.42-9.14-15.48-38.86-.62-14.87-5.41-28.94-13.64-39.92-1.26-1.67-2.58-3.25-3.96-4.74,147.27-92.47,279.39-125.18,393.06-97.22,56.33,13.86,106.52,42.19,149.16,84.2,5.51,5.44,10.54,10.76,15.08,15.85Z"/><rect class="cls-1" x="0" width="1920" height="1920"/></svg>