<?xml version="1.0" encoding="UTF-8"?><svg id="_レイヤー_1" xmlns="http://www.w3.org/2000/svg" viewBox="0 0 1920 1920"><defs><style>.cls-1{fill:none;}.cls-1,.cls-2{stroke-width:0px;}.cls-2{fill:#fff;}</style></defs><path class="cls-2" d="m960,27.76C445.96,27.76,27.76,445.96,27.76,960s418.2,932.24,932.24,932.24,932.24-418.2,932.24-932.24S1474.04,27.76,960,27.76Zm654.66,1493.78l-42.33-24.44-401.16-231.62-378.77,218.67v.04l-22.38,12.91-19.82,11.42-22.51-13.01-19.69-11.36-360.32-208.01-42.33-24.44V374.19l42.33,24.44,402.52,232.38.06.04,381.44-220.21,18.25-10.56,21.28-12.22,21.12,12.22,18.25,10.41,12.52,7.24c18.86-70.3,82.97-122.05,159.15-122.05,91.12,0,165.04,73.92,165.04,164.89,0,28.96-7.54,56.12-20.67,79.8l-19.16,41.64,64.85,37.4v-.02l42.33,24.44v877.51Z"/><path class="cls-2" d="m1478.07,460.77c0,33.34-16.9,62.6-42.7,79.8-15.08,10.11-33.33,15.99-53.1,15.99-1.35,0-2.86,0-4.22-.15-32.13-1.36-60.19-18.55-76.33-44.2-9.66-14.78-15.09-32.58-15.09-51.44,0-1.96,0-4.07.3-6.03,3.02-50.09,44.5-89.76,95.34-89.76s95.8,42.99,95.8,95.79Z"/><path class="cls-2" d="m1572.33,917.35v-248.86l-82.5-47.66-107.56,234.28-144.37-314.54c-12.52-22.93-20.06-49.03-20.36-76.93l-25.19-14.49v779.69l18.24,10.51,361.74,208.84v-485.57c-32.94-12.9-61.86-22.2-88.13-28.22l9.45-41.26c24.06,5.51,50.06,13.58,78.68,24.21Zm-149.48,8.81l-5.58-.15c-53.55,0-92.02,19.46-140.75,43.9-15.23,7.69-31.22,15.84-48.87,23.83l-17.65-38.46c17.19-7.85,32.73-15.69,47.52-23.09,53.25-27,99.26-49.93,166.39-48.42l-1.06,42.39Z"/><path class="cls-2" d="m983.56,1121.07l18.56,38.01c58.98-28.81,107.71-63.81,147.83-106.05v175.82l-18.22,10.53h-.03l-361.68,208.81v-210.04c14.17-4.84,32.16-9.87,52.28-15.41,33.33-9.2,74.67-20.66,117.81-36.96l-15.08-39.67c-41.19,15.69-79.95,26.4-114.05,35.75-14.91,4.17-28.59,8.03-40.96,11.85v-525.24l22.38-12.92h0s.03-.03.03-.03l357.52-206.37v546.4l-3.77-2.86c-41.03,52.8-94.28,94.89-162.62,128.38Z"/><path class="cls-2" d="m727.69,1198.77v-531.9l-10.64-6.13-9.1-5.22v-.03l-360.27-207.99v533.93c30.35,17.54,58.19,34.72,85.09,52.48l-23.33,35.33c-19.83-13.1-40.19-25.87-61.76-38.73v196.72l380.01,219.41v-204.99c-2.83-.46-5.68-.92-8.43-1.41l7.39-41.63c.33.05.71.11,1.04.16Zm-74.96,25.48c-58.38-18.86-94.13-46.01-143.46-83.42-14.03-10.56-29.27-22.18-46.61-34.7l24.89-34.39c17.5,12.82,33.03,24.59,47.21,35.3,47.83,36.35,79.36,60.19,131.1,76.93l-13.13,40.28Z"/><rect class="cls-1" x="0" width="1920" height="1920"/></svg>