<?xml version="1.0" encoding="UTF-8"?><svg id="_レイヤー_1" xmlns="http://www.w3.org/2000/svg" viewBox="0 0 1920 1920"><defs><style>.cls-1{fill:none;}.cls-1,.cls-2{stroke-width:0px;}.cls-2{fill:#fff;}</style></defs><path class="cls-2" d="m1892.24,960.01c0,170.58-46.05,330.6-126.37,468.29h-74.17v-719.99h-479.99v-432.05h-503.42v432.05H228.29v719.99h-74.16c-80.32-137.69-126.37-297.71-126.37-468.29C27.76,445.96,445.96,27.76,959.99,27.76s932.25,418.2,932.25,932.25Z"/><path class="cls-2" d="m1188.29,731.72v-432.05h-456.58v432.05H251.7v696.58h1416.58v-696.58h-479.99Zm-240.01-347.74h23.42v136.74l185.52,92.8-10.48,20.94-198.46-99.26v-151.22Zm214.4,610.09v161.28l-135.43,48.95,158.75,62.29-15.5,45.98-197.38-76.78v91.44h-26.19v-91.44l-197.38,76.78-15.55-45.98,158.76-62.29-110.87-40.07-24.68-8.88v-161.28l122.98-43.98-205.95-61.19,10.92-49.72,261.77,80.31v-134.77h26.19v134.77l261.71-80.31,10.91,49.72-205.98,61.19,122.92,43.98Z"/><path class="cls-2" d="m1751.73,1451.72c-164.73,264.28-458.04,440.52-791.74,440.52s-627-176.24-791.73-440.52h1583.47Z"/><polygon class="cls-2" points="1129.11 1019.92 1129.11 1057.13 973.12 1057.13 973.12 972.08 1129.11 1019.92"/><polygon class="cls-2" points="1129.11 1093.79 1129.11 1136.78 973.12 1179.94 973.12 1093.79 1129.11 1093.79"/><polygon class="cls-2" points="946.93 1093.79 946.93 1179.94 790.89 1136.78 790.89 1093.79 946.93 1093.79"/><polygon class="cls-2" points="946.93 972.08 946.93 1057.13 790.89 1057.13 790.89 1019.92 946.93 972.08"/><rect class="cls-1" x="0" width="1920" height="1920"/></svg>