<?xml version="1.0" encoding="UTF-8"?><svg id="_レイヤー_1" xmlns="http://www.w3.org/2000/svg" viewBox="0 0 1920 1920"><defs><style>.cls-1{fill:none;}.cls-1,.cls-2{stroke-width:0px;}.cls-2{fill:#fff;}</style></defs><path class="cls-2" d="m1658.53,1576.71c-170.94,193.39-420.74,315.52-698.53,315.52s-527.59-122.13-698.53-315.52h1397.06Z"/><path class="cls-2" d="m960,27.77C445.97,27.77,27.77,445.96,27.77,960c0,212.62,71.55,408.85,191.84,565.87l157.03-294.78h1166.73l157.02,294.78c120.29-157.02,191.84-353.25,191.84-565.87,0-514.04-418.2-932.23-932.23-932.23Zm592.01,1149.98H367.99V381.32h1184.02v796.43Z"/><polygon class="cls-2" points="1612.06 1412.42 1472.76 1412.42 1447.36 1348.82 1572.96 1348.82 1572.96 1339.01 1612.06 1412.42"/><polygon class="cls-2" points="1565.07 1324.2 1437.52 1324.2 1410.17 1255.71 1528.59 1255.71 1565.07 1324.2"/><polygon class="cls-2" points="1411.01 1324.2 1282.26 1324.2 1264.02 1255.71 1383.66 1255.71 1411.01 1324.2"/><polygon class="cls-2" points="1446.24 1412.42 1305.76 1412.42 1288.82 1348.82 1420.84 1348.82 1446.24 1412.42"/><path class="cls-2" d="m1683.73,1546.97c-1.39,1.72-2.79,3.42-4.19,5.12h-520.98l-15.32-115.05h481.94l58.55,109.93Z"/><polygon class="cls-2" points="1280.27 1412.42 1139.96 1412.42 1131.5 1348.82 1263.34 1348.82 1280.27 1412.42"/><polygon class="cls-2" points="1256.78 1324.2 1128.22 1324.2 1119.1 1255.71 1238.54 1255.71 1256.78 1324.2"/><polygon class="cls-2" points="1102.34 1324.2 972.31 1324.2 972.31 1255.71 1093.22 1255.71 1102.34 1324.2"/><polygon class="cls-2" points="1114.09 1412.42 972.31 1412.42 972.31 1348.82 1105.62 1348.82 1114.09 1412.42"/><polygon class="cls-2" points="947.69 1255.71 947.69 1324.2 817.67 1324.2 826.79 1255.71 947.69 1255.71"/><polygon class="cls-2" points="947.69 1348.82 947.69 1412.42 805.92 1412.42 814.39 1348.82 947.69 1348.82"/><polygon class="cls-2" points="1124.56 1483.28 795.45 1483.28 801.6 1437.04 1118.41 1437.04 1124.56 1483.28"/><polygon class="cls-2" points="1133.72 1552.09 786.29 1552.09 792.17 1507.91 1127.84 1507.91 1133.72 1552.09"/><polygon class="cls-2" points="800.91 1255.71 791.79 1324.2 663.23 1324.2 681.47 1255.71 800.91 1255.71"/><polygon class="cls-2" points="788.51 1348.82 780.05 1412.42 639.74 1412.42 656.67 1348.82 788.51 1348.82"/><polygon class="cls-2" points="655.99 1255.71 637.75 1324.2 508.99 1324.2 536.35 1255.71 655.99 1255.71"/><polygon class="cls-2" points="631.19 1348.82 614.25 1412.42 473.75 1412.42 499.15 1348.82 631.19 1348.82"/><path class="cls-2" d="m776.77,1437.04l-15.32,115.05H240.46c-1.4-1.7-2.8-3.4-4.19-5.12l58.56-109.93h481.94Z"/><polygon class="cls-2" points="509.84 1255.71 482.48 1324.2 354.94 1324.2 391.42 1255.71 509.84 1255.71"/><polygon class="cls-2" points="472.65 1348.82 447.24 1412.42 307.94 1412.42 347.05 1339 347.05 1348.82 472.65 1348.82"/><rect class="cls-2" x="392.62" y="405.94" width="1134.77" height="747.19"/><rect class="cls-1" x="0" width="1920" height="1920"/></svg>