<?xml version="1.0" encoding="UTF-8"?><svg id="_レイヤー_1" xmlns="http://www.w3.org/2000/svg" viewBox="0 0 1920 1920"><defs><style>.cls-1{fill:none;}.cls-1,.cls-2{stroke-width:0px;}.cls-2{fill:#fff;}</style></defs><path class="cls-2" d="m959.99,27.76C445.96,27.76,27.76,445.96,27.76,960s418.2,932.24,932.23,932.24,932.25-418.2,932.25-932.24S1474.03,27.76,959.99,27.76Zm405.09,1682.94h-.01l-2.96,11.48h-804.26l-111.72-434.01-75.85-294.63-240.49,168.48-21.21-21.42,231.06-323.29,164.53,58.3,78.07,127.13L959.99,210.54l377.75,792.18,307.72-500.98,27.84,11.82-308.22,1197.14Z"/><polygon class="cls-2" points="1618.35 604.32 1453.35 1245.18 1353.43 1035.63 1618.35 604.32"/><polygon class="cls-2" points="362.13 961.9 185.4 1085.72 338.76 871.13 362.13 961.9"/><polygon class="cls-2" points="566.55 1035.64 466.64 1245.15 367.37 859.59 483.76 900.83 566.55 1035.64"/><polygon class="cls-2" points="1438.75 1285.63 975.29 1674.11 975.29 313.69 1438.75 1285.63"/><polygon class="cls-2" points="1430.97 1332.07 1384.81 1511.33 1047.68 1653.36 1430.97 1332.07"/><polygon class="cls-2" points="1375.22 1548.57 1338.4 1691.59 1035.72 1691.59 1375.22 1548.57"/><polygon class="cls-2" points="884.26 1691.59 581.58 1691.59 544.76 1548.56 884.26 1691.59"/><polygon class="cls-2" points="872.34 1653.37 535.17 1511.33 489.02 1332.07 872.34 1653.37"/><polygon class="cls-2" points="944.7 313.67 944.7 1674.11 481.23 1285.63 944.7 313.67"/><rect class="cls-1" x="0" width="1920" height="1920"/></svg>