<?xml version="1.0" encoding="UTF-8"?><svg id="_レイヤー_1" xmlns="http://www.w3.org/2000/svg" viewBox="0 0 1920 1920"><defs><style>.cls-1{fill:none;}.cls-1,.cls-2{stroke-width:0px;}.cls-2{fill:#fff;}</style></defs><path class="cls-2" d="m1486.55,1728.94c-149.92,102.98-331.33,163.3-526.55,163.3s-376.63-60.32-526.55-163.3h1053.1Z"/><path class="cls-2" d="m985.4,1574.36v-110.47h-50.8v110.47c-16.16-31.31-37.12-67.47-64.09-107.15,21.04-23.29,54.26-71.53,66.6-152.95h45.78c12.34,81.42,45.56,129.66,66.6,152.95-26.97,39.68-47.93,75.84-64.09,107.15Z"/><path class="cls-2" d="m1006.86,203.17h-93.22c8.72-20.29,17.31-36.44,25.65-48.21,10.79-15.23,18.61-19.29,21.55-19.29h.02c3.49.03,10.95,4.87,20.5,18.43,8.34,11.86,16.88,28.29,25.5,49.07Z"/><path class="cls-2" d="m1892.25,960.02c0,288.6-131.83,547-338.44,718.12h-558.98c14.3-38.88,45.96-111.01,108.59-199.55l15.11-20.53-20.76-14.58c-1.27-1-14.82-11.99-29.39-35.48-11.79-19.02-26.28-49.72-34.01-93.74h29.28l4.65-19.5c42.48-177.81,64.02-358.16,64.02-536.03s-21.54-358.23-64.02-536.06l-4.65-19.5h-2.2c-12.64-33.78-25.31-59.5-38.55-78.31-18.57-26.39-39.34-39.84-61.72-39.99h-.35c-22.66,0-43.85,13.7-62.99,40.72-13.29,18.74-26.13,44.23-39.06,77.58h-2.43l-4.66,19.5c-42.47,177.83-64,358.19-64,536.06s21.53,358.22,64,536.03l4.66,19.5h29.28c-7.73,44.02-22.22,74.72-34.01,93.74-14.56,23.49-28.11,34.48-29.39,35.48l-20.36,14.3,14.72,20.81c62.64,88.56,94.28,160.69,108.57,199.55H366.19C159.58,1507.02,27.75,1248.62,27.75,960.02,27.75,445.97,445.96,27.76,960,27.76s932.25,418.21,932.25,932.26Z"/><path class="cls-2" d="m1081.07,733.33h-242.12c1.83-160.14,21.02-320.24,57.59-479.36h126.92c36.57,159.12,55.78,319.22,57.61,479.36Z"/><path class="cls-2" d="m1081.07,784.13c-1.83,160.14-21.04,320.22-57.61,479.33h-126.92c-36.57-159.11-55.76-319.19-57.59-479.33h242.12Z"/><rect class="cls-1" x="0" width="1920" height="1920"/></svg>