<?xml version="1.0" encoding="UTF-8"?><svg id="_レイヤー_1" xmlns="http://www.w3.org/2000/svg" viewBox="0 0 1920 1920"><defs><style>.cls-1{fill:none;}.cls-1,.cls-2{stroke-width:0px;}.cls-2{fill:#fff;}</style></defs><path class="cls-2" d="m960,27.76C445.96,27.76,27.76,445.96,27.76,960s418.2,932.24,932.24,932.24,932.24-418.2,932.24-932.24S1474.04,27.76,960,27.76Zm-.02,196.94c112.62,0,203.93,91.29,203.93,203.91s-91.31,203.91-203.93,203.91-203.91-91.29-203.91-203.91,91.31-203.91,203.91-203.91Zm613.61,865.62l-49.65,403.16-3.73,3.72c-1.56,1.56-39.23,38.75-127.24,85.16-51.19,26.99-109.11,51.64-172.14,73.26-78.57,26.96-165.4,49.27-258.08,66.32l-2.77.51-2.77-.51c-92.68-17.05-179.51-39.36-258.08-66.32-63.03-21.62-120.95-46.27-172.15-73.26-88.01-46.41-125.68-83.6-127.24-85.16l-3.73-3.72-49.64-403.16c-76.34,1.58-108.52-231.24-30.4-242.58.17-.03.35-.05.52-.07l-37.83-307.24,31.42,31.42c.42.42,44.64,43.8,146.7,97.38,45.79,24.03,108.06,52.56,188.34,80.76,16.61-52.19,88.84-91.77,174.75-91.77h280.24c85.89,0,158.12,39.57,174.74,91.76,80.27-28.19,142.54-56.72,188.33-80.75,102.07-53.58,146.29-96.96,146.72-97.39l31.36-31.16-5.38,43.86-32.4,263.12c.18.03.37.05.55.08,78.13,11.34,45.93,244.22-30.44,242.58Z"/><path class="cls-2" d="m1572.85,846.03l27.92-226.7c-24.33,18.58-63.9,45.63-121.53,76.02-61.42,32.38-130.92,61.96-206.57,87.91-90.8,31.14-190.8,57.13-297.4,77.29v827.91c195.13-37.7,325.74-92.4,401.65-132.22,69.59-36.5,106.77-67.29,117.99-77.28l48.6-394.67c-32.17-9.71-59.11-28.22-77.27-51.53l-15.1-.98,1.36-20.86c-9.59-19.51-13.55-41.09-10.37-63.02,2.35-16.22,8.4-31.15,17.36-44.29l9.87-151.57,30.52,1.99-7.64,117.33c22.34-15.09,50.35-24.23,80.61-25.33Zm-205.95-49.12l30.57,1-9.05,279.11-30.57-1,9.05-279.11Zm-110.91,42.97h30.59v273h-30.59v-273Zm-107.39,29.84h30.59v254.81h-30.59v-254.81Zm-66.63,28.29l4.52,251.51-30.58.55-4.52-251.51,30.58-.55Zm2.27,367.65l-1.13,225.43-30.59-.15,1.13-225.44,30.59.16Zm376.75,204.72c-128.68,84.77-292.81,133.5-421.46,154.26l.81-80.33c137.61-22.4,296.11-74.28,426.06-148.81l-5.41,74.88Zm-296.97,0v-210.76h30.59v210.76h-30.59Zm99.14-34.93v-203.89h30.59v203.89h-30.59Zm93.68-48.88l4.52-175.17,30.57.79-4.52,175.17-30.57-.79Zm113.24-28.31l-30.5-2.29,14.51-193.21,30.5,2.29-14.51,193.21Zm13.06-294.7l16.25,25.92c-59.55,37.35-123.79,67.48-190.92,89.54-79.55,26.13-161.16,40.09-242.57,41.49l-.52-30.59c183.8-3.14,328.63-70.45,417.76-126.36Z"/><path class="cls-2" d="m647.29,783.26c-75.65-25.95-145.15-55.53-206.57-87.91-57.63-30.39-97.19-57.44-121.53-76.02l27.91,226.7c14.99.54,29.42,3.05,42.89,7.28l-12.85-116.62,25.56,13.62c126.93,67.62,234.06,98.66,347.49,131.52,11.73,3.4,23.47,6.8,35.24,10.25l10.99,3.22v235.42l-17.63-2.72c-112.38-17.35-202.53-47.71-316.22-108.05-17.6,29.31-48.25,52.92-86.13,64.36l48.6,394.65c11.2,9.97,48.37,40.76,118,77.28,75.9,39.82,206.52,94.52,401.65,132.22v-827.91c-106.6-20.16-206.6-46.15-297.4-77.29Zm122.79,361.33l2.25,181.61-30.59.38-2.24-181.61,30.58-.38Zm-85.75-22.07l4.5,164.55-30.58.84-4.5-164.55,30.58-.84Zm-84.11-32.77l6.76,173.71-30.57,1.19-6.75-173.71,30.56-1.19Zm-91.25-33.04l14.79,173.55-30.48,2.59-14.78-173.55,30.47-2.59Zm392.12,571.99l-17.27-2.25c-195.87-25.51-296.57-87.76-403.18-153.66l-16.05-9.91-25.9-226.99,23.79,9.54c15.41,6.18,30.76,12.45,45.61,18.51,117.8,48.08,229.07,93.5,378.35,99.75l14.65.61v264.4Zm-85.64-392.42l30.55-1.4,4.51,98.05-30.56,1.4-4.5-98.05Zm100.26-32.83c-27.14,4.62-54.73.15-82.74-13.87l1.89-296.47c27.46,12.82,54.38,17.24,80.85,14.74v295.6Z"/><path class="cls-2" d="m870.5,1393.51v200.22c-178.11-26.01-273.25-84.82-373.78-146.96l-3.42-2.11-18.4-161.22c7.29,2.96,14.52,5.91,21.63,8.82,116.51,47.55,226.77,92.56,373.97,101.25Z"/><path class="cls-2" d="m765.83,918.22v176.69c-102.5-17.44-184.8-46.33-290.99-103.03,4.04-14.12,5.21-28.97,3.03-43.98-4.9-33.75-25.78-61.89-55.51-80l-8.52-77.35c119.23,60.22,225.17,90.91,327.84,120.66,8.04,2.33,16.09,4.67,24.15,7.01Z"/><rect class="cls-1" x="0" width="1920" height="1920"/></svg>