<?xml version="1.0" encoding="UTF-8"?><svg id="_レイヤー_1" xmlns="http://www.w3.org/2000/svg" viewBox="0 0 1920 1920"><defs><style>.cls-1{fill:none;}.cls-1,.cls-2{stroke-width:0px;}.cls-2{fill:#fff;}</style></defs><path class="cls-2" d="m960.01,27.76C445.96,27.76,27.76,445.96,27.76,959.99s418.2,932.25,932.25,932.25,932.23-418.2,932.23-932.25S1474.04,27.76,960.01,27.76Zm477.32,1542.86H482.67v-918.65h115.4c6.11-194.36,166.12-350.59,361.94-350.59s355.83,156.23,361.94,350.59h115.38v918.65Z"/><path class="cls-2" d="m1246.98,651.97h-573.96c6.07-153.04,132.48-275.67,286.99-275.67s280.9,122.63,286.97,275.67Z"/><path class="cls-2" d="m833.49,1322.02l85.31-260.31c-43.16-16.59-73.87-58.33-73.87-107.34,0-63.57,51.53-115.06,115.06-115.06s115.1,51.49,115.1,115.06c0,49.01-30.71,90.75-73.89,107.34l85.31,260.31h-253.02Z"/><rect class="cls-1" x="0" width="1920" height="1920"/></svg>