<?xml version="1.0" encoding="UTF-8"?><svg id="_レイヤー_1" xmlns="http://www.w3.org/2000/svg" viewBox="0 0 1920 1920"><defs><style>.cls-1{fill:none;}.cls-1,.cls-2{stroke-width:0px;}.cls-2{fill:#fff;}</style></defs><path class="cls-2" d="m959.99,27.05C445.56,27.05,27.04,445.57,27.04,960.01s418.52,932.94,932.95,932.94,932.97-418.51,932.97-932.94S1474.43,27.05,959.99,27.05Zm524.44,772.72v417.21l-350.41,126.84,410.65,161-40.07,119.01-510.71-198.65v236.64h-67.73v-236.64l-510.76,198.65-40.14-119.01,410.77-161-286.79-103.8-63.95-23.04v-417.21l318.11-113.72-532.75-158.47,28.27-128.6,677.24,207.81v-348.6h67.73v348.6l677.19-207.81,28.27,128.6-532.98,158.47,318.06,113.72Z"/><polygon class="cls-2" points="1397.56 1057.79 1397.56 1169.03 993.89 1280.58 993.89 1057.79 1397.56 1057.79"/><polygon class="cls-2" points="1397.56 866.63 1397.56 962.87 993.89 962.87 993.89 742.88 1397.56 866.63"/><polygon class="cls-2" points="926.16 742.88 926.16 962.87 522.5 962.87 522.5 866.63 926.16 742.88"/><polygon class="cls-2" points="926.16 1057.79 926.16 1280.58 522.5 1169.03 522.5 1057.79 926.16 1057.79"/><rect class="cls-1" x="0" width="1920" height="1920"/></svg>