<?xml version="1.0" encoding="UTF-8"?><svg id="_レイヤー_1" xmlns="http://www.w3.org/2000/svg" viewBox="0 0 1920 1920"><defs><style>.cls-1{fill:none;}.cls-1,.cls-2{stroke-width:0px;}.cls-2{fill:#fff;}</style></defs><path class="cls-2" d="m1470.51,1739.71c-146.74,96.4-322.19,152.53-510.51,152.53s-363.77-56.13-510.51-152.53h1021.02Z"/><path class="cls-2" d="m1892.24,960c0,310.96-153.03,586.84-387.75,756.29h-540.35l4.05-3.9c3.19-3.08,78.71-76.33,125.97-171.19,62.47-125.4,45-228.74-50.45-299.26V84.31h-167.41v1157.6c-95.49,70.52-112.97,173.87-50.49,299.29,47.27,94.86,122.95,168.12,126.15,171.2l4.05,3.89H415.51C180.79,1546.84,27.76,1270.96,27.76,960,27.76,445.96,445.96,27.76,960,27.76s932.24,418.2,932.24,932.24Z"/><path class="cls-2" d="m1079.19,1518.24c-7.51-4.77-18.1-10.41-30.8-14.19-24-7.15-60.16-8.93-96.11,23.18-48.71,43.38-97.03,9-106.57,1.36-56.58-115.04-41.14-205.47,45.91-268.88h136.73c84.41,61.49,101.49,148.41,50.84,258.53Z"/><rect class="cls-2" x="899.71" y="107.73" width="120.59" height="120.57"/><rect class="cls-2" x="899.71" y="251.72" width="120.59" height="984.57"/><rect class="cls-1" width="1920" height="1920"/></svg>