<?xml version="1.0" encoding="UTF-8"?><svg id="_レイヤー_1" xmlns="http://www.w3.org/2000/svg" viewBox="0 0 1920 1920"><defs><style>.cls-1{fill:none;}.cls-1,.cls-2{stroke-width:0px;}.cls-2{fill:#fff;}</style></defs><path class="cls-2" d="m1892.24,960c0,173.34-47.55,335.78-130.3,474.96-52.6-34.94-159.79-113.3-265.81-233.83-135.92-154.53-296.86-411.61-291.75-758.78l.38-25.77h-489.52l.38,25.77c5.1,346.45-155.21,603.14-290.59,757.47-77.09,87.88-154.58,152.8-206,191.79-24.2,18.34-45.06,32.84-60.96,43.37-82.75-139.19-130.31-301.63-130.31-474.98C27.76,445.96,445.96,27.76,960,27.76s932.24,418.2,932.24,932.24Z"/><path class="cls-2" d="m1214.86,824.88l-36.16-37.39-109.35,113.08-109.34-113.08-109.36,113.08-109.33-113.08-36.17,37.4c39.84-114.84,60.43-234.66,61.36-357.51h386.98c.93,122.84,21.51,242.66,61.37,357.5Z"/><path class="cls-2" d="m1734.77,1477.94c-167.43,249.66-452.24,414.3-774.77,414.3s-607.33-164.64-774.77-414.29c16.47-10.9,38-25.83,63.13-44.83,53.3-40.31,133.63-107.45,213.66-198.44,77.33-87.92,140.88-182.29,189.4-281.15l89.89-92.96,109.34,113.08,109.36-113.08,109.34,113.08,109.35-113.08,89.88,92.96c48.53,98.86,112.08,193.23,189.41,281.15,80.03,90.99,160.36,158.13,213.67,198.44,25.11,18.99,46.64,33.92,63.11,44.82Z"/><rect class="cls-1" x="0" width="1920" height="1920"/></svg>