<?xml version="1.0" encoding="UTF-8"?><svg id="_レイヤー_1" xmlns="http://www.w3.org/2000/svg" viewBox="0 0 1920 1920"><defs><style>.cls-1{fill:none;}.cls-1,.cls-2{stroke-width:0px;}.cls-2{fill:#fff;}</style></defs><path class="cls-2" d="m1595.22,1641.73c-166.6,155.34-390.01,250.51-635.22,250.51s-468.62-95.17-635.22-250.51h1270.44Z"/><path class="cls-2" d="m1189.54,961.81v-487.33c-13.69,6.84-32.65,14.67-55.45,20-15.22,3.55-33.23,6.17-53.2,6.17-37.88,0-82.82-9.43-129.26-39.89-49.68-32.57-103.1-42.49-158.77-29.5-29.88,6.97-52.11,18.82-62.39,25.02v505.53l-430.63,649.34h1320.3l-430.6-649.34Zm-229.54,531.57c-18.86,0-34.21-15.35-34.21-34.21s15.35-34.21,34.21-34.21,34.22,15.35,34.22,34.21-15.35,34.21-34.22,34.21Zm.02-220.46c-34.92,0-63.34-28.42-63.34-63.34s28.42-63.33,63.34-63.33,63.3,28.41,63.3,63.33-28.4,63.34-63.3,63.34Zm-.02-273.61c-48.16,0-87.34-39.18-87.34-87.34s39.18-87.35,87.34-87.35,87.33,39.19,87.33,87.35-39.17,87.34-87.33,87.34Z"/><path class="cls-2" d="m1892.25,959.99c0,243.82-94.09,466.07-247.87,632.37l-424.25-639.77V151.54h-30.59v288.09c-10.48,6.3-33.31,18.44-63.55,25.32-55.26,12.58-108.28,2.57-157.59-29.76-70.94-46.51-138.39-44.01-182.49-33.72-22.8,5.32-41.75,13.16-55.44,19.99V151.54h-30.59v801.05l-424.28,639.76C121.83,1426.05,27.75,1203.8,27.75,959.99,27.75,445.96,445.96,27.76,960,27.76s932.25,418.2,932.25,932.23Z"/><path class="cls-2" d="m1016.75,911.97c0,31.29-25.46,56.75-56.75,56.75s-56.75-25.46-56.75-56.75,25.46-56.76,56.75-56.76,56.75,25.46,56.75,56.76Z"/><path class="cls-2" d="m992.74,1209.58c0,18.06-14.68,32.75-32.72,32.75s-32.75-14.69-32.75-32.75,14.69-32.75,32.75-32.75,32.72,14.69,32.72,32.75Z"/><path class="cls-2" d="m973.82,1459.17c0,7.62-6.2,13.81-13.82,13.81s-13.81-6.19-13.81-13.81,6.19-13.82,13.81-13.82,13.82,6.2,13.82,13.82Z"/><rect class="cls-1" x="0" width="1920" height="1920"/></svg>