<?xml version="1.0" encoding="UTF-8"?><svg id="_レイヤー_1" xmlns="http://www.w3.org/2000/svg" viewBox="0 0 1920 1920"><defs><style>.cls-1{fill:none;}.cls-1,.cls-2{stroke-width:0px;}.cls-2{fill:#fff;}</style></defs><path class="cls-2" d="m960.05,27.76C445.98,27.76,27.76,445.95,27.76,959.98s418.22,932.26,932.29,932.26,932.19-418.21,932.19-932.26S1474.06,27.76,960.05,27.76Zm295.87,378.03c-5.72-6.21-5.33-15.88.88-21.6,6.2-5.72,15.87-5.33,21.59.87,43.83,47.53,43.94,99.34.34,149.83l-.32.36c-33.03,35.89-32.92,70.57.33,109.16,5.51,6.39,4.79,16.04-1.6,21.55-2.89,2.49-6.44,3.71-9.97,3.71-4.3,0-8.57-1.8-11.59-5.31-43.45-50.42-43.39-102.15.16-149.62,33.16-38.5,33.22-73.13.18-108.95Zm-267.32,108.95c33.17-38.51,33.22-73.13.18-108.95-5.72-6.21-5.33-15.88.88-21.6,6.2-5.72,15.87-5.33,21.59.87,43.83,47.53,43.95,99.34.33,149.84l-.33.37c-33.08,35.88-32.98,70.55.33,109.13,5.52,6.38,4.81,16.04-1.57,21.55-2.89,2.5-6.45,3.72-9.99,3.72-4.28,0-8.55-1.8-11.57-5.3-43.55-50.42-43.49-102.16.15-149.63Zm-267.01-108.97c-5.71-6.21-5.31-15.88.9-21.59,6.22-5.72,15.88-5.31,21.6.9,43.76,47.57,43.87,99.38.32,149.81l-.33.38c-33.1,35.88-32.99,70.55.33,109.12,5.51,6.39,4.81,16.04-1.58,21.56-2.89,2.5-6.44,3.72-9.98,3.72-4.29,0-8.55-1.8-11.58-5.29-43.55-50.43-43.5-102.17.16-149.64,33.11-38.46,33.17-73.09.16-108.97Zm878.44,374.45c-25.61,0-51.57,22.52-71.22,61.8-21.38,42.72-33.26,99.73-33.54,160.75.1.71.15,1.45.15,2.19,0,88.46-23.63,175.29-68.34,251.1-40.81,69.19-98.1,127.7-166.29,170l52.43,90.83c2.73,4.73,2.73,10.56,0,15.29-2.73,4.72-7.78,7.64-13.24,7.64h-599.92c-5.46,0-10.51-2.92-13.24-7.64-2.73-4.73-2.73-10.56,0-15.29l52.48-90.93c-24.42-15.17-47.47-32.4-68.68-51.34-17.76-15.84-34.24-32.76-49.38-50.68-31.04,13.46-65.25,20.92-101.18,20.92-140.75,0-255.26-114.5-255.26-255.23,0-68.19,26.55-132.3,74.78-180.53,36.15-36.16,81.23-60.13,130.26-69.87-19.45-37.56-44.78-59.01-69.79-59.01-8.44,0-15.28-6.85-15.28-15.29s6.84-15.28,15.28-15.28h1199.98c8.44,0,15.28,6.84,15.28,15.28s-6.84,15.29-15.28,15.29Z"/><path class="cls-2" d="m541.45,1192.12c-6.9,1.44-14.06,2.2-21.39,2.2-57.75,0-104.73-46.97-104.73-104.69,0-52.45,38.72-96.03,89.07-103.61.25,6.27.38,12.59.38,18.95.02,64.92,12.35,127.78,36.67,187.15Z"/><path class="cls-2" d="m601.53,1299.01c-25.27,9.87-52.75,15.28-81.47,15.28-123.9,0-224.7-100.78-224.7-224.66,0-111.12,81.04-203.66,187.11-221.6,9.61,26.04,16.29,55.74,19.69,87.44-66.17,8.79-117.39,65.6-117.39,134.16,0,74.58,60.69,135.25,135.29,135.25,11.77,0,23.19-1.51,34.08-4.35,13.42,27.73,29.25,53.92,47.37,78.45.01.01.01.02.02.03Z"/><polygon class="cls-2" points="1273.52 1509.25 726.53 1509.25 768.82 1435.96 1231.21 1435.96 1273.52 1509.25"/><path class="cls-2" d="m1464.7,1004.96c0,.75.05,1.48.15,2.19-.77,163.17-88.25,315.22-228.95,398.25h-471.56c-26.24-15.52-50.91-33.53-73.37-53.58h0c-14.84-13.24-28.72-27.33-41.61-42.18-6.78-7.81-13.29-15.83-19.5-24.04-18.12-23.91-33.84-49.44-46.96-76.22-4.51-9.16-8.7-18.48-12.58-27.92-22.82-55.45-34.95-115.35-34.97-176.5,0-6.39-.12-12.74-.36-19.04-.39-10.48-1.12-20.84-2.16-31.03-3.28-32.18-9.72-62.65-19.02-89.92-3.58-10.51-7.59-20.54-12-30.01-1.04-2.23-2.1-4.44-3.19-6.61-9.76-19.51-20.94-35.66-33.17-48.13h1069.39c-42.12,42.79-70.13,126.46-70.13,224.74Z"/><rect class="cls-1" x="0" width="1920" height="1920"/></svg>