<?xml version="1.0" encoding="UTF-8"?><svg id="_レイヤー_1" xmlns="http://www.w3.org/2000/svg" xmlns:xlink="http://www.w3.org/1999/xlink" viewBox="0 0 1920 1920"><defs><style>.cls-1{fill:none;}.cls-1,.cls-2{stroke-width:0px;}.cls-2{fill:#fff;}</style><clipPath id="clippath"><rect class="cls-1" x="638.42" y="615.43" width="122.97" height="122.85"/></clipPath></defs><path class="cls-2" d="m960,27.77C445.97,27.77,27.77,445.96,27.77,960s418.2,932.23,932.23,932.23,932.23-418.2,932.23-932.23S1474.04,27.77,960,27.77Zm562.86,1386.74l49.41,49.41-85.29,85.29-67.11-67.11c-135.3,74.73-294.14,114.19-460.05,114.19-85.31,0-175.59-1.16-259.13-15.11-91.09-15.22-162.94-44.22-219.64-88.67-40.72-31.92-67.74-63.87-80.31-94.96-11.74-29.03-9.93-56.47,5.09-77.26,15.45-21.38,43.63-33.7,77.33-33.8h.42c34.48,0,72.65,12.74,107.53,35.92,30.78,20.45,59.1,26.21,86.58,17.63,24.16-7.54,48.07-26.67,71.06-56.83,40.23-52.77,24.41-111.13-9.11-145.57-32.24-33.14-93.4-54.9-159.63-7.2-63.57,45.8-122.16,74.42-174.14,85.08-46.41,9.52-88.22,4.99-124.28-13.48-42.86-21.95-77.63-64.16-100.57-122.09-18.81-47.51-25.49-94.31-25.49-119.95,0-86.3,21.44-169.97,63.71-248.71,40.69-75.8,98.88-143.83,172.95-202.19,73.86-58.18,159.81-103.85,255.47-135.73,98.9-32.95,203.92-49.66,312.16-49.66s213.28,16.71,312.18,49.66c95.66,31.88,181.62,77.55,255.47,135.73,74.08,58.36,132.27,126.39,172.96,202.19,42.27,78.74,63.71,162.41,63.71,248.71s-22.95,175.83-68.19,256.91c-41.46,74.28-99.65,140.71-173.09,197.6Z"/><path class="cls-2" d="m865.09,778.65l-63.32,63.33c-5.81,1.29-21.2,3.42-40.37-4.22-31.32-12.48-58.43-45.75-78.67-96.45l81.68-81.68c50.7,20.23,83.98,47.34,96.46,78.66,7.64,19.16,5.51,34.54,4.22,40.36Z"/><path class="cls-2" d="m1512.24,528.44c-147.43-116.14-343.61-180.11-552.42-180.11s-404.97,63.97-552.39,180.11c-146.56,115.47-227.27,268.73-227.27,431.56,0,18.9,5,63.52,23.75,110.88,14.44,36.46,41.58,85.01,88.9,109.25,30.95,15.84,67.33,19.64,108.11,11.27,48.55-9.95,103.96-37.19,164.7-80.93,33.6-24.21,70.33-35.14,106.22-31.6,32.07,3.15,62.41,17.92,85.45,41.59,22.16,22.77,36.04,52.15,39.09,82.72,3.36,33.64-6.34,66.48-28.05,94.95-26.15,34.31-54.17,56.32-83.29,65.41-34.53,10.79-70.72,3.85-107.55-20.62-65.79-43.71-129.97-38.29-151.7-8.21-10.03,13.88-10.8,32.41-2.23,53.61,10.79,26.66,35.92,55.99,72.68,84.81,116.24,91.13,278.72,98.54,463.58,98.54,159.2,0,311.61-37.19,441.9-107.72l-597.41-597.41c-3.9.68-9.09,1.29-15.26,1.29-9.62,0-21.61-1.48-34.8-6.43-18.26-6.86-35.21-18.97-50.39-35.98-18.33-20.53-34.15-48.4-47.04-82.83-12.98-34.77-23.26-76.93-30.57-125.32l-2.48-16.46,16.46,2.44c48.32,7.17,90.53,17.42,125.46,30.46,34.44,12.89,62.31,28.71,82.84,47.04,17.01,15.18,29.12,32.13,35.97,50.39,8.16,21.7,6.9,40.17,5.13,50.13l615.68,615.68c151.12-116.03,234.2-270.83,234.2-436.95s-80.71-316.09-227.27-431.56Zm-552.24,136.4c-60.57,0-109.85-48.26-109.85-107.58,0-14.81,6.03-26.33,17.9-34.24,9.19-6.12,20.84-9.35,32.1-12.47,29.47-8.17,47.53-14.88,47.53-48.55,0-11.38,1.72-20.03,5.26-26.43,4.49-8.12,11.83-12.59,20.68-12.59,24.1,0,51.49,35.8,62.14,51.2,8,11.55,34.09,51.68,34.09,83.08,0,59.32-49.28,107.58-109.85,107.58Zm369.8,71.52c-60.56,0-109.84-48.26-109.84-107.58,0-14.81,6.02-26.33,17.9-34.24,9.19-6.12,20.84-9.35,32.1-12.47,29.47-8.17,47.53-14.88,47.53-48.55,0-11.38,1.72-20.03,5.26-26.43,4.49-8.12,11.83-12.59,20.68-12.59,24.1,0,51.49,35.8,62.14,51.2,8,11.55,34.08,51.68,34.08,83.08,0,59.32-49.27,107.58-109.85,107.58Zm225.05,235.94c-60.56,0-109.84-48.26-109.84-107.58,0-14.81,6.02-26.33,17.9-34.24,9.19-6.12,20.84-9.35,32.1-12.47,29.47-8.18,47.53-14.89,47.53-48.55,0-11.38,1.72-20.03,5.26-26.43,4.49-8.12,11.83-12.59,20.68-12.59,24.1,0,51.49,35.8,62.14,51.2,8,11.55,34.08,51.68,34.08,83.08,0,59.32-49.28,107.58-109.85,107.58Z"/><rect class="cls-2" x="1196.74" y="813.68" width="71.38" height="791.36" transform="translate(-494.18 1225.67) rotate(-45)"/><rect class="cls-2" x="857.33" y="810.27" width="71.38" height="119.38" transform="translate(-353.59 886.27) rotate(-45)"/><rect class="cls-1" width="1920" height="1920"/></svg>