<?xml version="1.0" encoding="UTF-8"?><svg id="_レイヤー_1" xmlns="http://www.w3.org/2000/svg" viewBox="0 0 1920 1920"><defs><style>.cls-1{fill:none;}.cls-1,.cls-2{stroke-width:0px;}.cls-2{fill:#fff;}</style></defs><path class="cls-2" d="m960,27.76C445.96,27.76,27.76,445.96,27.76,960s418.2,932.24,932.24,932.24,932.24-418.2,932.24-932.24S1474.04,27.76,960,27.76ZM434.51,782.99c7.39,13.86,30.41,16.74,55.3,17.4,4.11-.36,6.28.83,6.93,8.37.64,7.54-1.31,9.09-6.78,9.56-25.47.76-60.41,3.73-85.76,5.88-24,2.05-49.35,4.2-71.84,7.51-6.18.5-7.67-.76-8.3-8.3-.64-7.54.62-9,6.8-9.53,18.26-4.33,29.15-14.22,38.63-24.7,12.52-14.85,23.4-41.31,34.97-83.68l63.39-229.02c24.87-89.03,29.23-110.83,37.12-148.07l52.04-29.23c4.78-.43,7.64.69,9.43,5.39,17.29,41.3,32.56,74.54,71,161.69l96.38,216.79c17.15,39.26,28.79,62.41,40.89,75.21,12.87,13.39,19.84,14.19,46.05,14.02,7.54-.63,9.02.6,9.66,8.17.65,7.54-.59,9.03-8.15,9.65-29.52,1.83-67.95,4.37-97.42,6.88-26.69,2.29-67.08,6.39-96.47,9.6-4.81.39-5.61-.93-6.25-8.47s.63-9.03,4.73-9.36c25.91-3.57,42.81-7.77,45.76-21.83,3.52-15.48-2.22-34.33-18.44-70.91l-35.64-78.41c-22.74.56-52.3,1.69-78.33,3.9-28.79,2.42-56.09,6.12-84.77,9.96l-19.91,74.14c-11.64,41.71-8.55,62.15-1.02,77.39Zm497.54,672.31c-.29,4.23-2.26,6.02-6.64,6.21-5.38-.03-6.22-1.25-7.46-5.82-8.57-29.76-18.22-54.37-33.64-74.21-16.38-20.54-38.67-33.11-61.48-37.71-75.19-15.11-147.45,43.76-169.12,151.61-19.18,95.41,24.84,179.78,102.1,195.33,56.54,11.34,101.67-3.84,142.05-46.44,2.08-2.31,4.36-2.91,10.46,1.56,4.25,3.01,4.68,6.31,1.77,10.05-41.01,48.42-94.06,78.75-171.31,63.24-114.09-22.92-180.28-120.39-156.83-237.07,23.02-114.6,123.06-180.28,238.19-157.13,25.4,5.1,45.97,13,64.19,21.5,19.71,9.36,34.03,16.01,56.95,17.36-3.35,27.42-6.91,63.9-9.23,91.52Zm582.43-251.42c-58.59,16.04-126.45,29.86-175.96,43.46-43.44,11.87-91.68,26.06-133.86,38.56-7.08,1.95-8.57.46-11-8.37-2.4-8.8-1.87-10.85,4.96-13.66,37.44-14.05,58.64-19.88,66.46-42.86,7.8-22.99-2.81-61.75-18.98-120.82l-87.66-319.97c-23.19-84.6-26.35-96.08-44.78-111.89-16.71-13.42-39.16-8.23-83.56.17-7.31,1.06-9.59.73-12.24-8.97-2.91-10.58-1.35-12.89,6.73-15.11,45.92-10.68,91.63-22.26,137.09-34.73,47.46-12.99,107.9-34.29,163.44-49.51,210.13-57.54,290.94-16.23,314.85,71.08,17.63,64.32-11.37,132.92-155.49,209.38l1.44,5.26c161.2-29.93,263.29,1.78,288.15,92.57,24.41,89.03-18.18,199.26-259.59,265.41Z"/><path class="cls-2" d="m606.64,591.01c-19.77,3.07-46.5,5.32-68.41,7.21-26.05,2.18-53.45,4.53-76.19,5.06l33.54-124.98c12.05-45.21,16.02-63.47,23.33-91.02,9.66,24.01,16.8,43.42,36.41,87.31l51.32,116.42Z"/><path class="cls-2" d="m1501.47,1176.13c-42.42,11.64-73.44,17.33-94.89-1.46-21.2-17.89-31.05-57.84-44.32-106.29l-43.24-157.79c25.02-7.81,33.09-10.02,46.25-13.63,221.21-60.59,262.27,21.96,277.71,78.39,18.62,67.89,4.93,160.7-141.51,200.78Z"/><path class="cls-2" d="m1344.67,869.45c-13.11,3.6-19.18,5.25-34.56,8.53l-35.52-129.58c-15.2-55.53-26.84-94.06-19.8-115.89,8.09-22.09,34.09-30.19,66.4-39.02,102.04-27.95,172.47-.83,194.43,79.37,20.77,75.84-3.26,150.65-170.95,196.59Z"/><rect class="cls-1" x="0" width="1920" height="1920"/></svg>