<?xml version="1.0" encoding="UTF-8"?><svg id="_レイヤー_1" xmlns="http://www.w3.org/2000/svg" viewBox="0 0 1920 1920"><defs><style>.cls-1{fill:none;}.cls-1,.cls-2{stroke-width:0px;}.cls-2{fill:#fff;}</style></defs><path class="cls-2" d="m960.01,27.76C445.96,27.76,27.75,445.95,27.75,959.98s418.21,932.26,932.26,932.26,932.24-418.21,932.24-932.26S1474.05,27.76,960.01,27.76Zm445.37,953.89c-53.28,64.16-106.92,120.04-160.49,167.24l97.77,89.67-303.53,193.55-84.94-112.6c-48.53,14.24-97.04,21.41-145.23,21.41-.73,0-1.46,0-2.2,0-11.4-.05-22.8-.5-34.22-1.36l104.03,111.03-216.35,86.59-54.55-238.36c-34.39-14.22-68.66-32.03-102.73-53.38-98.91-61.99-198.79-155.68-296.89-278.45l-7.62-9.54,7.62-9.54c98.1-122.78,197.98-216.47,296.89-278.46,95.07-59.58,191.8-91.55,287.8-95.14v-188.76l550.45,243.53-98.57,134.92c54.32,47.62,108.72,104.16,162.76,169.23l311.91-387.33v823.1l-311.91-387.34Z"/><path class="cls-2" d="m1294.13,641.67l-74.83,102.43c-35.61-29.55-71.16-55.22-106.53-76.93-96.7-59.34-194.67-90.61-291.47-93.06v-141.62l472.83,209.18Z"/><path class="cls-2" d="m1292.67,1234.19l-246.15,156.96-61.57-81.61c42.71-15.16,85.39-35.79,127.82-61.83,36.1-22.16,72.4-48.46,108.75-78.78l71.15,65.26Z"/><path class="cls-2" d="m823.67,1438.83l-141.63,56.68-42.03-183.69c29.71,10.21,59.47,17.75,89.21,22.58l-1.81,1.69,96.26,102.74Z"/><polygon class="cls-2" points="1686.72 632.58 1686.72 1282.29 1425.13 957.44 1686.72 632.58"/><path class="cls-2" d="m808.96,604.52c-.7,0-1.36,0-2.06.01-188.83.85-380.33,119.58-569.29,352.91,188.96,233.33,380.46,352.05,569.29,352.91h2.06c189.59,0,383.59-118.72,576.79-352.91-193.19-234.19-387.21-352.92-576.79-352.92Zm-355.1,323.62c-31.53,0-57.17-25.64-57.17-57.16s25.64-57.15,57.17-57.15,57.17,25.64,57.17,57.15-25.65,57.16-57.17,57.16Zm367.44,190.46l-139.55-86.66c-8.24,41.4-23.29,82.82-45.04,123.82l-27-14.32c64.77-122.1,64.77-245.91,0-368l27-14.33c22.58,42.57,37.95,85.6,45.95,128.58l138.64-86.09v317Z"/><path class="cls-2" d="m790.74,856.56v207.08l-103.89-64.52c1.56-13.91,2.34-27.81,2.34-41.68,0-12.21-.6-24.44-1.81-36.69l103.36-64.19Z"/><path class="cls-2" d="m480.46,870.98c0,14.66-11.93,26.59-26.6,26.59s-26.61-11.93-26.61-26.59,11.94-26.58,26.61-26.58,26.6,11.92,26.6,26.58Z"/><rect class="cls-1" x="0" width="1920" height="1920"/></svg>