<?xml version="1.0" encoding="UTF-8"?><svg id="_レイヤー_1" xmlns="http://www.w3.org/2000/svg" viewBox="0 0 1920 1920"><defs><style>.cls-1{fill:none;}.cls-1,.cls-2{stroke-width:0px;}.cls-2{fill:#fff;}</style></defs><path class="cls-2" d="m960,27.77C445.14,27.77,27.77,445.14,27.77,960c0,108.07,18.39,211.85,52.21,308.37,112.18-61.43,228.6-111.4,346.55-148.75,177.91-56.33,360.5-84.41,542.66-83.43,72.08.38,145.01,5.36,216.77,14.79,79.21,10.43,158.92,26.51,236.93,47.81,142.52,38.93,282.7,95.92,417.13,169.58,33.82-96.52,52.21-200.3,52.21-308.37,0-514.86-417.37-932.23-932.23-932.23Zm-302.42,816.61c0,14.41-11.72,26.14-26.14,26.14h-140.92c-1.18,0-1.9.61-2.3,1.13-.4.51-.81,1.36-.51,2.5l16.44,62.6c2.85,10.88-1.32,21.98-10.63,28.28-4.5,3.05-9.59,4.56-14.67,4.56-5.44,0-10.87-1.73-15.54-5.19l-126.04-93.31c-.5-.37-1.11-.57-1.73-.57h-158.26c-14.41,0-26.14-11.73-26.14-26.14v-304.64c0-14.42,11.73-26.14,26.14-26.14h454.16c14.42,0,26.14,11.72,26.14,26.14v304.64Zm555.64,4.59c0,11.88-9.66,21.55-21.54,21.55h-157.32l-45.69,87.08c-3.53,6.73-10.16,11.03-17.74,11.5-.46.03-.92.04-1.37.04-7.07,0-13.59-3.4-17.66-9.26l-62.01-89.36h-161.89c-11.7,0-21.22-9.52-21.22-21.22v-314.16c0-11.88,9.66-21.54,21.54-21.54h463.36c11.88,0,21.54,9.66,21.54,21.54v313.83Zm558.93-2.56c0,14.42-11.73,26.14-26.14,26.14h-158.26c-.63,0-1.22.2-1.73.57l-126.04,93.31c-4.67,3.46-10.1,5.2-15.54,5.2-5.08,0-10.17-1.52-14.67-4.56-9.31-6.3-13.48-17.41-10.63-28.28l16.44-62.6c.3-1.14-.11-1.99-.51-2.51-.4-.51-1.12-1.13-2.3-1.13h-140.92c-14.42,0-26.14-11.72-26.14-26.14v-304.64c0-14.41,11.72-26.14,26.14-26.14h454.16c14.41,0,26.14,11.73,26.14,26.14v304.64Z"/><path class="cls-2" d="m1596.17,1641.44c-57.36,53.57-121.48,99.98-190.95,137.81l-12.96-5.32c-63.35-37.99-131.45-65.36-202.4-81.35-16.42-3.7-35.38-7.12-52.64-.77-14.94,5.45-121.84,56.04-133.45,69.44-31.18,36-29.5,56.6-27.55,80.44,1.15,14.06,2.41,29.49-3.92,50.46h-.01c-4.09.05-8.18.08-12.29.08-197.18,0-380.06-61.22-530.67-165.67,37.86-63.91,96.18-132.39,146.98-171.68,38.67-29.88,90.16-64.99,145.57-71.34,9.31-1.06,18.89-1.33,28.16-1.59,16.17-.45,32.89-.91,49.2-5.56,28.13-8.01,53-27.31,80.29-49.84,75.84-62.54,150.83-130.95,222.9-203.31,33.92-34.06,59.22-67.63,76.77-122.92.09,0,.18.02.27.03,71.44,9.41,143.33,23.56,213.93,42.1,6.03,22.83,12.2,50.42,18.19,77.19,6.88,30.78,14,62.61,21.1,88.14l.05.19c5.04,18.02,10.25,36.65,19.38,54.45,11.29,22.01,26.76,39.32,41.72,56.06,4.44,4.97,8.63,9.66,12.74,14.49,48.84,57.36,80.34,130.88,89.59,208.47Z"/><path class="cls-2" d="m730.02,536.84v310.44h160.76c7.06,0,13.67,3.46,17.7,9.26l60.91,87.79,44.86-85.52c3.74-7.11,11.05-11.53,19.08-11.53h156.65v-310.44h-459.96Zm42.08,194.39l50.18-91.77,50.19,91.77h-100.37Zm136.2,0l50.18-91.77,50.18,91.77h-100.36Zm139.23,0l50.19-91.77,50.18,91.77h-100.37Z"/><path class="cls-2" d="m1746.01,538.87h-454.16c-1.6,0-2.9,1.3-2.9,2.9v304.64c0,1.6,1.3,2.9,2.9,2.9h140.92c8.17,0,15.71,3.71,20.7,10.18,4.99,6.46,6.66,14.7,4.59,22.6l-16.44,62.6c-.34,1.31.06,2.37,1.18,3.13,1.13.77,2.26.74,3.35-.07l126.04-93.31c4.47-3.31,9.99-5.13,15.56-5.13h158.26c1.59,0,2.9-1.3,2.9-2.9v-304.64c0-1.6-1.31-2.9-2.9-2.9Zm-316.39,190.51h-77.32v-77.31h77.32v77.31Zm125.05,0h-77.32v-77.31h77.32v77.31Zm125.04,0h-77.31v-77.31h77.31v77.31Z"/><path class="cls-2" d="m631.44,536.84H177.28c-1.59,0-2.89,1.3-2.89,2.9v304.64c0,1.6,1.3,2.9,2.89,2.9h158.26c5.56,0,11.09,1.82,15.56,5.13l126.04,93.31c1.09.81,2.22.83,3.35.07,1.12-.77,1.52-1.82,1.18-3.14l-16.44-62.6c-2.07-7.9-.4-16.13,4.59-22.6s12.53-10.17,20.7-10.17h140.92c1.6,0,2.9-1.3,2.9-2.9v-304.64c0-1.6-1.3-2.9-2.9-2.9Zm-370.2,204.75c-28.26,0-51.16-22.9-51.16-51.16s22.9-51.15,51.16-51.15,51.15,22.9,51.15,51.15-22.9,51.16-51.15,51.16Zm145.47,0c-28.25,0-51.16-22.9-51.16-51.16s22.91-51.15,51.16-51.15,51.16,22.9,51.16,51.15-22.91,51.16-51.16,51.16Zm145.47,0c-28.25,0-51.15-22.9-51.15-51.16s22.9-51.15,51.15-51.15,51.16,22.9,51.16,51.15-22.9,51.16-51.16,51.16Z"/><rect class="cls-1" y="0" width="1920" height="1920"/></svg>