<?xml version="1.0" encoding="UTF-8"?><svg id="_レイヤー_1" xmlns="http://www.w3.org/2000/svg" viewBox="0 0 1920 1920"><defs><style>.cls-1{fill:none;}.cls-1,.cls-2{stroke-width:0px;}.cls-2{fill:#fff;}</style></defs><path class="cls-2" d="m1892.23,960c0,319.21-161.27,601.46-406.6,769.56l-116.49-243.05c47.08-7.54,90.58-29.7,125.12-64.25,43.29-43.29,67.12-100.63,67.12-161.46V467.22c0-60.84-23.83-118.18-67.12-161.47-43.28-43.29-100.63-67.13-161.47-67.13h-745.58c-60.84,0-118.19,23.84-161.47,67.13-43.29,43.29-67.13,100.63-67.13,161.47v793.58c0,60.83,23.84,118.17,67.13,161.46,34.54,34.55,78.05,56.71,125.14,64.25l-116.51,243.05C189.04,1561.46,27.77,1279.21,27.77,960,27.77,445.96,445.97,27.76,960,27.76s932.23,418.2,932.23,932.24Z"/><path class="cls-2" d="m1288.57,1832.46c-102.23,38.63-212.98,59.78-328.57,59.78s-226.33-21.15-328.56-59.78l102.6-228.67,451.92.03,102.61,228.64Z"/><path class="cls-2" d="m1332.79,289.42h-745.58c-98.04,0-177.8,79.76-177.8,177.8v793.58c0,98.03,79.76,177.79,177.8,177.79h745.58c98.03,0,177.79-79.76,177.79-177.79V467.22c0-98.04-79.76-177.8-177.79-177.8Zm-786.11,79.94h826.64v142.51h-826.64v-142.51Zm125.32,976.04c-53.7,0-97.4-43.7-97.4-97.4s43.7-97.4,97.4-97.4,97.4,43.69,97.4,97.4-43.69,97.4-97.4,97.4Zm576,0c-53.71,0-97.4-43.7-97.4-97.4s43.69-97.4,97.4-97.4,97.4,43.69,97.4,97.4-43.7,97.4-97.4,97.4Zm169.41-264.09H502.61v-522.68h914.8v522.68Z"/><circle class="cls-2" cx="1248" cy="1248" r="46.6"/><circle class="cls-2" cx="672" cy="1248" r="46.6"/><rect class="cls-2" x="553.41" y="609.43" width="813.2" height="421.08"/><rect class="cls-2" x="597.48" y="420.16" width="725.04" height="40.91"/><rect class="cls-1" x="0" width="1920" height="1920"/></svg>