<?xml version="1.0" encoding="UTF-8"?><svg id="_レイヤー_1" xmlns="http://www.w3.org/2000/svg" viewBox="0 0 1920 1920"><defs><style>.cls-1{fill:none;}.cls-1,.cls-2{stroke-width:0px;}.cls-2{fill:#fff;}</style></defs><path class="cls-2" d="m960,28C446.09,28,28,446.09,28,960s418.09,932,932,932,932-418.09,932-932S1473.91,28,960,28Zm560.41,1617.05c0,38.39-31.24,69.63-69.63,69.63H469.22c-38.39,0-69.63-31.24-69.63-69.63V274.95c0-38.39,31.24-69.63,69.63-69.63h981.56c38.39,0,69.63,31.24,69.63,69.63v1370.1Z"/><path class="cls-2" d="m1450.78,271.73H469.22c-1.78,0-3.22,1.44-3.22,3.22v1370.1c0,1.78,1.44,3.22,3.22,3.22h981.56c1.78,0,3.22-1.44,3.22-3.22V274.95c0-1.78-1.44-3.22-3.22-3.22Zm-236.15,716.32c3.49,34.51-30.8,33.64-62.14,26.62-.04,0-.09-.02-.16-.03-4-.56-56.47-7.43-158.94,7.63l-12.99,385.43c0,.45.13,51.84-15.71,135.63-2.62,13.91-5.21,19.63-8.89,19.64-.06,0-.12,0-.18,0-1.45-.07-3.07-.92-4.93-4.84-.61.41-1.26.61-1.94.61h-.19c-2.59-.13-5.78-2.77-9.82-21.31-2.39-10.96-4.85-26.47-7.33-46.11-4.41-34.93-7.76-74.04-9.19-90.74-.37-4.35-.67-7.79-.73-8.21h.03c0-.07-.02-.14-.02-.22h-.06c0-.12,0-.23.03-.33-.04-.56-.05-1.26-.05-2.13l-.08-7.28c-1.17-116.62-2.58-236.02-4.17-346.42-24.71,5.19-51.4,11.5-80.07,19.13-15.32,4.08-28.53,7.37-39.86,9.98-31.72,17.75-70.37,38.22-65.92,16.8,6.58-31.7,4.06-53.28,1.87-63.57-.85-4.05-2.51-7.83-4.92-11.19-18.87-26.33-119.3-166.57-129.51-181.89-6.06-9.09-9.68-36.86-11.73-60.64-1.88-21.84,19.87-38.36,40.25-30.31,41.74,16.49,75.85,54.49,83.09,71.2,2.29,5.29,9.24,20.91,18.78,41.86l3.55-1.78.22.43,3.98-1.61c-2.53.71-4.01,1.13-4.18,1.17,1.41-.64,83.24-37.76,177.14-78.41-3.02-96.27-5.55-170.85-6.72-191.2-.08-.05-.16-.12-.23-.19-.1-.1-7.58-7.38-27.13-26.83-8.77-7.12-19.7-16.82-32.82-29.94-6.57-6.58-9.38-14.47-8.33-23.48,4.66-40.15,84.22-89.83,87.6-91.93.24-.14.5-.23.78-.24,15.78-.87,30.52,3.3,44.12,12.47,18.45,9.84,34.95,28.37,49.17,55.25,15.61,29.51,24.54,62.03,27.47,72.72.08.3.08.61,0,.9-.71,2.47-1.54,4.95-2.46,7.37-.04.09-.08.18-.13.26-2.39,4.03-4.49,8.33-6.42,13.12-.03.09-.07.18-.12.26-6.71,10.94-15.69,19.38-26.7,25.08l-4.6,136.59c87.89-36.69,166.91-67.11,182.07-64.77,26.87,5.17,41.62,13.37,47.59,17.38.04.02.08.05.12.08,1.98,1.24,3.3,2.22,4.03,2.8.04-.02.06-.03.06-.03l.38.38s.06.05.09.08c.02.02.04.04.07.06.07.05.1.08.1.08v.02c8.33,8.18,95.24,94.35,95.24,131.94,0,0-124.1,116.88-118.45,172.67Z"/><path class="cls-2" d="m1184.4,766.7c-1.35,5.42-2.56,11.17-3.62,17.27-9.44,54.49-47.94,130.98-66.45,177.29-30.07,1.97-74.28,9.39-119.5,18.27l6.81-202.01h0c70.96-25.42,135.9-41.33,160.81-26.53h0c1.18.83,2.24,1.74,3.2,2.73,3.66,3.8,7.16,6.68,10.5,8.75h0c2.86,1.98,5.6,3.36,8.23,4.23Z"/><path class="cls-2" d="m916.58,995.92c-56.14,12.36-100.18,23.12-100.41,22.64,0,0-.98.48-2.73,1.35-18.25-32.23-44.03-85.71-65.34-131.44l6.06-2.75s72.47-36.72,157.13-72.61c1.63,52.79,3.35,110.02,5.05,167.22.08,5.17.16,10.37.24,15.59Z"/><rect class="cls-1" y="0" width="1920" height="1920"/></svg>