<?xml version="1.0" encoding="UTF-8"?>
<svg id="_レイヤー_2" data-name="レイヤー_2" xmlns="http://www.w3.org/2000/svg" viewBox="0 0 1400 400.42">
  <defs>
    <style>
      .cls-1 {
        fill: #e2e7e7;
      }

      .cls-2 {
        fill: #ff0084;
      }

      .cls-3 {
        fill: #8a00a9;
      }
    </style>
  </defs>
  <g id="_レイヤー_3" data-name="レイヤー_3">
    <g>
      <rect class="cls-1" width="1400" height="400.42"/>
      <path d="M200.72,126.76c0,1.25-1.01,2.25-2.25,2.25s-2.25-1.01-2.25-2.25,1.01-2.25,2.25-2.25,2.25,1.01,2.25,2.25"/>
      <path d="M214.55,120.23h11.67c.46,0,1.25,0,1.88-.04-.04.53-.04,1.11-.04,1.62v10.79c0,.68.04,2.29.04,2.58h-1.68c.02-.17.02-.7.04-1.27h-12.17c.02.55.02,1.07.02,1.27h-1.66c0-.33.04-1.86.04-2.58v-10.79c0-.46,0-1.09-.02-1.62.85.04,1.38.04,1.88.04M214.29,132.4h12.17v-10.64h-12.17v10.64Z"/>
      <path d="M237,120.95h10.71c.52,0,1.14-.02,1.57-.04-.02.48-.04,1.16-.04,1.64v11.27c0,.79.04,1.75.07,2.03h-1.75c.02-.2.02-.68.04-1.22h-10.79c-.92,0-1.86.02-2.43.07v-1.77c.52.04,1.49.11,2.38.11h10.84v-10.53h-10.58c-.81,0-1.86.04-2.36.07v-1.75c.72.09,1.64.13,2.34.13M249.01,119.99l-1.09.48c-.44-.9-1.22-2.19-1.75-2.93l1.07-.46c.52.72,1.33,2.08,1.77,2.91M251.79,119.33l-1.11.5c-.48-.9-1.2-2.16-1.79-2.91l1.09-.46c.52.72,1.33,2.03,1.81,2.86"/>
      <path d="M272.77,116.38l1.18.63c-2.58,2.64-4.11,5.9-4.11,9.75s1.53,7.1,4.11,9.75l-1.18.63c-2.67-2.73-4.35-6.18-4.35-10.38s1.68-7.65,4.35-10.38"/>
      <path d="M282.97,126.2l-.9,1.38c-1.05-.76-3.43-2.32-4.72-2.97l.87-1.33c1.24.7,3.82,2.27,4.74,2.93M285.66,131.46c3.63-2.08,6.47-4.92,8.24-7.98l.94,1.6c-1.86,2.91-4.87,5.75-8.35,7.8-2.21,1.29-5.2,2.27-7.23,2.71l-.9-1.57c2.38-.42,5.11-1.31,7.3-2.56M286.21,121.45l-.92,1.33c-1.03-.79-3.41-2.38-4.65-3.1l.85-1.31c1.27.7,3.8,2.4,4.72,3.08"/>
      <path d="M308.78,130.57c3.32-2.1,5.94-5.31,7.19-7.98l.94,1.66c-1.46,2.67-3.96,5.64-7.21,7.71-2.19,1.38-4.94,2.75-8.7,3.45l-1.01-1.6c3.87-.59,6.73-1.94,8.78-3.26M307.25,123.66l-1.2,1.22c-1.09-1.11-3.8-3.45-5.44-4.55l1.11-1.18c1.55,1.03,4.35,3.3,5.53,4.5"/>
      <path d="M321.41,132.99l-1.33-.92c1.44-1.33,3.34-3.96,4.17-5.73l1.38.68c-.92,1.86-2.97,4.63-4.22,5.97M330.24,119.79v2.34h5.9c.5,0,1.18-.04,1.73-.11v1.62c-.57-.02-1.18-.04-1.7-.04h-5.92v10.66c0,1.14-.52,1.68-1.79,1.68-.9,0-2.18-.07-3.04-.15l-.13-1.55c.96.17,1.97.24,2.53.24s.85-.26.85-.83c.02-1.27.02-8.83.02-9.86v-.2h-6.18c-.66,0-1.25.02-1.81.09v-1.66c.61.07,1.11.11,1.81.11h6.18v-2.34c0-.46-.09-1.18-.15-1.49h1.81c-.04.31-.11,1.03-.11,1.49M338.5,132.09l-1.44.79c-.85-1.68-2.51-4.41-3.67-5.79l1.31-.7c1.18,1.4,2.93,4.11,3.8,5.7M336.79,120.8l-1.07.5c-.44-.9-1.16-2.14-1.75-2.97l1.05-.46c.55.79,1.31,2.03,1.77,2.93M339.37,120.16l-1.07.48c-.48-.94-1.16-2.12-1.79-2.93l1.05-.46c.59.79,1.4,2.1,1.81,2.91"/>
      <path d="M345.86,129.15c.66-2.03.66-6.42.66-8.83,0-.59-.04-1.07-.13-1.51h1.79c-.02.28-.11.9-.11,1.51,0,2.38-.07,7.08-.68,9.26-.63,2.32-2.05,4.44-3.87,5.94l-1.46-.98c1.81-1.31,3.15-3.23,3.8-5.4M352.18,133.45v-13.15c0-.81-.09-1.38-.11-1.57h1.79c-.02.2-.09.79-.09,1.57v12.83c2.05-.94,4.85-2.97,6.55-5.51l.92,1.31c-1.9,2.6-4.92,4.81-7.45,6.07-.35.17-.57.35-.72.48l-1.03-.87c.07-.33.13-.74.13-1.16"/>
      <path d="M379.65,135.35c-.81-.48-1.75-1.14-2.95-2.16-1.27,1.31-2.82,2.14-4.89,2.14-3.1,0-5.14-1.7-5.14-4.35,0-2.19,1.68-3.47,3.47-4.59-.85-1.29-1.4-2.56-1.4-3.8,0-2.34,1.57-3.8,3.74-3.8,2.03,0,3.32,1.31,3.32,3.17,0,2.16-1.75,3.47-3.56,4.65,1.22,1.49,2.86,2.99,4.37,4.3.92-1.25,1.57-2.64,1.86-4.39h1.66c-.44,2.01-1.2,3.8-2.36,5.4,1.11.94,2.1,1.6,2.71,1.99l-.83,1.44ZM371.95,133.89c1.31,0,2.53-.65,3.61-1.73-1.64-1.46-3.34-3.06-4.63-4.7-1.44.96-2.62,1.99-2.62,3.45,0,1.88,1.49,2.97,3.65,2.97M371.43,125.58c1.57-.98,2.93-1.99,2.93-3.54,0-1.07-.68-1.97-1.86-1.97-1.38,0-2.27.96-2.27,2.45,0,.94.46,1.99,1.2,3.06"/>
      <path d="M394.88,119.55c-.15.28-.33.59-.52.92h6.18c.57,0,1-.07,1.33-.2l1.31.79c-.17.28-.37.79-.48,1.09-.57,2.08-1.79,4.68-3.45,6.91.94.68,1.79,1.33,2.51,1.92l-1.16,1.33c-.66-.59-1.49-1.27-2.4-1.97-1.92,2.18-4.65,4.22-8.41,5.62l-1.38-1.22c3.67-1.11,6.53-3.19,8.52-5.35-1.6-1.16-3.3-2.32-4.74-3.21l1.05-1.07c1.49.85,3.15,1.94,4.72,3.04,1.46-1.97,2.62-4.39,3.08-6.27h-7.6c-1.35,1.94-3.3,4.09-5.79,5.81l-1.29-1.01c3.74-2.34,6.01-5.68,7.01-7.69.2-.35.52-1.09.66-1.62l1.77.57c-.35.55-.7,1.22-.92,1.62"/>
      <path d="M417.58,123.18c2.29-1.44,4.41-3.28,5.94-5.11l1.31,1.2c-1.68,1.75-3.67,3.39-5.92,4.89v9.29c0,.79.04,1.83.13,2.23h-1.92c.07-.39.13-1.44.13-2.23v-8.26c-2.32,1.31-5.35,2.64-8.43,3.6l-.79-1.51c3.76-1.03,7.12-2.6,9.55-4.11"/>
      <path d="M446.99,117c1.33,0,2.43,1.09,2.43,2.45s-1.09,2.4-2.43,2.4c-.33,0-.63-.07-.92-.17-.02.07-.02.13-.04.2-.46,2.32-1.53,5.88-3.26,8.09-1.99,2.56-4.54,4.55-8.57,5.81l-1.31-1.46c4.22-1.07,6.66-2.93,8.5-5.29,1.57-2.01,2.62-5.16,2.91-7.3h-11.34c-.85,0-1.55.04-2.1.07v-1.73c.59.09,1.4.15,2.12.15h11.1c.17,0,.39,0,.61-.02-.07-.24-.11-.48-.11-.74,0-1.35,1.07-2.45,2.4-2.45M446.99,120.91c.81,0,1.49-.66,1.49-1.46s-.68-1.49-1.49-1.49-1.46.66-1.46,1.49.66,1.46,1.46,1.46"/>
      <path d="M451.96,137.14l-1.18-.63c2.58-2.64,4.11-5.9,4.11-9.75s-1.53-7.1-4.11-9.75l1.18-.63c2.67,2.73,4.35,6.18,4.35,10.38s-1.68,7.65-4.35,10.38"/>
      <path d="M65.49,61.79c-1.1-1.61-1.65-3.95-1.65-7.03s.55-5.45,1.65-7.05c1.1-1.61,2.71-2.41,4.82-2.41s3.72.8,4.82,2.4c1.1,1.6,1.65,3.95,1.65,7.04s-.55,5.45-1.65,7.05c-1.1,1.61-2.71,2.41-4.82,2.41s-3.72-.8-4.82-2.41M73.56,60.53c.7-1.24,1.05-3.17,1.05-5.8s-.35-4.57-1.04-5.78c-.69-1.21-1.78-1.82-3.26-1.82s-2.55.61-3.25,1.84-1.05,3.15-1.05,5.77.35,4.55,1.05,5.8c.7,1.24,1.78,1.86,3.25,1.86s2.55-.62,3.25-1.86"/>
      <polygon points="91.87 62.18 91.87 63.99 81.59 63.99 81.59 62.18 85.65 62.18 85.65 48.18 82.4 50.23 81.4 48.58 86.25 45.51 87.8 45.51 87.8 62.18 91.87 62.18"/>
      <rect x="95.56" y="61.32" width="2.67" height="2.67"/>
      <rect x="115.73" y="45.51" width="2.15" height="18.49"/>
      <path d="M137.07,54.37v8.55c-.73.38-1.69.69-2.87.93-1.18.24-2.37.35-3.58.35-1.84,0-3.42-.38-4.75-1.13-1.33-.75-2.35-1.84-3.05-3.25-.71-1.42-1.06-3.11-1.06-5.09s.35-3.64,1.05-5.06c.7-1.42,1.7-2.5,3.02-3.25,1.31-.75,2.86-1.13,4.64-1.13,1.29,0,2.48.2,3.57.59,1.08.39,2.01.97,2.78,1.74l-.81,1.65c-.89-.77-1.77-1.32-2.64-1.65s-1.83-.5-2.9-.5c-2.08,0-3.68.66-4.8,1.97-1.12,1.31-1.68,3.19-1.68,5.64s.57,4.4,1.7,5.7c1.14,1.3,2.8,1.95,4.98,1.95,1.59,0,3.07-.24,4.43-.71v-5.64h-4.59v-1.68h6.56Z"/>
      <polygon points="156.24 45.51 156.24 63.99 154.59 63.99 143.45 49.13 143.45 63.99 141.43 63.99 141.43 45.51 143.08 45.51 154.22 60.38 154.22 45.51 156.24 45.51"/>
      <rect x="160.8" y="45.51" width="2.15" height="18.49"/>
      <polygon points="171.98 47.34 165.55 47.34 165.55 45.51 180.6 45.51 180.6 47.34 174.15 47.34 174.15 63.99 171.98 63.99 171.98 47.34"/>
      <rect x="183.2" y="45.51" width="2.15" height="18.49"/>
      <path d="M193.18,63.05c-1.27-.77-2.24-1.86-2.92-3.28-.68-1.42-1.02-3.09-1.02-5.01s.34-3.62,1.01-5.05c.67-1.42,1.64-2.52,2.91-3.28,1.27-.76,2.77-1.14,4.5-1.14s3.23.38,4.5,1.14c1.27.76,2.24,1.85,2.91,3.28.67,1.43,1.01,3.1,1.01,5.02s-.34,3.6-1.02,5.02c-.68,1.43-1.66,2.52-2.92,3.29-1.27.77-2.76,1.15-4.47,1.15s-3.2-.38-4.47-1.15M202.22,60.39c1.09-1.32,1.64-3.2,1.64-5.65s-.54-4.33-1.63-5.64c-1.08-1.31-2.61-1.97-4.59-1.97s-3.48.66-4.58,1.98c-1.09,1.32-1.64,3.2-1.64,5.62s.55,4.31,1.64,5.64c1.09,1.33,2.62,1.99,4.58,1.99s3.48-.66,4.58-1.98"/>
      <polygon points="224.76 45.51 224.76 63.99 223.11 63.99 211.96 49.13 211.96 63.99 209.95 63.99 209.95 45.51 211.6 45.51 222.74 60.38 222.74 45.51 224.76 45.51"/>
      <path d="M253,56.88c1.49,1.84,3.78,3.44,6.03,4.25-.37.31-.89.92-1.13,1.34-2.54-1.1-5.17-3.22-6.71-5.58h-8.36c-1.6,2.44-4.3,4.72-6.82,5.93-.24-.42-.73-1-1.13-1.34,2.2-.89,4.54-2.65,6.08-4.59h-5.82v-1.49h5.22v-8.47h-4.04v-1.47h4.04v-2.62h1.73v2.62h9.73v-2.62h1.76v2.62h4.01v1.47h-4.01v8.47h5.14v1.49h-5.72ZM247.76,64.48h9.07v1.49h-19.69v-1.49h8.86v-2.94h-5.48v-1.47h5.48v-2.31h1.76v2.31h5.58v1.47h-5.58v2.94ZM242.09,48.8h9.73v-1.89h-9.73v1.89ZM242.09,52.05h9.73v-1.91h-9.73v1.91ZM242.09,55.38h9.73v-1.99h-9.73v1.99Z"/>
      <path d="M275.11,50.14c2.2,4.56,6.08,8.81,10.25,10.83-.42.34-1,1.02-1.31,1.52-4.04-2.18-7.66-6.32-10.04-10.96v8.44h5.14v1.73h-5.14v4.98h-1.78v-4.98h-5.22v-1.73h5.22v-8.39c-2.44,4.64-6.11,8.71-10.02,10.96-.29-.45-.84-1.1-1.23-1.42,4.01-2.1,7.92-6.4,10.15-10.99h-9.28v-1.73h10.38v-5.56h1.78v5.56h10.49v1.73h-9.39Z"/>
      <path d="M292.44,46.91h14c.55,0,1.49,0,2.26-.05-.05.63-.05,1.34-.05,1.94v12.95c0,.81.05,2.75.05,3.09h-2.02c.03-.21.03-.84.05-1.52h-14.6c.03.66.03,1.28.03,1.52h-1.99c0-.39.05-2.23.05-3.09v-12.95c0-.55,0-1.31-.03-1.94,1.02.05,1.65.05,2.25.05M292.13,61.52h14.6v-12.77h-14.6v12.77Z"/>
      <path d="M319.37,47.78h12.85c.63,0,1.36-.03,1.89-.05-.03.58-.05,1.39-.05,1.97v13.53c0,.94.05,2.1.08,2.44h-2.1c.03-.24.03-.81.05-1.47h-12.95c-1.1,0-2.23.03-2.91.08v-2.12c.63.05,1.78.13,2.86.13h13v-12.64h-12.69c-.97,0-2.23.05-2.83.08v-2.1c.87.1,1.97.16,2.81.16M333.79,46.62l-1.31.58c-.52-1.08-1.47-2.62-2.1-3.51l1.28-.55c.63.87,1.6,2.49,2.12,3.49M337.12,45.84l-1.34.6c-.58-1.08-1.44-2.6-2.15-3.49l1.31-.55c.63.87,1.6,2.44,2.18,3.44"/>
      <path d="M343.21,52.34h17.15c.55,0,1.36-.03,1.99-.1v1.94c-.55-.03-1.36-.05-1.99-.05h-7.24c-.08,2.83-.5,5.3-1.55,7.26-.97,1.73-2.94,3.59-5.14,4.72l-1.73-1.28c2.05-.87,3.93-2.39,4.98-4.06,1.15-1.86,1.44-4.12,1.49-6.63h-7.97c-.79,0-1.52,0-2.23.05v-1.94c.71.08,1.42.1,2.23.1M346.41,45.81h9.15c.73,0,1.65-.05,2.39-.16v1.97c-.76-.05-1.65-.08-2.39-.08h-9.12c-.87,0-1.68.03-2.33.08v-1.97c.73.08,1.47.16,2.31.16M361.43,47.07l-1.31.58c-.5-1.05-1.42-2.65-2.12-3.62l1.28-.55c.66.92,1.6,2.52,2.15,3.59M364.31,46.02l-1.28.58c-.58-1.15-1.44-2.62-2.18-3.59l1.26-.55c.68.94,1.7,2.57,2.2,3.57"/>
      <path d="M371.19,53.62h14.42c1.34,0,2.23-.08,2.78-.13v2.28c-.52-.03-1.57-.1-2.75-.1h-14.45c-1.44,0-2.75.05-3.54.1v-2.28c.76.08,2.04.13,3.54.13"/>
      <path d="M403.94,46.1c-.18.34-.39.71-.63,1.1h7.42c.68,0,1.21-.08,1.6-.24l1.57.94c-.21.34-.45.94-.58,1.31-.68,2.49-2.15,5.61-4.14,8.29,1.13.81,2.15,1.6,3.01,2.31l-1.39,1.6c-.79-.71-1.78-1.52-2.88-2.36-2.31,2.62-5.58,5.06-10.09,6.74l-1.65-1.47c4.41-1.34,7.84-3.83,10.23-6.42-1.91-1.39-3.96-2.78-5.69-3.85l1.26-1.28c1.78,1.02,3.78,2.33,5.66,3.64,1.76-2.36,3.15-5.27,3.7-7.53h-9.12c-1.63,2.33-3.96,4.9-6.95,6.97l-1.55-1.21c4.48-2.81,7.21-6.82,8.42-9.23.24-.42.63-1.31.79-1.94l2.12.68c-.42.66-.84,1.47-1.1,1.94"/>
      <rect x="38.43" y="73.92" width="1323.14" height=".73"/>
      <path class="cls-3" d="M383.19,269.38s8.18,5.88,24.31-.07c27.89-10.29,48.78-16.02,57.76-11.14,6.42,3.49,3.35,8.62-21.34,23.8-19.4,11.93-25.95,20.57-28.43,28.12-2.59,7.89,3.83,16.53,3.83,16.53,0,0-12.29-12.71-2.84-28.94,5.16-8.86,4.04-13.88.45-16.81-9.71-7.91-27.64-6.44-33.74-11.49"/>
      <path class="cls-2" d="M422.4,171.72s14.8,19.19,4.89,30.18c-13.9,15.42-31.25,23.37-44.86,42.41-6.51,9.11-18.16,30.87,20.8,17.54,39.52-13.53,58.15-15.33,69.41-10.9,7.75,3.05,11.78,12.57-11.5,31.7-22.83,18.76-57.65,40.17-29.2,53.41,0,0-17.43-9,4.33-17.52,9.67-3.78,7.55-5.85,12.98-12.7,3.93-4.95,7.59.25,8.64,4.36,2.93,11.46-1.74,26.85-19.85,26.8,0,0,26.52,2.54,36.68-18.29,4.34-8.9,3.19-12.03-5.02-21.78-13.05-15.5,10.68-30.73,35.07-29.36,0,0-32.87-2.61-.82-10.6,18.8-4.69-26.98-19.04-57.5-20.39-29.97-1.33-18.7-13.31,5.71-25.69-30.78,11.88-41.6-16.31,33.03-26.1,0,0-48.01,5.54-62.8-13.05"/>
      <path d="M564.77,247.42h-9.35s1.72.87,1.72,3.49v44.54c0,6.99-8.97,8.73-8.97,8.73h23.4s-1.72-.87-1.72-3.49v-44.54c0-6.99,8.96-8.73,8.96-8.73h-14.05Z"/>
      <path d="M755.83,247.42h-9.35s1.72.87,1.72,3.49v44.54c0,6.99-8.97,8.73-8.97,8.73h23.4s-1.72-.87-1.72-3.49v-44.54c0-6.99,8.96-8.73,8.96-8.73h-14.05Z"/>
      <path d="M867.51,247.42h-9.35s1.72.87,1.72,3.49v44.54c0,6.99-8.97,8.73-8.97,8.73h23.4s-1.72-.87-1.72-3.49v-44.54c0-6.99,8.97-8.73,8.97-8.73h-14.05Z"/>
      <path d="M649.24,275.37h-32.03s16.59.87,16.59,3.49v20.42c0,3.02-.18,3.04-14.85,3.04-13.86,0-13.97-.03-13.97-2.72v-38.2c0-5.24,4.47-13.97,16.64-13.97h-13.99c-4.41,0-16.63,3.49-16.63,13.97v36.68c0,3.49-5.62,6.11-8.81,6.11h67.04s-1.46,0-1.46-1.75v-25.33c0-.87.3-1.75,1.46-1.75"/>
      <path d="M637.63,247.42h-6.53s.79,0,.79.82v10.69c0,2.47-3.33,2.47-3.33,2.47h20.28s-.79,0-.79-.82v-10.69c0-2.47,3.33-2.47,3.33-2.47h-13.76Z"/>
      <path d="M711.7,250.91v32.32c0,2.15-1.77,4.3-4.34,3.06l-40.21-38.87v.7s0,0,0,0v50.83c0,3.49-3.88,5.24-7.02,5.24h22.47s-1.99-.87-1.99-3.49v-32.32c0-2.15,1.77-4.3,4.33-3.06l40.21,38.87v-51.53c0-3.49,3.88-5.24,7.02-5.24h-22.47s1.99.87,1.99,3.49"/>
      <path d="M1001.93,247.42s1.99.87,1.99,3.49v32.32c0,2.15-1.77,4.3-4.34,3.06l-40.21-38.87v.7h0v50.83c0,3.49-3.88,5.24-7.02,5.24h22.47s-1.99-.87-1.99-3.49v-32.32c0-2.15,1.77-4.3,4.33-3.06l40.21,38.87v-51.53c0-3.49,3.88-5.24,7.02-5.24h-22.47Z"/>
      <path d="M801.09,247.42h-19.78s1.13,0,1.13,1.75v20.96c0,3.49-3.57,7.86-3.57,7.86l14.26-13.97v-12.23c0-4.37,7.94-4.37,7.94-4.37"/>
      <path d="M827.51,249.17v20.96c0,3.49-3.57,7.86-3.57,7.86l14.26-13.97v-12.23c0-4.37,7.94-4.37,7.94-4.37h-19.78s1.13,0,1.13,1.75"/>
      <path d="M814.8,302.44v-50.66c0-4.37,9.82-4.37,9.82-4.37h-22.32s1.07,0,1.07,1.75v50.66c0,4.37-9.82,4.37-9.82,4.37h22.32s-1.07,0-1.07-1.75"/>
      <path d="M905.36,298.92v-30.92c0-10.97,9.55-20.58,19.74-20.58h-13.09c-5.84,0-20.69,6.99-20.69,20.96v30.77c0,5.04-5.71,5.04-5.71,5.04h24.44s-4.69-.07-4.69-5.27"/>
      <path d="M930.54,252.69v30.92c0,10.97-9.55,20.58-19.74,20.58h13.09c5.84,0,20.69-6.99,20.69-20.96v-30.77c0-5.04,5.71-5.04,5.71-5.04h-24.44s4.69.07,4.69,5.27"/>
    </g>
  </g>
</svg>