<?xml version="1.0" encoding="UTF-8"?>
<svg id="_レイヤー_2" data-name="レイヤー_2" xmlns="http://www.w3.org/2000/svg" viewBox="0 0 950.07 100">
  <defs>
    <style>
      .cls-1 {
        fill: #ff0084;
      }
    </style>
  </defs>
  <g id="_レイヤー_2-2" data-name="レイヤー_2">
    <g>
      <path class="cls-1" d="M832.37,49.23h-56.42s29.23,1.54,29.23,6.15v35.97c0,5.31-.31,5.35-26.16,5.35-24.41,0-24.61-.06-24.61-4.8V24.62c0-9.23,7.87-24.62,29.32-24.62h-24.64c-7.76,0-29.3,6.15-29.3,24.62v64.62c0,6.15-9.91,10.77-15.51,10.77h118.08s-2.57,0-2.57-3.08v-44.62c0-1.54.52-3.08,2.57-3.08Z"/>
      <path class="cls-1" d="M811.91,0h-11.49s1.4,0,1.4,1.45v18.82c0,4.34-5.86,4.34-5.86,4.34h35.73s-1.4,0-1.4-1.45V4.34c0-4.34,5.86-4.34,5.86-4.34h-24.24Z"/>
    </g>
    <g>
      <path class="cls-1" d="M39.12,0H4.28s2,0,2,3.08v36.92c0,6.15-6.28,13.85-6.28,13.85l25.13-24.62V7.69c0-7.69,13.99-7.69,13.99-7.69Z"/>
      <path class="cls-1" d="M85.65,3.08v36.92c0,6.15-6.28,13.85-6.28,13.85l25.13-24.62V7.69c0-7.69,13.99-7.69,13.99-7.69h-34.84s2,0,2,3.08Z"/>
      <path class="cls-1" d="M63.25,96.92V7.69c0-7.69,17.3-7.69,17.3-7.69h-39.31s1.89,0,1.89,3.08v89.23c0,7.69-17.3,7.69-17.3,7.69h39.31s-1.89,0-1.89-3.08Z"/>
    </g>
    <g>
      <path class="cls-1" d="M650.94,90.71v-54.46c0-19.32,16.82-36.25,34.78-36.25h-23.05c-10.29,0-36.45,12.31-36.45,36.92v54.19c0,8.88-10.06,8.88-10.06,8.88h43.04s-8.26-.12-8.26-9.29Z"/>
      <path class="cls-1" d="M695.31,9.29v54.46c0,19.32-16.82,36.25-34.78,36.25h23.05c10.29,0,36.45-12.31,36.45-36.92V8.88c0-8.88,10.06-8.88,10.06-8.88h-43.04s8.26.12,8.26,9.29Z"/>
    </g>
    <g>
      <path class="cls-1" d="M870.93,90.71v-54.46c0-19.32,16.82-36.25,34.78-36.25h-23.05c-10.29,0-36.45,12.31-36.45,36.92v54.19c0,8.88-10.06,8.88-10.06,8.88h43.04s-8.26-.12-8.26-9.29Z"/>
      <path class="cls-1" d="M915.3,9.29v54.46c0,19.32-16.82,36.25-34.78,36.25h23.05c10.29,0,36.45-12.31,36.45-36.92V8.88c0-8.88,10.06-8.88,10.06-8.88h-43.04s8.26.12,8.26,9.29Z"/>
    </g>
    <path class="cls-1" d="M288.12,100h-89.71s15.79-3.08,15.79-15.38V6.15c0-4.62-3.03-6.15-3.03-6.15h81.42s-5.86.64-5.86,3.1c0,1.4-.16,1.45-.46,1.45h-33.87c-4.79,0-15.79.85-15.79,10.83v32.34h50.55s-5.86.64-5.86,3.1c0,1.4-.16,1.45-.46,1.45h-44.22v36.82c0,4.62,1.32,6.15,3.03,6.15h52.95s-5.86.64-5.86,3.1c0,.46.05,1.41,1.4,1.65Z"/>
    <path class="cls-1" d="M484.54,100h-89.71s15.79-3.08,15.79-15.38V6.15c0-4.62-3.03-6.15-3.03-6.15h81.42s-5.86.64-5.86,3.1c0,1.4-.16,1.45-.46,1.45h-33.87c-4.79,0-15.79.85-15.79,10.83v32.34h50.55s-5.86.64-5.86,3.1c0,1.4-.16,1.45-.46,1.45h-44.22v36.82c0,4.62,1.32,6.15,3.03,6.15h52.95s-5.86.64-5.86,3.1c0,.46.05,1.41,1.4,1.65Z"/>
    <path class="cls-1" d="M530.09,100s11.41-1.79,11.41-12.07V6.15c0-4.62-3.03-6.15-3.03-6.15h41.22s-15.79,3.08-15.79,15.38v73.71c0,4.62,1.32,6.15,3.03,6.15h61.72c-.51,0-1.14.28-1.14,1.67,0,3.08,2.57,3.08,2.57,3.08h-99.99Z"/>
    <path class="cls-1" d="M212.68.07h-41.2s3.03,1.54,3.03,6.15v41.48h-32.84V15.37c0-12.3,15.78-15.37,15.78-15.37h-41.2s3.03,1.54,3.03,6.15v78.41c0,12.3-15.78,15.37-15.78,15.37h41.2s-3.03-1.54-3.03-6.15v-41.54h32.84v36.26c0,8.34-11.25,11.49-11.25,11.49h36.67s-3.03-1.54-3.03-6.15V15.44c0-12.3,15.78-15.37,15.78-15.37Z"/>
    <path class="cls-1" d="M408.02,0h-19.06s.02,0-7.14,0c-1.35,0-3,.68-3.59,2.14-.75,1.88-30.66,76.83-30.66,76.83l-29.61-63.81c-5.48-10.82,5.49-15.16,5.49-15.16h-31.29s2.86,1.29,5.37,3.53c.23.74.39,1.6.39,2.62v78.46c0,12.31-15.79,15.38-15.79,15.38h26.52s-3.03-1.54-3.03-6.15V25.36c13.3,27.83,34.16,74.64,34.16,74.64h6.24l33.07-80.77v65.39c0,12.31-15.79,15.38-15.79,15.38h37.68s-3.03-1.54-3.03-6.15V10.69c0-9.19,10.11-10.69,10.11-10.69Z"/>
  </g>
</svg>