<?xml version="1.0" encoding="utf-8"?>
<!-- Generator: Adobe Illustrator 27.8.1, SVG Export Plug-In . SVG Version: 6.00 Build 0)  -->
<svg version="1.1" id="レイヤー_1" xmlns="http://www.w3.org/2000/svg" xmlns:xlink="http://www.w3.org/1999/xlink" x="0px"
	 y="0px" viewBox="0 0 734.1 54.1" style="enable-background:new 0 0 734.1 54.1;" xml:space="preserve">
<style type="text/css">
	.st0{fill:#52CC89;}
	.st1{fill:#54B782;}
</style>
<g>
	<g>
		<path class="st0" d="M110.8,44.8l10-37.5c1.3-4.7,2.7-6.7,7.4-6.7l0.2-0.6H100C78.4,0,58.6,1.8,55.2,14.5
			c-3,11.4,11.3,13.7,21.7,13.7c-12.5,0-19.2,1.9-28.2,15.5c-3.7,5.8-10.3,9.5-13.1,9.7l-0.2,0.7l21.6-0.8c7.7,0,11-3.4,17.4-17.5
			c3.4-7.6,16.3-7.1,16.3-7.1h5.1l-4.3,16.1c-2,7.4-2.5,7.9-7.1,7.9l-0.2,0.7h30.1l0.2-0.7C109.7,52.7,108.8,52.5,110.8,44.8z
			 M95.8,28h-3.4c-14.1,0-15.5,0.2-11.9-13.6C84.5,0,87.1,0.7,99.8,0.7h3.4L95.8,28z"/>
		<path class="st0" d="M165.5,0.7c0,0,29.5,0.1,25.6,14.9h1L196.2,0h-61.8l-0.2,0.6c4.8,0,4.9,5.2,3.6,9.9L129.1,43
			c-1.4,5.2-4.3,9.7-8.9,9.7l-0.2,0.7h63.2l4-14.9h-1c-4,15-34.8,14.2-34.8,14.2h-3.9l6.9-25.9h8.8c0.1,0,11.6-0.2,10.4,8.9h1
			l5-18.6h-1c-3.6,9.2-15.1,8.9-15.2,8.9h-8.8l6.8-25.4H165.5z"/>
		<path class="st0" d="M208.5,5.1c-11.4,8.1-10.1,17.4,3.5,24.1l14.7,7.4c11.2,6.7,5.2,16.8-6.4,16.8c-17,0-23.1-12.6-23.4-17.7h-1
			l-3.9,14.6c0,0,7.1,3.9,28.1,3.9c18.7,0,26.3-6.2,26.3-6.2c10.3-8.3,9.1-18-3.4-24.6l-14.6-7.7C216.1,9.1,221.9,0,233.6,0
			c17.3,0,19.8,10.1,20.5,15.5h1l3.4-12.7c0,0-6.2-3.5-24.7-3.5C216-0.7,208.5,5.1,208.5,5.1z"/>
		<path class="st0" d="M339.6,27.1c4-15-8.3-27.7-32.1-27.7s-42.9,12.7-47,27.7c-4,15.1,8.5,27,32.3,27S335.6,42.2,339.6,27.1z
			 M313.3,27.1c-5.6,20.8-7.5,26.3-20.3,26.3c-12.9,0-12-5.5-6.4-26.3C292.2,6.3,294.4,0,307.3,0C320.1,0,318.9,6.3,313.3,27.1z"/>
		<path class="st0" d="M592.3,53.4c-11.7,0-15.5-5.8-10-26.7C587.9,5.9,594.6,0,606.6,0c7.9,0,19.5,2.4,18.5,18.1h0.9l5.2-15.3
			c-2.2-1.4-10.4-3.5-24.4-3.5c-23.2,0-46.5,10.2-51.1,27.4c-4.6,17.1,13.2,27.4,36.4,27.4c11.5,0,23-2.2,26.3-3.6l3-15.3h-0.9
			C612.8,50.3,599.6,53.4,592.3,53.4z"/>
		<path class="st0" d="M636.9,0l-0.2,0.6c4.8,0,4.9,5.2,3.6,9.9L631.7,43c-1.4,5.2-4.3,9.7-8.9,9.7l-0.2,0.7h63.2l4-14.9h-1
			c-4,15-34.8,14.2-34.8,14.2h-3.9l6.9-25.9h8.8c0.1,0,11.6-0.2,10.4,8.9h1l5-18.6h-1c-3.6,9.2-15.1,8.9-15.2,8.9h-8.8l6.8-25.4h3.9
			c0,0,29.5,0.1,25.6,14.9h1L698.7,0H636.9z"/>
		<path class="st0" d="M536.2,0L536,0.6c12,0,13,9.3,11.1,16.4l-5.4,20.2L514.8,0h-34.5l-0.2,0.6c2.8,0.2,7,0.1,11.9,6.1l3.7,5.1
			l-6.6,24.6c-1.3,5-3.2,16.4-14.1,16.4c-2.7,0-3.8-3.2-4.9-6.2c0,0-1.2-2.5-16.8-46.5h-0.5l-32.2,38.7
			c-11.9,13.3-17.9,14-21.2,14.1l-0.2,0.6h31.2l0.2-0.6c-13,0-12.1-10.6-9-14.1h21.2l2.1,5.2c0,0,4.1,8.9-4.5,8.9l-0.2,0.6h27.3H478
			h23.9l0.2-0.7c-15.8,0-13.6-10.3-12-16.4l6.3-23.7l29.9,40.7h11.9l9.8-36.4c1.9-7,7.3-16.4,20.7-16.4L569,0H536.2z M422.1,38
			l14.2-17.1l6.2,17.1H422.1z"/>
		<path class="st0" d="M384.8,53.4L355,12.7l-6.3,23.7c-1.6,6.1-3.8,16.4,12,16.4l-0.2,0.7H326l0.2-0.7c14.9,0,19.9-10.4,21.5-16.4
			l6.6-24.6l-3.7-5.1c-4.9-6-9.1-5.9-11.9-6.1l0.2-0.6h34.5l26.8,37.2l5.4-20.2c1.9-7.1,0.9-16.4-11.1-16.4l0.2-0.6h32.8l-0.2,0.6
			c-13.4,0-18.8,9.3-20.7,16.4l-9.8,36.4H384.8z"/>
	</g>
	<g>
		<path class="st1" d="M110.8,44.8l10-37.5c1.3-4.7,2.7-6.7,7.4-6.7l0.2-0.6H100C78.4,0,58.6,1.8,55.2,14.5
			c-3,11.4,11.3,13.7,21.7,13.7c-12.5,0-19.2,1.9-28.2,15.5c-3.7,5.8-10.3,9.5-13.1,9.7l-0.2,0.7l21.6-0.8c7.7,0,11-3.4,17.4-17.5
			c3.4-7.6,16.3-7.1,16.3-7.1h5.1l-4.3,16.1c-2,7.4-2.5,7.9-7.1,7.9l-0.2,0.7h30.1l0.2-0.7C109.7,52.7,108.8,52.5,110.8,44.8z
			 M95.8,28h-3.4c-14.1,0-15.5,0.2-11.9-13.6C84.5,0,87.1,0.7,99.8,0.7h3.4L95.8,28z"/>
		<path class="st1" d="M165.5,0.7c0,0,29.5,0.1,25.6,14.9h1L196.2,0h-61.8l-0.2,0.6c4.8,0,4.9,5.2,3.6,9.9L129.1,43
			c-1.4,5.2-4.3,9.7-8.9,9.7l-0.2,0.7h63.2l4-14.9h-1c-4,15-34.8,14.2-34.8,14.2h-3.9l6.9-25.9h8.8c0.1,0,11.6-0.2,10.4,8.9h1
			l5-18.6h-1c-3.6,9.2-15.1,8.9-15.2,8.9h-8.8l6.8-25.4H165.5z"/>
		<path class="st1" d="M208.5,5.1c-11.4,8.1-10.1,17.4,3.5,24.1l14.7,7.4c11.2,6.7,5.2,16.8-6.4,16.8c-17,0-23.1-12.6-23.4-17.7h-1
			l-3.9,14.6c0,0,7.1,3.9,28.1,3.9c18.7,0,26.3-6.2,26.3-6.2c10.3-8.3,9.1-18-3.4-24.6l-14.6-7.7C216.1,9.1,221.9,0,233.6,0
			c17.3,0,19.8,10.1,20.5,15.5h1l3.4-12.7c0,0-6.2-3.5-24.7-3.5C216-0.7,208.5,5.1,208.5,5.1z"/>
		<path class="st1" d="M339.6,27.1c4-15-8.3-27.7-32.1-27.7s-42.9,12.7-47,27.7c-4,15.1,8.5,27,32.3,27S335.6,42.2,339.6,27.1z
			 M313.3,27.1c-5.6,20.8-7.5,26.3-20.3,26.3c-12.9,0-12-5.5-6.4-26.3C292.2,6.3,294.4,0,307.3,0C320.1,0,318.9,6.3,313.3,27.1z"/>
		<path class="st1" d="M592.3,53.4c-11.7,0-15.5-5.8-10-26.7C587.9,5.9,594.6,0,606.6,0c7.9,0,19.5,2.4,18.5,18.1h0.9l5.2-15.3
			c-2.2-1.4-10.4-3.5-24.4-3.5c-23.2,0-46.5,10.2-51.1,27.4c-4.6,17.1,13.2,27.4,36.4,27.4c11.5,0,23-2.2,26.3-3.6l3-15.3h-0.9
			C612.8,50.3,599.6,53.4,592.3,53.4z"/>
		<path class="st1" d="M636.9,0l-0.2,0.6c4.8,0,4.9,5.2,3.6,9.9L631.7,43c-1.4,5.2-4.3,9.7-8.9,9.7l-0.2,0.7h63.2l4-14.9h-1
			c-4,15-34.8,14.2-34.8,14.2h-3.9l6.9-25.9h8.8c0.1,0,11.6-0.2,10.4,8.9h1l5-18.6h-1c-3.6,9.2-15.1,8.9-15.2,8.9h-8.8l6.8-25.4h3.9
			c0,0,29.5,0.1,25.6,14.9h1L698.7,0H636.9z"/>
		<path class="st1" d="M536.2,0L536,0.6c12,0,13,9.3,11.1,16.4l-5.4,20.2L514.8,0h-34.5l-0.2,0.6c2.8,0.2,7,0.1,11.9,6.1l3.7,5.1
			l-6.6,24.6c-1.3,5-3.2,16.4-14.1,16.4c-2.7,0-3.8-3.2-4.9-6.2c0,0-1.2-2.5-16.8-46.5h-0.5l-32.2,38.7
			c-11.9,13.3-17.9,14-21.2,14.1l-0.2,0.6h31.2l0.2-0.6c-13,0-12.1-10.6-9-14.1h21.2l2.1,5.2c0,0,4.1,8.9-4.5,8.9l-0.2,0.6h27.3H478
			h23.9l0.2-0.7c-15.8,0-13.6-10.3-12-16.4l6.3-23.7l29.9,40.7h11.9l9.8-36.4c1.9-7,7.3-16.4,20.7-16.4L569,0H536.2z M422.1,38
			l14.2-17.1l6.2,17.1H422.1z"/>
		<path class="st1" d="M384.8,53.4L355,12.7l-6.3,23.7c-1.6,6.1-3.8,16.4,12,16.4l-0.2,0.7H326l0.2-0.7c14.9,0,19.9-10.4,21.5-16.4
			l6.6-24.6l-3.7-5.1c-4.9-6-9.1-5.9-11.9-6.1l0.2-0.6h34.5l26.8,37.2l5.4-20.2c1.9-7.1,0.9-16.4-11.1-16.4l0.2-0.6h32.8l-0.2,0.6
			c-13.4,0-18.8,9.3-20.7,16.4l-9.8,36.4H384.8z"/>
	</g>
</g>
</svg>
