<svg width="80" height="46" viewBox="0 0 80 46" fill="none" xmlns="http://www.w3.org/2000/svg">
<mask id="path-1-outside-1_3196_2591" maskUnits="userSpaceOnUse" x="12" y="12" width="54" height="28" fill="black">
<rect fill="white" x="12" y="12" width="54" height="28"/>
<path d="M12.72 37V33.96H17.904V17.576H13.648V15.24C15.888 14.856 17.424 14.28 18.8 13.448H21.584V33.96H26.192V37H12.72ZM31.57 21.42H45.05V38.4H43.03V23.32H33.51V38.46H31.57V21.42ZM32.89 28.26H43.87V30.12H32.89V28.26ZM32.87 35.26H43.89V37.16H32.87V35.26ZM52.59 25.98H63.85V27.78H52.59V25.98ZM52.59 30.68H63.85V32.48H52.59V30.68ZM52.59 35.38H63.85V37.22H52.59V35.38ZM51.25 21.3H65.13V38.54H63.13V23.16H53.15V38.54H51.25V21.3Z"/>
</mask>
<path d="M12.72 37V33.96H17.904V17.576H13.648V15.24C15.888 14.856 17.424 14.28 18.8 13.448H21.584V33.96H26.192V37H12.72ZM31.57 21.42H45.05V38.4H43.03V23.32H33.51V38.46H31.57V21.42ZM32.89 28.26H43.87V30.12H32.89V28.26ZM32.87 35.26H43.89V37.16H32.87V35.26ZM52.59 25.98H63.85V27.78H52.59V25.98ZM52.59 30.68H63.85V32.48H52.59V30.68ZM52.59 35.38H63.85V37.22H52.59V35.38ZM51.25 21.3H65.13V38.54H63.13V23.16H53.15V38.54H51.25V21.3Z" fill="white"/>
<path d="M12.72 37H12.22V37.5H12.72V37ZM12.72 33.96V33.46H12.22V33.96H12.72ZM17.904 33.96V34.46H18.404V33.96H17.904ZM17.904 17.576H18.404V17.076H17.904V17.576ZM13.648 17.576H13.148V18.076H13.648V17.576ZM13.648 15.24L13.5635 14.7472L13.148 14.8184V15.24H13.648ZM18.8 13.448V12.948H18.6606L18.5413 13.0201L18.8 13.448ZM21.584 13.448H22.084V12.948H21.584V13.448ZM21.584 33.96H21.084V34.46H21.584V33.96ZM26.192 33.96H26.692V33.46H26.192V33.96ZM26.192 37V37.5H26.692V37H26.192ZM13.22 37V33.96H12.22V37H13.22ZM12.72 34.46H17.904V33.46H12.72V34.46ZM18.404 33.96V17.576H17.404V33.96H18.404ZM17.904 17.076H13.648V18.076H17.904V17.076ZM14.148 17.576V15.24H13.148V17.576H14.148ZM13.7325 15.7328C16.0226 15.3402 17.62 14.7458 19.0587 13.8759L18.5413 13.0201C17.228 13.8142 15.7534 14.3718 13.5635 14.7472L13.7325 15.7328ZM18.8 13.948H21.584V12.948H18.8V13.948ZM21.084 13.448V33.96H22.084V13.448H21.084ZM21.584 34.46H26.192V33.46H21.584V34.46ZM25.692 33.96V37H26.692V33.96H25.692ZM26.192 36.5H12.72V37.5H26.192V36.5ZM31.57 21.42V20.92H31.07V21.42H31.57ZM45.05 21.42H45.55V20.92H45.05V21.42ZM45.05 38.4V38.9H45.55V38.4H45.05ZM43.03 38.4H42.53V38.9H43.03V38.4ZM43.03 23.32H43.53V22.82H43.03V23.32ZM33.51 23.32V22.82H33.01V23.32H33.51ZM33.51 38.46V38.96H34.01V38.46H33.51ZM31.57 38.46H31.07V38.96H31.57V38.46ZM32.89 28.26V27.76H32.39V28.26H32.89ZM43.87 28.26H44.37V27.76H43.87V28.26ZM43.87 30.12V30.62H44.37V30.12H43.87ZM32.89 30.12H32.39V30.62H32.89V30.12ZM32.87 35.26V34.76H32.37V35.26H32.87ZM43.89 35.26H44.39V34.76H43.89V35.26ZM43.89 37.16V37.66H44.39V37.16H43.89ZM32.87 37.16H32.37V37.66H32.87V37.16ZM31.57 21.92H45.05V20.92H31.57V21.92ZM44.55 21.42V38.4H45.55V21.42H44.55ZM45.05 37.9H43.03V38.9H45.05V37.9ZM43.53 38.4V23.32H42.53V38.4H43.53ZM43.03 22.82H33.51V23.82H43.03V22.82ZM33.01 23.32V38.46H34.01V23.32H33.01ZM33.51 37.96H31.57V38.96H33.51V37.96ZM32.07 38.46V21.42H31.07V38.46H32.07ZM32.89 28.76H43.87V27.76H32.89V28.76ZM43.37 28.26V30.12H44.37V28.26H43.37ZM43.87 29.62H32.89V30.62H43.87V29.62ZM33.39 30.12V28.26H32.39V30.12H33.39ZM32.87 35.76H43.89V34.76H32.87V35.76ZM43.39 35.26V37.16H44.39V35.26H43.39ZM43.89 36.66H32.87V37.66H43.89V36.66ZM33.37 37.16V35.26H32.37V37.16H33.37ZM52.59 25.98V25.48H52.09V25.98H52.59ZM63.85 25.98H64.35V25.48H63.85V25.98ZM63.85 27.78V28.28H64.35V27.78H63.85ZM52.59 27.78H52.09V28.28H52.59V27.78ZM52.59 30.68V30.18H52.09V30.68H52.59ZM63.85 30.68H64.35V30.18H63.85V30.68ZM63.85 32.48V32.98H64.35V32.48H63.85ZM52.59 32.48H52.09V32.98H52.59V32.48ZM52.59 35.38V34.88H52.09V35.38H52.59ZM63.85 35.38H64.35V34.88H63.85V35.38ZM63.85 37.22V37.72H64.35V37.22H63.85ZM52.59 37.22H52.09V37.72H52.59V37.22ZM51.25 21.3V20.8H50.75V21.3H51.25ZM65.13 21.3H65.63V20.8H65.13V21.3ZM65.13 38.54V39.04H65.63V38.54H65.13ZM63.13 38.54H62.63V39.04H63.13V38.54ZM63.13 23.16H63.63V22.66H63.13V23.16ZM53.15 23.16V22.66H52.65V23.16H53.15ZM53.15 38.54V39.04H53.65V38.54H53.15ZM51.25 38.54H50.75V39.04H51.25V38.54ZM52.59 26.48H63.85V25.48H52.59V26.48ZM63.35 25.98V27.78H64.35V25.98H63.35ZM63.85 27.28H52.59V28.28H63.85V27.28ZM53.09 27.78V25.98H52.09V27.78H53.09ZM52.59 31.18H63.85V30.18H52.59V31.18ZM63.35 30.68V32.48H64.35V30.68H63.35ZM63.85 31.98H52.59V32.98H63.85V31.98ZM53.09 32.48V30.68H52.09V32.48H53.09ZM52.59 35.88H63.85V34.88H52.59V35.88ZM63.35 35.38V37.22H64.35V35.38H63.35ZM63.85 36.72H52.59V37.72H63.85V36.72ZM53.09 37.22V35.38H52.09V37.22H53.09ZM51.25 21.8H65.13V20.8H51.25V21.8ZM64.63 21.3V38.54H65.63V21.3H64.63ZM65.13 38.04H63.13V39.04H65.13V38.04ZM63.63 38.54V23.16H62.63V38.54H63.63ZM63.13 22.66H53.15V23.66H63.13V22.66ZM52.65 23.16V38.54H53.65V23.16H52.65ZM53.15 38.04H51.25V39.04H53.15V38.04ZM51.75 38.54V21.3H50.75V38.54H51.75Z" fill="black" mask="url(#path-1-outside-1_3196_2591)"/>
<path d="M8 22H80L72 46H0L8 22Z" fill="#B3B3B3"/>
<path d="M12.72 37V33.96H17.904V17.576H13.648V15.24C15.888 14.856 17.424 14.28 18.8 13.448H21.584V33.96H26.192V37H12.72ZM31.57 21.42H45.05V38.4H43.03V23.32H33.51V38.46H31.57V21.42ZM32.89 28.26H43.87V30.12H32.89V28.26ZM32.87 35.26H43.89V37.16H32.87V35.26ZM52.59 25.98H63.85V27.78H52.59V25.98ZM52.59 30.68H63.85V32.48H52.59V30.68ZM52.59 35.38H63.85V37.22H52.59V35.38ZM51.25 21.3H65.13V38.54H63.13V23.16H53.15V38.54H51.25V21.3Z" fill="white"/>
</svg>
