<svg width="141" height="32" viewBox="0 0 141 32" fill="none" xmlns="http://www.w3.org/2000/svg">
<path d="M139.13 15.7536H121.075C121.075 15.7536 130.429 16.2464 130.429 17.7216V29.232C130.429 30.9312 130.33 30.944 122.058 30.944C114.246 30.944 114.182 30.9248 114.182 29.408V7.8784C114.182 4.9248 116.701 0 123.565 0H115.68C113.197 0 106.304 1.968 106.304 7.8784V28.5568C106.304 30.5248 103.133 32.0032 101.341 32.0032H139.126C139.126 32.0032 138.304 32.0032 138.304 31.0176V16.7392C138.304 16.2464 138.47 15.7536 139.126 15.7536H139.13Z" fill="#FF0084"/>
<path d="M132.583 0H128.906C128.906 0 129.354 0 129.354 0.464V6.4864C129.354 7.8752 127.479 7.8752 127.479 7.8752H138.912C138.912 7.8752 138.464 7.8752 138.464 7.4112V1.3888C138.464 0 140.339 0 140.339 0H132.583Z" fill="#FF0084"/>
<path d="M77.9841 29.0272V11.6C77.9841 5.4176 83.3665 0 89.1137 0H81.7377C78.4449 0 70.0737 3.9392 70.0737 11.8144V29.1552C70.0737 31.9968 66.8545 31.9968 66.8545 31.9968H80.6273C80.6273 31.9968 77.9841 31.9584 77.9841 29.024V29.0272Z" fill="#FF0084"/>
<path d="M92.1794 2.9728V20.4C92.1794 26.5824 86.797 32 81.0498 32H88.4258C91.7186 32 100.09 28.0608 100.09 20.1856V2.8416C100.09 0 103.309 0 103.309 0H89.5362C89.5362 0 92.1794 0.0384 92.1794 2.9728Z" fill="#FF0084"/>
<path d="M31.7696 21.9808C31.7696 28.6624 24.672 32 21.8784 32H0C0 32 5.0528 31.0144 5.0528 27.0784V1.968C5.0528 0.4896 4.0832 0 4.0832 0H25.0624L31.7696 6.7072C31.7696 11.2544 28.48 14.256 25.4976 15.7056L31.7696 21.9776V21.9808ZM25.0624 15.9104C23.8272 16.4544 22.6784 16.7296 21.8784 16.7296C19.0848 16.7296 12.2208 16.7296 12.2208 16.7296V28.512C12.2208 29.9904 12.6432 30.48 13.1904 30.48H15.6192C20.4928 30.48 25.0592 27.408 25.0592 22.1632V15.9072L25.0624 15.9104ZM25.0624 1.4592H17.2768C15.744 1.4592 12.224 1.7312 12.224 4.9248V15.2736H15.6256C20.4992 15.2736 25.0656 12.1376 25.0656 6.8928V1.456L25.0624 1.4592Z" fill="#FF0084"/>
<path d="M34.304 32C34.304 32 37.9552 31.4272 37.9552 28.1376V1.968C37.9552 0.4896 36.9856 0 36.9856 0H50.176C50.176 0 45.1232 0.9856 45.1232 4.9216V28.5088C45.1232 29.9872 45.5456 30.4768 46.0928 30.4768H64.576C64.4128 30.4768 64.2112 30.5664 64.2112 31.0112C64.2112 31.9968 65.0336 31.9968 65.0336 31.9968H34.304V32Z" fill="#FF0084"/>
</svg>
