<?xml version="1.0" encoding="UTF-8"?>
<svg id="_レイヤー_2" data-name="レイヤー 2" xmlns="http://www.w3.org/2000/svg" viewBox="0 0 626.42 100">
  <defs>
    <style>
      .cls-1 {
        fill: #ff0084;
        stroke-width: 0px;
      }
    </style>
  </defs>
  <g id="_レイヤー_2-2" data-name="レイヤー 2">
    <path class="cls-1" d="m386.99,0s3.51,1.54,3.51,6.15v56.92c0,3.79-3.12,7.57-7.64,5.39L312.03,0h0s0,0,0,0v1.23s0,0,0,0v89.54c0,6.15-6.84,9.23-12.37,9.23h39.58s-3.51-1.54-3.51-6.15v-56.92c0-3.79,3.11-7.57,7.64-5.39l70.83,68.47V9.23c0-6.15,6.84-9.23,12.37-9.23h-39.58Z"/>
    <g>
      <path class="cls-1" d="m472.04,0h-34.84s2,0,2,3.08v36.92c0,6.15-6.28,13.85-6.28,13.85l25.13-24.62V7.69c0-7.69,13.99-7.69,13.99-7.69Z"/>
      <path class="cls-1" d="m518.57,3.08v36.92c0,6.15-6.28,13.85-6.28,13.85l25.13-24.62V7.69c0-7.69,13.99-7.69,13.99-7.69h-34.84s2,0,2,3.08Z"/>
      <path class="cls-1" d="m496.18,96.92V7.69c0-7.69,17.3-7.69,17.3-7.69h-39.31s1.89,0,1.89,3.08v89.23c0,7.69-17.3,7.69-17.3,7.69h39.31s-1.89,0-1.89-3.08Z"/>
    </g>
    <path class="cls-1" d="m203.75,0h-20.52s3.63,2.04,3.63,4.5c0,3.93-30.44,76.29-30.44,76.29L125.96,15.16c-5.48-10.82,5.49-15.16,5.49-15.16h-35.37s5.08,2.3,7.64,6.06c6.39,9.43,44.05,93.94,44.05,93.94h7.81L192.82,9.03c2.85-7.37,13.01-9.03,13.01-9.03h-2.07Z"/>
    <path class="cls-1" d="m89.71,100H0s15.79-3.08,15.79-15.38V6.15c0-4.62-3.03-6.15-3.03-6.15h81.42s-5.86.64-5.86,3.1c0,1.4-.16,1.45-.46,1.45h-33.87c-4.79,0-15.79.85-15.79,10.83v32.34h50.55s-5.86.64-5.86,3.1c0,1.4-.16,1.45-.46,1.45h-44.22v36.82c0,4.62,1.32,6.15,3.03,6.15h52.95s-5.86.64-5.86,3.1c0,.46.05,1.41,1.4,1.65Z"/>
    <path class="cls-1" d="m292.31,100h-89.71s15.79-3.08,15.79-15.38V6.15c0-4.62-3.03-6.15-3.03-6.15h81.42s-5.86.64-5.86,3.1c0,1.4-.16,1.45-.46,1.45h-33.87c-4.79,0-15.79.85-15.79,10.83v32.34h50.55s-5.86.64-5.86,3.1c0,1.4-.16,1.45-.46,1.45h-44.22v36.82c0,4.62,1.32,6.15,3.03,6.15h52.95s-5.86.64-5.86,3.1c0,.46.05,1.41,1.4,1.65Z"/>
    <g>
      <path class="cls-1" d="m576.98,61.64v-25.39c0-19.32,16.82-36.25,34.78-36.25h-23.05c-10.29,0-36.45,12.31-36.45,36.92l24.72,24.72Z"/>
      <path class="cls-1" d="m601.7,38.36v25.39c0,19.32-16.82,36.25-34.78,36.25h23.05c10.29,0,36.45-12.31,36.45-36.92l-24.72-24.72Z"/>
    </g>
  </g>
</svg>