<?xml version="1.0" encoding="utf-8"?>
<!-- Generator: Adobe Illustrator 27.8.1, SVG Export Plug-In . SVG Version: 6.00 Build 0)  -->
<svg version="1.1" id="レイヤー_1" xmlns="http://www.w3.org/2000/svg" xmlns:xlink="http://www.w3.org/1999/xlink" x="0px"
	 y="0px" viewBox="0 0 48 48" style="enable-background:new 0 0 48 48;" xml:space="preserve">
<style type="text/css">
	.st0{fill:#FFFFFF;}
</style>
<path class="st0" d="M24,33.8c0.4,0,0.8-0.1,1.1-0.4c0.3-0.3,0.4-0.7,0.4-1.1c0-0.4-0.1-0.7-0.4-1c-0.3-0.3-0.7-0.4-1.1-0.4
	s-0.8,0.1-1,0.4c-0.3,0.3-0.5,0.6-0.5,1c0,0.4,0.1,0.8,0.5,1.1C23.2,33.7,23.6,33.8,24,33.8z M24,25.5c0.4,0,0.8-0.1,1.1-0.5
	c0.3-0.3,0.4-0.6,0.4-1s-0.1-0.8-0.4-1.1c-0.3-0.3-0.7-0.4-1.1-0.4s-0.8,0.1-1,0.4c-0.3,0.3-0.5,0.7-0.5,1.1s0.1,0.8,0.5,1
	C23.2,25.4,23.6,25.5,24,25.5z M24,17.1c0.4,0,0.8-0.1,1.1-0.5c0.3-0.3,0.4-0.6,0.4-1c0-0.4-0.1-0.8-0.4-1.1
	c-0.3-0.3-0.7-0.4-1.1-0.4s-0.8,0.1-1,0.4c-0.3,0.3-0.5,0.6-0.5,1.1c0,0.4,0.1,0.8,0.5,1C23.2,17,23.6,17.1,24,17.1z M41,40H7
	c-0.8,0-1.5-0.3-2.1-0.9C4.3,38.5,4,37.8,4,37v-7.6c1.2-0.3,2.3-0.9,3.1-1.9c0.8-1,1.2-2.1,1.2-3.5c0-1.3-0.4-2.5-1.2-3.5
	c-0.8-1-1.8-1.6-3.1-1.9V11c0-0.8,0.3-1.5,0.9-2.1S6.2,8,7,8h34c0.8,0,1.5,0.3,2.1,0.9C43.7,9.5,44,10.2,44,11v7.7
	c-1.2,0.2-2.3,0.9-3.1,1.9s-1.2,2.2-1.2,3.5c0,1.3,0.4,2.5,1.2,3.5c0.8,1,1.8,1.6,3.1,1.9V37c0,0.8-0.3,1.5-0.9,2.1
	C42.5,39.7,41.8,40,41,40z M41,37v-5.5c-1.3-0.9-2.3-1.9-3.1-3.2c-0.8-1.3-1.2-2.7-1.2-4.3s0.4-3,1.2-4.3c0.8-1.3,1.8-2.4,3.1-3.2
	V11H7v5.4c1.3,0.9,2.3,2,3.1,3.2c0.8,1.3,1.2,2.7,1.2,4.3s-0.4,3-1.2,4.3c-0.8,1.3-1.8,2.4-3.1,3.2V37H41z"/>
</svg>
