<?xml version="1.0" encoding="UTF-8"?>
<svg id="_レイヤー_2" data-name="レイヤー 2" xmlns="http://www.w3.org/2000/svg" viewBox="0 0 587.27 587.27">
  <defs>
    <style>
      .cls-1 {
        stroke-linecap: round;
      }

      .cls-1, .cls-2 {
        fill: none;
        stroke: #040000;
        stroke-miterlimit: 10;
        stroke-width: 12.7px;
      }

      .cls-3 {
        fill: #fff;
        stroke: #231815;
        stroke-width: 9px;
      }
    </style>
  </defs>
  <g id="_レイヤー_1-2" data-name="レイヤー 1">
    <circle class="cls-3" cx="293.63" cy="293.63" r="289.13" transform="translate(-121.63 293.63) rotate(-45)"/>
    <g>
      <g>
        <path class="cls-2" d="m111.5,202.14c-3.5,5.1-4.44,16.15-6.33,38.25-1.3,15.22-3.41,40.1,2.82,69.94,3.7,17.72,5.57,20.96,5.9,32.06.44,15.33-2.71,23.55-4.51,34.1-3.74,21.88-2.59,55.88,15.11,75.54,11.65,12.94,26.11,16.82,49.1,22.66,34.74,8.83,59.26,7.74,105.75,7.55,10.82-.04,52.5,1.51,101.83-1.37,6.77-.4,16.59-1.04,29.07-4.3,12.25-3.21,40.34-10.98,57.94-35.87,1.49-2.11,3.16-4.47,4.8-7.58,0,0,.87-1.66,1.64-3.4,7.83-17.75,5.13-39.45,5.13-39.45-.11-.75-.27-1.86-.5-3.19-1.72-10.08-4.02-15.77-5.87-22.55,0,0-1.59-5.86-3.06-16.34-1.13-8.07-1.87-22.66,4.04-43.58h0c2-10.48,7.13-37.46,7.2-61.27.06-21.36.08-32.03-4.43-39.15-5.61-8.85-16.84-16.37-133.45-19.74-6.68-.19-22.45-.63-43.23-.46-16.57.13-174.45-2.94-188.94,18.17Z"/>
        <path class="cls-2" d="m213.23,482.25c.98,15,1.97,30,2.95,45,24.92,4.75,55.87,8.52,91.4,8.09,30.02-.37,56.54-3.65,78.64-7.79.88-16.36,1.75-32.72,2.63-49.07"/>
      </g>
      <path class="cls-2" d="m112.82,328.38c10.49,6.68,16.58,6.21,20.13,4.74,18.29-7.56,7.3-57.31,26.5-65,6.29-2.52,12.9.79,14.92,1.53,28.55,10.51,12.26,58.96,41.66,72,.53.23,1.01.46,1.01.46s9.51,4.01,22.24-2.11c18.73-9,7.78-56.83,28.6-67.91,10.81-5.76,24.78,1.29,26.49,2.15,26.24,13.25,17.93,52.1,41.04,62.32,10.5,4.64,24.11,2.11,32.95-3.59,28.42-18.32,15.03-75.13,36.93-80.53,4.39-1.08,8.35.13,9.08.36,21.07,6.76,1.1,53.4,29.84,82.72,9.16,9.34,19.59,14.14,26.48,16.26"/>
      <path class="cls-1" d="m216,158.88c-6.63-7.23-13.38-17.25-12.3-28.42,1.43-14.73,15.4-20.21,16.22-34.45.39-6.67-2.07-15.94-14.31-27.58"/>
      <path class="cls-1" d="m386.4,158.88c-6.63-7.23-13.38-17.25-12.3-28.42,1.43-14.73,15.4-20.21,16.22-34.45.39-6.67-2.07-15.94-14.31-27.58"/>
      <path class="cls-1" d="m301.2,158.88c-6.63-7.23-13.38-17.25-12.3-28.42,1.43-14.73,15.4-20.21,16.22-34.45.39-6.67-2.07-15.94-14.31-27.58"/>
    </g>
  </g>
</svg>