<?xml version="1.0" encoding="UTF-8"?>
<svg id="_レイヤー_2" data-name="レイヤー 2" xmlns="http://www.w3.org/2000/svg" viewBox="0 0 19.84 19.84">
  <defs>
    <style>
      .cls-1 {
        fill: #231815;
      }

      .cls-1, .cls-2, .cls-3 {
        stroke-width: 0px;
      }

      .cls-2 {
        fill: none;
      }

      .cls-3 {
        fill: #fff;
      }
    </style>
  </defs>
  <g id="_レイヤー_9" data-name="レイヤー 9">
    <g>
      <circle class="cls-1" cx="9.92" cy="9.92" r="9.92"/>
      <g>
        <path class="cls-3" d="m17.6,15.49c-1.73,2.38-4.53,3.92-7.68,3.92s-5.96-1.55-7.68-3.92h15.37Z"/>
        <path class="cls-3" d="m19.42,9.92c0,1.83-.52,3.54-1.42,5h-7.86v-5.49c.06.12.14.22.24.29.14.1.32.14.52.14.41,0,.93-.17,1.54-.36,1.17-.37,2.62-.84,3.99-.4l.51.16-.26-.47s-.18-.33-.55-.7c-.34-.34-.91-.78-1.73-.98-.61-.15-1.28-.15-1.98,0-.79.18-1.63.55-2.5,1.12-.87-.56-1.71-.94-2.5-1.12-.7-.16-1.37-.16-1.98,0-.81.2-1.39.65-1.73.98-.37.37-.54.69-.55.7l-.26.47.51-.16c1.37-.44,2.82.03,3.99.4.9.29,1.62.52,2.05.23.1-.07.19-.17.24-.29v5.48H1.85c-.9-1.45-1.42-3.16-1.42-5C.43,4.69,4.69.43,9.92.43s9.49,4.26,9.49,9.49Z"/>
        <path class="cls-3" d="m9.56,8.52s-.03.03-.04.05c-.09.12-.14.27-.14.42-.02.29-.12.36-.16.38-.26.18-.95-.05-1.68-.28-.6-.19-1.27-.41-1.99-.52-.33-.05-.63-.08-.93-.08-.26,0-.5.02-.74.06.05-.05.1-.11.15-.16.43-.43.95-.72,1.52-.86,1.16-.28,2.5.05,4,.99Z"/>
        <path class="cls-3" d="m15.96,8.55c-.51-.08-1.06-.08-1.67.02-.72.11-1.4.33-1.99.52-.73.23-1.42.46-1.68.28-.03-.02-.14-.09-.16-.4,0-.15-.06-.29-.14-.41-.01-.02-.03-.03-.04-.05,1.5-.94,2.85-1.28,4-.99.57.14,1.09.43,1.52.86.06.06.11.11.15.16Z"/>
        <rect class="cls-2" x=".14" y=".14" width="19.56" height="19.56"/>
      </g>
    </g>
  </g>
</svg>