<?xml version="1.0" encoding="UTF-8"?>
<svg id="_レイヤー_2" data-name="レイヤー 2" xmlns="http://www.w3.org/2000/svg" viewBox="0 0 19.84 19.84">
  <defs>
    <style>
      .cls-1 {
        fill: #231815;
      }

      .cls-1, .cls-2, .cls-3 {
        stroke-width: 0px;
      }

      .cls-2 {
        fill: none;
      }

      .cls-3 {
        fill: #fff;
      }
    </style>
  </defs>
  <g id="_レイヤー_9" data-name="レイヤー 9">
    <g>
      <circle class="cls-1" cx="9.92" cy="9.92" r="9.92"/>
      <g>
        <path class="cls-3" d="m15.29,17.75c-1.53,1.05-3.38,1.66-5.36,1.66s-3.84-.61-5.36-1.66h10.73Z"/>
        <path class="cls-3" d="m10.18,16.18v-1.13h-.52v1.13c-.16-.32-.38-.69-.65-1.09.21-.24.55-.73.68-1.56h.47c.13.83.46,1.32.68,1.56-.27.4-.49.77-.65,1.09Z"/>
        <path class="cls-3" d="m10.4,2.21h-.95c.09-.21.18-.37.26-.49.11-.16.19-.2.22-.2h0s.11.05.21.19c.08.12.17.29.26.5Z"/>
        <path class="cls-3" d="m19.42,9.92c0,2.94-1.34,5.57-3.45,7.32h-5.69c.15-.4.47-1.13,1.11-2.03l.15-.21-.21-.15s-.15-.12-.3-.36c-.12-.19-.27-.51-.35-.95h.3l.05-.2c.43-1.81.65-3.65.65-5.46s-.22-3.65-.65-5.46l-.05-.2h-.02c-.13-.34-.26-.61-.39-.8-.19-.27-.4-.41-.63-.41h0c-.23,0-.45.14-.64.41-.14.19-.27.45-.4.79h-.02l-.05.2c-.43,1.81-.65,3.65-.65,5.46s.22,3.65.65,5.46l.05.2h.3c-.08.45-.23.76-.35.95-.15.24-.29.35-.3.36l-.21.15.15.21c.64.9.96,1.64,1.11,2.03H3.87C1.77,15.49.42,12.86.42,9.92.42,4.68,4.68.42,9.92.42s9.5,4.26,9.5,9.5Z"/>
        <path class="cls-3" d="m11.15,7.61h-2.47c.02-1.63.21-3.26.59-4.88h1.29c.37,1.62.57,3.25.59,4.88Z"/>
        <path class="cls-3" d="m11.15,8.13c-.02,1.63-.21,3.26-.59,4.88h-1.29c-.37-1.62-.57-3.25-.59-4.88h2.47Z"/>
        <rect class="cls-2" x=".14" y=".14" width="19.56" height="19.56"/>
      </g>
    </g>
  </g>
</svg>