<svg xmlns="http://www.w3.org/2000/svg" width="77.086" height="13.87" viewBox="0 0 77.086 13.87">
  <g id="レイヤー_1" data-name="レイヤー 1" transform="translate(0 0)">
    <g id="グループ_71" data-name="グループ 71" transform="translate(0 0)">
      <path id="パス_32" data-name="パス 32" d="M17.83,4.013,18.994,0H17.185L16,4.013Z" transform="translate(-11.093 0)" fill="#fff"/>
      <path id="パス_33" data-name="パス 33" d="M1.913,7.943,2.558,5.7H1.144l.478-1.684H3.057L4.221,0H0V9.628L.5,7.943Z" transform="translate(0 0)" fill="#fff"/>
      <path id="パス_34" data-name="パス 34" d="M12.136,20.822h1.934l.645-2.246H12.78Z" transform="translate(-8.413 -12.878)" fill="#fff"/>
      <path id="パス_35" data-name="パス 35" d="M81.087,9.066c0,1.268.457,1.913,1.393,1.913,1.081,0,1.622-.957,1.622-2.6,0-1.185-.5-1.871-1.435-1.871-.977,0-1.58.894-1.58,2.558Z" transform="translate(-56.217 -4.512)" fill="#fff"/>
      <path id="パス_36" data-name="パス 36" d="M46.653,2.641l-.686,3.244a2.4,2.4,0,0,1,2.225-1.123c2.371,0,3.493,1.788,3.493,4.117a4.966,4.966,0,0,1-3.192,4.991h6.729a3.521,3.521,0,0,1-2.185-2.745l2.454-.978c.187,1.061.769,1.726,1.664,1.726,1.372,0,2.017-1.518,2.35-4.263a2.665,2.665,0,0,1-2.183,1.061,3.5,3.5,0,0,1-3.514-3.847c0-2.168.952-4.145,3.018-4.824H52.434l-.541,2.641h-5.24Z" transform="translate(-31.868 0)" fill="#fff"/>
      <path id="パス_37" data-name="パス 37" d="M0,31.39v4.242H.187L1.414,31.39Z" transform="translate(0 -21.762)" fill="#fff"/>
      <path id="パス_38" data-name="パス 38" d="M142.007,16.746c-.852,0-1.435.936-1.664,2.454h2.724a4.337,4.337,0,0,0,.083-.894c0-.977-.374-1.559-1.144-1.559Z" transform="translate(-97.298 -11.61)" fill="#fff"/>
      <path id="パス_39" data-name="パス 39" d="M215.976,16.746c-.852,0-1.435.936-1.664,2.454h2.724a4.339,4.339,0,0,0,.083-.894C217.12,17.328,216.745,16.746,215.976,16.746Z" transform="translate(-148.58 -11.61)" fill="#fff"/>
      <path id="パス_40" data-name="パス 40" d="M7.892,31.39,6.644,35.632h1.83L9.7,31.39Z" transform="translate(-4.606 -21.762)" fill="#fff"/>
      <path id="パス_41" data-name="パス 41" d="M136.735,2.682h-2.953L134.239,0H114.5l-.457,2.682h-2.953L111.552,0H88.34c1.58.564,2.48,2.125,2.48,5.053,0,4.735-1.464,7.931-4.092,8.817h6.651a2.973,2.973,0,0,1-2.08-2.849l2.308-.333c.187,1.061.665,1.476,1.476,1.476.728,0,1.206-.291,1.206-.936,0-.624-.395-.915-1.643-1.435C92.733,9,92.234,8.089,92.234,6.862a3.4,3.4,0,0,1,3.618-3.494,3.053,3.053,0,0,1,3.41,2.89l-2.121.52C97,5.7,96.559,5.261,95.831,5.261a1.019,1.019,0,0,0-1.1.957c0,.561.208.79,1.6,1.435A6.077,6.077,0,0,1,98.2,8.8a2.451,2.451,0,0,1,.686,1.83,3.228,3.228,0,0,1-2.2,3.244h5.675c-1.57-.571-2.31-2.1-2.31-4.159,0-3.41,1.871-6.342,4.783-6.342,2.059,0,3.681,1.414,3.681,4.263a8.34,8.34,0,0,1-.1,1.58h-5.469a6.725,6.725,0,0,0-.083,1.144c0,1.185.374,1.809,1.185,1.809s1.248-.437,1.643-1.767l2.308.416a4.208,4.208,0,0,1-2.5,3.057h3.789l1.705-10.252h2.849L112.114,13.87h3.951a2.973,2.973,0,0,1-2.08-2.849l2.308-.333c.187,1.061.665,1.476,1.476,1.476.728,0,1.206-.291,1.206-.936,0-.624-.395-.915-1.643-1.435-1.913-.79-2.412-1.705-2.412-2.932a3.4,3.4,0,0,1,3.618-3.494,3.053,3.053,0,0,1,3.41,2.89l-2.121.52c-.146-1.081-.582-1.518-1.31-1.518a1.019,1.019,0,0,0-1.1.957c0,.561.208.79,1.6,1.435A6.077,6.077,0,0,1,120.889,8.8a2.451,2.451,0,0,1,.686,1.83,3.228,3.228,0,0,1-2.2,3.244h5.675c-1.57-.571-2.31-2.1-2.31-4.159,0-3.41,1.871-6.342,4.783-6.342,2.059,0,3.681,1.414,3.681,4.263a8.339,8.339,0,0,1-.1,1.58H125.63a6.725,6.725,0,0,0-.083,1.144c0,1.185.374,1.809,1.185,1.809s1.248-.437,1.643-1.767l2.308.416a4.208,4.208,0,0,1-2.5,3.057h3.789l1.705-10.252h2.849L134.8,13.87h2.412V0h-.021Z" transform="translate(-60.127 0)" fill="#fff"/>
      <path id="パス_42" data-name="パス 42" d="M23.406,10.543l2.641-.873a1.93,1.93,0,0,0,1.851,2c1.227,0,1.892-1.061,1.892-2.724,0-1.227-.541-1.892-1.6-1.892A1.806,1.806,0,0,0,26.5,8.214L24.28,7.34,25.943,0H22.7L21.535,4.013h1.393l-.5,1.684H21.035l-.645,2.246h1.393l-.5,1.684H19.892L18.644,13.87h7.528a4.064,4.064,0,0,1-2.766-3.327Z" transform="translate(-12.926 0)" fill="#fff"/>
    </g>
  </g>
</svg>

