<?xml version="1.0" encoding="utf-8"?>
<!-- Generator: Adobe Illustrator 27.3.1, SVG Export Plug-In . SVG Version: 6.00 Build 0)  -->
<svg version="1.1" id="レイヤー_1" xmlns="http://www.w3.org/2000/svg" xmlns:xlink="http://www.w3.org/1999/xlink" x="0px"
	 y="0px" viewBox="0 0 1125.8 36.4" style="enable-background:new 0 0 1125.8 36.4;" xml:space="preserve">
<style type="text/css">
	.st0{fill:none;stroke:#FFFFFF;stroke-width:0.7111;stroke-miterlimit:5.6889;}
	.st1{fill:none;stroke:#FFFFFF;stroke-width:0.5689;stroke-miterlimit:5.6889;}
	.st2{fill:#FFFFFF;}
	.st3{fill:none;}
</style>
<g>
	<path id="_パス_47" class="st0" d="M156.7,34.9h-0.1c-1.7,0-2.4-2-3.1-3.9c0,0-0.7-1.6-10.6-29.5h-0.3L122.1,26
		c-7.6,8.5-11.4,8.9-13.5,8.9l-0.1,0.4h19.8l0.1-0.4c-8.2,0-7.7-6.7-5.7-8.9h13.5l1.3,3.3c0,0,2.6,5.6-2.9,5.6l-0.1,0.4h22.2
		C156.7,35.2,156.7,35,156.7,34.9L156.7,34.9L156.7,34.9z M123,25.5l9-10.8l4,10.8H123z"/>
	<path id="_パス_51" class="st0" d="M897.8,18.6C900.4,9.1,892.6,1,877.5,1S850.2,9,847.6,18.6c-2.6,9.6,5.4,17.1,20.5,17.1
		S895.3,28.2,897.8,18.6z M881.1,18.6c-3.5,13.3-4.7,16.7-12.9,16.7c-8.1,0-7.6-3.5-4-16.7c3.5-13.2,4.9-17.2,13.1-17.2
		C885.4,1.4,884.6,5.4,881.1,18.6L881.1,18.6z"/>
	<path id="_パス_52" class="st0" d="M926.5,35.3L907.6,9.4l-4,15c-1,3.9-2.4,10.4,7.6,10.4l-0.1,0.5h-21.8l0.1-0.5
		c9.5,0,12.6-6.6,13.7-10.4l4.2-15.6l-2.4-3.2c-3.1-3.8-5.8-3.8-7.6-3.9l0.1-0.4h21.9l17,23.6l3.5-12.9c1.2-4.5,0.6-10.4-7.1-10.4
		l0.1-0.4h20.8l-0.1,0.4c-8.5,0-11.9,5.9-13.1,10.4l-6.2,23.1L926.5,35.3L926.5,35.3z"/>
	<g id="_グループ_72">
		<path id="_パス_53" class="st1" d="M745.8,1.4c-13.7,0-26.3,1.1-28.4,9.2c-1.9,7.2,7.2,8.7,13.8,8.7c-7.9,0-12.2,1.2-17.9,9.8
			c-2.3,3.6-6.5,6.1-8.3,6.1l-0.1,0.5l13.7-0.5c4.9,0,6.9-2.2,11-11.1c2.2-4.8,10.4-4.5,10.4-4.5h3.2l-2.7,10.2
			c-1.3,4.7-1.6,5-4.5,5l-0.1,0.5h19.1l0.1-0.5c-3,0-3.5-0.1-2.2-5l6.4-23.8c0.8-3,1.7-4.3,4.7-4.3l0.1-0.4L745.8,1.4L745.8,1.4z
			 M743.1,19.2H741c-8.9,0-9.8,0.1-7.5-8.6c2.4-9.2,4.2-8.8,12.2-8.8h2.1L743.1,19.2L743.1,19.2L743.1,19.2z"/>
		<path id="_パス_54" class="st0" d="M745.8,1.4c-13.7,0-26.3,1.1-28.4,9.2c-1.9,7.2,7.2,8.7,13.8,8.7c-7.9,0-12.2,1.2-17.9,9.8
			c-2.3,3.6-6.5,6.1-8.3,6.1l-0.1,0.5l13.7-0.5c4.9,0,6.9-2.2,11-11.1c2.2-4.8,10.4-4.5,10.4-4.5h3.2l-2.7,10.2
			c-1.3,4.7-1.6,5-4.5,5l-0.1,0.5h19.1l0.1-0.5c-3,0-3.5-0.1-2.2-5l6.4-23.8c0.8-3,1.7-4.3,4.7-4.3l0.1-0.4L745.8,1.4L745.8,1.4z
			 M743.1,19.2H741c-8.9,0-9.8,0.1-7.5-8.6c2.4-9.2,4.2-8.8,12.2-8.8h2.1L743.1,19.2L743.1,19.2L743.1,19.2z"/>
	</g>
	<path id="_パス_55" class="st0" d="M784.8,1.8l-4.3,16.1h5.6c0.1,0,7.3,0.1,9.6-5.7h0.6L793.1,24h-0.6c0.8-5.7-6.5-5.7-6.6-5.7
		h-5.6l-4.4,16.4h2.5c0,0,19.5,0.5,22.1-9h0.6l-2.5,9.4h-40.1l0.1-0.5c2.9,0,4.8-2.9,5.6-6.1L769.8,8c0.8-3,0.7-6.3-2.3-6.3l0.1-0.4
		h39.3l-2.6,9.8h-0.6c2.5-9.4-16.2-9.4-16.2-9.4L784.8,1.8L784.8,1.8L784.8,1.8z"/>
	<path id="_パス_59" class="st0" d="M830.6,1c11.8,0,15.7,2.2,15.7,2.2l-2.2,8.1h-0.6c-0.5-3.5-2-9.8-13-9.8
		c-7.4,0-11.1,5.7-3.2,9.8l9.3,4.9c8,4.2,8.7,10.4,2.2,15.6c0,0-4.8,3.9-16.7,3.9c-13.3,0-17.8-2.4-17.8-2.4l2.5-9.2h0.6
		c0.2,3.3,4,11.3,14.8,11.3c7.3,0,11.2-6.4,4-10.7l-9.3-4.7c-8.6-4.3-9.4-10.1-2.2-15.3C814.6,4.7,819.4,1,830.6,1L830.6,1L830.6,1z
		"/>
	<path id="_パス_63" class="st1" d="M248.9,23.7h0.6l-1.9,9.7c-2.1,0.9-9.4,2.3-16.7,2.3c-14.7,0-26.1-6.5-23.1-17.4
		C210.7,7.5,225.5,1,240.2,1c8.9,0,14.1,1.3,15.5,2.2l-3.3,9.7h-0.6c0.6-10-6.8-11.5-11.8-11.5c-7.6,0-11.9,3.8-15.4,17
		c-3.5,13.2-1.1,17,6.3,17C235.7,35.3,244.1,33.3,248.9,23.7L248.9,23.7L248.9,23.7z"/>
	<path id="_パス_64" class="st1" d="M298.6,1.4l-2.6,9.8h-0.6c2.5-9.4-16.2-9.4-16.2-9.4h-2.5l-4.3,16.1h5.6
		c0.1,0,7.3,0.1,9.6-5.7h0.6L285,24h-0.6c0.8-5.7-6.5-5.7-6.6-5.7h-5.6l-4.4,16.4h2.5c0,0,19.5,0.5,22.1-9h0.6l-2.5,9.4h-40.2
		l0.1-0.5c2.9,0,4.8-2.9,5.6-6.1L261.5,8c0.8-3,0.7-6.3-2.3-6.3l0.1-0.4L298.6,1.4L298.6,1.4z"/>
	<path id="_パス_65" class="st1" d="M216.2,1.4l-0.1,0.4c-8.5,0-11.9,5.9-13.1,10.4l-6.2,23.1h-7.6L170.2,9.5l-4,15
		c-1,3.9-2.4,10.4,7.6,10.4l-0.1,0.5h-17c0-0.1,0-0.3,0-0.5c6.8-0.1,8-7.2,8.9-10.4l4.2-15.6l-2.4-3.2c-3.1-3.8-5.8-3.8-7.6-3.9
		l0.1-0.4h21.9l17,23.6l3.4-12.9c1.2-4.5,0.6-10.4-7.1-10.4l0.1-0.4L216.2,1.4L216.2,1.4L216.2,1.4z"/>
	<path id="_パス_47-2" class="st0" d="M570.9,34.9h-0.1c-1.7,0-2.4-2-3.1-3.9c0,0-0.7-1.6-10.6-29.5h-0.3L536.2,26
		c-7.6,8.5-11.4,8.9-13.4,8.9l-0.1,0.4h19.8l0.1-0.4c-8.2,0-7.7-6.7-5.7-8.9h13.5l1.3,3.3c0,0,2.6,5.6-2.9,5.6l-0.1,0.4h22.2
		C570.9,35.2,570.9,35,570.9,34.9L570.9,34.9L570.9,34.9z M537.1,25.5l9-10.8l4,10.8H537.1z"/>
	<path id="_パス_51-2" class="st0" d="M484.8,18.6C487.4,9.1,479.6,1,464.4,1c-15.1,0-27.2,8.1-29.8,17.6s5.3,17.1,20.5,17.1
		C470.2,35.7,482.2,28.2,484.8,18.6L484.8,18.6z M468.1,18.6c-3.5,13.3-4.7,16.7-12.9,16.7s-7.6-3.5-4-16.7
		c3.5-13.2,4.9-17.2,13.1-17.2C472.4,1.4,471.6,5.4,468.1,18.6L468.1,18.6z"/>
	<path id="_パス_52-2" class="st0" d="M513.5,35.3L494.6,9.4l-4,15c-1,3.9-2.4,10.4,7.6,10.4l-0.1,0.5h-21.8l0.1-0.5
		c9.5,0,12.6-6.6,13.7-10.4l4.2-15.6l-2.4-3.2c-3.1-3.8-5.8-3.8-7.6-3.9l0.1-0.4h21.9l17,23.6l3.5-12.9c1.2-4.5,0.6-10.4-7.1-10.4
		l0.1-0.4h20.8l-0.1,0.4c-8.5,0-11.9,5.9-13.1,10.4L521,35.2L513.5,35.3L513.5,35.3z"/>
	<g id="_グループ_72-2">
		<path id="_パス_53-2" class="st1" d="M332.7,1.4c-13.7,0-26.3,1.1-28.4,9.2c-1.9,7.2,7.2,8.7,13.8,8.7c-7.9,0-12.2,1.2-17.9,9.8
			c-2.3,3.6-6.5,6.1-8.3,6.1l-0.1,0.5l13.7-0.5c4.9,0,6.9-2.2,11-11.1c2.2-4.8,10.4-4.5,10.4-4.5h3.2l-2.7,10.2
			c-1.3,4.7-1.6,5-4.5,5l-0.1,0.5h19.1l0.1-0.5c-3,0-3.5-0.1-2.2-5l6.4-23.8c0.8-3,1.7-4.3,4.7-4.3l0.1-0.4L332.7,1.4L332.7,1.4z
			 M330.1,19.2H328c-8.9,0-9.8,0.1-7.5-8.6c2.4-9.2,4.2-8.8,12.2-8.8h2.1L330.1,19.2L330.1,19.2L330.1,19.2z"/>
		<path id="_パス_54-2" class="st0" d="M332.7,1.4c-13.7,0-26.3,1.1-28.4,9.2c-1.9,7.2,7.2,8.7,13.8,8.7c-7.9,0-12.2,1.2-17.9,9.8
			c-2.3,3.6-6.5,6.1-8.3,6.1l-0.1,0.5l13.7-0.5c4.9,0,6.9-2.2,11-11.1c2.2-4.8,10.4-4.5,10.4-4.5h3.2l-2.7,10.2
			c-1.3,4.7-1.6,5-4.5,5l-0.1,0.5h19.1l0.1-0.5c-3,0-3.5-0.1-2.2-5l6.4-23.8c0.8-3,1.7-4.3,4.7-4.3l0.1-0.4L332.7,1.4L332.7,1.4z
			 M330.1,19.2H328c-8.9,0-9.8,0.1-7.5-8.6c2.4-9.2,4.2-8.8,12.2-8.8h2.1L330.1,19.2L330.1,19.2L330.1,19.2z"/>
	</g>
	<path id="_パス_55-2" class="st0" d="M371.8,1.8l-4.3,16.1h5.6c0.1,0,7.3,0.1,9.6-5.7h0.6L380.1,24h-0.6c0.8-5.7-6.5-5.7-6.6-5.7
		h-5.6l-4.4,16.4h2.5c0,0,19.5,0.5,22.1-9h0.6l-2.5,9.4h-40.1l0.1-0.5c2.9,0,4.8-2.9,5.6-6.1L356.8,8c0.8-3,0.7-6.3-2.3-6.3l0.1-0.4
		h39.3l-2.7,9.8h-0.6c2.5-9.4-16.2-9.4-16.2-9.4L371.8,1.8L371.8,1.8L371.8,1.8z"/>
	<path id="_パス_59-2" class="st0" d="M417.6,1c11.8,0,15.7,2.2,15.7,2.2l-2.2,8.1h-0.6c-0.5-3.5-2-9.8-13-9.8
		c-7.4,0-11.1,5.7-3.2,9.8l9.3,4.9c8,4.2,8.7,10.4,2.2,15.6c0,0-4.8,3.9-16.7,3.9c-13.3,0-17.8-2.4-17.8-2.4l2.5-9.2h0.6
		c0.2,3.3,4,11.3,14.8,11.3c7.3,0,11.2-6.4,4-10.7l-9.3-4.7c-8.6-4.3-9.4-10.1-2.2-15.3C401.6,4.7,406.4,1,417.6,1L417.6,1L417.6,1z
		"/>
	<path id="_パス_63-2" class="st2" d="M663.1,23.7h0.6l-1.9,9.7c-2.1,0.9-9.4,2.3-16.7,2.3c-14.7,0-26.1-6.5-23.1-17.4
		C624.9,7.5,639.7,1,654.4,1c8.9,0,14.1,1.3,15.5,2.2l-3.3,9.7H666c0.6-10-6.8-11.5-11.8-11.5c-7.6,0-11.9,3.8-15.4,17
		c-3.5,13.2-1.1,17,6.3,17C649.8,35.3,658.2,33.3,663.1,23.7L663.1,23.7L663.1,23.7z"/>
	<path id="_パス_64-2" class="st2" d="M712.7,1.4l-2.7,9.8h-0.6c2.5-9.4-16.2-9.4-16.2-9.4h-2.5l-4.3,16.1h5.6
		c0.1,0,7.3,0.1,9.6-5.7h0.6L699.1,24h-0.6c0.8-5.7-6.5-5.7-6.6-5.7h-5.6l-4.4,16.4h2.5c0,0,19.5,0.5,22.1-9h0.6l-2.5,9.4h-40.2
		l0.1-0.5c2.9,0,4.8-2.9,5.6-6.1L675.6,8c0.8-3,0.7-6.3-2.3-6.3l0.1-0.4L712.7,1.4L712.7,1.4z"/>
	<path id="_パス_65-2" class="st2" d="M630.3,1.4l-0.1,0.4c-8.5,0-11.9,5.9-13.1,10.4l-6.2,23.1h-7.6L584.4,9.5l-4,15
		c-1,3.9-2.4,10.4,7.6,10.4l-0.1,0.5h-17c0-0.1,0-0.3,0-0.5c6.8-0.1,8-7.2,8.9-10.4l4.2-15.6l-2.4-3.2c-3.1-3.8-5.8-3.8-7.6-3.9
		l0.1-0.4h21.9l17,23.6l3.4-12.9c1.2-4.5,0.6-10.4-7.1-10.4l0.1-0.4L630.3,1.4L630.3,1.4L630.3,1.4z"/>
	<rect class="st3" width="1125.8" height="34.7"/>
</g>
</svg>
