<?xml version="1.0" encoding="utf-8"?>
<!-- Generator: Adobe Illustrator 27.3.1, SVG Export Plug-In . SVG Version: 6.00 Build 0)  -->
<svg version="1.1" id="レイヤー_1" xmlns="http://www.w3.org/2000/svg" xmlns:xlink="http://www.w3.org/1999/xlink" x="0px"
	 y="0px" viewBox="0 0 1125.8 35.4" style="enable-background:new 0 0 1125.8 35.4;" xml:space="preserve">
<style type="text/css">
	.st0{fill:none;stroke:#FFFFFF;stroke-width:0.7111;stroke-miterlimit:5.6889;}
	.st1{fill:none;stroke:#FFFFFF;stroke-width:0.5689;stroke-miterlimit:5.6889;}
	.st2{fill:#FFFFFF;}
	.st3{fill:none;}
</style>
<g>
	<path id="_パス_45" class="st0" d="M522,4c-7.2,5.1-6.4,11,2.2,15.3l9.3,4.7c7.1,4.3,3.3,10.7-4,10.7c-10.8,0-14.6-8-14.8-11.3
		H514l-2.5,9.2c0,0,4.5,2.4,17.8,2.4c11.9,0,16.7-3.9,16.7-3.9c6.5-5.2,5.8-11.4-2.2-15.6l-9.3-4.9c-7.9-4.1-4.2-9.8,3.2-9.8
		c11,0,12.6,6.4,13,9.8h0.6l2.2-8.1c0,0-3.9-2.2-15.7-2.2C526.2,0.3,522,4,522,4L522,4L522,4z"/>
	<path id="_パス_46" class="st0" d="M729.9,0.8l-0.1,0.4c7.6,0,8.2,5.9,7.1,10.4l-3.5,12.9l-17-23.6h-21.9l-0.1,0.4
		c1.8,0.1,4.4,0.1,7.6,3.9l2.4,3.2l-4.2,15.6c-0.9,3.1-2,10.4-8.9,10.4c0,0.1,0,0.3,0,0.5h17l0.1-0.5c-10,0-8.6-6.5-7.6-10.4l4-15
		l18.9,25.8h7.6l6.2-23.1c1.2-4.5,4.6-10.4,13.1-10.4l0.1-0.4L729.9,0.8L729.9,0.8L729.9,0.8z"/>
	<g id="_グループ_73">
		<path id="_パス_56" class="st1" d="M453.1,0.8c-13.7,0-26.3,1.1-28.4,9.2c-1.9,7.2,7.2,8.7,13.8,8.7c-7.9,0-12.2,1.2-17.9,9.8
			c-2.3,3.6-6.5,6-8.3,6.1l-0.1,0.5l13.7-0.5c4.9,0,6.9-2.2,11-11.1c2.2-4.8,10.4-4.6,10.4-4.6h3.2l-2.7,10.2c-1.3,4.7-1.6,5-4.5,5
			l-0.1,0.5h19.1l0.1-0.5c-3,0-3.5-0.1-2.2-5l6.4-23.8c0.8-3,1.7-4.3,4.7-4.3l0.1-0.4L453.1,0.8L453.1,0.8z M450.4,18.5h-2.2
			c-8.9,0-9.8,0.1-7.5-8.6c2.4-9.2,4.2-8.8,12.2-8.8h2.1L450.4,18.5L450.4,18.5z"/>
		<path id="_パス_57" class="st0" d="M453.1,0.8c-13.7,0-26.3,1.1-28.4,9.2c-1.9,7.2,7.2,8.7,13.8,8.7c-7.9,0-12.2,1.2-17.9,9.8
			c-2.3,3.6-6.5,6-8.3,6.1l-0.1,0.5l13.7-0.5c4.9,0,6.9-2.2,11-11.1c2.2-4.8,10.4-4.6,10.4-4.6h3.2l-2.7,10.2c-1.3,4.7-1.6,5-4.5,5
			l-0.1,0.5h19.1l0.1-0.5c-3,0-3.5-0.1-2.2-5l6.4-23.8c0.8-3,1.7-4.3,4.7-4.3l0.1-0.4L453.1,0.8L453.1,0.8z M450.4,18.5h-2.2
			c-8.9,0-9.8,0.1-7.5-8.6c2.4-9.2,4.2-8.8,12.2-8.8h2.1L450.4,18.5L450.4,18.5z"/>
	</g>
	<path id="_パス_58" class="st0" d="M492.2,1.2l-4.3,16.1h5.6c0.1,0,7.3,0.1,9.6-5.7h0.6l-3.2,11.8h-0.6c0.8-5.7-6.5-5.7-6.6-5.7
		h-5.6l-4.4,16.4h2.4c0,0,19.5,0.5,22.1-9h0.6l-2.5,9.4h-40.1l0.1-0.5c2.9,0,4.8-2.9,5.6-6.1l5.5-20.7c0.8-3,0.7-6.3-2.3-6.3
		l0.1-0.4h39.3l-2.7,9.8h-0.6c2.5-9.4-16.2-9.4-16.2-9.4h-2.4V1.2L492.2,1.2z"/>
	<path id="_パス_60" class="st2" d="M584.8,0.3c-15.1,0-27.2,8.1-29.8,17.6s5.3,17.1,20.5,17.1c15.1,0,27.1-7.6,29.7-17.1
		C607.7,8.4,600,0.3,584.8,0.3z M588.5,17.9c-3.5,13.3-4.7,16.7-12.9,16.7c-8.1,0-7.6-3.5-4-16.7c3.5-13.2,4.9-17.2,13.1-17.2
		C592.9,0.8,592,4.7,588.5,17.9L588.5,17.9z"/>
	<path id="_パス_61" class="st2" d="M691.1,34.2c-1.7,0-2.4-2-3.1-3.9c0,0-0.7-1.6-10.6-29.5H677l-20.4,24.5
		c-7.6,8.5-11.4,8.9-13.4,8.9l-0.1,0.4h19.8l0.1-0.4c-8.2,0-7.7-6.7-5.7-8.9h13.5l1.3,3.3c0,0,2.6,5.6-2.9,5.6l-0.1,0.4h22.2
		c0-0.2,0-0.3,0-0.5L691.1,34.2L691.1,34.2z M657.5,24.9l9-10.8l4,10.8H657.5L657.5,24.9z"/>
	<path id="_パス_62" class="st2" d="M633.9,34.6L614.9,8.8l-4,15c-1,3.9-2.4,10.4,7.6,10.4l-0.1,0.5h-21.8l0.1-0.5
		c9.5,0,12.6-6.6,13.7-10.4l4.2-15.6L612,5c-3.1-3.8-5.8-3.8-7.6-3.9l0.1-0.4h21.9l17,23.6l3.5-12.9C648.1,7,647.5,1,639.9,1
		l0.1-0.4h20.8L660.7,1c-8.5,0-11.9,5.9-13.1,10.4l-6.2,23.1L633.9,34.6L633.9,34.6z"/>
	<path id="_パス_70" class="st0" d="M783.5,23.1h0.6l-1.9,9.7c-2.1,0.9-9.4,2.3-16.7,2.3c-14.7,0-26.1-6.5-23.1-17.4
		C745.2,6.8,760,0.4,774.8,0.4c8.9,0,14.1,1.3,15.5,2.2l-3.3,9.7h-0.6c0.6-10-6.8-11.5-11.8-11.5c-7.6,0-11.9,3.8-15.4,17
		c-3.5,13.3-1.1,17,6.3,17C770.2,34.6,778.6,32.7,783.5,23.1L783.5,23.1L783.5,23.1z"/>
	<path id="_パス_71" class="st0" d="M833.1,0.8l-2.6,9.8h-0.6c2.5-9.4-16.2-9.4-16.2-9.4h-2.5l-4.3,16.1h5.6
		c0.1,0,7.3,0.1,9.6-5.7h0.6l-3.1,11.8h-0.6c0.8-5.7-6.5-5.7-6.6-5.7h-5.6l-4.4,16.4h2.4c0,0,19.5,0.5,22.1-9h0.6l-2.5,9.4h-40.2
		l0.1-0.5c2.9,0,4.8-2.9,5.6-6.1L796,7.3c0.8-3,0.7-6.3-2.3-6.3l0.1-0.4h39.3V0.8z"/>
	<path id="_パス_45-2" class="st0" d="M110.1,4c-7.2,5.1-6.4,11,2.2,15.3l9.3,4.7c7.1,4.3,3.3,10.7-4,10.7
		c-10.8,0-14.6-8-14.8-11.3h-0.6l-2.5,9.2c0,0,4.5,2.4,17.8,2.4c11.9,0,16.7-3.9,16.7-3.9c6.5-5.2,5.8-11.4-2.2-15.6l-9.3-4.9
		c-7.9-4.1-4.2-9.8,3.2-9.8c11,0,12.6,6.4,13,9.8h0.6l2.2-8.1c0,0-3.9-2.2-15.7-2.2C114.3,0.3,110.1,4,110.1,4L110.1,4L110.1,4z"/>
	<path id="_パス_46-2" class="st0" d="M318,0.8l-0.1,0.4c7.6,0,8.2,5.9,7.1,10.4l-3.5,12.9l-17-23.6h-21.9l-0.1,0.4
		c1.8,0.1,4.4,0.1,7.6,3.9l2.4,3.2l-4.2,15.6c-0.9,3.1-2,10.4-8.9,10.4c0,0.1,0,0.3,0,0.5h17l0.1-0.5c-10,0-8.6-6.5-7.6-10.4l4-15
		l18.9,25.8h7.6l6.2-23.1c1.2-4.5,4.7-10.4,13.1-10.4l0.1-0.4L318,0.8L318,0.8L318,0.8z"/>
	<g id="_グループ_73-2">
		<path id="_パス_56-2" class="st1" d="M866.1,0.8c-13.7,0-26.3,1.1-28.4,9.2c-1.9,7.2,7.2,8.7,13.8,8.7c-7.9,0-12.2,1.2-17.9,9.8
			c-2.3,3.6-6.5,6-8.3,6.1l-0.1,0.5l13.7-0.5c4.9,0,6.9-2.2,11-11.1c2.2-4.8,10.4-4.6,10.4-4.6h3.2l-2.7,10.2c-1.3,4.7-1.6,5-4.5,5
			l-0.1,0.5h19.1l0.1-0.5c-3,0-3.5-0.1-2.2-5l6.4-23.8c0.8-3,1.7-4.3,4.7-4.3l0.1-0.4L866.1,0.8L866.1,0.8z M863.5,18.5h-2.2
			c-8.9,0-9.8,0.1-7.5-8.6c2.4-9.2,4.2-8.8,12.2-8.8h2.1L863.5,18.5L863.5,18.5z"/>
		<path id="_パス_57-2" class="st0" d="M866.1,0.8c-13.7,0-26.3,1.1-28.4,9.2c-1.9,7.2,7.2,8.7,13.8,8.7c-7.9,0-12.2,1.2-17.9,9.8
			c-2.3,3.6-6.5,6-8.3,6.1l-0.1,0.5l13.7-0.5c4.9,0,6.9-2.2,11-11.1c2.2-4.8,10.4-4.6,10.4-4.6h3.2l-2.7,10.2c-1.3,4.7-1.6,5-4.5,5
			l-0.1,0.5h19.1l0.1-0.5c-3,0-3.5-0.1-2.2-5l6.4-23.8c0.8-3,1.7-4.3,4.7-4.3l0.1-0.4L866.1,0.8L866.1,0.8z M863.5,18.5h-2.2
			c-8.9,0-9.8,0.1-7.5-8.6c2.4-9.2,4.2-8.8,12.2-8.8h2.1L863.5,18.5L863.5,18.5z"/>
	</g>
	<path id="_パス_58-2" class="st0" d="M905.2,1.2l-4.3,16.1h5.6c0.1,0,7.3,0.1,9.6-5.7h0.6l-3.2,11.8h-0.6
		c0.8-5.7-6.5-5.7-6.6-5.7h-5.6l-4.4,16.4h2.4c0,0,19.5,0.5,22.1-9h0.6l-2.5,9.4h-40.2l0.1-0.5c2.9,0,4.8-2.9,5.6-6.1L890,7.3
		c0.8-3,0.7-6.3-2.3-6.3l0.1-0.4h39.3l-2.6,9.8h-0.6c2.5-9.4-16.2-9.4-16.2-9.4h-2.4V1.2L905.2,1.2z"/>
	<path id="_パス_60-2" class="st1" d="M172.9,0.3c-15.1,0-27.2,8.1-29.8,17.6s5.3,17.1,20.5,17.1c15.1,0,27.1-7.6,29.7-17.1
		C195.9,8.4,188.1,0.3,172.9,0.3L172.9,0.3z M176.6,17.9c-3.5,13.3-4.7,16.7-12.9,16.7c-8.1,0-7.6-3.5-4-16.7
		c3.5-13.2,4.9-17.2,13.1-17.2S180.2,4.7,176.6,17.9L176.6,17.9z"/>
	<path id="_パス_61-2" class="st1" d="M279.3,34.2c-1.7,0-2.4-2-3.1-3.9c0,0-0.7-1.6-10.6-29.5h-0.3l-20.4,24.5
		c-7.6,8.5-11.4,8.9-13.4,8.9l-0.1,0.4H251l0.1-0.4c-8.2,0-7.7-6.7-5.7-8.9h13.5l1.3,3.3c0,0,2.6,5.6-2.9,5.6l-0.1,0.4h22.2
		c0-0.2,0-0.3,0-0.5L279.3,34.2L279.3,34.2z M245.6,24.9l9-10.8l4,10.8H245.6z"/>
	<path id="_パス_62-2" class="st1" d="M222,34.6L203,8.8l-4,15c-1,3.9-2.4,10.4,7.6,10.4l-0.1,0.5h-21.8l0.1-0.5
		c9.5,0,12.6-6.6,13.7-10.4l4.2-15.6L200.1,5c-3.1-3.8-5.8-3.8-7.6-3.9l0.1-0.4h21.9l17,23.6l3.5-12.9C236.3,7,235.6,1,228,1
		l0.1-0.4h20.8L248.8,1c-8.5,0-11.9,5.9-13.1,10.4l-6.2,23.1L222,34.6L222,34.6z"/>
	<path id="_パス_70-2" class="st0" d="M371.6,23.1h0.6l-1.9,9.7c-2.1,0.9-9.4,2.3-16.7,2.3c-14.7,0-26.1-6.5-23.1-17.4
		c3-10.9,17.7-17.4,32.4-17.4c8.9,0,14.1,1.3,15.5,2.2l-3.3,9.7h-0.6c0.6-10-6.8-11.5-11.8-11.5c-7.6,0-11.8,3.8-15.4,17
		c-3.5,13.3-1.1,17,6.3,17C358.3,34.6,366.6,32.7,371.6,23.1L371.6,23.1L371.6,23.1z"/>
	<path id="_パス_71-2" class="st0" d="M421.2,0.8l-2.6,9.8H418c2.5-9.4-16.2-9.4-16.2-9.4h-2.5l-4.3,16.1h5.6
		c0.1,0,7.3,0.1,9.6-5.7h0.6l-3.1,11.8H407c0.8-5.7-6.5-5.7-6.6-5.7h-5.6l-4.4,16.4h2.4c0,0,19.5,0.5,22.1-9h0.6l-2.5,9.4h-40.1
		l0.1-0.5c2.9,0,4.8-2.9,5.6-6.1l5.5-20.7c0.8-3,0.7-6.3-2.3-6.3l0.1-0.4h39.3V0.8z"/>
	<rect y="0.5" class="st3" width="1125.8" height="34.7"/>
</g>
</svg>
