<svg id="グループ_312" data-name="グループ 312" xmlns="http://www.w3.org/2000/svg" xmlns:xlink="http://www.w3.org/1999/xlink" width="77.728" height="95.679" viewBox="0 0 77.728 95.679">
  <defs>
    <clipPath id="clip-path">
      <rect id="長方形_196" data-name="長方形 196" width="77.728" height="95.679" fill="none"/>
    </clipPath>
  </defs>
  <g id="グループ_311" data-name="グループ 311" clip-path="url(#clip-path)">
    <path id="パス_360" data-name="パス 360" d="M72.913,224.479v-4.487h-6.8a3.882,3.882,0,0,0-.067-.389l-5.389-18.1L12.133,219.992H5.309v4.487H.358v10.008H77.864V224.479Z" transform="translate(-0.247 -138.919)" fill="#fff"/>
    <path id="パス_361" data-name="パス 361" d="M72.913,224.479v-4.487h-6.8a3.882,3.882,0,0,0-.067-.389l-5.389-18.1L12.133,219.992H5.309v4.487H.358v10.008H77.864V224.479Z" transform="translate(-0.247 -138.919)" fill="none" stroke="#fff" stroke-miterlimit="10" stroke-width="0.716"/>
    <path id="パス_362" data-name="パス 362" d="M98.741,73.364,76.865,81.7,72.785,95.41,101.99,84.278Z" transform="translate(-50.18 -50.58)" fill="#fff"/>
    <path id="パス_363" data-name="パス 363" d="M98.741,73.364,76.865,81.7,72.785,95.41,101.99,84.278Z" transform="translate(-50.18 -50.58)" fill="none" stroke="#fff" stroke-miterlimit="10" stroke-width="0.716"/>
    <path id="パス_364" data-name="パス 364" d="M89.57,141.486,53.487,155.239l-3.139,10.545,41.722-15.9Z" transform="translate(-34.711 -97.545)" fill="#fff"/>
    <path id="パス_365" data-name="パス 365" d="M89.57,141.486,53.487,155.239l-3.139,10.545,41.722-15.9Z" transform="translate(-34.711 -97.545)" fill="none" stroke="#fff" stroke-miterlimit="10" stroke-width="0.716"/>
    <path id="パス_366" data-name="パス 366" d="M110.393,3.183a3.952,3.952,0,0,0-7.576,0L98.255,18.505l15-5.716Z" transform="translate(-67.74 -0.247)" fill="#fff"/>
    <path id="パス_367" data-name="パス 367" d="M110.393,3.183a3.952,3.952,0,0,0-7.576,0L98.255,18.505l15-5.716Z" transform="translate(-67.74 -0.247)" fill="none" stroke="#fff" stroke-miterlimit="10" stroke-width="0.716"/>
  </g>
</svg>
