<?xml version="1.0" encoding="UTF-8"?>
<svg id="_レイヤー_2" data-name="レイヤー 2" xmlns="http://www.w3.org/2000/svg" viewBox="0 0 19.84 19.84">
  <defs>
    <style>
      .cls-1 {
        fill: #231815;
      }

      .cls-1, .cls-2, .cls-3 {
        stroke-width: 0px;
      }

      .cls-2 {
        fill: none;
      }

      .cls-3 {
        fill: #fff;
      }
    </style>
  </defs>
  <g id="_レイヤー_9" data-name="レイヤー 9">
    <g>
      <circle class="cls-1" cx="9.92" cy="9.92" r="9.92"/>
      <g>
        <path class="cls-3" d="m11.54.56v10.47l-1.47,1.47v6.91c.39,0,.78-.04,1.16-.09v-6.95l2.93-2.93v-3.53c-.55-.08-.98-.55-.98-1.12,0-.63.51-1.13,1.13-1.13s1.13.51,1.13,1.13c0,.57-.43,1.05-.98,1.12v3.66l-2.93,2.93v6.78c4.47-.77,7.87-4.67,7.87-9.36S16.01,1.34,11.54.56Zm5.38,7.21v1.79l-1.47,1.47v3.37c.55.08.98.55.98,1.12,0,.63-.51,1.13-1.13,1.13s-1.13-.51-1.13-1.13c0-.57.43-1.05.98-1.12v-3.5l1.47-1.47v-1.67c-.53-.09-.94-.56-.94-1.12,0-.63.51-1.13,1.13-1.13s1.13.51,1.13,1.13c0,.59-.45,1.07-1.02,1.13Z"/>
        <path class="cls-3" d="m11.23.51v10.39l-1.47,1.47v7.04c-.39,0-.78-.04-1.16-.09V4.12c.57-.06,1.02-.54,1.02-1.13,0-.63-.51-1.13-1.13-1.13s-1.13.51-1.13,1.13c0,.56.41,1.02.94,1.12v7.95l-2.62-2.62v-2.28c.55-.08.98-.55.98-1.12,0-.63-.51-1.13-1.13-1.13s-1.13.51-1.13,1.13c0,.57.43,1.05.98,1.12v2.41l2.93,2.93v6.78c-.93-.16-1.81-.46-2.62-.86v-6.04l-2.93-2.93v-3.42c.55-.08.98-.55.98-1.12s-.45-1.07-1.03-1.13C4.44,1.72,7.03.42,9.92.42c.44,0,.88.03,1.31.09Z"/>
        <path class="cls-3" d="m5.36,12.5v5.75C2.42,16.64.42,13.51.42,9.92c0-1.64.42-3.18,1.15-4.52.16.33.48.57.86.62v3.55l2.93,2.93Z"/>
        <path class="cls-3" d="m3.41,4.89c0,.45-.37.82-.82.82-.4,0-.74-.29-.81-.68.2-.33.42-.65.66-.95.05,0,.1-.01.15-.01.45,0,.82.37.82.82Z"/>
        <path class="cls-3" d="m9.32,3c0,.45-.37.82-.82.82s-.82-.37-.82-.82.37-.82.82-.82.82.37.82.82Z"/>
        <path class="cls-3" d="m6.34,6.04c0,.45-.37.82-.82.82s-.82-.37-.82-.82.37-.82.82-.82.82.37.82.82Z"/>
        <path class="cls-3" d="m15.14,4.79c0,.45-.37.82-.82.82s-.82-.37-.82-.82.37-.82.82-.82.82.37.82.82Z"/>
        <path class="cls-3" d="m17.63,6.65c0,.45-.37.82-.82.82s-.82-.37-.82-.82.37-.82.82-.82.82.37.82.82Z"/>
        <path class="cls-3" d="m16.12,15.53c0,.45-.37.82-.82.82s-.82-.37-.82-.82.37-.82.82-.82.82.37.82.82Z"/>
        <rect class="cls-2" x=".14" y=".14" width="19.56" height="19.56"/>
      </g>
    </g>
  </g>
</svg>