<svg width="26" height="26" viewBox="0 0 26 26" fill="none" xmlns="http://www.w3.org/2000/svg">
<path d="M18.4167 2.16667H7.58342C4.59187 2.16667 2.16675 4.5918 2.16675 7.58334V18.4167C2.16675 21.4082 4.59187 23.8333 7.58342 23.8333H18.4167C21.4083 23.8333 23.8334 21.4082 23.8334 18.4167V7.58334C23.8334 4.5918 21.4083 2.16667 18.4167 2.16667Z" stroke="white" stroke-width="2" stroke-linecap="round" stroke-linejoin="round"/>
<path d="M17.3334 12.3175C17.4671 13.2191 17.3131 14.1399 16.8933 14.9489C16.4735 15.758 15.8093 16.414 14.9952 16.8238C14.181 17.2336 13.2584 17.3762 12.3585 17.2314C11.4586 17.0866 10.6273 16.6618 9.98283 16.0173C9.33833 15.3728 8.91347 14.5415 8.76866 13.6416C8.62386 12.7417 8.76649 11.8191 9.17628 11.0049C9.58606 10.1908 10.2421 9.52656 11.0512 9.10677C11.8602 8.68698 12.781 8.53298 13.6826 8.66667C14.6023 8.80305 15.4537 9.23159 16.1111 9.889C16.7685 10.5464 17.197 11.3978 17.3334 12.3175Z" stroke="white" stroke-width="2" stroke-linecap="round" stroke-linejoin="round"/>
<path d="M18.9583 7.04167H18.9699" stroke="white" stroke-width="2" stroke-linecap="round" stroke-linejoin="round"/>
</svg>
