<?xml version="1.0" encoding="UTF-8"?>
<svg id="_レイヤー_2" data-name="レイヤー 2" xmlns="http://www.w3.org/2000/svg" viewBox="0 0 752.84 100">
  <defs>
    <style>
      .cls-1 {
        fill: #ff0084;
        stroke-width: 0px;
      }
    </style>
  </defs>
  <g id="_レイヤー_2-2" data-name="レイヤー 2">
    <path class="cls-1" d="m281.06,0s3.51,1.54,3.51,6.15v56.92c0,3.79-3.12,7.57-7.64,5.39L206.1,0h0s0,0,0,0v1.23s0,0,0,0v89.54c0,6.15-6.84,9.23-12.37,9.23h39.58s-3.51-1.54-3.51-6.15v-56.92c0-3.79,3.11-7.57,7.64-5.39l70.83,68.47V9.23c0-6.15,6.84-9.23,12.37-9.23h-39.58Z"/>
    <g>
      <path class="cls-1" d="m362.51,0h-34.84s2,0,2,3.08v36.92c0,6.15-6.28,13.85-6.28,13.85l25.13-24.62V7.69c0-7.69,13.99-7.69,13.99-7.69Z"/>
      <path class="cls-1" d="m409.04,3.08v36.92c0,6.15-6.28,13.85-6.28,13.85l25.13-24.62V7.69c0-7.69,13.99-7.69,13.99-7.69h-34.84s2,0,2,3.08Z"/>
      <path class="cls-1" d="m386.64,96.92V7.69c0-7.69,17.3-7.69,17.3-7.69h-39.31s1.89,0,1.89,3.08v89.23c0,7.69-17.3,7.69-17.3,7.69h39.31s-1.89,0-1.89-3.08Z"/>
    </g>
    <g>
      <path class="cls-1" d="m673.47,0h-34.84s2,0,2,3.08v36.92c0,6.15-6.28,13.85-6.28,13.85l25.13-24.62V7.69c0-7.69,13.99-7.69,13.99-7.69Z"/>
      <path class="cls-1" d="m720,3.08v36.92c0,6.15-6.28,13.85-6.28,13.85l25.13-24.62V7.69c0-7.69,13.99-7.69,13.99-7.69h-34.84s2,0,2,3.08Z"/>
      <path class="cls-1" d="m697.61,96.92V7.69c0-7.69,17.3-7.69,17.3-7.69h-39.31s1.89,0,1.89,3.08v89.23c0,7.69-17.3,7.69-17.3,7.69h39.31s-1.89,0-1.89-3.08Z"/>
    </g>
    <g>
      <path class="cls-1" d="m118.39,90.71v-54.46c0-19.32,16.82-36.25,34.78-36.25h-23.05c-10.29,0-36.45,12.31-36.45,36.92v54.19c0,8.88-10.06,8.88-10.06,8.88h43.04s-8.26-.12-8.26-9.29Z"/>
      <path class="cls-1" d="m162.76,9.29v54.46c0,19.32-16.82,36.25-34.78,36.25h23.05c10.29,0,36.45-12.31,36.45-36.92V8.88c0-8.88,10.06-8.88,10.06-8.88h-43.04s8.26.12,8.26,9.29Z"/>
    </g>
    <path class="cls-1" d="m477.51,52.28v41.57c0,4.62,1.32,6.15,3.03,6.15h-41.22s15.79-3.08,15.79-15.38V6.15c0-4.62-3.03-6.15-3.03-6.15h81.42s-5.82.8-5.82,3.26v90.59c0,4.62,1.32,6.15,3.03,6.15h-34.38s8.95-1.07,8.95-15.38v-32.34h-27.77Zm0-4.55h27.77V4.55h-11.98c-4.79,0-15.79.85-15.79,10.83v32.34Z"/>
    <path class="cls-1" d="m59.45,4.75c-17.94,0-34.75,12.16-34.75,31.47v27.57c0,19.31,16.81,31.47,34.75,31.47h19.59s-5.86.64-5.86,3.1c0,.46.05,1.41,1.4,1.65h-38.17C26.13,100,0,87.7,0,63.11v-26.21C0,12.3,26.13,0,36.42,0h41.04s-5.86.64-5.86,3.1c0,.46.05,1.41,1.4,1.65h-13.55Z"/>
    <path class="cls-1" d="m607.96,4.75c-17.94,0-34.75,12.16-34.75,31.47v27.57c0,19.31,16.81,31.47,34.75,31.47h19.59s-5.86.64-5.86,3.1c0,.46.05,1.41,1.4,1.65h-38.17c-10.28,0-36.42-12.3-36.42-36.89v-26.21c0-24.6,26.13-36.89,36.42-36.89h41.04s-5.86.64-5.86,3.1c0,.46.05,1.41,1.4,1.65h-13.55Z"/>
  </g>
</svg>