<?xml version="1.0" encoding="UTF-8"?>
<svg id="_レイヤー_1" data-name="レイヤー_1" xmlns="http://www.w3.org/2000/svg" viewBox="0 0 400 400">
  <path d="M168.02,45.25s25.64,33.25,8.48,52.28c-24.09,26.72-54.13,40.48-77.72,73.48-11.28,15.78-31.46,53.48,36.03,30.38,68.47-23.43,100.73-26.56,120.25-18.88,13.43,5.28,20.4,21.78-19.92,54.92-39.55,32.5-99.87,69.59-50.59,92.52,0,0-30.2-15.6,7.5-30.35,16.75-6.55,13.08-10.14,22.49-22.01,6.8-8.58,13.15.44,14.98,7.55,5.08,19.85-3.02,46.51-34.39,46.43,0,0,45.94,4.4,63.55-31.69,7.52-15.42,5.53-20.84-8.69-37.73-22.61-26.85,18.5-53.24,60.76-50.87,0,0-56.94-4.52-1.41-18.37,32.57-8.12-46.73-32.98-99.62-35.33-51.92-2.31-32.4-23.05,9.89-44.51-53.33,20.57-72.07-28.26,57.23-45.22,0,0-83.17,9.59-108.8-22.61Z"/>
  <path d="M100.09,214.45s14.17,10.19,42.12-.12c48.32-17.82,84.51-27.76,100.07-19.3,11.12,6.04,5.81,14.94-36.98,41.24-33.61,20.66-44.96,35.64-49.26,48.72-4.49,13.67,6.64,28.63,6.64,28.63,0,0-21.3-22.02-4.92-50.14,8.93-15.34,7.01-24.05.77-29.13-16.82-13.71-47.89-11.16-58.45-19.91Z"/>
</svg>