<?xml version="1.0" encoding="UTF-8"?>
<svg id="_レイヤー_1" data-name="レイヤー_1" xmlns="http://www.w3.org/2000/svg" viewBox="0 0 1400 400">
  <defs>
    <style>
      .cls-1 {
        fill: none;
        stroke: #000;
        stroke-miterlimit: 10;
      }
    </style>
  </defs>
  <path class="cls-1" d="M166.67,131.66h-22.52s4.15,2.1,4.15,8.41v107.24c0,16.82-21.58,21.03-21.58,21.03h56.35s-4.15-2.1-4.15-8.41v-107.24c0-16.82,21.58-21.03,21.58-21.03h-33.83Z"/>
  <path class="cls-1" d="M626.67,131.66h-22.52s4.15,2.1,4.15,8.41v107.24c0,16.82-21.58,21.03-21.58,21.03h56.35s-4.15-2.1-4.15-8.41v-107.24c0-16.82,21.58-21.03,21.58-21.03h-33.83Z"/>
  <path class="cls-1" d="M895.56,131.66h-22.52s4.15,2.1,4.15,8.41v107.24c0,16.82-21.59,21.03-21.59,21.03h56.35s-4.15-2.1-4.15-8.41v-107.24c0-16.82,21.58-21.03,21.58-21.03h-33.83Z"/>
  <path class="cls-1" d="M370.05,198.95h-77.11s39.95,2.1,39.95,8.41v49.16c0,7.26-.43,7.32-35.76,7.32-33.36,0-33.64-.08-33.64-6.56v-91.98c0-12.62,10.76-33.65,40.08-33.65h-33.67c-10.61,0-40.05,8.41-40.05,33.65v88.32c0,8.41-13.54,14.72-21.2,14.72h161.4s-3.51,0-3.51-4.21v-60.98c0-2.1.72-4.21,3.51-4.21Z"/>
  <path class="cls-1" d="M342.08,131.66h-15.71s1.91,0,1.91,1.98v25.73c0,5.94-8.01,5.94-8.01,5.94h48.84s-1.91,0-1.91-1.98v-25.73c0-5.94,8.01-5.94,8.01-5.94h-33.13Z"/>
  <path class="cls-1" d="M520.41,140.07v77.81c0,5.18-4.26,10.34-10.44,7.37l-96.81-93.59h0s0,0,0,0v1.68s0,0,0,0v122.38c0,8.41-9.34,12.62-16.9,12.62h54.1s-4.8-2.1-4.8-8.41v-77.81c0-5.18,4.26-10.34,10.44-7.37l96.82,93.59v-124.07c0-8.41,9.34-12.62,16.9-12.62h-54.1s4.8,2.1,4.8,8.41Z"/>
  <path class="cls-1" d="M1219.18,131.66s4.8,2.1,4.8,8.41v77.81c0,5.18-4.26,10.34-10.44,7.37l-96.81-93.59h0s0,0,0,0v1.68s0,0,0,0v122.38c0,8.41-9.34,12.62-16.9,12.62h54.1s-4.8-2.1-4.8-8.41v-77.81c0-5.18,4.26-10.34,10.44-7.37l96.82,93.59v-124.07c0-8.41,9.34-12.62,16.9-12.62h-54.1Z"/>
  <path class="cls-1" d="M735.65,131.66h-47.61s2.73,0,2.73,4.21v50.47c0,8.41-8.59,18.93-8.59,18.93l34.34-33.65v-29.44c0-10.51,19.13-10.51,19.13-10.51Z"/>
  <path class="cls-1" d="M799.24,135.86v50.47c0,8.41-8.59,18.93-8.59,18.93l34.34-33.65v-29.44c0-10.51,19.13-10.51,19.13-10.51h-47.61s2.73,0,2.73,4.21Z"/>
  <path class="cls-1" d="M768.63,264.14v-121.96c0-10.51,23.64-10.51,23.64-10.51h-53.73s2.59,0,2.59,4.21v121.96c0,10.51-23.64,10.51-23.64,10.51h53.73s-2.59,0-2.59-4.21Z"/>
  <path class="cls-1" d="M986.67,255.64v-74.44c0-26.41,22.99-49.54,47.54-49.54h-31.51c-14.07,0-49.81,16.82-49.81,50.47v74.08c0,12.14-13.75,12.14-13.75,12.14h58.83s-11.29-.16-11.29-12.7Z"/>
  <path class="cls-1" d="M1047.31,144.36v74.44c0,26.41-22.99,49.54-47.54,49.54h31.51c14.07,0,49.81-16.82,49.81-50.47v-74.08c0-12.14,13.75-12.14,13.75-12.14h-58.83s11.29.16,11.29,12.7Z"/>
</svg>