<?xml version="1.0" encoding="UTF-8"?>
<svg id="_レイヤー_1" data-name="レイヤー_1" xmlns="http://www.w3.org/2000/svg" viewBox="0 0 1400 400">
  <defs>
    <style>
      .cls-1 {
        fill: none;
        stroke: #000;
        stroke-miterlimit: 10;
      }
    </style>
  </defs>
  <path class="cls-1" d="M219.07,45.25s25.64,33.25,8.48,52.28c-24.09,26.72-54.13,40.48-77.72,73.48-11.28,15.78-31.46,53.48,36.03,30.38,68.47-23.43,100.73-26.56,120.25-18.88,13.43,5.28,20.4,21.78-19.92,54.92-39.55,32.5-99.87,69.59-50.59,92.52,0,0-30.2-15.6,7.5-30.35,16.75-6.55,13.08-10.14,22.49-22.01,6.8-8.58,13.15.44,14.98,7.55,5.08,19.85-3.02,46.51-34.39,46.43,0,0,45.94,4.4,63.55-31.69,7.52-15.42,5.53-20.84-8.69-37.73-22.61-26.85,18.5-53.24,60.76-50.87,0,0-56.94-4.52-1.41-18.37,32.57-8.12-46.73-32.98-99.62-35.33-51.92-2.31-32.4-23.05,9.89-44.51-53.33,20.57-72.07-28.26,57.23-45.22,0,0-83.17,9.59-108.8-22.61Z"/>
  <path class="cls-1" d="M151.14,214.45s14.17,10.19,42.12-.12c48.32-17.82,84.51-27.76,100.07-19.3,11.12,6.04,5.81,14.94-36.98,41.24-33.61,20.66-44.96,35.64-49.26,48.72-4.49,13.67,6.64,28.63,6.64,28.63,0,0-21.3-22.02-4.92-50.14,8.93-15.34,7.01-24.05.77-29.13-16.82-13.71-47.89-11.16-58.45-19.91Z"/>
  <g>
    <path class="cls-1" d="M465.73,176.4h-16.2s2.98,1.51,2.98,6.05v77.17c0,12.11-15.53,15.13-15.53,15.13h40.54s-2.98-1.51-2.98-6.05v-77.17c0-12.11,15.53-15.13,15.53-15.13h-24.34Z"/>
    <path class="cls-1" d="M796.73,176.4h-16.2s2.98,1.51,2.98,6.05v77.17c0,12.11-15.53,15.13-15.53,15.13h40.55s-2.98-1.51-2.98-6.05v-77.17c0-12.11,15.53-15.13,15.53-15.13h-24.34Z"/>
    <path class="cls-1" d="M990.21,176.4h-16.2s2.98,1.51,2.98,6.05v77.17c0,12.11-15.53,15.13-15.53,15.13h40.55s-2.98-1.51-2.98-6.05v-77.17c0-12.11,15.53-15.13,15.53-15.13h-24.34Z"/>
    <path class="cls-1" d="M612.07,224.82h-55.49s28.75,1.51,28.75,6.05v35.37c0,5.22-.31,5.27-25.73,5.27-24,0-24.21-.06-24.21-4.72v-66.19c0-9.08,7.74-24.21,28.84-24.21h-24.23c-7.63,0-28.82,6.05-28.82,24.21v63.55c0,6.05-9.74,10.59-15.26,10.59h116.14s-2.53,0-2.53-3.03v-43.88c0-1.51.51-3.03,2.53-3.03Z"/>
    <path class="cls-1" d="M591.95,176.4h-11.3s1.38,0,1.38,1.42v18.51c0,4.27-5.77,4.27-5.77,4.27h35.14s-1.38,0-1.38-1.42v-18.51c0-4.27,5.77-4.27,5.77-4.27h-23.84Z"/>
    <path class="cls-1" d="M720.26,182.45v55.99c0,3.73-3.06,7.44-7.51,5.3l-69.66-67.34h0s0,0,0,0v1.21s0,0,0,0v88.06c0,6.05-6.72,9.08-12.16,9.08h38.93s-3.45-1.51-3.45-6.05v-55.99c0-3.73,3.06-7.44,7.51-5.31l69.67,67.34v-89.28c0-6.05,6.72-9.08,12.16-9.08h-38.93s3.45,1.51,3.45,6.05Z"/>
    <path class="cls-1" d="M1223.08,176.4s3.45,1.51,3.45,6.05v55.99c0,3.73-3.06,7.44-7.51,5.3l-69.66-67.34h0s0,0,0,0v1.21s0,0,0,0v88.06c0,6.05-6.72,9.08-12.16,9.08h38.93s-3.45-1.51-3.45-6.05v-55.99c0-3.73,3.06-7.44,7.51-5.31l69.67,67.34v-89.28c0-6.05,6.72-9.08,12.16-9.08h-38.93Z"/>
    <path class="cls-1" d="M875.14,176.4h-34.26s1.96,0,1.96,3.03v36.32c0,6.05-6.18,13.62-6.18,13.62l24.71-24.21v-21.18c0-7.57,13.76-7.57,13.76-7.57Z"/>
    <path class="cls-1" d="M920.9,179.42v36.32c0,6.05-6.18,13.62-6.18,13.62l24.71-24.21v-21.18c0-7.57,13.76-7.57,13.76-7.57h-34.26s1.96,0,1.96,3.03Z"/>
    <path class="cls-1" d="M898.88,271.72v-87.76c0-7.57,17.01-7.57,17.01-7.57h-38.66s1.86,0,1.86,3.03v87.76c0,7.57-17.01,7.57-17.01,7.57h38.66s-1.86,0-1.86-3.03Z"/>
    <path class="cls-1" d="M1055.77,265.61v-53.57c0-19.01,16.55-35.65,34.21-35.65h-22.67c-10.12,0-35.85,12.11-35.85,36.32v53.3c0,8.74-9.9,8.74-9.9,8.74h42.33s-8.13-.12-8.13-9.14Z"/>
    <path class="cls-1" d="M1099.4,185.53v53.57c0,19.01-16.55,35.65-34.21,35.65h22.67c10.12,0,35.85-12.11,35.85-36.32v-53.3c0-8.74,9.9-8.74,9.9-8.74h-42.33s8.13.12,8.13,9.14Z"/>
  </g>
</svg>